M48
; DRILL file {KiCad 5.1.5} date Thu 30 Jan 2020 11:23:42 JST
; FORMAT={-:-/ absolute / inch / decimal}
; #@! TF.CreationDate,2020-01-30T11:23:42+09:00
; #@! TF.GenerationSoftware,Kicad,Pcbnew,5.1.5
FMAT,2
INCH
T1C0.0118
T2C0.0157
T3C0.0197
T4C0.0236
T5C0.0244
T6C0.0335
T7C0.0866
T8C0.1969
T9C0.0472
T10C0.0748
T11C0.1181
T12C0.1614
%
G90
G05
T1
X6.465Y-1.96
X6.465Y-2.0
X6.4867Y-1.9298
T2
X3.465Y-3.37
X3.475Y-4.12
X3.475Y-4.87
X3.505Y-2.62
X3.535Y-2.59
X3.745Y-2.99
X3.745Y-3.74
X3.745Y-4.49
X3.755Y-3.45
X3.855Y-2.99
X3.865Y-3.74
X3.865Y-4.49
X3.865Y-3.34
X4.225Y-3.37
X4.225Y-4.12
X4.225Y-4.87
X4.235Y-2.62
X4.295Y-2.59
X4.295Y-3.34
X4.495Y-2.99
X4.495Y-3.74
X4.495Y-4.49
X4.515Y-3.12
X4.615Y-2.99
X4.615Y-3.74
X4.615Y-4.49
X4.685Y-3.01
X4.975Y-3.37
X4.975Y-4.12
X4.975Y-4.87
X4.985Y-2.62
X5.005Y-2.59
X5.245Y-2.95
X5.245Y-2.99
X5.245Y-3.74
X5.245Y-4.49
X5.265Y-2.72
X5.326Y-2.96
X5.365Y-2.99
X5.365Y-3.74
X5.365Y-4.49
X5.725Y-2.62
X5.725Y-3.37
X5.725Y-4.12
X5.725Y-4.87
X5.755Y-2.59
X5.785Y-2.56
X5.995Y-2.95
X5.995Y-2.99
X5.995Y-3.74
X5.995Y-4.49
X6.025Y-2.63
X6.085Y-2.96
X6.115Y-2.99
X6.115Y-3.74
X6.115Y-4.49
X6.285Y-2.1
X6.475Y-2.62
X6.475Y-3.37
X6.475Y-4.12
X6.475Y-4.87
X6.495Y-2.59
X6.595Y-2.54
X6.635Y-2.53
X6.705Y-2.65
X6.745Y-2.67
X6.745Y-2.95
X6.745Y-2.99
X6.745Y-3.74
X6.745Y-4.49
X6.7778Y-2.6147
X6.865Y-2.99
X6.865Y-3.74
X6.865Y-4.49
X7.065Y-2.24
X7.095Y-2.11
X7.105Y-1.8
X7.115Y-2.55
X7.175Y-2.2
X7.205Y-2.18
X7.225Y-2.62
X7.225Y-4.12
X7.225Y-4.87
X7.225Y-3.37
X7.235Y-2.2
X7.245Y-2.59
X7.255Y-2.28
X7.365Y-2.17
X7.415Y-2.13
X7.435Y-2.81
X7.495Y-2.99
X7.495Y-3.74
X7.495Y-4.49
X7.535Y-2.93
X7.605Y-3.34
X7.615Y-2.99
X7.615Y-3.74
X7.615Y-4.49
X7.825Y-2.29
X7.845Y-1.91
X7.855Y-2.07
X7.975Y-4.12
X7.975Y-4.87
X7.985Y-2.62
X7.985Y-3.37
X8.005Y-2.59
X6.3619Y-1.86
X6.3619Y-1.8935
X6.3619Y-1.9269
X6.3619Y-1.9604
X6.3619Y-1.9939
X6.3619Y-2.0273
X6.3619Y-2.0608
X6.3619Y-2.0943
X6.415Y-1.86
X6.415Y-1.8935
X6.415Y-1.9269
X6.415Y-1.9604
X6.415Y-1.9939
X6.415Y-2.0273
X6.415Y-2.0608
X6.415Y-2.0943
T3
X7.075Y-2.47
X7.335Y-2.41
X7.695Y-2.44
X7.595Y-2.44
X7.015Y-2.53
X7.015Y-2.41
T4
X6.215Y-2.38
X6.225Y-1.67
X6.255Y-1.87
X6.255Y-2.03
X6.315Y-1.57
X6.345Y-2.52
X6.625Y-2.38
X6.6801Y-2.1649
X6.745Y-1.76
X6.745Y-2.54
X6.9175Y-2.3475
X6.935Y-1.96
X7.085Y-2.19
X7.145Y-1.65
X7.155Y-1.57
X7.315Y-2.19
X7.315Y-2.47
X7.375Y-1.81
X7.385Y-1.57
X7.515Y-2.54
X7.535Y-2.13
X7.655Y-2.57
X7.685Y-1.57
X7.925Y-1.57
X7.955Y-2.54
X8.005Y-1.93
X8.005Y-2.17
X8.005Y-2.38
X8.045Y-2.46
T6
X6.6016Y-1.6938
X6.7984Y-1.6938
T7
X3.325Y-3.275
X7.825Y-3.275
X7.825Y-4.775
X3.325Y-4.775
T8
X5.2Y-4.025
X3.7Y-4.775
X3.7Y-3.275
X7.45Y-3.275
X7.45Y-4.775
T9
X7.725Y-1.6291
X7.725Y-1.9046
X7.645Y-1.6291
X7.645Y-1.9046
T10
X6.125Y-2.9
X6.525Y-2.9
X7.625Y-5.15
X8.025Y-5.15
X5.375Y-3.65
X5.775Y-3.65
X7.625Y-4.4
X8.025Y-4.4
X6.125Y-3.65
X6.525Y-3.65
X5.375Y-5.15
X5.775Y-5.15
X3.125Y-4.4
X3.525Y-4.4
X3.125Y-2.9
X3.525Y-2.9
X3.125Y-5.15
X3.525Y-5.15
X5.375Y-4.4
X5.775Y-4.4
X6.875Y-2.9
X7.275Y-2.9
X3.875Y-3.65
X4.275Y-3.65
X7.625Y-2.9
X8.025Y-2.9
X5.375Y-2.9
X5.775Y-2.9
X6.875Y-3.65
X7.275Y-3.65
X3.875Y-2.9
X4.275Y-2.9
X6.125Y-5.15
X6.525Y-5.15
X3.875Y-4.4
X4.275Y-4.4
X6.875Y-4.4
X7.275Y-4.4
X3.875Y-5.15
X4.275Y-5.15
X6.125Y-4.4
X6.525Y-4.4
X4.625Y-3.65
X5.025Y-3.65
X4.625Y-2.9
X5.025Y-2.9
X4.625Y-4.4
X5.025Y-4.4
X4.625Y-5.15
X5.025Y-5.15
X3.125Y-3.65
X3.525Y-3.65
X7.625Y-3.65
X8.025Y-3.65
X6.875Y-5.15
X7.275Y-5.15
T11
X3.925Y-2.8
X3.975Y-2.7
X4.175Y-2.7
X4.225Y-2.8
X6.175Y-5.05
X6.225Y-4.95
X6.425Y-4.95
X6.475Y-5.05
X3.925Y-4.3
X3.975Y-4.2
X4.175Y-4.2
X4.225Y-4.3
X6.925Y-4.3
X6.975Y-4.2
X7.175Y-4.2
X7.225Y-4.3
X3.925Y-5.05
X3.975Y-4.95
X4.175Y-4.95
X4.225Y-5.05
X6.175Y-4.3
X6.225Y-4.2
X6.425Y-4.2
X6.475Y-4.3
X4.675Y-3.55
X4.725Y-3.45
X4.925Y-3.45
X4.975Y-3.55
X4.675Y-2.8
X4.725Y-2.7
X4.925Y-2.7
X4.975Y-2.8
X4.675Y-4.3
X4.725Y-4.2
X4.925Y-4.2
X4.975Y-4.3
X4.675Y-5.05
X4.725Y-4.95
X4.925Y-4.95
X4.975Y-5.05
X3.175Y-3.55
X3.225Y-3.45
X3.425Y-3.45
X3.475Y-3.55
X7.675Y-3.55
X7.725Y-3.45
X7.925Y-3.45
X7.975Y-3.55
X6.925Y-5.05
X6.975Y-4.95
X7.175Y-4.95
X7.225Y-5.05
X6.175Y-2.8
X6.225Y-2.7
X6.425Y-2.7
X6.475Y-2.8
X7.675Y-5.05
X7.725Y-4.95
X7.925Y-4.95
X7.975Y-5.05
X5.425Y-3.55
X5.475Y-3.45
X5.675Y-3.45
X5.725Y-3.55
X7.675Y-4.3
X7.725Y-4.2
X7.925Y-4.2
X7.975Y-4.3
X6.175Y-3.55
X6.225Y-3.45
X6.425Y-3.45
X6.475Y-3.55
X5.425Y-5.05
X5.475Y-4.95
X5.675Y-4.95
X5.725Y-5.05
X3.175Y-4.3
X3.225Y-4.2
X3.425Y-4.2
X3.475Y-4.3
X3.175Y-2.8
X3.225Y-2.7
X3.425Y-2.7
X3.475Y-2.8
X3.175Y-5.05
X3.225Y-4.95
X3.425Y-4.95
X3.475Y-5.05
X5.425Y-4.3
X5.475Y-4.2
X5.675Y-4.2
X5.725Y-4.3
X6.925Y-2.8
X6.975Y-2.7
X7.175Y-2.7
X7.225Y-2.8
X3.925Y-3.55
X3.975Y-3.45
X4.175Y-3.45
X4.225Y-3.55
X7.675Y-2.8
X7.725Y-2.7
X7.925Y-2.7
X7.975Y-2.8
X5.425Y-2.8
X5.475Y-2.7
X5.675Y-2.7
X5.725Y-2.8
X6.925Y-3.55
X6.975Y-3.45
X7.175Y-3.45
X7.225Y-3.55
T12
X5.575Y-2.9
X7.075Y-3.65
X4.075Y-2.9
X6.325Y-5.15
X4.075Y-4.4
X7.075Y-4.4
X4.075Y-5.15
X6.325Y-4.4
X4.825Y-3.65
X4.825Y-2.9
X4.825Y-4.4
X4.825Y-5.15
X3.325Y-3.65
X7.825Y-3.65
X7.075Y-5.15
X6.325Y-2.9
X7.825Y-5.15
X5.575Y-3.65
X7.825Y-4.4
X6.325Y-3.65
X5.575Y-5.15
X3.325Y-4.4
X3.325Y-2.9
X3.325Y-5.15
X5.575Y-4.4
X7.075Y-2.9
X4.075Y-3.65
X7.825Y-2.9
T4
G00X6.5622Y-1.6013
M15
G01X6.5622Y-1.5737
M16
G05
G00X6.8378Y-1.5737
M15
G01X6.8378Y-1.6013
M16
G05
G00X6.2591Y-1.8069
M15
G01X6.2276Y-1.8069
M16
G05
G00X6.2591Y-2.1474
M15
G01X6.2276Y-2.1474
M16
G05
G00X6.4059Y-1.8069
M15
G01X6.3469Y-1.8069
M16
G05
G00X6.4059Y-2.1474
M15
G01X6.3469Y-2.1474
M16
G05
T5
G00X7.6344Y-2.0153
M15
G01X7.6344Y-2.0539
M16
G05
G00X7.7998Y-1.6806
M15
G01X7.7998Y-1.7192
M16
G05
G00X7.7998Y-1.7987
M15
G01X7.7998Y-1.8373
M16
G05
G00X7.7998Y-1.9562
M15
G01X7.7998Y-1.9948
M16
G05
G00X7.5702Y-1.7192
M15
G01X7.5702Y-1.6806
M16
G05
G00X7.5702Y-1.8373
M15
G01X7.5702Y-1.7987
M16
G05
G00X7.5702Y-1.9948
M15
G01X7.5702Y-1.9562
M16
G05
G00X7.7356Y-2.0539
M15
G01X7.7356Y-2.0153
M16
G05
T0
M30
