G04 #@! TF.GenerationSoftware,KiCad,Pcbnew,5.1.5*
G04 #@! TF.CreationDate,2020-01-30T11:23:40+09:00*
G04 #@! TF.ProjectId,ergo42,6572676f-3432-42e6-9b69-6361645f7063,1.0.0-alpha*
G04 #@! TF.SameCoordinates,Original*
G04 #@! TF.FileFunction,Legend,Top*
G04 #@! TF.FilePolarity,Positive*
%FSLAX46Y46*%
G04 Gerber Fmt 4.6, Leading zero omitted, Abs format (unit mm)*
G04 Created by KiCad (PCBNEW 5.1.5) date 2020-01-30 11:23:40*
%MOMM*%
%LPD*%
G04 APERTURE LIST*
%ADD10C,0.400000*%
%ADD11C,0.150000*%
%ADD12C,0.100000*%
%ADD13C,0.120000*%
%ADD14C,0.010000*%
%ADD15C,0.500000*%
%ADD16C,1.000000*%
%ADD17C,3.500000*%
%ADD18C,3.000000*%
%ADD19C,0.800000*%
%ADD20C,0.300000*%
G04 APERTURE END LIST*
D10*
X170307000Y-62230000D02*
X170307000Y-66294000D01*
D11*
X156814047Y-62556380D02*
X156814047Y-61556380D01*
X157052142Y-61556380D01*
X157195000Y-61604000D01*
X157290238Y-61699238D01*
X157337857Y-61794476D01*
X157385476Y-61984952D01*
X157385476Y-62127809D01*
X157337857Y-62318285D01*
X157290238Y-62413523D01*
X157195000Y-62508761D01*
X157052142Y-62556380D01*
X156814047Y-62556380D01*
X158004523Y-61556380D02*
X158195000Y-61556380D01*
X158290238Y-61604000D01*
X158385476Y-61699238D01*
X158433095Y-61889714D01*
X158433095Y-62223047D01*
X158385476Y-62413523D01*
X158290238Y-62508761D01*
X158195000Y-62556380D01*
X158004523Y-62556380D01*
X157909285Y-62508761D01*
X157814047Y-62413523D01*
X157766428Y-62223047D01*
X157766428Y-61889714D01*
X157814047Y-61699238D01*
X157909285Y-61604000D01*
X158004523Y-61556380D01*
X159623571Y-62556380D02*
X159623571Y-61556380D01*
X160195000Y-62556380D01*
X160195000Y-61556380D01*
X160861666Y-61556380D02*
X161052142Y-61556380D01*
X161147380Y-61604000D01*
X161242619Y-61699238D01*
X161290238Y-61889714D01*
X161290238Y-62223047D01*
X161242619Y-62413523D01*
X161147380Y-62508761D01*
X161052142Y-62556380D01*
X160861666Y-62556380D01*
X160766428Y-62508761D01*
X160671190Y-62413523D01*
X160623571Y-62223047D01*
X160623571Y-61889714D01*
X160671190Y-61699238D01*
X160766428Y-61604000D01*
X160861666Y-61556380D01*
X161575952Y-61556380D02*
X162147380Y-61556380D01*
X161861666Y-62556380D02*
X161861666Y-61556380D01*
X163814047Y-62461142D02*
X163766428Y-62508761D01*
X163623571Y-62556380D01*
X163528333Y-62556380D01*
X163385476Y-62508761D01*
X163290238Y-62413523D01*
X163242619Y-62318285D01*
X163195000Y-62127809D01*
X163195000Y-61984952D01*
X163242619Y-61794476D01*
X163290238Y-61699238D01*
X163385476Y-61604000D01*
X163528333Y-61556380D01*
X163623571Y-61556380D01*
X163766428Y-61604000D01*
X163814047Y-61651619D01*
X164433095Y-61556380D02*
X164623571Y-61556380D01*
X164718809Y-61604000D01*
X164814047Y-61699238D01*
X164861666Y-61889714D01*
X164861666Y-62223047D01*
X164814047Y-62413523D01*
X164718809Y-62508761D01*
X164623571Y-62556380D01*
X164433095Y-62556380D01*
X164337857Y-62508761D01*
X164242619Y-62413523D01*
X164195000Y-62223047D01*
X164195000Y-61889714D01*
X164242619Y-61699238D01*
X164337857Y-61604000D01*
X164433095Y-61556380D01*
X165290238Y-62556380D02*
X165290238Y-61556380D01*
X165861666Y-62556380D01*
X165861666Y-61556380D01*
X166337857Y-62556380D02*
X166337857Y-61556380D01*
X166909285Y-62556380D01*
X166909285Y-61556380D01*
X167385476Y-62032571D02*
X167718809Y-62032571D01*
X167861666Y-62556380D02*
X167385476Y-62556380D01*
X167385476Y-61556380D01*
X167861666Y-61556380D01*
X168861666Y-62461142D02*
X168814047Y-62508761D01*
X168671190Y-62556380D01*
X168575952Y-62556380D01*
X168433095Y-62508761D01*
X168337857Y-62413523D01*
X168290238Y-62318285D01*
X168242619Y-62127809D01*
X168242619Y-61984952D01*
X168290238Y-61794476D01*
X168337857Y-61699238D01*
X168433095Y-61604000D01*
X168575952Y-61556380D01*
X168671190Y-61556380D01*
X168814047Y-61604000D01*
X168861666Y-61651619D01*
X169147380Y-61556380D02*
X169718809Y-61556380D01*
X169433095Y-62556380D02*
X169433095Y-61556380D01*
X156909285Y-63206380D02*
X157480714Y-63206380D01*
X157195000Y-64206380D02*
X157195000Y-63206380D01*
X158004523Y-63206380D02*
X158195000Y-63206380D01*
X158290238Y-63254000D01*
X158385476Y-63349238D01*
X158433095Y-63539714D01*
X158433095Y-63873047D01*
X158385476Y-64063523D01*
X158290238Y-64158761D01*
X158195000Y-64206380D01*
X158004523Y-64206380D01*
X157909285Y-64158761D01*
X157814047Y-64063523D01*
X157766428Y-63873047D01*
X157766428Y-63539714D01*
X157814047Y-63349238D01*
X157909285Y-63254000D01*
X158004523Y-63206380D01*
X159480714Y-63206380D02*
X160052142Y-63206380D01*
X159766428Y-64206380D02*
X159766428Y-63206380D01*
X160385476Y-64206380D02*
X160385476Y-63206380D01*
X160385476Y-63682571D02*
X160956904Y-63682571D01*
X160956904Y-64206380D02*
X160956904Y-63206380D01*
X161433095Y-63682571D02*
X161766428Y-63682571D01*
X161909285Y-64206380D02*
X161433095Y-64206380D01*
X161433095Y-63206380D01*
X161909285Y-63206380D01*
X163290238Y-63206380D02*
X163480714Y-63206380D01*
X163575952Y-63254000D01*
X163671190Y-63349238D01*
X163718809Y-63539714D01*
X163718809Y-63873047D01*
X163671190Y-64063523D01*
X163575952Y-64158761D01*
X163480714Y-64206380D01*
X163290238Y-64206380D01*
X163195000Y-64158761D01*
X163099761Y-64063523D01*
X163052142Y-63873047D01*
X163052142Y-63539714D01*
X163099761Y-63349238D01*
X163195000Y-63254000D01*
X163290238Y-63206380D01*
X164718809Y-64206380D02*
X164385476Y-63730190D01*
X164147380Y-64206380D02*
X164147380Y-63206380D01*
X164528333Y-63206380D01*
X164623571Y-63254000D01*
X164671190Y-63301619D01*
X164718809Y-63396857D01*
X164718809Y-63539714D01*
X164671190Y-63634952D01*
X164623571Y-63682571D01*
X164528333Y-63730190D01*
X164147380Y-63730190D01*
X165147380Y-64206380D02*
X165147380Y-63206380D01*
X166147380Y-63254000D02*
X166052142Y-63206380D01*
X165909285Y-63206380D01*
X165766428Y-63254000D01*
X165671190Y-63349238D01*
X165623571Y-63444476D01*
X165575952Y-63634952D01*
X165575952Y-63777809D01*
X165623571Y-63968285D01*
X165671190Y-64063523D01*
X165766428Y-64158761D01*
X165909285Y-64206380D01*
X166004523Y-64206380D01*
X166147380Y-64158761D01*
X166195000Y-64111142D01*
X166195000Y-63777809D01*
X166004523Y-63777809D01*
X166623571Y-64206380D02*
X166623571Y-63206380D01*
X167099761Y-64206380D02*
X167099761Y-63206380D01*
X167671190Y-64206380D01*
X167671190Y-63206380D01*
X168099761Y-63920666D02*
X168575952Y-63920666D01*
X168004523Y-64206380D02*
X168337857Y-63206380D01*
X168671190Y-64206380D01*
X169480714Y-64206380D02*
X169004523Y-64206380D01*
X169004523Y-63206380D01*
X160504523Y-65332571D02*
X160837857Y-65332571D01*
X160980714Y-65856380D02*
X160504523Y-65856380D01*
X160504523Y-64856380D01*
X160980714Y-64856380D01*
X161980714Y-65856380D02*
X161647380Y-65380190D01*
X161409285Y-65856380D02*
X161409285Y-64856380D01*
X161790238Y-64856380D01*
X161885476Y-64904000D01*
X161933095Y-64951619D01*
X161980714Y-65046857D01*
X161980714Y-65189714D01*
X161933095Y-65284952D01*
X161885476Y-65332571D01*
X161790238Y-65380190D01*
X161409285Y-65380190D01*
X162933095Y-64904000D02*
X162837857Y-64856380D01*
X162695000Y-64856380D01*
X162552142Y-64904000D01*
X162456904Y-64999238D01*
X162409285Y-65094476D01*
X162361666Y-65284952D01*
X162361666Y-65427809D01*
X162409285Y-65618285D01*
X162456904Y-65713523D01*
X162552142Y-65808761D01*
X162695000Y-65856380D01*
X162790238Y-65856380D01*
X162933095Y-65808761D01*
X162980714Y-65761142D01*
X162980714Y-65427809D01*
X162790238Y-65427809D01*
X163599761Y-64856380D02*
X163790238Y-64856380D01*
X163885476Y-64904000D01*
X163980714Y-64999238D01*
X164028333Y-65189714D01*
X164028333Y-65523047D01*
X163980714Y-65713523D01*
X163885476Y-65808761D01*
X163790238Y-65856380D01*
X163599761Y-65856380D01*
X163504523Y-65808761D01*
X163409285Y-65713523D01*
X163361666Y-65523047D01*
X163361666Y-65189714D01*
X163409285Y-64999238D01*
X163504523Y-64904000D01*
X163599761Y-64856380D01*
X164885476Y-65189714D02*
X164885476Y-65856380D01*
X164647380Y-64808761D02*
X164409285Y-65523047D01*
X165028333Y-65523047D01*
X165361666Y-64951619D02*
X165409285Y-64904000D01*
X165504523Y-64856380D01*
X165742619Y-64856380D01*
X165837857Y-64904000D01*
X165885476Y-64951619D01*
X165933095Y-65046857D01*
X165933095Y-65142095D01*
X165885476Y-65284952D01*
X165314047Y-65856380D01*
X165933095Y-65856380D01*
D10*
X170307000Y-66294000D02*
X156337000Y-66294000D01*
X169291000Y-60960000D02*
X156337000Y-60960000D01*
X156337000Y-66294000D02*
X156337000Y-60960000D01*
D11*
X177165000Y-65786000D02*
X177673000Y-66294000D01*
X177165000Y-65278000D02*
X177165000Y-65786000D01*
X177673000Y-64770000D02*
X177165000Y-65278000D01*
X180213000Y-63246000D02*
X181483000Y-64516000D01*
X179705000Y-61214000D02*
X181229000Y-62738000D01*
X179170949Y-61214000D02*
X179705000Y-61214000D01*
X178641416Y-66981347D02*
X177934309Y-66274240D01*
X178203683Y-66004866D01*
X178304698Y-65971194D01*
X178372042Y-65971194D01*
X178473057Y-66004866D01*
X178574072Y-66105881D01*
X178607744Y-66206896D01*
X178607744Y-66274240D01*
X178574072Y-66375255D01*
X178304698Y-66644629D01*
X179348522Y-66274240D02*
X178641416Y-65567133D01*
X178809774Y-65398774D01*
X178944461Y-65331431D01*
X179079148Y-65331431D01*
X179180164Y-65365103D01*
X179348522Y-65466118D01*
X179449538Y-65567133D01*
X179550553Y-65735492D01*
X179584225Y-65836507D01*
X179584225Y-65971194D01*
X179516881Y-66105881D01*
X179348522Y-66274240D01*
X179281179Y-64927370D02*
X179718912Y-64489637D01*
X179752583Y-64994713D01*
X179853599Y-64893698D01*
X179954614Y-64860026D01*
X180021957Y-64860026D01*
X180122973Y-64893698D01*
X180291331Y-65062057D01*
X180325003Y-65163072D01*
X180325003Y-65230416D01*
X180291331Y-65331431D01*
X180089301Y-65533461D01*
X179988286Y-65567133D01*
X179920942Y-65567133D01*
X181689416Y-66473347D02*
X180982309Y-65766240D01*
X181251683Y-65496866D01*
X181352698Y-65463194D01*
X181420042Y-65463194D01*
X181521057Y-65496866D01*
X181622072Y-65597881D01*
X181655744Y-65698896D01*
X181655744Y-65766240D01*
X181622072Y-65867255D01*
X181352698Y-66136629D01*
X182396522Y-65766240D02*
X181689416Y-65059133D01*
X181857774Y-64890774D01*
X181992461Y-64823431D01*
X182127148Y-64823431D01*
X182228164Y-64857103D01*
X182396522Y-64958118D01*
X182497538Y-65059133D01*
X182598553Y-65227492D01*
X182632225Y-65328507D01*
X182632225Y-65463194D01*
X182564881Y-65597881D01*
X182396522Y-65766240D01*
X182430194Y-64453042D02*
X182430194Y-64385698D01*
X182463866Y-64284683D01*
X182632225Y-64116324D01*
X182733240Y-64082652D01*
X182800583Y-64082652D01*
X182901599Y-64116324D01*
X182968942Y-64183668D01*
X183036286Y-64318355D01*
X183036286Y-65126477D01*
X183474018Y-64688744D01*
X181943416Y-63933347D02*
X181236309Y-63226240D01*
X181505683Y-62956866D01*
X181606698Y-62923194D01*
X181674042Y-62923194D01*
X181775057Y-62956866D01*
X181876072Y-63057881D01*
X181909744Y-63158896D01*
X181909744Y-63226240D01*
X181876072Y-63327255D01*
X181606698Y-63596629D01*
X182650522Y-63226240D02*
X181943416Y-62519133D01*
X182111774Y-62350774D01*
X182246461Y-62283431D01*
X182381148Y-62283431D01*
X182482164Y-62317103D01*
X182650522Y-62418118D01*
X182751538Y-62519133D01*
X182852553Y-62687492D01*
X182886225Y-62788507D01*
X182886225Y-62923194D01*
X182818881Y-63057881D01*
X182650522Y-63226240D01*
X183728018Y-62148744D02*
X183323957Y-62552805D01*
X183525988Y-62350774D02*
X182818881Y-61643668D01*
X182852553Y-61812026D01*
X182852553Y-61946713D01*
X182818881Y-62047729D01*
X172847000Y-64897000D02*
X172085000Y-64897000D01*
X172847000Y-62865000D02*
X172847000Y-64897000D01*
X187531416Y-60631347D02*
X186824309Y-59924240D01*
X187093683Y-59654866D01*
X187194698Y-59621194D01*
X187262042Y-59621194D01*
X187363057Y-59654866D01*
X187464072Y-59755881D01*
X187497744Y-59856896D01*
X187497744Y-59924240D01*
X187464072Y-60025255D01*
X187194698Y-60294629D01*
X188238522Y-59924240D02*
X187531416Y-59217133D01*
X187699774Y-59048774D01*
X187834461Y-58981431D01*
X187969148Y-58981431D01*
X188070164Y-59015103D01*
X188238522Y-59116118D01*
X188339538Y-59217133D01*
X188440553Y-59385492D01*
X188474225Y-59486507D01*
X188474225Y-59621194D01*
X188406881Y-59755881D01*
X188238522Y-59924240D01*
X188777270Y-58442683D02*
X189248675Y-58914087D01*
X188339538Y-58341668D02*
X188676255Y-59015103D01*
X189113988Y-58577370D01*
X197485095Y-61476000D02*
X197389857Y-61428380D01*
X197247000Y-61428380D01*
X197104142Y-61476000D01*
X197008904Y-61571238D01*
X196961285Y-61666476D01*
X196913666Y-61856952D01*
X196913666Y-61999809D01*
X196961285Y-62190285D01*
X197008904Y-62285523D01*
X197104142Y-62380761D01*
X197247000Y-62428380D01*
X197342238Y-62428380D01*
X197485095Y-62380761D01*
X197532714Y-62333142D01*
X197532714Y-61999809D01*
X197342238Y-61999809D01*
X197961285Y-62428380D02*
X197961285Y-61428380D01*
X198532714Y-62428380D01*
X198532714Y-61428380D01*
X199008904Y-62428380D02*
X199008904Y-61428380D01*
X199247000Y-61428380D01*
X199389857Y-61476000D01*
X199485095Y-61571238D01*
X199532714Y-61666476D01*
X199580333Y-61856952D01*
X199580333Y-61999809D01*
X199532714Y-62190285D01*
X199485095Y-62285523D01*
X199389857Y-62380761D01*
X199247000Y-62428380D01*
X199008904Y-62428380D01*
X189039666Y-61682380D02*
X189373000Y-62682380D01*
X189706333Y-61682380D01*
X190611095Y-62587142D02*
X190563476Y-62634761D01*
X190420619Y-62682380D01*
X190325380Y-62682380D01*
X190182523Y-62634761D01*
X190087285Y-62539523D01*
X190039666Y-62444285D01*
X189992047Y-62253809D01*
X189992047Y-62110952D01*
X190039666Y-61920476D01*
X190087285Y-61825238D01*
X190182523Y-61730000D01*
X190325380Y-61682380D01*
X190420619Y-61682380D01*
X190563476Y-61730000D01*
X190611095Y-61777619D01*
X191611095Y-62587142D02*
X191563476Y-62634761D01*
X191420619Y-62682380D01*
X191325380Y-62682380D01*
X191182523Y-62634761D01*
X191087285Y-62539523D01*
X191039666Y-62444285D01*
X190992047Y-62253809D01*
X190992047Y-62110952D01*
X191039666Y-61920476D01*
X191087285Y-61825238D01*
X191182523Y-61730000D01*
X191325380Y-61682380D01*
X191420619Y-61682380D01*
X191563476Y-61730000D01*
X191611095Y-61777619D01*
D12*
G36*
X164973000Y-45466000D02*
G01*
X163703000Y-45466000D01*
X163703000Y-44196000D01*
X164973000Y-45466000D01*
G37*
X164973000Y-45466000D02*
X163703000Y-45466000D01*
X163703000Y-44196000D01*
X164973000Y-45466000D01*
G36*
X182245000Y-46228000D02*
G01*
X180721000Y-44704000D01*
X183769000Y-44704000D01*
X182245000Y-46228000D01*
G37*
X182245000Y-46228000D02*
X180721000Y-44704000D01*
X183769000Y-44704000D01*
X182245000Y-46228000D01*
D11*
X166490238Y-123388380D02*
X166490238Y-122721714D01*
X166490238Y-122816952D02*
X166537857Y-122769333D01*
X166633095Y-122721714D01*
X166775952Y-122721714D01*
X166871190Y-122769333D01*
X166918809Y-122864571D01*
X166918809Y-123388380D01*
X166918809Y-122864571D02*
X166966428Y-122769333D01*
X167061666Y-122721714D01*
X167204523Y-122721714D01*
X167299761Y-122769333D01*
X167347380Y-122864571D01*
X167347380Y-123388380D01*
X167966428Y-123388380D02*
X167871190Y-123340761D01*
X167823571Y-123293142D01*
X167775952Y-123197904D01*
X167775952Y-122912190D01*
X167823571Y-122816952D01*
X167871190Y-122769333D01*
X167966428Y-122721714D01*
X168109285Y-122721714D01*
X168204523Y-122769333D01*
X168252142Y-122816952D01*
X168299761Y-122912190D01*
X168299761Y-123197904D01*
X168252142Y-123293142D01*
X168204523Y-123340761D01*
X168109285Y-123388380D01*
X167966428Y-123388380D01*
X169156904Y-123388380D02*
X169156904Y-122388380D01*
X169156904Y-123340761D02*
X169061666Y-123388380D01*
X168871190Y-123388380D01*
X168775952Y-123340761D01*
X168728333Y-123293142D01*
X168680714Y-123197904D01*
X168680714Y-122912190D01*
X168728333Y-122816952D01*
X168775952Y-122769333D01*
X168871190Y-122721714D01*
X169061666Y-122721714D01*
X169156904Y-122769333D01*
X170061666Y-123388380D02*
X170061666Y-122388380D01*
X170061666Y-123340761D02*
X169966428Y-123388380D01*
X169775952Y-123388380D01*
X169680714Y-123340761D01*
X169633095Y-123293142D01*
X169585476Y-123197904D01*
X169585476Y-122912190D01*
X169633095Y-122816952D01*
X169680714Y-122769333D01*
X169775952Y-122721714D01*
X169966428Y-122721714D01*
X170061666Y-122769333D01*
X170918809Y-123340761D02*
X170823571Y-123388380D01*
X170633095Y-123388380D01*
X170537857Y-123340761D01*
X170490238Y-123245523D01*
X170490238Y-122864571D01*
X170537857Y-122769333D01*
X170633095Y-122721714D01*
X170823571Y-122721714D01*
X170918809Y-122769333D01*
X170966428Y-122864571D01*
X170966428Y-122959809D01*
X170490238Y-123055047D01*
X171823571Y-123388380D02*
X171823571Y-122388380D01*
X171823571Y-123340761D02*
X171728333Y-123388380D01*
X171537857Y-123388380D01*
X171442619Y-123340761D01*
X171395000Y-123293142D01*
X171347380Y-123197904D01*
X171347380Y-122912190D01*
X171395000Y-122816952D01*
X171442619Y-122769333D01*
X171537857Y-122721714D01*
X171728333Y-122721714D01*
X171823571Y-122769333D01*
X173061666Y-123388380D02*
X173061666Y-122388380D01*
X173061666Y-122769333D02*
X173156904Y-122721714D01*
X173347380Y-122721714D01*
X173442619Y-122769333D01*
X173490238Y-122816952D01*
X173537857Y-122912190D01*
X173537857Y-123197904D01*
X173490238Y-123293142D01*
X173442619Y-123340761D01*
X173347380Y-123388380D01*
X173156904Y-123388380D01*
X173061666Y-123340761D01*
X173871190Y-122721714D02*
X174109285Y-123388380D01*
X174347380Y-122721714D02*
X174109285Y-123388380D01*
X174014047Y-123626476D01*
X173966428Y-123674095D01*
X173871190Y-123721714D01*
X175490238Y-123388380D02*
X175490238Y-122388380D01*
X175585476Y-123007428D02*
X175871190Y-123388380D01*
X175871190Y-122721714D02*
X175490238Y-123102666D01*
X176680714Y-123340761D02*
X176585476Y-123388380D01*
X176395000Y-123388380D01*
X176299761Y-123340761D01*
X176252142Y-123245523D01*
X176252142Y-122864571D01*
X176299761Y-122769333D01*
X176395000Y-122721714D01*
X176585476Y-122721714D01*
X176680714Y-122769333D01*
X176728333Y-122864571D01*
X176728333Y-122959809D01*
X176252142Y-123055047D01*
X177061666Y-122721714D02*
X177299761Y-123388380D01*
X177537857Y-122721714D02*
X177299761Y-123388380D01*
X177204523Y-123626476D01*
X177156904Y-123674095D01*
X177061666Y-123721714D01*
X178347380Y-123388380D02*
X178347380Y-122864571D01*
X178299761Y-122769333D01*
X178204523Y-122721714D01*
X178014047Y-122721714D01*
X177918809Y-122769333D01*
X178347380Y-123340761D02*
X178252142Y-123388380D01*
X178014047Y-123388380D01*
X177918809Y-123340761D01*
X177871190Y-123245523D01*
X177871190Y-123150285D01*
X177918809Y-123055047D01*
X178014047Y-123007428D01*
X178252142Y-123007428D01*
X178347380Y-122959809D01*
X178823571Y-123388380D02*
X178823571Y-122388380D01*
X178918809Y-123007428D02*
X179204523Y-123388380D01*
X179204523Y-122721714D02*
X178823571Y-123102666D01*
X179633095Y-123388380D02*
X179633095Y-122721714D01*
X179633095Y-122388380D02*
X179585476Y-122436000D01*
X179633095Y-122483619D01*
X179680714Y-122436000D01*
X179633095Y-122388380D01*
X179633095Y-122483619D01*
X179871190Y-123483619D02*
X180633095Y-123483619D01*
X180871190Y-122721714D02*
X180871190Y-123388380D01*
X180871190Y-122816952D02*
X180918809Y-122769333D01*
X181014047Y-122721714D01*
X181156904Y-122721714D01*
X181252142Y-122769333D01*
X181299761Y-122864571D01*
X181299761Y-123388380D01*
X182204523Y-123388380D02*
X182204523Y-122864571D01*
X182156904Y-122769333D01*
X182061666Y-122721714D01*
X181871190Y-122721714D01*
X181775952Y-122769333D01*
X182204523Y-123340761D02*
X182109285Y-123388380D01*
X181871190Y-123388380D01*
X181775952Y-123340761D01*
X181728333Y-123245523D01*
X181728333Y-123150285D01*
X181775952Y-123055047D01*
X181871190Y-123007428D01*
X182109285Y-123007428D01*
X182204523Y-122959809D01*
X182680714Y-123388380D02*
X182680714Y-122721714D01*
X182680714Y-122816952D02*
X182728333Y-122769333D01*
X182823571Y-122721714D01*
X182966428Y-122721714D01*
X183061666Y-122769333D01*
X183109285Y-122864571D01*
X183109285Y-123388380D01*
X183109285Y-122864571D02*
X183156904Y-122769333D01*
X183252142Y-122721714D01*
X183395000Y-122721714D01*
X183490238Y-122769333D01*
X183537857Y-122864571D01*
X183537857Y-123388380D01*
X184014047Y-123388380D02*
X184014047Y-122721714D01*
X184014047Y-122388380D02*
X183966428Y-122436000D01*
X184014047Y-122483619D01*
X184061666Y-122436000D01*
X184014047Y-122388380D01*
X184014047Y-122483619D01*
X184490238Y-123388380D02*
X184490238Y-122388380D01*
X184585476Y-123007428D02*
X184871190Y-123388380D01*
X184871190Y-122721714D02*
X184490238Y-123102666D01*
X185299761Y-123388380D02*
X185299761Y-122721714D01*
X185299761Y-122388380D02*
X185252142Y-122436000D01*
X185299761Y-122483619D01*
X185347380Y-122436000D01*
X185299761Y-122388380D01*
X185299761Y-122483619D01*
D13*
X179705000Y-63727949D02*
X178715051Y-62738000D01*
X180694949Y-62738000D02*
X179705000Y-63727949D01*
X179705000Y-61748051D02*
X180694949Y-62738000D01*
X178715051Y-62738000D02*
X179705000Y-61748051D01*
X178181000Y-65251949D02*
X177191051Y-64262000D01*
X179170949Y-64262000D02*
X178181000Y-65251949D01*
X178181000Y-63272051D02*
X179170949Y-64262000D01*
X177191051Y-64262000D02*
X178181000Y-63272051D01*
X194753000Y-62676000D02*
X194753000Y-61276000D01*
X196153000Y-62676000D02*
X194753000Y-62676000D01*
X196153000Y-61276000D02*
X196153000Y-62676000D01*
X194753000Y-61276000D02*
X196153000Y-61276000D01*
X186309000Y-62203949D02*
X185319051Y-61214000D01*
X187298949Y-61214000D02*
X186309000Y-62203949D01*
X186309000Y-60224051D02*
X187298949Y-61214000D01*
X185319051Y-61214000D02*
X186309000Y-60224051D01*
X192213000Y-62676000D02*
X192213000Y-61276000D01*
X193613000Y-62676000D02*
X192213000Y-62676000D01*
X193613000Y-61276000D02*
X193613000Y-62676000D01*
X192213000Y-61276000D02*
X193613000Y-61276000D01*
X178181000Y-62203949D02*
X177191051Y-61214000D01*
X179170949Y-61214000D02*
X178181000Y-62203949D01*
X178181000Y-60224051D02*
X179170949Y-61214000D01*
X177191051Y-61214000D02*
X178181000Y-60224051D01*
D14*
G36*
X172327746Y-120183478D02*
G01*
X172373831Y-120206317D01*
X172415101Y-120262863D01*
X172461650Y-120368234D01*
X172523571Y-120537550D01*
X172543280Y-120593476D01*
X172606316Y-120764394D01*
X172660586Y-120896105D01*
X172699027Y-120972322D01*
X172712660Y-120984013D01*
X172736599Y-120934621D01*
X172780832Y-120822159D01*
X172837690Y-120666561D01*
X172867802Y-120580710D01*
X172932725Y-120399837D01*
X172982223Y-120286227D01*
X173026794Y-120223478D01*
X173076933Y-120195190D01*
X173119613Y-120187264D01*
X173206869Y-120188351D01*
X173240805Y-120209161D01*
X173226392Y-120278445D01*
X173185736Y-120412304D01*
X173124738Y-120594747D01*
X173049297Y-120809784D01*
X172965313Y-121041424D01*
X172878686Y-121273676D01*
X172795315Y-121490550D01*
X172721101Y-121676055D01*
X172661943Y-121814201D01*
X172623741Y-121888996D01*
X172618648Y-121895448D01*
X172513968Y-121957904D01*
X172429871Y-121974742D01*
X172350521Y-121959812D01*
X172322436Y-121897326D01*
X172320388Y-121848470D01*
X172343541Y-121742198D01*
X172406920Y-121699570D01*
X172488329Y-121644981D01*
X172545475Y-121562762D01*
X172563092Y-121507582D01*
X172564532Y-121439739D01*
X172546332Y-121344119D01*
X172505031Y-121205611D01*
X172437166Y-121009101D01*
X172386471Y-120868645D01*
X172308759Y-120655059D01*
X172241006Y-120468801D01*
X172189241Y-120326451D01*
X172159495Y-120244590D01*
X172155644Y-120233966D01*
X172176379Y-120191992D01*
X172266754Y-120179225D01*
X172327746Y-120183478D01*
G37*
X172327746Y-120183478D02*
X172373831Y-120206317D01*
X172415101Y-120262863D01*
X172461650Y-120368234D01*
X172523571Y-120537550D01*
X172543280Y-120593476D01*
X172606316Y-120764394D01*
X172660586Y-120896105D01*
X172699027Y-120972322D01*
X172712660Y-120984013D01*
X172736599Y-120934621D01*
X172780832Y-120822159D01*
X172837690Y-120666561D01*
X172867802Y-120580710D01*
X172932725Y-120399837D01*
X172982223Y-120286227D01*
X173026794Y-120223478D01*
X173076933Y-120195190D01*
X173119613Y-120187264D01*
X173206869Y-120188351D01*
X173240805Y-120209161D01*
X173226392Y-120278445D01*
X173185736Y-120412304D01*
X173124738Y-120594747D01*
X173049297Y-120809784D01*
X172965313Y-121041424D01*
X172878686Y-121273676D01*
X172795315Y-121490550D01*
X172721101Y-121676055D01*
X172661943Y-121814201D01*
X172623741Y-121888996D01*
X172618648Y-121895448D01*
X172513968Y-121957904D01*
X172429871Y-121974742D01*
X172350521Y-121959812D01*
X172322436Y-121897326D01*
X172320388Y-121848470D01*
X172343541Y-121742198D01*
X172406920Y-121699570D01*
X172488329Y-121644981D01*
X172545475Y-121562762D01*
X172563092Y-121507582D01*
X172564532Y-121439739D01*
X172546332Y-121344119D01*
X172505031Y-121205611D01*
X172437166Y-121009101D01*
X172386471Y-120868645D01*
X172308759Y-120655059D01*
X172241006Y-120468801D01*
X172189241Y-120326451D01*
X172159495Y-120244590D01*
X172155644Y-120233966D01*
X172176379Y-120191992D01*
X172266754Y-120179225D01*
X172327746Y-120183478D01*
G36*
X174981033Y-119715625D02*
G01*
X175242226Y-119786636D01*
X175451533Y-119923630D01*
X175603734Y-120123233D01*
X175691647Y-120372389D01*
X175723723Y-120594827D01*
X175733377Y-120825612D01*
X175722009Y-121042246D01*
X175691022Y-121222232D01*
X175641815Y-121343072D01*
X175630273Y-121357765D01*
X175528037Y-121420663D01*
X175388473Y-121449708D01*
X175247140Y-121443173D01*
X175139595Y-121399332D01*
X175122230Y-121382430D01*
X175071419Y-121338470D01*
X175018629Y-121360229D01*
X174992988Y-121382430D01*
X174871728Y-121440285D01*
X174714744Y-121449930D01*
X174557633Y-121413995D01*
X174442363Y-121341732D01*
X174390944Y-121282876D01*
X174359119Y-121217281D01*
X174342263Y-121123132D01*
X174335751Y-120978616D01*
X174334871Y-120834743D01*
X174335037Y-120814225D01*
X174553837Y-120814225D01*
X174568689Y-120979256D01*
X174607644Y-121108224D01*
X174622010Y-121132929D01*
X174724345Y-121212559D01*
X174850234Y-121223351D01*
X174965684Y-121162494D01*
X174966743Y-121161441D01*
X175013006Y-121070285D01*
X175033852Y-120909151D01*
X175035561Y-120825493D01*
X175017106Y-120612694D01*
X174959887Y-120474898D01*
X174861121Y-120407256D01*
X174790395Y-120398190D01*
X174676856Y-120437980D01*
X174597440Y-120551036D01*
X174557531Y-120727885D01*
X174553837Y-120814225D01*
X174335037Y-120814225D01*
X174336416Y-120643830D01*
X174344694Y-120517974D01*
X174365170Y-120434654D01*
X174403309Y-120371350D01*
X174462882Y-120307235D01*
X174568268Y-120221650D01*
X174682590Y-120185036D01*
X174792871Y-120179225D01*
X174983022Y-120200578D01*
X175122993Y-120270144D01*
X175218304Y-120396177D01*
X175274477Y-120586933D01*
X175297033Y-120850667D01*
X175298075Y-120934656D01*
X175300840Y-121092472D01*
X175312477Y-121181713D01*
X175338487Y-121221326D01*
X175383921Y-121230259D01*
X175455393Y-121189911D01*
X175498297Y-121073855D01*
X175511464Y-120889572D01*
X175493731Y-120644542D01*
X175485194Y-120580629D01*
X175426560Y-120326986D01*
X175329112Y-120143416D01*
X175184311Y-120017808D01*
X175045041Y-119956161D01*
X174856713Y-119924828D01*
X174650561Y-119937650D01*
X174465293Y-119989993D01*
X174384610Y-120035195D01*
X174265682Y-120146724D01*
X174185227Y-120287227D01*
X174137710Y-120473306D01*
X174117590Y-120721563D01*
X174115974Y-120840593D01*
X174118587Y-121046137D01*
X174129237Y-121187461D01*
X174152014Y-121287843D01*
X174191014Y-121370561D01*
X174216075Y-121409904D01*
X174312168Y-121526720D01*
X174427839Y-121606075D01*
X174584306Y-121657476D01*
X174802791Y-121690429D01*
X174853412Y-121695421D01*
X175018839Y-121714045D01*
X175114420Y-121735732D01*
X175157838Y-121766712D01*
X175166940Y-121805858D01*
X175158271Y-121845962D01*
X175120822Y-121870094D01*
X175037433Y-121882034D01*
X174890943Y-121885562D01*
X174805647Y-121885441D01*
X174612606Y-121877359D01*
X174441513Y-121857450D01*
X174323103Y-121829464D01*
X174312975Y-121825335D01*
X174124857Y-121698469D01*
X173981957Y-121517293D01*
X173943650Y-121435425D01*
X173916839Y-121310647D01*
X173901022Y-121124693D01*
X173895776Y-120903198D01*
X173900675Y-120671792D01*
X173915294Y-120456108D01*
X173939207Y-120281778D01*
X173964300Y-120190369D01*
X174076212Y-119987671D01*
X174223937Y-119847412D01*
X174423037Y-119759133D01*
X174673169Y-119713968D01*
X174981033Y-119715625D01*
G37*
X174981033Y-119715625D02*
X175242226Y-119786636D01*
X175451533Y-119923630D01*
X175603734Y-120123233D01*
X175691647Y-120372389D01*
X175723723Y-120594827D01*
X175733377Y-120825612D01*
X175722009Y-121042246D01*
X175691022Y-121222232D01*
X175641815Y-121343072D01*
X175630273Y-121357765D01*
X175528037Y-121420663D01*
X175388473Y-121449708D01*
X175247140Y-121443173D01*
X175139595Y-121399332D01*
X175122230Y-121382430D01*
X175071419Y-121338470D01*
X175018629Y-121360229D01*
X174992988Y-121382430D01*
X174871728Y-121440285D01*
X174714744Y-121449930D01*
X174557633Y-121413995D01*
X174442363Y-121341732D01*
X174390944Y-121282876D01*
X174359119Y-121217281D01*
X174342263Y-121123132D01*
X174335751Y-120978616D01*
X174334871Y-120834743D01*
X174335037Y-120814225D01*
X174553837Y-120814225D01*
X174568689Y-120979256D01*
X174607644Y-121108224D01*
X174622010Y-121132929D01*
X174724345Y-121212559D01*
X174850234Y-121223351D01*
X174965684Y-121162494D01*
X174966743Y-121161441D01*
X175013006Y-121070285D01*
X175033852Y-120909151D01*
X175035561Y-120825493D01*
X175017106Y-120612694D01*
X174959887Y-120474898D01*
X174861121Y-120407256D01*
X174790395Y-120398190D01*
X174676856Y-120437980D01*
X174597440Y-120551036D01*
X174557531Y-120727885D01*
X174553837Y-120814225D01*
X174335037Y-120814225D01*
X174336416Y-120643830D01*
X174344694Y-120517974D01*
X174365170Y-120434654D01*
X174403309Y-120371350D01*
X174462882Y-120307235D01*
X174568268Y-120221650D01*
X174682590Y-120185036D01*
X174792871Y-120179225D01*
X174983022Y-120200578D01*
X175122993Y-120270144D01*
X175218304Y-120396177D01*
X175274477Y-120586933D01*
X175297033Y-120850667D01*
X175298075Y-120934656D01*
X175300840Y-121092472D01*
X175312477Y-121181713D01*
X175338487Y-121221326D01*
X175383921Y-121230259D01*
X175455393Y-121189911D01*
X175498297Y-121073855D01*
X175511464Y-120889572D01*
X175493731Y-120644542D01*
X175485194Y-120580629D01*
X175426560Y-120326986D01*
X175329112Y-120143416D01*
X175184311Y-120017808D01*
X175045041Y-119956161D01*
X174856713Y-119924828D01*
X174650561Y-119937650D01*
X174465293Y-119989993D01*
X174384610Y-120035195D01*
X174265682Y-120146724D01*
X174185227Y-120287227D01*
X174137710Y-120473306D01*
X174117590Y-120721563D01*
X174115974Y-120840593D01*
X174118587Y-121046137D01*
X174129237Y-121187461D01*
X174152014Y-121287843D01*
X174191014Y-121370561D01*
X174216075Y-121409904D01*
X174312168Y-121526720D01*
X174427839Y-121606075D01*
X174584306Y-121657476D01*
X174802791Y-121690429D01*
X174853412Y-121695421D01*
X175018839Y-121714045D01*
X175114420Y-121735732D01*
X175157838Y-121766712D01*
X175166940Y-121805858D01*
X175158271Y-121845962D01*
X175120822Y-121870094D01*
X175037433Y-121882034D01*
X174890943Y-121885562D01*
X174805647Y-121885441D01*
X174612606Y-121877359D01*
X174441513Y-121857450D01*
X174323103Y-121829464D01*
X174312975Y-121825335D01*
X174124857Y-121698469D01*
X173981957Y-121517293D01*
X173943650Y-121435425D01*
X173916839Y-121310647D01*
X173901022Y-121124693D01*
X173895776Y-120903198D01*
X173900675Y-120671792D01*
X173915294Y-120456108D01*
X173939207Y-120281778D01*
X173964300Y-120190369D01*
X174076212Y-119987671D01*
X174223937Y-119847412D01*
X174423037Y-119759133D01*
X174673169Y-119713968D01*
X174981033Y-119715625D01*
G36*
X171181768Y-120315570D02*
G01*
X171279098Y-120247398D01*
X171438343Y-120185338D01*
X171612834Y-120196135D01*
X171772722Y-120277561D01*
X171781481Y-120284886D01*
X171840798Y-120341973D01*
X171878323Y-120403653D01*
X171900189Y-120491967D01*
X171912529Y-120628956D01*
X171919354Y-120780331D01*
X171924901Y-120969382D01*
X171920887Y-121094572D01*
X171902748Y-121179481D01*
X171865921Y-121247693D01*
X171816927Y-121309670D01*
X171722400Y-121402669D01*
X171621808Y-121442302D01*
X171509451Y-121449225D01*
X171357989Y-121431730D01*
X171255707Y-121385185D01*
X171250585Y-121380407D01*
X171198104Y-121334796D01*
X171182525Y-121354287D01*
X171181768Y-121380407D01*
X171147038Y-121433983D01*
X171050388Y-121449225D01*
X170919009Y-121449225D01*
X170919009Y-120817884D01*
X171181768Y-120817884D01*
X171196460Y-121021168D01*
X171244296Y-121150951D01*
X171330916Y-121216890D01*
X171422630Y-121230259D01*
X171534629Y-121201771D01*
X171594674Y-121161441D01*
X171639948Y-121068047D01*
X171663058Y-120922145D01*
X171664178Y-120755916D01*
X171643479Y-120601544D01*
X171601134Y-120491210D01*
X171591015Y-120478276D01*
X171476271Y-120407349D01*
X171347611Y-120416682D01*
X171261854Y-120470667D01*
X171213730Y-120538781D01*
X171188821Y-120647270D01*
X171181768Y-120817884D01*
X170919009Y-120817884D01*
X170919009Y-119697500D01*
X171181768Y-119697500D01*
X171181768Y-120315570D01*
G37*
X171181768Y-120315570D02*
X171279098Y-120247398D01*
X171438343Y-120185338D01*
X171612834Y-120196135D01*
X171772722Y-120277561D01*
X171781481Y-120284886D01*
X171840798Y-120341973D01*
X171878323Y-120403653D01*
X171900189Y-120491967D01*
X171912529Y-120628956D01*
X171919354Y-120780331D01*
X171924901Y-120969382D01*
X171920887Y-121094572D01*
X171902748Y-121179481D01*
X171865921Y-121247693D01*
X171816927Y-121309670D01*
X171722400Y-121402669D01*
X171621808Y-121442302D01*
X171509451Y-121449225D01*
X171357989Y-121431730D01*
X171255707Y-121385185D01*
X171250585Y-121380407D01*
X171198104Y-121334796D01*
X171182525Y-121354287D01*
X171181768Y-121380407D01*
X171147038Y-121433983D01*
X171050388Y-121449225D01*
X170919009Y-121449225D01*
X170919009Y-120817884D01*
X171181768Y-120817884D01*
X171196460Y-121021168D01*
X171244296Y-121150951D01*
X171330916Y-121216890D01*
X171422630Y-121230259D01*
X171534629Y-121201771D01*
X171594674Y-121161441D01*
X171639948Y-121068047D01*
X171663058Y-120922145D01*
X171664178Y-120755916D01*
X171643479Y-120601544D01*
X171601134Y-120491210D01*
X171591015Y-120478276D01*
X171476271Y-120407349D01*
X171347611Y-120416682D01*
X171261854Y-120470667D01*
X171213730Y-120538781D01*
X171188821Y-120647270D01*
X171181768Y-120817884D01*
X170919009Y-120817884D01*
X170919009Y-119697500D01*
X171181768Y-119697500D01*
X171181768Y-120315570D01*
G36*
X176800611Y-119698487D02*
G01*
X176940064Y-119704335D01*
X177031955Y-119719377D01*
X177096295Y-119747946D01*
X177153095Y-119794375D01*
X177184792Y-119825511D01*
X177285629Y-119978145D01*
X177320374Y-120151394D01*
X177288219Y-120319121D01*
X177203812Y-120441520D01*
X177133888Y-120513061D01*
X177124575Y-120555356D01*
X177170832Y-120597136D01*
X177175880Y-120600685D01*
X177285922Y-120726671D01*
X177338301Y-120892817D01*
X177332158Y-121072615D01*
X177266636Y-121239555D01*
X177199241Y-121321790D01*
X177141604Y-121369022D01*
X177075639Y-121400657D01*
X176982030Y-121420629D01*
X176841463Y-121432877D01*
X176634623Y-121441336D01*
X176608705Y-121442151D01*
X176130388Y-121456974D01*
X176130388Y-120660949D01*
X176349354Y-120660949D01*
X176349354Y-120916409D01*
X176354007Y-121058999D01*
X176366046Y-121163794D01*
X176378549Y-121201064D01*
X176446220Y-121223021D01*
X176567902Y-121229616D01*
X176711576Y-121221905D01*
X176845219Y-121200945D01*
X176903974Y-121183726D01*
X177028865Y-121114629D01*
X177084879Y-121016876D01*
X177093166Y-120934656D01*
X177059766Y-120802009D01*
X176955635Y-120713780D01*
X176778051Y-120668345D01*
X176634009Y-120660949D01*
X176349354Y-120660949D01*
X176130388Y-120660949D01*
X176130388Y-120291729D01*
X176351630Y-120291729D01*
X176373657Y-120387104D01*
X176440027Y-120431195D01*
X176567146Y-120439583D01*
X176678250Y-120434033D01*
X176833136Y-120417157D01*
X176955319Y-120391093D01*
X177013427Y-120364737D01*
X177053874Y-120275021D01*
X177062044Y-120149667D01*
X177038188Y-120034359D01*
X177011378Y-119991644D01*
X176937880Y-119962066D01*
X176800487Y-119943252D01*
X176664682Y-119938363D01*
X176371250Y-119938363D01*
X176357539Y-120129493D01*
X176351630Y-120291729D01*
X176130388Y-120291729D01*
X176130388Y-119697500D01*
X176593585Y-119697500D01*
X176800611Y-119698487D01*
G37*
X176800611Y-119698487D02*
X176940064Y-119704335D01*
X177031955Y-119719377D01*
X177096295Y-119747946D01*
X177153095Y-119794375D01*
X177184792Y-119825511D01*
X177285629Y-119978145D01*
X177320374Y-120151394D01*
X177288219Y-120319121D01*
X177203812Y-120441520D01*
X177133888Y-120513061D01*
X177124575Y-120555356D01*
X177170832Y-120597136D01*
X177175880Y-120600685D01*
X177285922Y-120726671D01*
X177338301Y-120892817D01*
X177332158Y-121072615D01*
X177266636Y-121239555D01*
X177199241Y-121321790D01*
X177141604Y-121369022D01*
X177075639Y-121400657D01*
X176982030Y-121420629D01*
X176841463Y-121432877D01*
X176634623Y-121441336D01*
X176608705Y-121442151D01*
X176130388Y-121456974D01*
X176130388Y-120660949D01*
X176349354Y-120660949D01*
X176349354Y-120916409D01*
X176354007Y-121058999D01*
X176366046Y-121163794D01*
X176378549Y-121201064D01*
X176446220Y-121223021D01*
X176567902Y-121229616D01*
X176711576Y-121221905D01*
X176845219Y-121200945D01*
X176903974Y-121183726D01*
X177028865Y-121114629D01*
X177084879Y-121016876D01*
X177093166Y-120934656D01*
X177059766Y-120802009D01*
X176955635Y-120713780D01*
X176778051Y-120668345D01*
X176634009Y-120660949D01*
X176349354Y-120660949D01*
X176130388Y-120660949D01*
X176130388Y-120291729D01*
X176351630Y-120291729D01*
X176373657Y-120387104D01*
X176440027Y-120431195D01*
X176567146Y-120439583D01*
X176678250Y-120434033D01*
X176833136Y-120417157D01*
X176955319Y-120391093D01*
X177013427Y-120364737D01*
X177053874Y-120275021D01*
X177062044Y-120149667D01*
X177038188Y-120034359D01*
X177011378Y-119991644D01*
X176937880Y-119962066D01*
X176800487Y-119943252D01*
X176664682Y-119938363D01*
X176371250Y-119938363D01*
X176357539Y-120129493D01*
X176351630Y-120291729D01*
X176130388Y-120291729D01*
X176130388Y-119697500D01*
X176593585Y-119697500D01*
X176800611Y-119698487D01*
G36*
X177925906Y-121449225D02*
G01*
X177706940Y-121449225D01*
X177706940Y-120179225D01*
X177925906Y-120179225D01*
X177925906Y-121449225D01*
G37*
X177925906Y-121449225D02*
X177706940Y-121449225D01*
X177706940Y-120179225D01*
X177925906Y-120179225D01*
X177925906Y-121449225D01*
G36*
X178852205Y-120185510D02*
G01*
X179037649Y-120246728D01*
X179104959Y-120292600D01*
X179239699Y-120405976D01*
X179239699Y-121437664D01*
X178853370Y-121443034D01*
X178625928Y-121439113D01*
X178468406Y-121420781D01*
X178395514Y-121394073D01*
X178297620Y-121269071D01*
X178257023Y-121103389D01*
X178261846Y-121066359D01*
X178503224Y-121066359D01*
X178525882Y-121176635D01*
X178612037Y-121245655D01*
X178744593Y-121266457D01*
X178906453Y-121232079D01*
X178908400Y-121231343D01*
X178992824Y-121175727D01*
X179020225Y-121077861D01*
X179020733Y-121053985D01*
X179020733Y-120919336D01*
X178768923Y-120932470D01*
X178626559Y-120942802D01*
X178549517Y-120962237D01*
X178515559Y-121001981D01*
X178503224Y-121066359D01*
X178261846Y-121066359D01*
X178278443Y-120938960D01*
X178332948Y-120823198D01*
X178415967Y-120751763D01*
X178546383Y-120715377D01*
X178743073Y-120704762D01*
X178755096Y-120704742D01*
X178903715Y-120701222D01*
X178984379Y-120686710D01*
X179016571Y-120655282D01*
X179020733Y-120623943D01*
X178982921Y-120511587D01*
X178885931Y-120434702D01*
X178754430Y-120403436D01*
X178613086Y-120427941D01*
X178580932Y-120442984D01*
X178477220Y-120461960D01*
X178408638Y-120432450D01*
X178334890Y-120372636D01*
X178337166Y-120321061D01*
X178418839Y-120262240D01*
X178449248Y-120246039D01*
X178645607Y-120184537D01*
X178852205Y-120185510D01*
G37*
X178852205Y-120185510D02*
X179037649Y-120246728D01*
X179104959Y-120292600D01*
X179239699Y-120405976D01*
X179239699Y-121437664D01*
X178853370Y-121443034D01*
X178625928Y-121439113D01*
X178468406Y-121420781D01*
X178395514Y-121394073D01*
X178297620Y-121269071D01*
X178257023Y-121103389D01*
X178261846Y-121066359D01*
X178503224Y-121066359D01*
X178525882Y-121176635D01*
X178612037Y-121245655D01*
X178744593Y-121266457D01*
X178906453Y-121232079D01*
X178908400Y-121231343D01*
X178992824Y-121175727D01*
X179020225Y-121077861D01*
X179020733Y-121053985D01*
X179020733Y-120919336D01*
X178768923Y-120932470D01*
X178626559Y-120942802D01*
X178549517Y-120962237D01*
X178515559Y-121001981D01*
X178503224Y-121066359D01*
X178261846Y-121066359D01*
X178278443Y-120938960D01*
X178332948Y-120823198D01*
X178415967Y-120751763D01*
X178546383Y-120715377D01*
X178743073Y-120704762D01*
X178755096Y-120704742D01*
X178903715Y-120701222D01*
X178984379Y-120686710D01*
X179016571Y-120655282D01*
X179020733Y-120623943D01*
X178982921Y-120511587D01*
X178885931Y-120434702D01*
X178754430Y-120403436D01*
X178613086Y-120427941D01*
X178580932Y-120442984D01*
X178477220Y-120461960D01*
X178408638Y-120432450D01*
X178334890Y-120372636D01*
X178337166Y-120321061D01*
X178418839Y-120262240D01*
X178449248Y-120246039D01*
X178645607Y-120184537D01*
X178852205Y-120185510D01*
G36*
X180167144Y-120188267D02*
G01*
X180358313Y-120215701D01*
X180481631Y-120268174D01*
X180512945Y-120294387D01*
X180571596Y-120360754D01*
X180568265Y-120405812D01*
X180518470Y-120455942D01*
X180454285Y-120502307D01*
X180390362Y-120501687D01*
X180301124Y-120462499D01*
X180148985Y-120419901D01*
X180008906Y-120437773D01*
X179908086Y-120511474D01*
X179895440Y-120531728D01*
X179870385Y-120621174D01*
X179855053Y-120758067D01*
X179852802Y-120833242D01*
X179880686Y-121025388D01*
X179956954Y-121158891D01*
X180070535Y-121226126D01*
X180210355Y-121219464D01*
X180327463Y-121160208D01*
X180406644Y-121115237D01*
X180465963Y-121128955D01*
X180516018Y-121170288D01*
X180571962Y-121226993D01*
X180572192Y-121269611D01*
X180511904Y-121330061D01*
X180488998Y-121349822D01*
X180387868Y-121414485D01*
X180260031Y-121444114D01*
X180135706Y-121449225D01*
X179979995Y-121440919D01*
X179871250Y-121407104D01*
X179769700Y-121334430D01*
X179754959Y-121321438D01*
X179686061Y-121256240D01*
X179643840Y-121196052D01*
X179621765Y-121117721D01*
X179613308Y-120998091D01*
X179611940Y-120814225D01*
X179613224Y-120630497D01*
X179621578Y-120511061D01*
X179643753Y-120432623D01*
X179686501Y-120371891D01*
X179756574Y-120305569D01*
X179760357Y-120302189D01*
X179852658Y-120227305D01*
X179935348Y-120190376D01*
X180043131Y-120181684D01*
X180167144Y-120188267D01*
G37*
X180167144Y-120188267D02*
X180358313Y-120215701D01*
X180481631Y-120268174D01*
X180512945Y-120294387D01*
X180571596Y-120360754D01*
X180568265Y-120405812D01*
X180518470Y-120455942D01*
X180454285Y-120502307D01*
X180390362Y-120501687D01*
X180301124Y-120462499D01*
X180148985Y-120419901D01*
X180008906Y-120437773D01*
X179908086Y-120511474D01*
X179895440Y-120531728D01*
X179870385Y-120621174D01*
X179855053Y-120758067D01*
X179852802Y-120833242D01*
X179880686Y-121025388D01*
X179956954Y-121158891D01*
X180070535Y-121226126D01*
X180210355Y-121219464D01*
X180327463Y-121160208D01*
X180406644Y-121115237D01*
X180465963Y-121128955D01*
X180516018Y-121170288D01*
X180571962Y-121226993D01*
X180572192Y-121269611D01*
X180511904Y-121330061D01*
X180488998Y-121349822D01*
X180387868Y-121414485D01*
X180260031Y-121444114D01*
X180135706Y-121449225D01*
X179979995Y-121440919D01*
X179871250Y-121407104D01*
X179769700Y-121334430D01*
X179754959Y-121321438D01*
X179686061Y-121256240D01*
X179643840Y-121196052D01*
X179621765Y-121117721D01*
X179613308Y-120998091D01*
X179611940Y-120814225D01*
X179613224Y-120630497D01*
X179621578Y-120511061D01*
X179643753Y-120432623D01*
X179686501Y-120371891D01*
X179756574Y-120305569D01*
X179760357Y-120302189D01*
X179852658Y-120227305D01*
X179935348Y-120190376D01*
X180043131Y-120181684D01*
X180167144Y-120188267D01*
G36*
X181534507Y-120190939D02*
G01*
X181651785Y-120232773D01*
X181715205Y-120278628D01*
X181789718Y-120347955D01*
X181802584Y-120392238D01*
X181759395Y-120442557D01*
X181746769Y-120454048D01*
X181681375Y-120501766D01*
X181617426Y-120501930D01*
X181527331Y-120462499D01*
X181375192Y-120419901D01*
X181235113Y-120437773D01*
X181134293Y-120511474D01*
X181121647Y-120531728D01*
X181096592Y-120621174D01*
X181081260Y-120758067D01*
X181079009Y-120833242D01*
X181106892Y-121025388D01*
X181183161Y-121158891D01*
X181296742Y-121226126D01*
X181436561Y-121219464D01*
X181553670Y-121160208D01*
X181632715Y-121115078D01*
X181690937Y-121127803D01*
X181738587Y-121166996D01*
X181802538Y-121237215D01*
X181823492Y-121279715D01*
X181783921Y-121333946D01*
X181681626Y-121385884D01*
X181541233Y-121426811D01*
X181387368Y-121448011D01*
X181344633Y-121449225D01*
X181189675Y-121438337D01*
X181077319Y-121395617D01*
X180983609Y-121323621D01*
X180905878Y-121245252D01*
X180860784Y-121165078D01*
X180836902Y-121053191D01*
X180824512Y-120907144D01*
X180830334Y-120630712D01*
X180888987Y-120422771D01*
X181002714Y-120280313D01*
X181173755Y-120200333D01*
X181367128Y-120179225D01*
X181534507Y-120190939D01*
G37*
X181534507Y-120190939D02*
X181651785Y-120232773D01*
X181715205Y-120278628D01*
X181789718Y-120347955D01*
X181802584Y-120392238D01*
X181759395Y-120442557D01*
X181746769Y-120454048D01*
X181681375Y-120501766D01*
X181617426Y-120501930D01*
X181527331Y-120462499D01*
X181375192Y-120419901D01*
X181235113Y-120437773D01*
X181134293Y-120511474D01*
X181121647Y-120531728D01*
X181096592Y-120621174D01*
X181081260Y-120758067D01*
X181079009Y-120833242D01*
X181106892Y-121025388D01*
X181183161Y-121158891D01*
X181296742Y-121226126D01*
X181436561Y-121219464D01*
X181553670Y-121160208D01*
X181632715Y-121115078D01*
X181690937Y-121127803D01*
X181738587Y-121166996D01*
X181802538Y-121237215D01*
X181823492Y-121279715D01*
X181783921Y-121333946D01*
X181681626Y-121385884D01*
X181541233Y-121426811D01*
X181387368Y-121448011D01*
X181344633Y-121449225D01*
X181189675Y-121438337D01*
X181077319Y-121395617D01*
X180983609Y-121323621D01*
X180905878Y-121245252D01*
X180860784Y-121165078D01*
X180836902Y-121053191D01*
X180824512Y-120907144D01*
X180830334Y-120630712D01*
X180888987Y-120422771D01*
X181002714Y-120280313D01*
X181173755Y-120200333D01*
X181367128Y-120179225D01*
X181534507Y-120190939D01*
G36*
X182732284Y-120192540D02*
G01*
X182849076Y-120243654D01*
X182926134Y-120304829D01*
X183004512Y-120384070D01*
X183049685Y-120465347D01*
X183073380Y-120579067D01*
X183084926Y-120716531D01*
X183081130Y-120998925D01*
X183028931Y-121209090D01*
X182928022Y-121348000D01*
X182873053Y-121384297D01*
X182714790Y-121434128D01*
X182531716Y-121446148D01*
X182361848Y-121420762D01*
X182266541Y-121377812D01*
X182150208Y-121247366D01*
X182072602Y-121056805D01*
X182042555Y-120828337D01*
X182042516Y-120822595D01*
X182305216Y-120822595D01*
X182330110Y-121019241D01*
X182398939Y-121154732D01*
X182502919Y-121222107D01*
X182633270Y-121214402D01*
X182733403Y-121162086D01*
X182789818Y-121108406D01*
X182819402Y-121031154D01*
X182830028Y-120903761D01*
X182830733Y-120833638D01*
X182809266Y-120620815D01*
X182746103Y-120480377D01*
X182643105Y-120414902D01*
X182531335Y-120418689D01*
X182410172Y-120472430D01*
X182338520Y-120572120D01*
X182307890Y-120732921D01*
X182305216Y-120822595D01*
X182042516Y-120822595D01*
X182042457Y-120814225D01*
X182071377Y-120557610D01*
X182157466Y-120366114D01*
X182299721Y-120240929D01*
X182497140Y-120183247D01*
X182577028Y-120179225D01*
X182732284Y-120192540D01*
G37*
X182732284Y-120192540D02*
X182849076Y-120243654D01*
X182926134Y-120304829D01*
X183004512Y-120384070D01*
X183049685Y-120465347D01*
X183073380Y-120579067D01*
X183084926Y-120716531D01*
X183081130Y-120998925D01*
X183028931Y-121209090D01*
X182928022Y-121348000D01*
X182873053Y-121384297D01*
X182714790Y-121434128D01*
X182531716Y-121446148D01*
X182361848Y-121420762D01*
X182266541Y-121377812D01*
X182150208Y-121247366D01*
X182072602Y-121056805D01*
X182042555Y-120828337D01*
X182042516Y-120822595D01*
X182305216Y-120822595D01*
X182330110Y-121019241D01*
X182398939Y-121154732D01*
X182502919Y-121222107D01*
X182633270Y-121214402D01*
X182733403Y-121162086D01*
X182789818Y-121108406D01*
X182819402Y-121031154D01*
X182830028Y-120903761D01*
X182830733Y-120833638D01*
X182809266Y-120620815D01*
X182746103Y-120480377D01*
X182643105Y-120414902D01*
X182531335Y-120418689D01*
X182410172Y-120472430D01*
X182338520Y-120572120D01*
X182307890Y-120732921D01*
X182305216Y-120822595D01*
X182042516Y-120822595D01*
X182042457Y-120814225D01*
X182071377Y-120557610D01*
X182157466Y-120366114D01*
X182299721Y-120240929D01*
X182497140Y-120183247D01*
X182577028Y-120179225D01*
X182732284Y-120192540D01*
G36*
X184196635Y-119703498D02*
G01*
X184232113Y-119717237D01*
X184214841Y-119761962D01*
X184167357Y-119871544D01*
X184096154Y-120031320D01*
X184007726Y-120226622D01*
X183969354Y-120310604D01*
X183875588Y-120518060D01*
X183796601Y-120698071D01*
X183738955Y-120835267D01*
X183709215Y-120914282D01*
X183706595Y-120925868D01*
X183745985Y-120949618D01*
X183846698Y-120964692D01*
X183925561Y-120967500D01*
X184144526Y-120967500D01*
X184144526Y-120398190D01*
X184407285Y-120398190D01*
X184407285Y-120682845D01*
X184411670Y-120842513D01*
X184427341Y-120931256D01*
X184458066Y-120965416D01*
X184472975Y-120967500D01*
X184525807Y-121005570D01*
X184538664Y-121076983D01*
X184515823Y-121165038D01*
X184472975Y-121186466D01*
X184420823Y-121225636D01*
X184407285Y-121317845D01*
X184396434Y-121410901D01*
X184345247Y-121445200D01*
X184275906Y-121449225D01*
X184182850Y-121438373D01*
X184148551Y-121387187D01*
X184144526Y-121317845D01*
X184144526Y-121186466D01*
X183772285Y-121186466D01*
X183592039Y-121185519D01*
X183482036Y-121179200D01*
X183424932Y-121162291D01*
X183403382Y-121129572D01*
X183400044Y-121075827D01*
X183400044Y-121074468D01*
X183417885Y-120997174D01*
X183467103Y-120857406D01*
X183541242Y-120671684D01*
X183633844Y-120456526D01*
X183691061Y-120329985D01*
X183801321Y-120092211D01*
X183883349Y-119922823D01*
X183944733Y-119810285D01*
X183993064Y-119743057D01*
X184035931Y-119709601D01*
X184080924Y-119698379D01*
X184107095Y-119697500D01*
X184196635Y-119703498D01*
G37*
X184196635Y-119703498D02*
X184232113Y-119717237D01*
X184214841Y-119761962D01*
X184167357Y-119871544D01*
X184096154Y-120031320D01*
X184007726Y-120226622D01*
X183969354Y-120310604D01*
X183875588Y-120518060D01*
X183796601Y-120698071D01*
X183738955Y-120835267D01*
X183709215Y-120914282D01*
X183706595Y-120925868D01*
X183745985Y-120949618D01*
X183846698Y-120964692D01*
X183925561Y-120967500D01*
X184144526Y-120967500D01*
X184144526Y-120398190D01*
X184407285Y-120398190D01*
X184407285Y-120682845D01*
X184411670Y-120842513D01*
X184427341Y-120931256D01*
X184458066Y-120965416D01*
X184472975Y-120967500D01*
X184525807Y-121005570D01*
X184538664Y-121076983D01*
X184515823Y-121165038D01*
X184472975Y-121186466D01*
X184420823Y-121225636D01*
X184407285Y-121317845D01*
X184396434Y-121410901D01*
X184345247Y-121445200D01*
X184275906Y-121449225D01*
X184182850Y-121438373D01*
X184148551Y-121387187D01*
X184144526Y-121317845D01*
X184144526Y-121186466D01*
X183772285Y-121186466D01*
X183592039Y-121185519D01*
X183482036Y-121179200D01*
X183424932Y-121162291D01*
X183403382Y-121129572D01*
X183400044Y-121075827D01*
X183400044Y-121074468D01*
X183417885Y-120997174D01*
X183467103Y-120857406D01*
X183541242Y-120671684D01*
X183633844Y-120456526D01*
X183691061Y-120329985D01*
X183801321Y-120092211D01*
X183883349Y-119922823D01*
X183944733Y-119810285D01*
X183993064Y-119743057D01*
X184035931Y-119709601D01*
X184080924Y-119698379D01*
X184107095Y-119697500D01*
X184196635Y-119703498D01*
G36*
X185524712Y-119711089D02*
G01*
X185664339Y-119801138D01*
X185759523Y-119941101D01*
X185783301Y-120022873D01*
X185790900Y-120147262D01*
X185762286Y-120279222D01*
X185690993Y-120433548D01*
X185570559Y-120625037D01*
X185441153Y-120805921D01*
X185334299Y-120955032D01*
X185250950Y-121080142D01*
X185202805Y-121163234D01*
X185195561Y-121184135D01*
X185236855Y-121209314D01*
X185351302Y-121225369D01*
X185502113Y-121230259D01*
X185662269Y-121231869D01*
X185753930Y-121241243D01*
X185796180Y-121265197D01*
X185808106Y-121310548D01*
X185808664Y-121339742D01*
X185808664Y-121449225D01*
X184801423Y-121449225D01*
X184801423Y-121337629D01*
X184830730Y-121245080D01*
X184915855Y-121095691D01*
X185052607Y-120896420D01*
X185130434Y-120791584D01*
X185297931Y-120566230D01*
X185414812Y-120396134D01*
X185486534Y-120269265D01*
X185518553Y-120173597D01*
X185516324Y-120097099D01*
X185485302Y-120027742D01*
X185480370Y-120020038D01*
X185400485Y-119943258D01*
X185323052Y-119916466D01*
X185200171Y-119939621D01*
X185103762Y-119996981D01*
X185064188Y-120070388D01*
X185064181Y-120071283D01*
X185024566Y-120121697D01*
X184928055Y-120135432D01*
X184835403Y-120128276D01*
X184808645Y-120090557D01*
X184821984Y-120015000D01*
X184900089Y-119853148D01*
X185028330Y-119741986D01*
X185187791Y-119681359D01*
X185359557Y-119671111D01*
X185524712Y-119711089D01*
G37*
X185524712Y-119711089D02*
X185664339Y-119801138D01*
X185759523Y-119941101D01*
X185783301Y-120022873D01*
X185790900Y-120147262D01*
X185762286Y-120279222D01*
X185690993Y-120433548D01*
X185570559Y-120625037D01*
X185441153Y-120805921D01*
X185334299Y-120955032D01*
X185250950Y-121080142D01*
X185202805Y-121163234D01*
X185195561Y-121184135D01*
X185236855Y-121209314D01*
X185351302Y-121225369D01*
X185502113Y-121230259D01*
X185662269Y-121231869D01*
X185753930Y-121241243D01*
X185796180Y-121265197D01*
X185808106Y-121310548D01*
X185808664Y-121339742D01*
X185808664Y-121449225D01*
X184801423Y-121449225D01*
X184801423Y-121337629D01*
X184830730Y-121245080D01*
X184915855Y-121095691D01*
X185052607Y-120896420D01*
X185130434Y-120791584D01*
X185297931Y-120566230D01*
X185414812Y-120396134D01*
X185486534Y-120269265D01*
X185518553Y-120173597D01*
X185516324Y-120097099D01*
X185485302Y-120027742D01*
X185480370Y-120020038D01*
X185400485Y-119943258D01*
X185323052Y-119916466D01*
X185200171Y-119939621D01*
X185103762Y-119996981D01*
X185064188Y-120070388D01*
X185064181Y-120071283D01*
X185024566Y-120121697D01*
X184928055Y-120135432D01*
X184835403Y-120128276D01*
X184808645Y-120090557D01*
X184821984Y-120015000D01*
X184900089Y-119853148D01*
X185028330Y-119741986D01*
X185187791Y-119681359D01*
X185359557Y-119671111D01*
X185524712Y-119711089D01*
G36*
X177899762Y-119715588D02*
G01*
X177925443Y-119786807D01*
X177925906Y-119806983D01*
X177907818Y-119890322D01*
X177836599Y-119916004D01*
X177816423Y-119916466D01*
X177733084Y-119898378D01*
X177707402Y-119827159D01*
X177706940Y-119806983D01*
X177725028Y-119723644D01*
X177796247Y-119697963D01*
X177816423Y-119697500D01*
X177899762Y-119715588D01*
G37*
X177899762Y-119715588D02*
X177925443Y-119786807D01*
X177925906Y-119806983D01*
X177907818Y-119890322D01*
X177836599Y-119916004D01*
X177816423Y-119916466D01*
X177733084Y-119898378D01*
X177707402Y-119827159D01*
X177706940Y-119806983D01*
X177725028Y-119723644D01*
X177796247Y-119697963D01*
X177816423Y-119697500D01*
X177899762Y-119715588D01*
G36*
X179547011Y-113840173D02*
G01*
X179559542Y-114285815D01*
X179598429Y-114658707D01*
X179667384Y-114970710D01*
X179770121Y-115233684D01*
X179910353Y-115459489D01*
X180091795Y-115659984D01*
X180126983Y-115692384D01*
X180354593Y-115856007D01*
X180630181Y-115991890D01*
X180914634Y-116081614D01*
X180980475Y-116094333D01*
X181122802Y-116117926D01*
X181122802Y-117768414D01*
X180980475Y-117743664D01*
X180492573Y-117618879D01*
X180026087Y-117422027D01*
X179597179Y-117162052D01*
X179222017Y-116847894D01*
X179072369Y-116688145D01*
X178873668Y-116457991D01*
X178607804Y-116711722D01*
X178167740Y-117072957D01*
X177672798Y-117373273D01*
X177137707Y-117604908D01*
X176644957Y-117745850D01*
X176524526Y-117772273D01*
X176524526Y-116121509D01*
X176745728Y-116070449D01*
X177094671Y-115952153D01*
X177408190Y-115771799D01*
X177672758Y-115540410D01*
X177874849Y-115269008D01*
X177966607Y-115075539D01*
X177999498Y-114978230D01*
X178023444Y-114877882D01*
X178039815Y-114758606D01*
X178049983Y-114604516D01*
X178055319Y-114399723D01*
X178057193Y-114128340D01*
X178057285Y-114024651D01*
X178057285Y-113216121D01*
X179546250Y-113216121D01*
X179547011Y-113840173D01*
G37*
X179547011Y-113840173D02*
X179559542Y-114285815D01*
X179598429Y-114658707D01*
X179667384Y-114970710D01*
X179770121Y-115233684D01*
X179910353Y-115459489D01*
X180091795Y-115659984D01*
X180126983Y-115692384D01*
X180354593Y-115856007D01*
X180630181Y-115991890D01*
X180914634Y-116081614D01*
X180980475Y-116094333D01*
X181122802Y-116117926D01*
X181122802Y-117768414D01*
X180980475Y-117743664D01*
X180492573Y-117618879D01*
X180026087Y-117422027D01*
X179597179Y-117162052D01*
X179222017Y-116847894D01*
X179072369Y-116688145D01*
X178873668Y-116457991D01*
X178607804Y-116711722D01*
X178167740Y-117072957D01*
X177672798Y-117373273D01*
X177137707Y-117604908D01*
X176644957Y-117745850D01*
X176524526Y-117772273D01*
X176524526Y-116121509D01*
X176745728Y-116070449D01*
X177094671Y-115952153D01*
X177408190Y-115771799D01*
X177672758Y-115540410D01*
X177874849Y-115269008D01*
X177966607Y-115075539D01*
X177999498Y-114978230D01*
X178023444Y-114877882D01*
X178039815Y-114758606D01*
X178049983Y-114604516D01*
X178055319Y-114399723D01*
X178057193Y-114128340D01*
X178057285Y-114024651D01*
X178057285Y-113216121D01*
X179546250Y-113216121D01*
X179547011Y-113840173D01*
G36*
X184538664Y-113566466D02*
G01*
X185764871Y-113566466D01*
X185764871Y-114790201D01*
X184560561Y-114814569D01*
X184560561Y-115033535D01*
X185097026Y-115045831D01*
X185633492Y-115058127D01*
X185633492Y-116281638D01*
X184538664Y-116281638D01*
X184538664Y-116500604D01*
X185852457Y-116500604D01*
X185852457Y-117726811D01*
X181297975Y-117726811D01*
X181297975Y-116500604D01*
X183181078Y-116500604D01*
X183181078Y-116281638D01*
X181516940Y-116281638D01*
X181516940Y-115405776D01*
X181363664Y-115405776D01*
X181262321Y-115397276D01*
X181211700Y-115376375D01*
X181210388Y-115371957D01*
X181218824Y-115318219D01*
X181241808Y-115196667D01*
X181275855Y-115025197D01*
X181280287Y-115003529D01*
X182703754Y-115003529D01*
X182726630Y-115039396D01*
X182796200Y-115053174D01*
X182932644Y-115055431D01*
X182937307Y-115055432D01*
X183076047Y-115053355D01*
X183148634Y-115039292D01*
X183176500Y-115001489D01*
X183181076Y-114928194D01*
X183181078Y-114921764D01*
X183181078Y-114788096D01*
X182951164Y-114801333D01*
X182816408Y-114812781D01*
X182745869Y-114835556D01*
X182716191Y-114882463D01*
X182707393Y-114935000D01*
X182703754Y-115003529D01*
X181280287Y-115003529D01*
X181317480Y-114821705D01*
X181318569Y-114816455D01*
X181370253Y-114542421D01*
X181420920Y-114231432D01*
X181463184Y-113930682D01*
X181481168Y-113777343D01*
X181535587Y-113259914D01*
X182874526Y-113259914D01*
X182874526Y-113413190D01*
X182881306Y-113515920D01*
X182919554Y-113558051D01*
X183016136Y-113566447D01*
X183027802Y-113566466D01*
X183121982Y-113562259D01*
X183166578Y-113533747D01*
X183180133Y-113457094D01*
X183181078Y-113369397D01*
X183181078Y-113172328D01*
X184538664Y-113172328D01*
X184538664Y-113566466D01*
G37*
X184538664Y-113566466D02*
X185764871Y-113566466D01*
X185764871Y-114790201D01*
X184560561Y-114814569D01*
X184560561Y-115033535D01*
X185097026Y-115045831D01*
X185633492Y-115058127D01*
X185633492Y-116281638D01*
X184538664Y-116281638D01*
X184538664Y-116500604D01*
X185852457Y-116500604D01*
X185852457Y-117726811D01*
X181297975Y-117726811D01*
X181297975Y-116500604D01*
X183181078Y-116500604D01*
X183181078Y-116281638D01*
X181516940Y-116281638D01*
X181516940Y-115405776D01*
X181363664Y-115405776D01*
X181262321Y-115397276D01*
X181211700Y-115376375D01*
X181210388Y-115371957D01*
X181218824Y-115318219D01*
X181241808Y-115196667D01*
X181275855Y-115025197D01*
X181280287Y-115003529D01*
X182703754Y-115003529D01*
X182726630Y-115039396D01*
X182796200Y-115053174D01*
X182932644Y-115055431D01*
X182937307Y-115055432D01*
X183076047Y-115053355D01*
X183148634Y-115039292D01*
X183176500Y-115001489D01*
X183181076Y-114928194D01*
X183181078Y-114921764D01*
X183181078Y-114788096D01*
X182951164Y-114801333D01*
X182816408Y-114812781D01*
X182745869Y-114835556D01*
X182716191Y-114882463D01*
X182707393Y-114935000D01*
X182703754Y-115003529D01*
X181280287Y-115003529D01*
X181317480Y-114821705D01*
X181318569Y-114816455D01*
X181370253Y-114542421D01*
X181420920Y-114231432D01*
X181463184Y-113930682D01*
X181481168Y-113777343D01*
X181535587Y-113259914D01*
X182874526Y-113259914D01*
X182874526Y-113413190D01*
X182881306Y-113515920D01*
X182919554Y-113558051D01*
X183016136Y-113566447D01*
X183027802Y-113566466D01*
X183121982Y-113562259D01*
X183166578Y-113533747D01*
X183180133Y-113457094D01*
X183181078Y-113369397D01*
X183181078Y-113172328D01*
X184538664Y-113172328D01*
X184538664Y-113566466D01*
G36*
X159023693Y-113260455D02*
G01*
X159206181Y-113263180D01*
X159326689Y-113269741D01*
X159398020Y-113281790D01*
X159432977Y-113300977D01*
X159444362Y-113328957D01*
X159445216Y-113347500D01*
X159447604Y-113371349D01*
X159460633Y-113390423D01*
X159493100Y-113405254D01*
X159553802Y-113416377D01*
X159651535Y-113424324D01*
X159795097Y-113429628D01*
X159993285Y-113432824D01*
X160254895Y-113434443D01*
X160588726Y-113435019D01*
X160890388Y-113435087D01*
X162335561Y-113435087D01*
X162335561Y-114748880D01*
X159411839Y-114748880D01*
X159385361Y-115153966D01*
X159375329Y-115333519D01*
X159364143Y-115576897D01*
X159352768Y-115860363D01*
X159342171Y-116160181D01*
X159335037Y-116391121D01*
X159326127Y-116670268D01*
X159315997Y-116935589D01*
X159305492Y-117168214D01*
X159295456Y-117349271D01*
X159287466Y-117453104D01*
X159263741Y-117683018D01*
X157910789Y-117683018D01*
X157931017Y-117584483D01*
X157938368Y-117511902D01*
X157947118Y-117366667D01*
X157956588Y-117163683D01*
X157966096Y-116917857D01*
X157974959Y-116644095D01*
X157976570Y-116588190D01*
X157986058Y-116277647D01*
X157997016Y-115960916D01*
X158008532Y-115661760D01*
X158019694Y-115403939D01*
X158029098Y-115219656D01*
X158056302Y-114748880D01*
X157781078Y-114748880D01*
X157781078Y-113435087D01*
X157934354Y-113435087D01*
X158039995Y-113425289D01*
X158082619Y-113387041D01*
X158087630Y-113347500D01*
X158091824Y-113314304D01*
X158112943Y-113290758D01*
X158163788Y-113275208D01*
X158257163Y-113266004D01*
X158405869Y-113261493D01*
X158622710Y-113260025D01*
X158766423Y-113259914D01*
X159023693Y-113260455D01*
G37*
X159023693Y-113260455D02*
X159206181Y-113263180D01*
X159326689Y-113269741D01*
X159398020Y-113281790D01*
X159432977Y-113300977D01*
X159444362Y-113328957D01*
X159445216Y-113347500D01*
X159447604Y-113371349D01*
X159460633Y-113390423D01*
X159493100Y-113405254D01*
X159553802Y-113416377D01*
X159651535Y-113424324D01*
X159795097Y-113429628D01*
X159993285Y-113432824D01*
X160254895Y-113434443D01*
X160588726Y-113435019D01*
X160890388Y-113435087D01*
X162335561Y-113435087D01*
X162335561Y-114748880D01*
X159411839Y-114748880D01*
X159385361Y-115153966D01*
X159375329Y-115333519D01*
X159364143Y-115576897D01*
X159352768Y-115860363D01*
X159342171Y-116160181D01*
X159335037Y-116391121D01*
X159326127Y-116670268D01*
X159315997Y-116935589D01*
X159305492Y-117168214D01*
X159295456Y-117349271D01*
X159287466Y-117453104D01*
X159263741Y-117683018D01*
X157910789Y-117683018D01*
X157931017Y-117584483D01*
X157938368Y-117511902D01*
X157947118Y-117366667D01*
X157956588Y-117163683D01*
X157966096Y-116917857D01*
X157974959Y-116644095D01*
X157976570Y-116588190D01*
X157986058Y-116277647D01*
X157997016Y-115960916D01*
X158008532Y-115661760D01*
X158019694Y-115403939D01*
X158029098Y-115219656D01*
X158056302Y-114748880D01*
X157781078Y-114748880D01*
X157781078Y-113435087D01*
X157934354Y-113435087D01*
X158039995Y-113425289D01*
X158082619Y-113387041D01*
X158087630Y-113347500D01*
X158091824Y-113314304D01*
X158112943Y-113290758D01*
X158163788Y-113275208D01*
X158257163Y-113266004D01*
X158405869Y-113261493D01*
X158622710Y-113260025D01*
X158766423Y-113259914D01*
X159023693Y-113260455D01*
G36*
X162247975Y-115972682D02*
G01*
X161623923Y-115984833D01*
X160999871Y-115996983D01*
X160999871Y-116215949D01*
X161623923Y-116228099D01*
X162247975Y-116240250D01*
X162247975Y-117683018D01*
X161383061Y-117678619D01*
X161104808Y-117675289D01*
X160846142Y-117668644D01*
X160623844Y-117659390D01*
X160454690Y-117648234D01*
X160355462Y-117635883D01*
X160352500Y-117635214D01*
X160080406Y-117537054D01*
X159862853Y-117379056D01*
X159688896Y-117151889D01*
X159612445Y-117004225D01*
X159567078Y-116892716D01*
X159537547Y-116780270D01*
X159520614Y-116643694D01*
X159513042Y-116459795D01*
X159511562Y-116281638D01*
X159512631Y-116060396D01*
X159519161Y-115904064D01*
X159535118Y-115789979D01*
X159564465Y-115695476D01*
X159611168Y-115597893D01*
X159640633Y-115543812D01*
X159756917Y-115364543D01*
X159892686Y-115221507D01*
X160058270Y-115111157D01*
X160264000Y-115029951D01*
X160520209Y-114974342D01*
X160837225Y-114940788D01*
X161225381Y-114925742D01*
X161447003Y-114924052D01*
X162247975Y-114924052D01*
X162247975Y-115972682D01*
G37*
X162247975Y-115972682D02*
X161623923Y-115984833D01*
X160999871Y-115996983D01*
X160999871Y-116215949D01*
X161623923Y-116228099D01*
X162247975Y-116240250D01*
X162247975Y-117683018D01*
X161383061Y-117678619D01*
X161104808Y-117675289D01*
X160846142Y-117668644D01*
X160623844Y-117659390D01*
X160454690Y-117648234D01*
X160355462Y-117635883D01*
X160352500Y-117635214D01*
X160080406Y-117537054D01*
X159862853Y-117379056D01*
X159688896Y-117151889D01*
X159612445Y-117004225D01*
X159567078Y-116892716D01*
X159537547Y-116780270D01*
X159520614Y-116643694D01*
X159513042Y-116459795D01*
X159511562Y-116281638D01*
X159512631Y-116060396D01*
X159519161Y-115904064D01*
X159535118Y-115789979D01*
X159564465Y-115695476D01*
X159611168Y-115597893D01*
X159640633Y-115543812D01*
X159756917Y-115364543D01*
X159892686Y-115221507D01*
X160058270Y-115111157D01*
X160264000Y-115029951D01*
X160520209Y-114974342D01*
X160837225Y-114940788D01*
X161225381Y-114925742D01*
X161447003Y-114924052D01*
X162247975Y-114924052D01*
X162247975Y-115972682D01*
G36*
X165127120Y-113310344D02*
G01*
X165359666Y-113323577D01*
X165510561Y-113342907D01*
X165897675Y-113455136D01*
X166234674Y-113638933D01*
X166518934Y-113892283D01*
X166747834Y-114213170D01*
X166817149Y-114346876D01*
X166955733Y-114639397D01*
X166955646Y-115602845D01*
X166955148Y-115920359D01*
X166952920Y-116164248D01*
X166947762Y-116348469D01*
X166938473Y-116486982D01*
X166923855Y-116593747D01*
X166902708Y-116682721D01*
X166873832Y-116767863D01*
X166850377Y-116827695D01*
X166717175Y-117075146D01*
X166533521Y-117301172D01*
X166320235Y-117484567D01*
X166098140Y-117604124D01*
X166082646Y-117609608D01*
X165906195Y-117651629D01*
X165688798Y-117677661D01*
X165546553Y-117683018D01*
X165225906Y-117683018D01*
X165221342Y-116741466D01*
X165135137Y-116965589D01*
X164992500Y-117225835D01*
X164789044Y-117443081D01*
X164585036Y-117576363D01*
X164405003Y-117634494D01*
X164170140Y-117668050D01*
X163909793Y-117676650D01*
X163653308Y-117659913D01*
X163430035Y-117617460D01*
X163354383Y-117592326D01*
X163099007Y-117449132D01*
X162871695Y-117240152D01*
X162693666Y-116986918D01*
X162634125Y-116861400D01*
X162601101Y-116775006D01*
X162576146Y-116692082D01*
X162558153Y-116599001D01*
X162546017Y-116482131D01*
X162538630Y-116327844D01*
X162534887Y-116122510D01*
X162533681Y-115852500D01*
X162533703Y-115773112D01*
X163783500Y-115773112D01*
X163786322Y-115927052D01*
X163798226Y-116026913D01*
X163820895Y-116089356D01*
X163845948Y-116121631D01*
X163948428Y-116187209D01*
X164041889Y-116166077D01*
X164106698Y-116096722D01*
X164136302Y-116034472D01*
X164156418Y-115937437D01*
X164168517Y-115790967D01*
X164174069Y-115580414D01*
X164174257Y-115542305D01*
X165268332Y-115542305D01*
X165268937Y-115740971D01*
X165273539Y-115915285D01*
X165282391Y-116046598D01*
X165295747Y-116116257D01*
X165298894Y-116121064D01*
X165376135Y-116147962D01*
X165478252Y-116134781D01*
X165518769Y-116115852D01*
X165581772Y-116031654D01*
X165628544Y-115884038D01*
X165657243Y-115695985D01*
X165666027Y-115490475D01*
X165653053Y-115290486D01*
X165616480Y-115118998D01*
X165601854Y-115079446D01*
X165514242Y-114941806D01*
X165398438Y-114855309D01*
X165316371Y-114836466D01*
X165300800Y-114877133D01*
X165287957Y-114986701D01*
X165278095Y-115146519D01*
X165271469Y-115337937D01*
X165268332Y-115542305D01*
X164174257Y-115542305D01*
X164174871Y-115417929D01*
X164172901Y-115162103D01*
X164164063Y-114985447D01*
X164143965Y-114879579D01*
X164108214Y-114836116D01*
X164052418Y-114846677D01*
X163972185Y-114902881D01*
X163925503Y-114942061D01*
X163872428Y-114991426D01*
X163836764Y-115043134D01*
X163814373Y-115115437D01*
X163801119Y-115226585D01*
X163792865Y-115394830D01*
X163788078Y-115548434D01*
X163783500Y-115773112D01*
X162533703Y-115773112D01*
X162533746Y-115624742D01*
X162535058Y-115291948D01*
X162538710Y-115033934D01*
X162545542Y-114837909D01*
X162556397Y-114691081D01*
X162572117Y-114580655D01*
X162593544Y-114493841D01*
X162611586Y-114442328D01*
X162792647Y-114093000D01*
X163039496Y-113798325D01*
X163344770Y-113565464D01*
X163671250Y-113411854D01*
X163816899Y-113377305D01*
X164029136Y-113348767D01*
X164287118Y-113327020D01*
X164570004Y-113312846D01*
X164856952Y-113307027D01*
X165127120Y-113310344D01*
G37*
X165127120Y-113310344D02*
X165359666Y-113323577D01*
X165510561Y-113342907D01*
X165897675Y-113455136D01*
X166234674Y-113638933D01*
X166518934Y-113892283D01*
X166747834Y-114213170D01*
X166817149Y-114346876D01*
X166955733Y-114639397D01*
X166955646Y-115602845D01*
X166955148Y-115920359D01*
X166952920Y-116164248D01*
X166947762Y-116348469D01*
X166938473Y-116486982D01*
X166923855Y-116593747D01*
X166902708Y-116682721D01*
X166873832Y-116767863D01*
X166850377Y-116827695D01*
X166717175Y-117075146D01*
X166533521Y-117301172D01*
X166320235Y-117484567D01*
X166098140Y-117604124D01*
X166082646Y-117609608D01*
X165906195Y-117651629D01*
X165688798Y-117677661D01*
X165546553Y-117683018D01*
X165225906Y-117683018D01*
X165221342Y-116741466D01*
X165135137Y-116965589D01*
X164992500Y-117225835D01*
X164789044Y-117443081D01*
X164585036Y-117576363D01*
X164405003Y-117634494D01*
X164170140Y-117668050D01*
X163909793Y-117676650D01*
X163653308Y-117659913D01*
X163430035Y-117617460D01*
X163354383Y-117592326D01*
X163099007Y-117449132D01*
X162871695Y-117240152D01*
X162693666Y-116986918D01*
X162634125Y-116861400D01*
X162601101Y-116775006D01*
X162576146Y-116692082D01*
X162558153Y-116599001D01*
X162546017Y-116482131D01*
X162538630Y-116327844D01*
X162534887Y-116122510D01*
X162533681Y-115852500D01*
X162533703Y-115773112D01*
X163783500Y-115773112D01*
X163786322Y-115927052D01*
X163798226Y-116026913D01*
X163820895Y-116089356D01*
X163845948Y-116121631D01*
X163948428Y-116187209D01*
X164041889Y-116166077D01*
X164106698Y-116096722D01*
X164136302Y-116034472D01*
X164156418Y-115937437D01*
X164168517Y-115790967D01*
X164174069Y-115580414D01*
X164174257Y-115542305D01*
X165268332Y-115542305D01*
X165268937Y-115740971D01*
X165273539Y-115915285D01*
X165282391Y-116046598D01*
X165295747Y-116116257D01*
X165298894Y-116121064D01*
X165376135Y-116147962D01*
X165478252Y-116134781D01*
X165518769Y-116115852D01*
X165581772Y-116031654D01*
X165628544Y-115884038D01*
X165657243Y-115695985D01*
X165666027Y-115490475D01*
X165653053Y-115290486D01*
X165616480Y-115118998D01*
X165601854Y-115079446D01*
X165514242Y-114941806D01*
X165398438Y-114855309D01*
X165316371Y-114836466D01*
X165300800Y-114877133D01*
X165287957Y-114986701D01*
X165278095Y-115146519D01*
X165271469Y-115337937D01*
X165268332Y-115542305D01*
X164174257Y-115542305D01*
X164174871Y-115417929D01*
X164172901Y-115162103D01*
X164164063Y-114985447D01*
X164143965Y-114879579D01*
X164108214Y-114836116D01*
X164052418Y-114846677D01*
X163972185Y-114902881D01*
X163925503Y-114942061D01*
X163872428Y-114991426D01*
X163836764Y-115043134D01*
X163814373Y-115115437D01*
X163801119Y-115226585D01*
X163792865Y-115394830D01*
X163788078Y-115548434D01*
X163783500Y-115773112D01*
X162533703Y-115773112D01*
X162533746Y-115624742D01*
X162535058Y-115291948D01*
X162538710Y-115033934D01*
X162545542Y-114837909D01*
X162556397Y-114691081D01*
X162572117Y-114580655D01*
X162593544Y-114493841D01*
X162611586Y-114442328D01*
X162792647Y-114093000D01*
X163039496Y-113798325D01*
X163344770Y-113565464D01*
X163671250Y-113411854D01*
X163816899Y-113377305D01*
X164029136Y-113348767D01*
X164287118Y-113327020D01*
X164570004Y-113312846D01*
X164856952Y-113307027D01*
X165127120Y-113310344D01*
G36*
X168729354Y-114610966D02*
G01*
X168730402Y-115018005D01*
X168734218Y-115346489D01*
X168741808Y-115605427D01*
X168754178Y-115803832D01*
X168772335Y-115950716D01*
X168797285Y-116055090D01*
X168830035Y-116125966D01*
X168871591Y-116172357D01*
X168906254Y-116194977D01*
X168982941Y-116213354D01*
X169123785Y-116227791D01*
X169305379Y-116236345D01*
X169422313Y-116237845D01*
X169670422Y-116233202D01*
X169844809Y-116212046D01*
X169959154Y-116163537D01*
X170027138Y-116076835D01*
X170062440Y-115941100D01*
X170078741Y-115745492D01*
X170080109Y-115716618D01*
X170096214Y-115361983D01*
X171532113Y-115361983D01*
X171531782Y-115701380D01*
X171503935Y-116171781D01*
X171420590Y-116575180D01*
X171280560Y-116913289D01*
X171082660Y-117187819D01*
X170825705Y-117400479D01*
X170508510Y-117552981D01*
X170191100Y-117636502D01*
X170021802Y-117656942D01*
X169791163Y-117670190D01*
X169525134Y-117676222D01*
X169249668Y-117675014D01*
X168990715Y-117666543D01*
X168774229Y-117650785D01*
X168675947Y-117637895D01*
X168321774Y-117536404D01*
X168012645Y-117360818D01*
X167753501Y-117114908D01*
X167549284Y-116802445D01*
X167529997Y-116763363D01*
X167393664Y-116478707D01*
X167380189Y-114913104D01*
X167366714Y-113347500D01*
X168729354Y-113347500D01*
X168729354Y-114610966D01*
G37*
X168729354Y-114610966D02*
X168730402Y-115018005D01*
X168734218Y-115346489D01*
X168741808Y-115605427D01*
X168754178Y-115803832D01*
X168772335Y-115950716D01*
X168797285Y-116055090D01*
X168830035Y-116125966D01*
X168871591Y-116172357D01*
X168906254Y-116194977D01*
X168982941Y-116213354D01*
X169123785Y-116227791D01*
X169305379Y-116236345D01*
X169422313Y-116237845D01*
X169670422Y-116233202D01*
X169844809Y-116212046D01*
X169959154Y-116163537D01*
X170027138Y-116076835D01*
X170062440Y-115941100D01*
X170078741Y-115745492D01*
X170080109Y-115716618D01*
X170096214Y-115361983D01*
X171532113Y-115361983D01*
X171531782Y-115701380D01*
X171503935Y-116171781D01*
X171420590Y-116575180D01*
X171280560Y-116913289D01*
X171082660Y-117187819D01*
X170825705Y-117400479D01*
X170508510Y-117552981D01*
X170191100Y-117636502D01*
X170021802Y-117656942D01*
X169791163Y-117670190D01*
X169525134Y-117676222D01*
X169249668Y-117675014D01*
X168990715Y-117666543D01*
X168774229Y-117650785D01*
X168675947Y-117637895D01*
X168321774Y-117536404D01*
X168012645Y-117360818D01*
X167753501Y-117114908D01*
X167549284Y-116802445D01*
X167529997Y-116763363D01*
X167393664Y-116478707D01*
X167380189Y-114913104D01*
X167366714Y-113347500D01*
X168729354Y-113347500D01*
X168729354Y-114610966D01*
G36*
X175221099Y-113421458D02*
G01*
X175478642Y-113465945D01*
X175626768Y-113516965D01*
X175907946Y-113685272D01*
X176121979Y-113909137D01*
X176269961Y-114190033D01*
X176346505Y-114486121D01*
X176357978Y-114601102D01*
X176368426Y-114790225D01*
X176377480Y-115040048D01*
X176384765Y-115337130D01*
X176389912Y-115668029D01*
X176392548Y-116019303D01*
X176392816Y-116161207D01*
X176393147Y-117551638D01*
X174992998Y-117551638D01*
X174981435Y-116172128D01*
X174976558Y-115754127D01*
X174969601Y-115406498D01*
X174960705Y-115132794D01*
X174950014Y-114936566D01*
X174937668Y-114821367D01*
X174926078Y-114789812D01*
X174902818Y-114829433D01*
X174865625Y-114941026D01*
X174818383Y-115110812D01*
X174764973Y-115325007D01*
X174719461Y-115523375D01*
X174635820Y-115900150D01*
X174567802Y-116201933D01*
X174512598Y-116439354D01*
X174467402Y-116623047D01*
X174429405Y-116763643D01*
X174395800Y-116871775D01*
X174363780Y-116958075D01*
X174330538Y-117033175D01*
X174309510Y-117075951D01*
X174165197Y-117289882D01*
X173974204Y-117471148D01*
X173761597Y-117598319D01*
X173656019Y-117634671D01*
X173404568Y-117672294D01*
X173119322Y-117675212D01*
X172846650Y-117644008D01*
X172756154Y-117623372D01*
X172469593Y-117510184D01*
X172244582Y-117344140D01*
X172136620Y-117212284D01*
X172079558Y-117123496D01*
X172032852Y-117041386D01*
X171995368Y-116956282D01*
X171965970Y-116858509D01*
X171943523Y-116738393D01*
X171926890Y-116586260D01*
X171914936Y-116392436D01*
X171906525Y-116147248D01*
X171900522Y-115841020D01*
X171895792Y-115464080D01*
X171892424Y-115132069D01*
X171876647Y-113522673D01*
X173240044Y-113522673D01*
X173240044Y-114877675D01*
X173241573Y-115325260D01*
X173246747Y-115686303D01*
X173256444Y-115961805D01*
X173271541Y-116152765D01*
X173292918Y-116260184D01*
X173321453Y-116285061D01*
X173358023Y-116228398D01*
X173403507Y-116091195D01*
X173458783Y-115874452D01*
X173524730Y-115579170D01*
X173588353Y-115274397D01*
X173680017Y-114850165D01*
X173767525Y-114503320D01*
X173855713Y-114224127D01*
X173949416Y-114002850D01*
X174053469Y-113829752D01*
X174172707Y-113695099D01*
X174311966Y-113589153D01*
X174466250Y-113506669D01*
X174682175Y-113441529D01*
X174944700Y-113413222D01*
X175221099Y-113421458D01*
G37*
X175221099Y-113421458D02*
X175478642Y-113465945D01*
X175626768Y-113516965D01*
X175907946Y-113685272D01*
X176121979Y-113909137D01*
X176269961Y-114190033D01*
X176346505Y-114486121D01*
X176357978Y-114601102D01*
X176368426Y-114790225D01*
X176377480Y-115040048D01*
X176384765Y-115337130D01*
X176389912Y-115668029D01*
X176392548Y-116019303D01*
X176392816Y-116161207D01*
X176393147Y-117551638D01*
X174992998Y-117551638D01*
X174981435Y-116172128D01*
X174976558Y-115754127D01*
X174969601Y-115406498D01*
X174960705Y-115132794D01*
X174950014Y-114936566D01*
X174937668Y-114821367D01*
X174926078Y-114789812D01*
X174902818Y-114829433D01*
X174865625Y-114941026D01*
X174818383Y-115110812D01*
X174764973Y-115325007D01*
X174719461Y-115523375D01*
X174635820Y-115900150D01*
X174567802Y-116201933D01*
X174512598Y-116439354D01*
X174467402Y-116623047D01*
X174429405Y-116763643D01*
X174395800Y-116871775D01*
X174363780Y-116958075D01*
X174330538Y-117033175D01*
X174309510Y-117075951D01*
X174165197Y-117289882D01*
X173974204Y-117471148D01*
X173761597Y-117598319D01*
X173656019Y-117634671D01*
X173404568Y-117672294D01*
X173119322Y-117675212D01*
X172846650Y-117644008D01*
X172756154Y-117623372D01*
X172469593Y-117510184D01*
X172244582Y-117344140D01*
X172136620Y-117212284D01*
X172079558Y-117123496D01*
X172032852Y-117041386D01*
X171995368Y-116956282D01*
X171965970Y-116858509D01*
X171943523Y-116738393D01*
X171926890Y-116586260D01*
X171914936Y-116392436D01*
X171906525Y-116147248D01*
X171900522Y-115841020D01*
X171895792Y-115464080D01*
X171892424Y-115132069D01*
X171876647Y-113522673D01*
X173240044Y-113522673D01*
X173240044Y-114877675D01*
X173241573Y-115325260D01*
X173246747Y-115686303D01*
X173256444Y-115961805D01*
X173271541Y-116152765D01*
X173292918Y-116260184D01*
X173321453Y-116285061D01*
X173358023Y-116228398D01*
X173403507Y-116091195D01*
X173458783Y-115874452D01*
X173524730Y-115579170D01*
X173588353Y-115274397D01*
X173680017Y-114850165D01*
X173767525Y-114503320D01*
X173855713Y-114224127D01*
X173949416Y-114002850D01*
X174053469Y-113829752D01*
X174172707Y-113695099D01*
X174311966Y-113589153D01*
X174466250Y-113506669D01*
X174682175Y-113441529D01*
X174944700Y-113413222D01*
X175221099Y-113421458D01*
G36*
X153598813Y-115934183D02*
G01*
X153708602Y-115946339D01*
X153802740Y-115973753D01*
X153905143Y-116019582D01*
X153937317Y-116035526D01*
X154062507Y-116113591D01*
X154231445Y-116241060D01*
X154427087Y-116404285D01*
X154632388Y-116589617D01*
X154649871Y-116606078D01*
X155131595Y-117061222D01*
X155025427Y-117175051D01*
X154948621Y-117250023D01*
X154898021Y-117286156D01*
X154894048Y-117286783D01*
X154853327Y-117257958D01*
X154763588Y-117181883D01*
X154639589Y-117071341D01*
X154542642Y-116982459D01*
X154306489Y-116773933D01*
X154105044Y-116624060D01*
X153918234Y-116523153D01*
X153725984Y-116461525D01*
X153508222Y-116429491D01*
X153379871Y-116421384D01*
X153054469Y-116423398D01*
X152703997Y-116459716D01*
X152483665Y-116496167D01*
X152144934Y-116546136D01*
X151797568Y-116575932D01*
X151466750Y-116584651D01*
X151177665Y-116571390D01*
X151015044Y-116548825D01*
X150839871Y-116514507D01*
X150971250Y-116479721D01*
X151053457Y-116457000D01*
X151204338Y-116414392D01*
X151408421Y-116356302D01*
X151650231Y-116287135D01*
X151914293Y-116211298D01*
X151934699Y-116205425D01*
X152247446Y-116117130D01*
X152496123Y-116051844D01*
X152700012Y-116005680D01*
X152878397Y-115974752D01*
X153050563Y-115955174D01*
X153235791Y-115943058D01*
X153236627Y-115943017D01*
X153449460Y-115934128D01*
X153598813Y-115934183D01*
G37*
X153598813Y-115934183D02*
X153708602Y-115946339D01*
X153802740Y-115973753D01*
X153905143Y-116019582D01*
X153937317Y-116035526D01*
X154062507Y-116113591D01*
X154231445Y-116241060D01*
X154427087Y-116404285D01*
X154632388Y-116589617D01*
X154649871Y-116606078D01*
X155131595Y-117061222D01*
X155025427Y-117175051D01*
X154948621Y-117250023D01*
X154898021Y-117286156D01*
X154894048Y-117286783D01*
X154853327Y-117257958D01*
X154763588Y-117181883D01*
X154639589Y-117071341D01*
X154542642Y-116982459D01*
X154306489Y-116773933D01*
X154105044Y-116624060D01*
X153918234Y-116523153D01*
X153725984Y-116461525D01*
X153508222Y-116429491D01*
X153379871Y-116421384D01*
X153054469Y-116423398D01*
X152703997Y-116459716D01*
X152483665Y-116496167D01*
X152144934Y-116546136D01*
X151797568Y-116575932D01*
X151466750Y-116584651D01*
X151177665Y-116571390D01*
X151015044Y-116548825D01*
X150839871Y-116514507D01*
X150971250Y-116479721D01*
X151053457Y-116457000D01*
X151204338Y-116414392D01*
X151408421Y-116356302D01*
X151650231Y-116287135D01*
X151914293Y-116211298D01*
X151934699Y-116205425D01*
X152247446Y-116117130D01*
X152496123Y-116051844D01*
X152700012Y-116005680D01*
X152878397Y-115974752D01*
X153050563Y-115955174D01*
X153235791Y-115943058D01*
X153236627Y-115943017D01*
X153449460Y-115934128D01*
X153598813Y-115934183D01*
G36*
X151851409Y-105399059D02*
G01*
X152406622Y-105490734D01*
X152931175Y-105664350D01*
X153424676Y-105919808D01*
X153480033Y-105954824D01*
X153606658Y-106048962D01*
X153782700Y-106197609D01*
X153998192Y-106390897D01*
X154243166Y-106618954D01*
X154507655Y-106871911D01*
X154781692Y-107139898D01*
X155055309Y-107413044D01*
X155318538Y-107681481D01*
X155561411Y-107935337D01*
X155773962Y-108164744D01*
X155946222Y-108359830D01*
X156068225Y-108510726D01*
X156086368Y-108535651D01*
X156265197Y-108807361D01*
X156403096Y-109067172D01*
X156504704Y-109332500D01*
X156574656Y-109620764D01*
X156617591Y-109949378D01*
X156638146Y-110335761D01*
X156641697Y-110621380D01*
X156642457Y-111333018D01*
X155818742Y-111333018D01*
X155800223Y-110533794D01*
X155790858Y-110210066D01*
X155777082Y-109956993D01*
X155755017Y-109757647D01*
X155720787Y-109595097D01*
X155670517Y-109452415D01*
X155600329Y-109312672D01*
X155506347Y-109158937D01*
X155474034Y-109109237D01*
X155403861Y-109018369D01*
X155279936Y-108875302D01*
X155110898Y-108689305D01*
X154905388Y-108469648D01*
X154672046Y-108225599D01*
X154419512Y-107966428D01*
X154235388Y-107780415D01*
X153946599Y-107491079D01*
X153711056Y-107256870D01*
X153520474Y-107070579D01*
X153366567Y-106925000D01*
X153241052Y-106812925D01*
X153135644Y-106727147D01*
X153042059Y-106660458D01*
X152952012Y-106605651D01*
X152857218Y-106555518D01*
X152788664Y-106521798D01*
X152450718Y-106373395D01*
X152144900Y-106276434D01*
X151838822Y-106223117D01*
X151500096Y-106205649D01*
X151474871Y-106205568D01*
X150961353Y-106246558D01*
X150466471Y-106371112D01*
X149985936Y-106580597D01*
X149635561Y-106792108D01*
X149553967Y-106857436D01*
X149419946Y-106976695D01*
X149242327Y-107141211D01*
X149029937Y-107342312D01*
X148791605Y-107571323D01*
X148536157Y-107819573D01*
X148272423Y-108078388D01*
X148009231Y-108339095D01*
X147755408Y-108593021D01*
X147519782Y-108831493D01*
X147311181Y-109045838D01*
X147138434Y-109227382D01*
X147010368Y-109367453D01*
X146987270Y-109393926D01*
X146669127Y-109817230D01*
X146434377Y-110254878D01*
X146278930Y-110716921D01*
X146198697Y-111213406D01*
X146189387Y-111354914D01*
X146188058Y-111745633D01*
X146228273Y-112088042D01*
X146316296Y-112413998D01*
X146458394Y-112755358D01*
X146469339Y-112778190D01*
X146517074Y-112872299D01*
X146569331Y-112961684D01*
X146633315Y-113054552D01*
X146716231Y-113159108D01*
X146825285Y-113283558D01*
X146967681Y-113436110D01*
X147150625Y-113624969D01*
X147381323Y-113858342D01*
X147666978Y-114144434D01*
X147682824Y-114160261D01*
X147977657Y-114453676D01*
X148219256Y-114691272D01*
X148415459Y-114880016D01*
X148574101Y-115026873D01*
X148703020Y-115138807D01*
X148810051Y-115222785D01*
X148903032Y-115285772D01*
X148989800Y-115334733D01*
X149022457Y-115350958D01*
X149270083Y-115458515D01*
X149498666Y-115527627D01*
X149741097Y-115565275D01*
X150030266Y-115578443D01*
X150095388Y-115578754D01*
X150277765Y-115574316D01*
X150459732Y-115559186D01*
X150655087Y-115530561D01*
X150877627Y-115485637D01*
X151141150Y-115421611D01*
X151459451Y-115335682D01*
X151846328Y-115225045D01*
X151869009Y-115218439D01*
X152361376Y-115085865D01*
X152789501Y-114996149D01*
X153165435Y-114949126D01*
X153501228Y-114944631D01*
X153808929Y-114982500D01*
X154100591Y-115062570D01*
X154387113Y-115184107D01*
X154530950Y-115260707D01*
X154670802Y-115349256D01*
X154820691Y-115460638D01*
X154994643Y-115605732D01*
X155206684Y-115795422D01*
X155372457Y-115948608D01*
X155568003Y-116133025D01*
X155740366Y-116299802D01*
X155879546Y-116438917D01*
X155975542Y-116540344D01*
X156018352Y-116594059D01*
X156019536Y-116597219D01*
X155995665Y-116651712D01*
X155921583Y-116748781D01*
X155811057Y-116871185D01*
X155756777Y-116926300D01*
X155481940Y-117198432D01*
X154846940Y-116603618D01*
X154565092Y-116344781D01*
X154319447Y-116136535D01*
X154097356Y-115976524D01*
X153886171Y-115862391D01*
X153673241Y-115791781D01*
X153445919Y-115762340D01*
X153191556Y-115771710D01*
X152897502Y-115817537D01*
X152551110Y-115897464D01*
X152139729Y-116009138D01*
X151948403Y-116063823D01*
X151545903Y-116176934D01*
X151209969Y-116263969D01*
X150924533Y-116327887D01*
X150673530Y-116371652D01*
X150440893Y-116398226D01*
X150210555Y-116410569D01*
X150057706Y-116412370D01*
X149548151Y-116377261D01*
X149080565Y-116270464D01*
X148640676Y-116087437D01*
X148219014Y-115827090D01*
X148120860Y-115747457D01*
X147971755Y-115614451D01*
X147781718Y-115437581D01*
X147560764Y-115226359D01*
X147318912Y-114990293D01*
X147066180Y-114738893D01*
X146961049Y-114632894D01*
X146688007Y-114356157D01*
X146468840Y-114132367D01*
X146295812Y-113952217D01*
X146161185Y-113806401D01*
X146057222Y-113685616D01*
X145976186Y-113580554D01*
X145910339Y-113481911D01*
X145851946Y-113380381D01*
X145793269Y-113266658D01*
X145746661Y-113172328D01*
X145600615Y-112855214D01*
X145496246Y-112573316D01*
X145427257Y-112298937D01*
X145387354Y-112004381D01*
X145370239Y-111661951D01*
X145368376Y-111508190D01*
X145377253Y-111120082D01*
X145411532Y-110786328D01*
X145476976Y-110475925D01*
X145579349Y-110157872D01*
X145655589Y-109963332D01*
X145739814Y-109771644D01*
X145832943Y-109589293D01*
X145941535Y-109408062D01*
X146072147Y-109219734D01*
X146231337Y-109016093D01*
X146425662Y-108788920D01*
X146661682Y-108530001D01*
X146945953Y-108231116D01*
X147285033Y-107884050D01*
X147440567Y-107726780D01*
X147816057Y-107350007D01*
X148139033Y-107030743D01*
X148416928Y-106762642D01*
X148657174Y-106539354D01*
X148867203Y-106354534D01*
X149054447Y-106201832D01*
X149226339Y-106074901D01*
X149390311Y-105967393D01*
X149553795Y-105872960D01*
X149699522Y-105797438D01*
X150158146Y-105600384D01*
X150614034Y-105471005D01*
X151100021Y-105400748D01*
X151265927Y-105389425D01*
X151851409Y-105399059D01*
G37*
X151851409Y-105399059D02*
X152406622Y-105490734D01*
X152931175Y-105664350D01*
X153424676Y-105919808D01*
X153480033Y-105954824D01*
X153606658Y-106048962D01*
X153782700Y-106197609D01*
X153998192Y-106390897D01*
X154243166Y-106618954D01*
X154507655Y-106871911D01*
X154781692Y-107139898D01*
X155055309Y-107413044D01*
X155318538Y-107681481D01*
X155561411Y-107935337D01*
X155773962Y-108164744D01*
X155946222Y-108359830D01*
X156068225Y-108510726D01*
X156086368Y-108535651D01*
X156265197Y-108807361D01*
X156403096Y-109067172D01*
X156504704Y-109332500D01*
X156574656Y-109620764D01*
X156617591Y-109949378D01*
X156638146Y-110335761D01*
X156641697Y-110621380D01*
X156642457Y-111333018D01*
X155818742Y-111333018D01*
X155800223Y-110533794D01*
X155790858Y-110210066D01*
X155777082Y-109956993D01*
X155755017Y-109757647D01*
X155720787Y-109595097D01*
X155670517Y-109452415D01*
X155600329Y-109312672D01*
X155506347Y-109158937D01*
X155474034Y-109109237D01*
X155403861Y-109018369D01*
X155279936Y-108875302D01*
X155110898Y-108689305D01*
X154905388Y-108469648D01*
X154672046Y-108225599D01*
X154419512Y-107966428D01*
X154235388Y-107780415D01*
X153946599Y-107491079D01*
X153711056Y-107256870D01*
X153520474Y-107070579D01*
X153366567Y-106925000D01*
X153241052Y-106812925D01*
X153135644Y-106727147D01*
X153042059Y-106660458D01*
X152952012Y-106605651D01*
X152857218Y-106555518D01*
X152788664Y-106521798D01*
X152450718Y-106373395D01*
X152144900Y-106276434D01*
X151838822Y-106223117D01*
X151500096Y-106205649D01*
X151474871Y-106205568D01*
X150961353Y-106246558D01*
X150466471Y-106371112D01*
X149985936Y-106580597D01*
X149635561Y-106792108D01*
X149553967Y-106857436D01*
X149419946Y-106976695D01*
X149242327Y-107141211D01*
X149029937Y-107342312D01*
X148791605Y-107571323D01*
X148536157Y-107819573D01*
X148272423Y-108078388D01*
X148009231Y-108339095D01*
X147755408Y-108593021D01*
X147519782Y-108831493D01*
X147311181Y-109045838D01*
X147138434Y-109227382D01*
X147010368Y-109367453D01*
X146987270Y-109393926D01*
X146669127Y-109817230D01*
X146434377Y-110254878D01*
X146278930Y-110716921D01*
X146198697Y-111213406D01*
X146189387Y-111354914D01*
X146188058Y-111745633D01*
X146228273Y-112088042D01*
X146316296Y-112413998D01*
X146458394Y-112755358D01*
X146469339Y-112778190D01*
X146517074Y-112872299D01*
X146569331Y-112961684D01*
X146633315Y-113054552D01*
X146716231Y-113159108D01*
X146825285Y-113283558D01*
X146967681Y-113436110D01*
X147150625Y-113624969D01*
X147381323Y-113858342D01*
X147666978Y-114144434D01*
X147682824Y-114160261D01*
X147977657Y-114453676D01*
X148219256Y-114691272D01*
X148415459Y-114880016D01*
X148574101Y-115026873D01*
X148703020Y-115138807D01*
X148810051Y-115222785D01*
X148903032Y-115285772D01*
X148989800Y-115334733D01*
X149022457Y-115350958D01*
X149270083Y-115458515D01*
X149498666Y-115527627D01*
X149741097Y-115565275D01*
X150030266Y-115578443D01*
X150095388Y-115578754D01*
X150277765Y-115574316D01*
X150459732Y-115559186D01*
X150655087Y-115530561D01*
X150877627Y-115485637D01*
X151141150Y-115421611D01*
X151459451Y-115335682D01*
X151846328Y-115225045D01*
X151869009Y-115218439D01*
X152361376Y-115085865D01*
X152789501Y-114996149D01*
X153165435Y-114949126D01*
X153501228Y-114944631D01*
X153808929Y-114982500D01*
X154100591Y-115062570D01*
X154387113Y-115184107D01*
X154530950Y-115260707D01*
X154670802Y-115349256D01*
X154820691Y-115460638D01*
X154994643Y-115605732D01*
X155206684Y-115795422D01*
X155372457Y-115948608D01*
X155568003Y-116133025D01*
X155740366Y-116299802D01*
X155879546Y-116438917D01*
X155975542Y-116540344D01*
X156018352Y-116594059D01*
X156019536Y-116597219D01*
X155995665Y-116651712D01*
X155921583Y-116748781D01*
X155811057Y-116871185D01*
X155756777Y-116926300D01*
X155481940Y-117198432D01*
X154846940Y-116603618D01*
X154565092Y-116344781D01*
X154319447Y-116136535D01*
X154097356Y-115976524D01*
X153886171Y-115862391D01*
X153673241Y-115791781D01*
X153445919Y-115762340D01*
X153191556Y-115771710D01*
X152897502Y-115817537D01*
X152551110Y-115897464D01*
X152139729Y-116009138D01*
X151948403Y-116063823D01*
X151545903Y-116176934D01*
X151209969Y-116263969D01*
X150924533Y-116327887D01*
X150673530Y-116371652D01*
X150440893Y-116398226D01*
X150210555Y-116410569D01*
X150057706Y-116412370D01*
X149548151Y-116377261D01*
X149080565Y-116270464D01*
X148640676Y-116087437D01*
X148219014Y-115827090D01*
X148120860Y-115747457D01*
X147971755Y-115614451D01*
X147781718Y-115437581D01*
X147560764Y-115226359D01*
X147318912Y-114990293D01*
X147066180Y-114738893D01*
X146961049Y-114632894D01*
X146688007Y-114356157D01*
X146468840Y-114132367D01*
X146295812Y-113952217D01*
X146161185Y-113806401D01*
X146057222Y-113685616D01*
X145976186Y-113580554D01*
X145910339Y-113481911D01*
X145851946Y-113380381D01*
X145793269Y-113266658D01*
X145746661Y-113172328D01*
X145600615Y-112855214D01*
X145496246Y-112573316D01*
X145427257Y-112298937D01*
X145387354Y-112004381D01*
X145370239Y-111661951D01*
X145368376Y-111508190D01*
X145377253Y-111120082D01*
X145411532Y-110786328D01*
X145476976Y-110475925D01*
X145579349Y-110157872D01*
X145655589Y-109963332D01*
X145739814Y-109771644D01*
X145832943Y-109589293D01*
X145941535Y-109408062D01*
X146072147Y-109219734D01*
X146231337Y-109016093D01*
X146425662Y-108788920D01*
X146661682Y-108530001D01*
X146945953Y-108231116D01*
X147285033Y-107884050D01*
X147440567Y-107726780D01*
X147816057Y-107350007D01*
X148139033Y-107030743D01*
X148416928Y-106762642D01*
X148657174Y-106539354D01*
X148867203Y-106354534D01*
X149054447Y-106201832D01*
X149226339Y-106074901D01*
X149390311Y-105967393D01*
X149553795Y-105872960D01*
X149699522Y-105797438D01*
X150158146Y-105600384D01*
X150614034Y-105471005D01*
X151100021Y-105400748D01*
X151265927Y-105389425D01*
X151851409Y-105399059D01*
G36*
X146640418Y-110574266D02*
G01*
X146648323Y-110811496D01*
X146670852Y-111005165D01*
X146715142Y-111196997D01*
X146784784Y-111418230D01*
X146847656Y-111597573D01*
X146910913Y-111757227D01*
X146980996Y-111905589D01*
X147064349Y-112051058D01*
X147167413Y-112202032D01*
X147296631Y-112366910D01*
X147458446Y-112554090D01*
X147659300Y-112771969D01*
X147905636Y-113028947D01*
X148203897Y-113333421D01*
X148427476Y-113559580D01*
X148775891Y-113910111D01*
X149071001Y-114203916D01*
X149320089Y-114447517D01*
X149530437Y-114647439D01*
X149709326Y-114810205D01*
X149864038Y-114942339D01*
X150001856Y-115050364D01*
X150130061Y-115140805D01*
X150255935Y-115220185D01*
X150327826Y-115262070D01*
X150451768Y-115335192D01*
X150507556Y-115378860D01*
X150504544Y-115404410D01*
X150459205Y-115421307D01*
X150324424Y-115440104D01*
X150133980Y-115445403D01*
X149918574Y-115438275D01*
X149708909Y-115419792D01*
X149535686Y-115391025D01*
X149526078Y-115388742D01*
X149359448Y-115341928D01*
X149203208Y-115282143D01*
X149047781Y-115202375D01*
X148883591Y-115095613D01*
X148701062Y-114954847D01*
X148490618Y-114773065D01*
X148242683Y-114543258D01*
X147947680Y-114258413D01*
X147846275Y-114158922D01*
X147523373Y-113837879D01*
X147258760Y-113566448D01*
X147045258Y-113336052D01*
X146875690Y-113138116D01*
X146742878Y-112964065D01*
X146639646Y-112805323D01*
X146558817Y-112653316D01*
X146526796Y-112582393D01*
X146450112Y-112360656D01*
X146383128Y-112089369D01*
X146333457Y-111806544D01*
X146308712Y-111550192D01*
X146307285Y-111486294D01*
X146325021Y-111228390D01*
X146372822Y-110934304D01*
X146442579Y-110643239D01*
X146526183Y-110394396D01*
X146539789Y-110362286D01*
X146635733Y-110143962D01*
X146640418Y-110574266D01*
G37*
X146640418Y-110574266D02*
X146648323Y-110811496D01*
X146670852Y-111005165D01*
X146715142Y-111196997D01*
X146784784Y-111418230D01*
X146847656Y-111597573D01*
X146910913Y-111757227D01*
X146980996Y-111905589D01*
X147064349Y-112051058D01*
X147167413Y-112202032D01*
X147296631Y-112366910D01*
X147458446Y-112554090D01*
X147659300Y-112771969D01*
X147905636Y-113028947D01*
X148203897Y-113333421D01*
X148427476Y-113559580D01*
X148775891Y-113910111D01*
X149071001Y-114203916D01*
X149320089Y-114447517D01*
X149530437Y-114647439D01*
X149709326Y-114810205D01*
X149864038Y-114942339D01*
X150001856Y-115050364D01*
X150130061Y-115140805D01*
X150255935Y-115220185D01*
X150327826Y-115262070D01*
X150451768Y-115335192D01*
X150507556Y-115378860D01*
X150504544Y-115404410D01*
X150459205Y-115421307D01*
X150324424Y-115440104D01*
X150133980Y-115445403D01*
X149918574Y-115438275D01*
X149708909Y-115419792D01*
X149535686Y-115391025D01*
X149526078Y-115388742D01*
X149359448Y-115341928D01*
X149203208Y-115282143D01*
X149047781Y-115202375D01*
X148883591Y-115095613D01*
X148701062Y-114954847D01*
X148490618Y-114773065D01*
X148242683Y-114543258D01*
X147947680Y-114258413D01*
X147846275Y-114158922D01*
X147523373Y-113837879D01*
X147258760Y-113566448D01*
X147045258Y-113336052D01*
X146875690Y-113138116D01*
X146742878Y-112964065D01*
X146639646Y-112805323D01*
X146558817Y-112653316D01*
X146526796Y-112582393D01*
X146450112Y-112360656D01*
X146383128Y-112089369D01*
X146333457Y-111806544D01*
X146308712Y-111550192D01*
X146307285Y-111486294D01*
X146325021Y-111228390D01*
X146372822Y-110934304D01*
X146442579Y-110643239D01*
X146526183Y-110394396D01*
X146539789Y-110362286D01*
X146635733Y-110143962D01*
X146640418Y-110574266D01*
G36*
X152061091Y-106406334D02*
G01*
X152529043Y-106550364D01*
X152801483Y-106676649D01*
X152894159Y-106740689D01*
X153037896Y-106859053D01*
X153223363Y-107022631D01*
X153441227Y-107222309D01*
X153682159Y-107448976D01*
X153936827Y-107693521D01*
X154195900Y-107946831D01*
X154450047Y-108199794D01*
X154689937Y-108443299D01*
X154906238Y-108668233D01*
X155089621Y-108865485D01*
X155230753Y-109025942D01*
X155310921Y-109127144D01*
X155418036Y-109281616D01*
X155499880Y-109419095D01*
X155560235Y-109555383D01*
X155602881Y-109706285D01*
X155631597Y-109887604D01*
X155650166Y-110115142D01*
X155662366Y-110404705D01*
X155668367Y-110621380D01*
X155689390Y-111464397D01*
X156279635Y-111464397D01*
X156307274Y-111728832D01*
X156336726Y-111931887D01*
X156384952Y-112107342D01*
X156461345Y-112270438D01*
X156575299Y-112436415D01*
X156736209Y-112620516D01*
X156953468Y-112837981D01*
X157044234Y-112924489D01*
X157564433Y-113416083D01*
X157552325Y-114099133D01*
X157540216Y-114782183D01*
X156743409Y-114053894D01*
X156455726Y-113789433D01*
X156225422Y-113573312D01*
X156043998Y-113396151D01*
X155902955Y-113248571D01*
X155793794Y-113121193D01*
X155708015Y-113004638D01*
X155637120Y-112889527D01*
X155572610Y-112766480D01*
X155567653Y-112756384D01*
X155493399Y-112595845D01*
X155434922Y-112443615D01*
X155389857Y-112285277D01*
X155355840Y-112106415D01*
X155330509Y-111892611D01*
X155311500Y-111629447D01*
X155296448Y-111302506D01*
X155287649Y-111048363D01*
X155278609Y-110734989D01*
X155269876Y-110473436D01*
X155256240Y-110253690D01*
X155232492Y-110065734D01*
X155193421Y-109899555D01*
X155133818Y-109745136D01*
X155048473Y-109592462D01*
X154932177Y-109431519D01*
X154779718Y-109252291D01*
X154585889Y-109044764D01*
X154345478Y-108798921D01*
X154053276Y-108504749D01*
X153866728Y-108316833D01*
X153480960Y-107930727D01*
X153146748Y-107603209D01*
X152865581Y-107335679D01*
X152638949Y-107129535D01*
X152468343Y-106986176D01*
X152384167Y-106924661D01*
X151930180Y-106679237D01*
X151433263Y-106510096D01*
X151175568Y-106455305D01*
X150839871Y-106396866D01*
X151099142Y-106362757D01*
X151579484Y-106342882D01*
X152061091Y-106406334D01*
G37*
X152061091Y-106406334D02*
X152529043Y-106550364D01*
X152801483Y-106676649D01*
X152894159Y-106740689D01*
X153037896Y-106859053D01*
X153223363Y-107022631D01*
X153441227Y-107222309D01*
X153682159Y-107448976D01*
X153936827Y-107693521D01*
X154195900Y-107946831D01*
X154450047Y-108199794D01*
X154689937Y-108443299D01*
X154906238Y-108668233D01*
X155089621Y-108865485D01*
X155230753Y-109025942D01*
X155310921Y-109127144D01*
X155418036Y-109281616D01*
X155499880Y-109419095D01*
X155560235Y-109555383D01*
X155602881Y-109706285D01*
X155631597Y-109887604D01*
X155650166Y-110115142D01*
X155662366Y-110404705D01*
X155668367Y-110621380D01*
X155689390Y-111464397D01*
X156279635Y-111464397D01*
X156307274Y-111728832D01*
X156336726Y-111931887D01*
X156384952Y-112107342D01*
X156461345Y-112270438D01*
X156575299Y-112436415D01*
X156736209Y-112620516D01*
X156953468Y-112837981D01*
X157044234Y-112924489D01*
X157564433Y-113416083D01*
X157552325Y-114099133D01*
X157540216Y-114782183D01*
X156743409Y-114053894D01*
X156455726Y-113789433D01*
X156225422Y-113573312D01*
X156043998Y-113396151D01*
X155902955Y-113248571D01*
X155793794Y-113121193D01*
X155708015Y-113004638D01*
X155637120Y-112889527D01*
X155572610Y-112766480D01*
X155567653Y-112756384D01*
X155493399Y-112595845D01*
X155434922Y-112443615D01*
X155389857Y-112285277D01*
X155355840Y-112106415D01*
X155330509Y-111892611D01*
X155311500Y-111629447D01*
X155296448Y-111302506D01*
X155287649Y-111048363D01*
X155278609Y-110734989D01*
X155269876Y-110473436D01*
X155256240Y-110253690D01*
X155232492Y-110065734D01*
X155193421Y-109899555D01*
X155133818Y-109745136D01*
X155048473Y-109592462D01*
X154932177Y-109431519D01*
X154779718Y-109252291D01*
X154585889Y-109044764D01*
X154345478Y-108798921D01*
X154053276Y-108504749D01*
X153866728Y-108316833D01*
X153480960Y-107930727D01*
X153146748Y-107603209D01*
X152865581Y-107335679D01*
X152638949Y-107129535D01*
X152468343Y-106986176D01*
X152384167Y-106924661D01*
X151930180Y-106679237D01*
X151433263Y-106510096D01*
X151175568Y-106455305D01*
X150839871Y-106396866D01*
X151099142Y-106362757D01*
X151579484Y-106342882D01*
X152061091Y-106406334D01*
G36*
X153576940Y-112997156D02*
G01*
X152963837Y-112997156D01*
X152963837Y-110544742D01*
X153576940Y-110544742D01*
X153576940Y-112997156D01*
G37*
X153576940Y-112997156D02*
X152963837Y-112997156D01*
X152963837Y-110544742D01*
X153576940Y-110544742D01*
X153576940Y-112997156D01*
G36*
X149197630Y-110544742D02*
G01*
X152306940Y-110544742D01*
X152306940Y-111201638D01*
X149153837Y-111201638D01*
X149153837Y-112296466D01*
X152306940Y-112296466D01*
X152306940Y-112953363D01*
X148540733Y-112953363D01*
X148540733Y-109274742D01*
X149197630Y-109274742D01*
X149197630Y-110544742D01*
G37*
X149197630Y-110544742D02*
X152306940Y-110544742D01*
X152306940Y-111201638D01*
X149153837Y-111201638D01*
X149153837Y-112296466D01*
X152306940Y-112296466D01*
X152306940Y-112953363D01*
X148540733Y-112953363D01*
X148540733Y-109274742D01*
X149197630Y-109274742D01*
X149197630Y-110544742D01*
G36*
X152306940Y-108661638D02*
G01*
X152920044Y-108661638D01*
X152920044Y-109318535D01*
X152306940Y-109318535D01*
X152306940Y-109975432D01*
X151697674Y-109975432D01*
X151671940Y-109340432D01*
X151036940Y-109314698D01*
X151036940Y-109931638D01*
X150380044Y-109931638D01*
X150380044Y-108092328D01*
X151036940Y-108092328D01*
X151036940Y-108661638D01*
X151693837Y-108661638D01*
X151693837Y-107479225D01*
X152306940Y-107479225D01*
X152306940Y-108661638D01*
G37*
X152306940Y-108661638D02*
X152920044Y-108661638D01*
X152920044Y-109318535D01*
X152306940Y-109318535D01*
X152306940Y-109975432D01*
X151697674Y-109975432D01*
X151671940Y-109340432D01*
X151036940Y-109314698D01*
X151036940Y-109931638D01*
X150380044Y-109931638D01*
X150380044Y-108092328D01*
X151036940Y-108092328D01*
X151036940Y-108661638D01*
X151693837Y-108661638D01*
X151693837Y-107479225D01*
X152306940Y-107479225D01*
X152306940Y-108661638D01*
G36*
X153576940Y-109931638D02*
G01*
X152920044Y-109931638D01*
X152920044Y-109318535D01*
X153576940Y-109318535D01*
X153576940Y-109931638D01*
G37*
X153576940Y-109931638D02*
X152920044Y-109931638D01*
X152920044Y-109318535D01*
X153576940Y-109318535D01*
X153576940Y-109931638D01*
G36*
X171575906Y-109625087D02*
G01*
X168379757Y-109625087D01*
X168368435Y-107227414D01*
X168357113Y-104829742D01*
X163309957Y-104818610D01*
X158262802Y-104807477D01*
X158262802Y-101618654D01*
X158270028Y-101611468D01*
X162707802Y-101611468D01*
X165532457Y-101600260D01*
X168357113Y-101589052D01*
X168368385Y-98797242D01*
X168369838Y-98311653D01*
X168370226Y-97852870D01*
X168369606Y-97428236D01*
X168368037Y-97045095D01*
X168365576Y-96710788D01*
X168362282Y-96432659D01*
X168358213Y-96218050D01*
X168353425Y-96074306D01*
X168347978Y-96008768D01*
X168346360Y-96005432D01*
X168311200Y-96035713D01*
X168218610Y-96123647D01*
X168073011Y-96264867D01*
X167878818Y-96455005D01*
X167640450Y-96689696D01*
X167362325Y-96964573D01*
X167048861Y-97275269D01*
X166704476Y-97617417D01*
X166333587Y-97986651D01*
X165940613Y-98378604D01*
X165529971Y-98788910D01*
X165510432Y-98808450D01*
X162707802Y-101611468D01*
X158270028Y-101611468D01*
X162956898Y-96950836D01*
X167650993Y-92283018D01*
X171575906Y-92283018D01*
X171575906Y-109625087D01*
G37*
X171575906Y-109625087D02*
X168379757Y-109625087D01*
X168368435Y-107227414D01*
X168357113Y-104829742D01*
X163309957Y-104818610D01*
X158262802Y-104807477D01*
X158262802Y-101618654D01*
X158270028Y-101611468D01*
X162707802Y-101611468D01*
X165532457Y-101600260D01*
X168357113Y-101589052D01*
X168368385Y-98797242D01*
X168369838Y-98311653D01*
X168370226Y-97852870D01*
X168369606Y-97428236D01*
X168368037Y-97045095D01*
X168365576Y-96710788D01*
X168362282Y-96432659D01*
X168358213Y-96218050D01*
X168353425Y-96074306D01*
X168347978Y-96008768D01*
X168346360Y-96005432D01*
X168311200Y-96035713D01*
X168218610Y-96123647D01*
X168073011Y-96264867D01*
X167878818Y-96455005D01*
X167640450Y-96689696D01*
X167362325Y-96964573D01*
X167048861Y-97275269D01*
X166704476Y-97617417D01*
X166333587Y-97986651D01*
X165940613Y-98378604D01*
X165529971Y-98788910D01*
X165510432Y-98808450D01*
X162707802Y-101611468D01*
X158270028Y-101611468D01*
X162956898Y-96950836D01*
X167650993Y-92283018D01*
X171575906Y-92283018D01*
X171575906Y-109625087D01*
G36*
X143129198Y-97090007D02*
G01*
X143244283Y-97196642D01*
X143352210Y-97320633D01*
X143358041Y-97328428D01*
X143460733Y-97467620D01*
X143460733Y-103176991D01*
X143460495Y-104075167D01*
X143459766Y-104888386D01*
X143458524Y-105619277D01*
X143456747Y-106270470D01*
X143454412Y-106844592D01*
X143451498Y-107344272D01*
X143447981Y-107772138D01*
X143443840Y-108130820D01*
X143439052Y-108422946D01*
X143433595Y-108651145D01*
X143427448Y-108818045D01*
X143420587Y-108926274D01*
X143412990Y-108978462D01*
X143411589Y-108982017D01*
X143308373Y-109131867D01*
X143165954Y-109278469D01*
X143020913Y-109384457D01*
X143014029Y-109388134D01*
X142984289Y-109398012D01*
X142931918Y-109406814D01*
X142852267Y-109414598D01*
X142740689Y-109421423D01*
X142592535Y-109427348D01*
X142403156Y-109432430D01*
X142167904Y-109436729D01*
X141882130Y-109440302D01*
X141541185Y-109443209D01*
X141140422Y-109445507D01*
X140675192Y-109447255D01*
X140140846Y-109448511D01*
X139532735Y-109449334D01*
X138846212Y-109449782D01*
X138098253Y-109449914D01*
X133300733Y-109449914D01*
X133300733Y-106340604D01*
X140351423Y-106340604D01*
X140351423Y-104764052D01*
X135545130Y-104763332D01*
X130738837Y-104762611D01*
X130563664Y-104664617D01*
X130383375Y-104514310D01*
X130289957Y-104371403D01*
X130191423Y-104176183D01*
X130191423Y-101066424D01*
X133307760Y-101066424D01*
X133307778Y-101283038D01*
X133310411Y-101454843D01*
X133315461Y-101565848D01*
X133320126Y-101598319D01*
X133339110Y-101608900D01*
X133390718Y-101618146D01*
X133479911Y-101626139D01*
X133611652Y-101632957D01*
X133790900Y-101638680D01*
X134022619Y-101643387D01*
X134311770Y-101647157D01*
X134663313Y-101650071D01*
X135082212Y-101652206D01*
X135573426Y-101653643D01*
X136141919Y-101654462D01*
X136792650Y-101654740D01*
X136846600Y-101654742D01*
X140351423Y-101654742D01*
X140351423Y-100077669D01*
X136837026Y-100088878D01*
X133322630Y-100100087D01*
X133310552Y-100820992D01*
X133307760Y-101066424D01*
X130191423Y-101066424D01*
X130191423Y-100871013D01*
X130191482Y-100254029D01*
X130191764Y-99718485D01*
X130192421Y-99258236D01*
X130193609Y-98867135D01*
X130195482Y-98539036D01*
X130198193Y-98267793D01*
X130201897Y-98047261D01*
X130206748Y-97871293D01*
X130212901Y-97733744D01*
X130220509Y-97628467D01*
X130229727Y-97549317D01*
X130240708Y-97490148D01*
X130253608Y-97444813D01*
X130268581Y-97407166D01*
X130278884Y-97385172D01*
X130368002Y-97244718D01*
X130480310Y-97121083D01*
X130508798Y-97097639D01*
X130651250Y-96990776D01*
X143003047Y-96990776D01*
X143129198Y-97090007D01*
G37*
X143129198Y-97090007D02*
X143244283Y-97196642D01*
X143352210Y-97320633D01*
X143358041Y-97328428D01*
X143460733Y-97467620D01*
X143460733Y-103176991D01*
X143460495Y-104075167D01*
X143459766Y-104888386D01*
X143458524Y-105619277D01*
X143456747Y-106270470D01*
X143454412Y-106844592D01*
X143451498Y-107344272D01*
X143447981Y-107772138D01*
X143443840Y-108130820D01*
X143439052Y-108422946D01*
X143433595Y-108651145D01*
X143427448Y-108818045D01*
X143420587Y-108926274D01*
X143412990Y-108978462D01*
X143411589Y-108982017D01*
X143308373Y-109131867D01*
X143165954Y-109278469D01*
X143020913Y-109384457D01*
X143014029Y-109388134D01*
X142984289Y-109398012D01*
X142931918Y-109406814D01*
X142852267Y-109414598D01*
X142740689Y-109421423D01*
X142592535Y-109427348D01*
X142403156Y-109432430D01*
X142167904Y-109436729D01*
X141882130Y-109440302D01*
X141541185Y-109443209D01*
X141140422Y-109445507D01*
X140675192Y-109447255D01*
X140140846Y-109448511D01*
X139532735Y-109449334D01*
X138846212Y-109449782D01*
X138098253Y-109449914D01*
X133300733Y-109449914D01*
X133300733Y-106340604D01*
X140351423Y-106340604D01*
X140351423Y-104764052D01*
X135545130Y-104763332D01*
X130738837Y-104762611D01*
X130563664Y-104664617D01*
X130383375Y-104514310D01*
X130289957Y-104371403D01*
X130191423Y-104176183D01*
X130191423Y-101066424D01*
X133307760Y-101066424D01*
X133307778Y-101283038D01*
X133310411Y-101454843D01*
X133315461Y-101565848D01*
X133320126Y-101598319D01*
X133339110Y-101608900D01*
X133390718Y-101618146D01*
X133479911Y-101626139D01*
X133611652Y-101632957D01*
X133790900Y-101638680D01*
X134022619Y-101643387D01*
X134311770Y-101647157D01*
X134663313Y-101650071D01*
X135082212Y-101652206D01*
X135573426Y-101653643D01*
X136141919Y-101654462D01*
X136792650Y-101654740D01*
X136846600Y-101654742D01*
X140351423Y-101654742D01*
X140351423Y-100077669D01*
X136837026Y-100088878D01*
X133322630Y-100100087D01*
X133310552Y-100820992D01*
X133307760Y-101066424D01*
X130191423Y-101066424D01*
X130191423Y-100871013D01*
X130191482Y-100254029D01*
X130191764Y-99718485D01*
X130192421Y-99258236D01*
X130193609Y-98867135D01*
X130195482Y-98539036D01*
X130198193Y-98267793D01*
X130201897Y-98047261D01*
X130206748Y-97871293D01*
X130212901Y-97733744D01*
X130220509Y-97628467D01*
X130229727Y-97549317D01*
X130240708Y-97490148D01*
X130253608Y-97444813D01*
X130268581Y-97407166D01*
X130278884Y-97385172D01*
X130368002Y-97244718D01*
X130480310Y-97121083D01*
X130508798Y-97097639D01*
X130651250Y-96990776D01*
X143003047Y-96990776D01*
X143129198Y-97090007D01*
G36*
X149989060Y-105481185D02*
G01*
X149933890Y-105518294D01*
X149802095Y-105588090D01*
X149656224Y-105661770D01*
X149444584Y-105776038D01*
X149223371Y-105908643D01*
X149030785Y-106036319D01*
X148978664Y-106074434D01*
X148871620Y-106163832D01*
X148715166Y-106305887D01*
X148517536Y-106492284D01*
X148286963Y-106714705D01*
X148031680Y-106964833D01*
X147759918Y-107234352D01*
X147479913Y-107514945D01*
X147199895Y-107798295D01*
X146928099Y-108076085D01*
X146672757Y-108339999D01*
X146442102Y-108581720D01*
X146244368Y-108792930D01*
X146087786Y-108965313D01*
X145980590Y-109090552D01*
X145941269Y-109142778D01*
X145861324Y-109258227D01*
X145804092Y-109331366D01*
X145781774Y-109346628D01*
X145781768Y-109346300D01*
X145802558Y-109271385D01*
X145858422Y-109140114D01*
X145939600Y-108971372D01*
X146036330Y-108784044D01*
X146138852Y-108597014D01*
X146237406Y-108429167D01*
X146322230Y-108299390D01*
X146324483Y-108296250D01*
X146413221Y-108186648D01*
X146554201Y-108029013D01*
X146737237Y-107833469D01*
X146952142Y-107610137D01*
X147188730Y-107369142D01*
X147436814Y-107120605D01*
X147686207Y-106874650D01*
X147926722Y-106641399D01*
X148148173Y-106430976D01*
X148340374Y-106253503D01*
X148493137Y-106119103D01*
X148596276Y-106037899D01*
X148598774Y-106036203D01*
X148855510Y-105883692D01*
X149156626Y-105736281D01*
X149463295Y-105611546D01*
X149707572Y-105534325D01*
X149874626Y-105492364D01*
X149968880Y-105473596D01*
X149989060Y-105481185D01*
G37*
X149989060Y-105481185D02*
X149933890Y-105518294D01*
X149802095Y-105588090D01*
X149656224Y-105661770D01*
X149444584Y-105776038D01*
X149223371Y-105908643D01*
X149030785Y-106036319D01*
X148978664Y-106074434D01*
X148871620Y-106163832D01*
X148715166Y-106305887D01*
X148517536Y-106492284D01*
X148286963Y-106714705D01*
X148031680Y-106964833D01*
X147759918Y-107234352D01*
X147479913Y-107514945D01*
X147199895Y-107798295D01*
X146928099Y-108076085D01*
X146672757Y-108339999D01*
X146442102Y-108581720D01*
X146244368Y-108792930D01*
X146087786Y-108965313D01*
X145980590Y-109090552D01*
X145941269Y-109142778D01*
X145861324Y-109258227D01*
X145804092Y-109331366D01*
X145781774Y-109346628D01*
X145781768Y-109346300D01*
X145802558Y-109271385D01*
X145858422Y-109140114D01*
X145939600Y-108971372D01*
X146036330Y-108784044D01*
X146138852Y-108597014D01*
X146237406Y-108429167D01*
X146322230Y-108299390D01*
X146324483Y-108296250D01*
X146413221Y-108186648D01*
X146554201Y-108029013D01*
X146737237Y-107833469D01*
X146952142Y-107610137D01*
X147188730Y-107369142D01*
X147436814Y-107120605D01*
X147686207Y-106874650D01*
X147926722Y-106641399D01*
X148148173Y-106430976D01*
X148340374Y-106253503D01*
X148493137Y-106119103D01*
X148596276Y-106037899D01*
X148598774Y-106036203D01*
X148855510Y-105883692D01*
X149156626Y-105736281D01*
X149463295Y-105611546D01*
X149707572Y-105534325D01*
X149874626Y-105492364D01*
X149968880Y-105473596D01*
X149989060Y-105481185D01*
G36*
X178856509Y-92283979D02*
G01*
X179722717Y-92284147D01*
X180505677Y-92284408D01*
X181209727Y-92284817D01*
X181839206Y-92285429D01*
X182398451Y-92286301D01*
X182891801Y-92287486D01*
X183323595Y-92289040D01*
X183698170Y-92291019D01*
X184019864Y-92293477D01*
X184293017Y-92296470D01*
X184521965Y-92300054D01*
X184711048Y-92304282D01*
X184864604Y-92309211D01*
X184986970Y-92314895D01*
X185082485Y-92321390D01*
X185155488Y-92328751D01*
X185210316Y-92337034D01*
X185251308Y-92346293D01*
X185282802Y-92356583D01*
X185305044Y-92366043D01*
X185448354Y-92449816D01*
X185578292Y-92552969D01*
X185598324Y-92573099D01*
X185645125Y-92622548D01*
X185685803Y-92668359D01*
X185720785Y-92716704D01*
X185750498Y-92773758D01*
X185775369Y-92845692D01*
X185795824Y-92938681D01*
X185812291Y-93058898D01*
X185825196Y-93212517D01*
X185834967Y-93405710D01*
X185842030Y-93644652D01*
X185846812Y-93935514D01*
X185849741Y-94284472D01*
X185851243Y-94697698D01*
X185851745Y-95181365D01*
X185851674Y-95741647D01*
X185851496Y-96233939D01*
X185851211Y-96843216D01*
X185850649Y-97371129D01*
X185849661Y-97823899D01*
X185848100Y-98207746D01*
X185845815Y-98528893D01*
X185842661Y-98793560D01*
X185838487Y-99007969D01*
X185833145Y-99178341D01*
X185826488Y-99310898D01*
X185818367Y-99411861D01*
X185808633Y-99487451D01*
X185797138Y-99543889D01*
X185783734Y-99587397D01*
X185770784Y-99618738D01*
X185646221Y-99812211D01*
X185471517Y-99979748D01*
X185275400Y-100095808D01*
X185207706Y-100119350D01*
X185132052Y-100127971D01*
X184970294Y-100135698D01*
X184722270Y-100142533D01*
X184387820Y-100148476D01*
X183966782Y-100153530D01*
X183458995Y-100157696D01*
X182864297Y-100160976D01*
X182182527Y-100163371D01*
X181413524Y-100164883D01*
X180557127Y-100165513D01*
X180411164Y-100165532D01*
X175780044Y-100165776D01*
X175780044Y-101610949D01*
X185852457Y-101610949D01*
X185852457Y-104807845D01*
X172583147Y-104807845D01*
X172583147Y-97639552D01*
X172685044Y-97446544D01*
X172786408Y-97301079D01*
X172920813Y-97163519D01*
X172973460Y-97122156D01*
X173159980Y-96990776D01*
X177896822Y-96968880D01*
X182633664Y-96946983D01*
X182633664Y-95501811D01*
X177608406Y-95490678D01*
X172583147Y-95479545D01*
X172583147Y-92283018D01*
X178856509Y-92283979D01*
G37*
X178856509Y-92283979D02*
X179722717Y-92284147D01*
X180505677Y-92284408D01*
X181209727Y-92284817D01*
X181839206Y-92285429D01*
X182398451Y-92286301D01*
X182891801Y-92287486D01*
X183323595Y-92289040D01*
X183698170Y-92291019D01*
X184019864Y-92293477D01*
X184293017Y-92296470D01*
X184521965Y-92300054D01*
X184711048Y-92304282D01*
X184864604Y-92309211D01*
X184986970Y-92314895D01*
X185082485Y-92321390D01*
X185155488Y-92328751D01*
X185210316Y-92337034D01*
X185251308Y-92346293D01*
X185282802Y-92356583D01*
X185305044Y-92366043D01*
X185448354Y-92449816D01*
X185578292Y-92552969D01*
X185598324Y-92573099D01*
X185645125Y-92622548D01*
X185685803Y-92668359D01*
X185720785Y-92716704D01*
X185750498Y-92773758D01*
X185775369Y-92845692D01*
X185795824Y-92938681D01*
X185812291Y-93058898D01*
X185825196Y-93212517D01*
X185834967Y-93405710D01*
X185842030Y-93644652D01*
X185846812Y-93935514D01*
X185849741Y-94284472D01*
X185851243Y-94697698D01*
X185851745Y-95181365D01*
X185851674Y-95741647D01*
X185851496Y-96233939D01*
X185851211Y-96843216D01*
X185850649Y-97371129D01*
X185849661Y-97823899D01*
X185848100Y-98207746D01*
X185845815Y-98528893D01*
X185842661Y-98793560D01*
X185838487Y-99007969D01*
X185833145Y-99178341D01*
X185826488Y-99310898D01*
X185818367Y-99411861D01*
X185808633Y-99487451D01*
X185797138Y-99543889D01*
X185783734Y-99587397D01*
X185770784Y-99618738D01*
X185646221Y-99812211D01*
X185471517Y-99979748D01*
X185275400Y-100095808D01*
X185207706Y-100119350D01*
X185132052Y-100127971D01*
X184970294Y-100135698D01*
X184722270Y-100142533D01*
X184387820Y-100148476D01*
X183966782Y-100153530D01*
X183458995Y-100157696D01*
X182864297Y-100160976D01*
X182182527Y-100163371D01*
X181413524Y-100164883D01*
X180557127Y-100165513D01*
X180411164Y-100165532D01*
X175780044Y-100165776D01*
X175780044Y-101610949D01*
X185852457Y-101610949D01*
X185852457Y-104807845D01*
X172583147Y-104807845D01*
X172583147Y-97639552D01*
X172685044Y-97446544D01*
X172786408Y-97301079D01*
X172920813Y-97163519D01*
X172973460Y-97122156D01*
X173159980Y-96990776D01*
X177896822Y-96968880D01*
X182633664Y-96946983D01*
X182633664Y-95501811D01*
X177608406Y-95490678D01*
X172583147Y-95479545D01*
X172583147Y-92283018D01*
X178856509Y-92283979D01*
G36*
X115345561Y-95392328D02*
G01*
X108292850Y-95392328D01*
X108304809Y-96169656D01*
X108316768Y-96946983D01*
X111831164Y-96958192D01*
X115345561Y-96969401D01*
X115345561Y-100078190D01*
X105185561Y-100078190D01*
X105185561Y-101654742D01*
X115345561Y-101654742D01*
X115345561Y-104764052D01*
X108984613Y-104762338D01*
X108088063Y-104761977D01*
X107275217Y-104761375D01*
X106542192Y-104760496D01*
X105885106Y-104759305D01*
X105300077Y-104757765D01*
X104783221Y-104755841D01*
X104330658Y-104753495D01*
X103938503Y-104750693D01*
X103602875Y-104747397D01*
X103319892Y-104743572D01*
X103085670Y-104739182D01*
X102896329Y-104734190D01*
X102747984Y-104728561D01*
X102636755Y-104722259D01*
X102558757Y-104715246D01*
X102510111Y-104707488D01*
X102492285Y-104701982D01*
X102318077Y-104587480D01*
X102170398Y-104424286D01*
X102078131Y-104244713D01*
X102075388Y-104235527D01*
X102067105Y-104162327D01*
X102059573Y-104005851D01*
X102052846Y-103770407D01*
X102046980Y-103460305D01*
X102042029Y-103079851D01*
X102038047Y-102633355D01*
X102035090Y-102125124D01*
X102033212Y-101559467D01*
X102032468Y-100940691D01*
X102032457Y-100854400D01*
X102032454Y-100228128D01*
X102032703Y-99683316D01*
X102033592Y-99213837D01*
X102035510Y-98813565D01*
X102038846Y-98476373D01*
X102043987Y-98196134D01*
X102051323Y-97966724D01*
X102061242Y-97782014D01*
X102074132Y-97635879D01*
X102090382Y-97522191D01*
X102110380Y-97434826D01*
X102134515Y-97367655D01*
X102163175Y-97314554D01*
X102196748Y-97269394D01*
X102235623Y-97226051D01*
X102264461Y-97195370D01*
X102319498Y-97139048D01*
X102374622Y-97094028D01*
X102440047Y-97058850D01*
X102525988Y-97032057D01*
X102642658Y-97012188D01*
X102800271Y-96997785D01*
X103009040Y-96987388D01*
X103279180Y-96979538D01*
X103620903Y-96972777D01*
X103849871Y-96968880D01*
X105163664Y-96946983D01*
X105185561Y-94841454D01*
X105207457Y-92735925D01*
X105330152Y-92575115D01*
X105364760Y-92526780D01*
X105393964Y-92483661D01*
X105422678Y-92445451D01*
X105455813Y-92411841D01*
X105498281Y-92382526D01*
X105554993Y-92357197D01*
X105630863Y-92335547D01*
X105730800Y-92317269D01*
X105859719Y-92302056D01*
X106022530Y-92289601D01*
X106224145Y-92279595D01*
X106469476Y-92271732D01*
X106763435Y-92265705D01*
X107110935Y-92261206D01*
X107516886Y-92257928D01*
X107986201Y-92255564D01*
X108523792Y-92253806D01*
X109134571Y-92252347D01*
X109823448Y-92250881D01*
X110539268Y-92249238D01*
X115345561Y-92237355D01*
X115345561Y-95392328D01*
G37*
X115345561Y-95392328D02*
X108292850Y-95392328D01*
X108304809Y-96169656D01*
X108316768Y-96946983D01*
X111831164Y-96958192D01*
X115345561Y-96969401D01*
X115345561Y-100078190D01*
X105185561Y-100078190D01*
X105185561Y-101654742D01*
X115345561Y-101654742D01*
X115345561Y-104764052D01*
X108984613Y-104762338D01*
X108088063Y-104761977D01*
X107275217Y-104761375D01*
X106542192Y-104760496D01*
X105885106Y-104759305D01*
X105300077Y-104757765D01*
X104783221Y-104755841D01*
X104330658Y-104753495D01*
X103938503Y-104750693D01*
X103602875Y-104747397D01*
X103319892Y-104743572D01*
X103085670Y-104739182D01*
X102896329Y-104734190D01*
X102747984Y-104728561D01*
X102636755Y-104722259D01*
X102558757Y-104715246D01*
X102510111Y-104707488D01*
X102492285Y-104701982D01*
X102318077Y-104587480D01*
X102170398Y-104424286D01*
X102078131Y-104244713D01*
X102075388Y-104235527D01*
X102067105Y-104162327D01*
X102059573Y-104005851D01*
X102052846Y-103770407D01*
X102046980Y-103460305D01*
X102042029Y-103079851D01*
X102038047Y-102633355D01*
X102035090Y-102125124D01*
X102033212Y-101559467D01*
X102032468Y-100940691D01*
X102032457Y-100854400D01*
X102032454Y-100228128D01*
X102032703Y-99683316D01*
X102033592Y-99213837D01*
X102035510Y-98813565D01*
X102038846Y-98476373D01*
X102043987Y-98196134D01*
X102051323Y-97966724D01*
X102061242Y-97782014D01*
X102074132Y-97635879D01*
X102090382Y-97522191D01*
X102110380Y-97434826D01*
X102134515Y-97367655D01*
X102163175Y-97314554D01*
X102196748Y-97269394D01*
X102235623Y-97226051D01*
X102264461Y-97195370D01*
X102319498Y-97139048D01*
X102374622Y-97094028D01*
X102440047Y-97058850D01*
X102525988Y-97032057D01*
X102642658Y-97012188D01*
X102800271Y-96997785D01*
X103009040Y-96987388D01*
X103279180Y-96979538D01*
X103620903Y-96972777D01*
X103849871Y-96968880D01*
X105163664Y-96946983D01*
X105185561Y-94841454D01*
X105207457Y-92735925D01*
X105330152Y-92575115D01*
X105364760Y-92526780D01*
X105393964Y-92483661D01*
X105422678Y-92445451D01*
X105455813Y-92411841D01*
X105498281Y-92382526D01*
X105554993Y-92357197D01*
X105630863Y-92335547D01*
X105730800Y-92317269D01*
X105859719Y-92302056D01*
X106022530Y-92289601D01*
X106224145Y-92279595D01*
X106469476Y-92271732D01*
X106763435Y-92265705D01*
X107110935Y-92261206D01*
X107516886Y-92257928D01*
X107986201Y-92255564D01*
X108523792Y-92253806D01*
X109134571Y-92252347D01*
X109823448Y-92250881D01*
X110539268Y-92249238D01*
X115345561Y-92237355D01*
X115345561Y-95392328D01*
G36*
X121361665Y-96968520D02*
G01*
X122165898Y-96968761D01*
X123029076Y-96968880D01*
X129403147Y-96968880D01*
X129403147Y-100078190D01*
X119243147Y-100078190D01*
X119243147Y-104764052D01*
X116133837Y-104764052D01*
X116133837Y-97463745D01*
X116264353Y-97283573D01*
X116292654Y-97240942D01*
X116315615Y-97202319D01*
X116337463Y-97167509D01*
X116362429Y-97136313D01*
X116394741Y-97108537D01*
X116438628Y-97083982D01*
X116498319Y-97062453D01*
X116578043Y-97043752D01*
X116682029Y-97027683D01*
X116814506Y-97014049D01*
X116979703Y-97002654D01*
X117181850Y-96993299D01*
X117425175Y-96985790D01*
X117713906Y-96979929D01*
X118052274Y-96975519D01*
X118444507Y-96972363D01*
X118894835Y-96970266D01*
X119407485Y-96969030D01*
X119986688Y-96968458D01*
X120636671Y-96968353D01*
X121361665Y-96968520D01*
G37*
X121361665Y-96968520D02*
X122165898Y-96968761D01*
X123029076Y-96968880D01*
X129403147Y-96968880D01*
X129403147Y-100078190D01*
X119243147Y-100078190D01*
X119243147Y-104764052D01*
X116133837Y-104764052D01*
X116133837Y-97463745D01*
X116264353Y-97283573D01*
X116292654Y-97240942D01*
X116315615Y-97202319D01*
X116337463Y-97167509D01*
X116362429Y-97136313D01*
X116394741Y-97108537D01*
X116438628Y-97083982D01*
X116498319Y-97062453D01*
X116578043Y-97043752D01*
X116682029Y-97027683D01*
X116814506Y-97014049D01*
X116979703Y-97002654D01*
X117181850Y-96993299D01*
X117425175Y-96985790D01*
X117713906Y-96979929D01*
X118052274Y-96975519D01*
X118444507Y-96972363D01*
X118894835Y-96970266D01*
X119407485Y-96969030D01*
X119986688Y-96968458D01*
X120636671Y-96968353D01*
X121361665Y-96968520D01*
G36*
X153874788Y-96968899D02*
G01*
X154430735Y-96969649D01*
X154920833Y-96971051D01*
X155349430Y-96973283D01*
X155720872Y-96976522D01*
X156039507Y-96980945D01*
X156309682Y-96986730D01*
X156535745Y-96994053D01*
X156722043Y-97003093D01*
X156872924Y-97014027D01*
X156992734Y-97027031D01*
X157085822Y-97042283D01*
X157156534Y-97059961D01*
X157209218Y-97080241D01*
X157248221Y-97103301D01*
X157277891Y-97129318D01*
X157302575Y-97158470D01*
X157326620Y-97190934D01*
X157354374Y-97226887D01*
X157358660Y-97232039D01*
X157448614Y-97367453D01*
X157515524Y-97516422D01*
X157519467Y-97529215D01*
X157529484Y-97602338D01*
X157537901Y-97748619D01*
X157544736Y-97969856D01*
X157550007Y-98267849D01*
X157553732Y-98644397D01*
X157555928Y-99101298D01*
X157556614Y-99640351D01*
X157555806Y-100263355D01*
X157553522Y-100972109D01*
X157553479Y-100982854D01*
X157540216Y-104274242D01*
X157405723Y-104442509D01*
X157372764Y-104487014D01*
X157345666Y-104527239D01*
X157320080Y-104563398D01*
X157291657Y-104595705D01*
X157256048Y-104624374D01*
X157208904Y-104649618D01*
X157145877Y-104671653D01*
X157062616Y-104690691D01*
X156954774Y-104706947D01*
X156818000Y-104720634D01*
X156647947Y-104731967D01*
X156440265Y-104741160D01*
X156190605Y-104748426D01*
X155894618Y-104753979D01*
X155547956Y-104758034D01*
X155146268Y-104760804D01*
X154685206Y-104762503D01*
X154160422Y-104763345D01*
X153567566Y-104763544D01*
X152902288Y-104763314D01*
X152160241Y-104762869D01*
X151337075Y-104762423D01*
X150905561Y-104762270D01*
X150030712Y-104761906D01*
X149239473Y-104761286D01*
X148527867Y-104760372D01*
X147891917Y-104759126D01*
X147327648Y-104757507D01*
X146831084Y-104755478D01*
X146398246Y-104753000D01*
X146025160Y-104750035D01*
X145707849Y-104746543D01*
X145442336Y-104742486D01*
X145224645Y-104737825D01*
X145050800Y-104732522D01*
X144916824Y-104726537D01*
X144818741Y-104719833D01*
X144752575Y-104712370D01*
X144714348Y-104704111D01*
X144708837Y-104701982D01*
X144528561Y-104582734D01*
X144381569Y-104413297D01*
X144293649Y-104223950D01*
X144290338Y-104210579D01*
X144283910Y-104139790D01*
X144277783Y-103988752D01*
X144272042Y-103764806D01*
X144266775Y-103475289D01*
X144262071Y-103127539D01*
X144258016Y-102728895D01*
X144254698Y-102286696D01*
X144252205Y-101808279D01*
X144250623Y-101300983D01*
X144250054Y-100832215D01*
X144249848Y-100208146D01*
X144249866Y-100078190D01*
X147402113Y-100078190D01*
X147402113Y-101654742D01*
X154409009Y-101654742D01*
X154409009Y-100078190D01*
X147402113Y-100078190D01*
X144249866Y-100078190D01*
X144249925Y-99665514D01*
X144250676Y-99198167D01*
X144252490Y-98799956D01*
X144255760Y-98464730D01*
X144260874Y-98186339D01*
X144268224Y-97958633D01*
X144278201Y-97775461D01*
X144291194Y-97630673D01*
X144307595Y-97518119D01*
X144327794Y-97431650D01*
X144352181Y-97365113D01*
X144381147Y-97312360D01*
X144415083Y-97267240D01*
X144454379Y-97223603D01*
X144481013Y-97195230D01*
X144508717Y-97163862D01*
X144533230Y-97135525D01*
X144558913Y-97110066D01*
X144590124Y-97087331D01*
X144631225Y-97067167D01*
X144686572Y-97049421D01*
X144760527Y-97033938D01*
X144857449Y-97020564D01*
X144981697Y-97009148D01*
X145137630Y-96999534D01*
X145329609Y-96991569D01*
X145561992Y-96985100D01*
X145839139Y-96979973D01*
X146165410Y-96976034D01*
X146545164Y-96973130D01*
X146982759Y-96971108D01*
X147482557Y-96969813D01*
X148048916Y-96969092D01*
X148686196Y-96968791D01*
X149398756Y-96968758D01*
X150190956Y-96968838D01*
X150905561Y-96968880D01*
X151768378Y-96968792D01*
X152547957Y-96968648D01*
X153248644Y-96968625D01*
X153874788Y-96968899D01*
G37*
X153874788Y-96968899D02*
X154430735Y-96969649D01*
X154920833Y-96971051D01*
X155349430Y-96973283D01*
X155720872Y-96976522D01*
X156039507Y-96980945D01*
X156309682Y-96986730D01*
X156535745Y-96994053D01*
X156722043Y-97003093D01*
X156872924Y-97014027D01*
X156992734Y-97027031D01*
X157085822Y-97042283D01*
X157156534Y-97059961D01*
X157209218Y-97080241D01*
X157248221Y-97103301D01*
X157277891Y-97129318D01*
X157302575Y-97158470D01*
X157326620Y-97190934D01*
X157354374Y-97226887D01*
X157358660Y-97232039D01*
X157448614Y-97367453D01*
X157515524Y-97516422D01*
X157519467Y-97529215D01*
X157529484Y-97602338D01*
X157537901Y-97748619D01*
X157544736Y-97969856D01*
X157550007Y-98267849D01*
X157553732Y-98644397D01*
X157555928Y-99101298D01*
X157556614Y-99640351D01*
X157555806Y-100263355D01*
X157553522Y-100972109D01*
X157553479Y-100982854D01*
X157540216Y-104274242D01*
X157405723Y-104442509D01*
X157372764Y-104487014D01*
X157345666Y-104527239D01*
X157320080Y-104563398D01*
X157291657Y-104595705D01*
X157256048Y-104624374D01*
X157208904Y-104649618D01*
X157145877Y-104671653D01*
X157062616Y-104690691D01*
X156954774Y-104706947D01*
X156818000Y-104720634D01*
X156647947Y-104731967D01*
X156440265Y-104741160D01*
X156190605Y-104748426D01*
X155894618Y-104753979D01*
X155547956Y-104758034D01*
X155146268Y-104760804D01*
X154685206Y-104762503D01*
X154160422Y-104763345D01*
X153567566Y-104763544D01*
X152902288Y-104763314D01*
X152160241Y-104762869D01*
X151337075Y-104762423D01*
X150905561Y-104762270D01*
X150030712Y-104761906D01*
X149239473Y-104761286D01*
X148527867Y-104760372D01*
X147891917Y-104759126D01*
X147327648Y-104757507D01*
X146831084Y-104755478D01*
X146398246Y-104753000D01*
X146025160Y-104750035D01*
X145707849Y-104746543D01*
X145442336Y-104742486D01*
X145224645Y-104737825D01*
X145050800Y-104732522D01*
X144916824Y-104726537D01*
X144818741Y-104719833D01*
X144752575Y-104712370D01*
X144714348Y-104704111D01*
X144708837Y-104701982D01*
X144528561Y-104582734D01*
X144381569Y-104413297D01*
X144293649Y-104223950D01*
X144290338Y-104210579D01*
X144283910Y-104139790D01*
X144277783Y-103988752D01*
X144272042Y-103764806D01*
X144266775Y-103475289D01*
X144262071Y-103127539D01*
X144258016Y-102728895D01*
X144254698Y-102286696D01*
X144252205Y-101808279D01*
X144250623Y-101300983D01*
X144250054Y-100832215D01*
X144249848Y-100208146D01*
X144249866Y-100078190D01*
X147402113Y-100078190D01*
X147402113Y-101654742D01*
X154409009Y-101654742D01*
X154409009Y-100078190D01*
X147402113Y-100078190D01*
X144249866Y-100078190D01*
X144249925Y-99665514D01*
X144250676Y-99198167D01*
X144252490Y-98799956D01*
X144255760Y-98464730D01*
X144260874Y-98186339D01*
X144268224Y-97958633D01*
X144278201Y-97775461D01*
X144291194Y-97630673D01*
X144307595Y-97518119D01*
X144327794Y-97431650D01*
X144352181Y-97365113D01*
X144381147Y-97312360D01*
X144415083Y-97267240D01*
X144454379Y-97223603D01*
X144481013Y-97195230D01*
X144508717Y-97163862D01*
X144533230Y-97135525D01*
X144558913Y-97110066D01*
X144590124Y-97087331D01*
X144631225Y-97067167D01*
X144686572Y-97049421D01*
X144760527Y-97033938D01*
X144857449Y-97020564D01*
X144981697Y-97009148D01*
X145137630Y-96999534D01*
X145329609Y-96991569D01*
X145561992Y-96985100D01*
X145839139Y-96979973D01*
X146165410Y-96976034D01*
X146545164Y-96973130D01*
X146982759Y-96971108D01*
X147482557Y-96969813D01*
X148048916Y-96969092D01*
X148686196Y-96968791D01*
X149398756Y-96968758D01*
X150190956Y-96968838D01*
X150905561Y-96968880D01*
X151768378Y-96968792D01*
X152547957Y-96968648D01*
X153248644Y-96968625D01*
X153874788Y-96968899D01*
D13*
X180478000Y-41573267D02*
X180478000Y-41230733D01*
X179458000Y-41573267D02*
X179458000Y-41230733D01*
X175305000Y-41346000D02*
X178165000Y-41346000D01*
X175305000Y-39426000D02*
X175305000Y-41346000D01*
X178165000Y-39426000D02*
X175305000Y-39426000D01*
X192480000Y-121285000D02*
G75*
G03X192480000Y-121285000I-3250000J0D01*
G01*
X176479000Y-62706000D02*
X176479000Y-58706000D01*
X173279000Y-62706000D02*
X176479000Y-62706000D01*
X194965000Y-55035000D02*
X197465000Y-55035000D01*
X193465000Y-56785000D02*
X193465000Y-58785000D01*
X194965000Y-60535000D02*
X197465000Y-60535000D01*
X198965000Y-56785000D02*
X198965000Y-58785000D01*
X194515000Y-55485000D02*
X194965000Y-55035000D01*
X197915000Y-55485000D02*
X197465000Y-55035000D01*
X197915000Y-60085000D02*
X197465000Y-60535000D01*
X194515000Y-60085000D02*
X194965000Y-60535000D01*
D10*
X80055000Y-69760000D02*
X80055000Y-70460000D01*
X80055000Y-67260000D02*
X81455000Y-67260000D01*
D15*
X90155000Y-72360000D02*
X87455000Y-72360000D01*
D16*
X87471318Y-72138529D02*
G75*
G03X85255000Y-70260000I-2151318J-291471D01*
G01*
D11*
X79855000Y-67410000D02*
X79855000Y-67060000D01*
X90355001Y-68960000D02*
G75*
G03X88255000Y-67059999I-2000001J-100000D01*
G01*
X87071318Y-72538529D02*
G75*
G03X84855000Y-70660000I-2151318J-291471D01*
G01*
X79855000Y-67060000D02*
X88255000Y-67059999D01*
X84855000Y-70660000D02*
X79855000Y-70660000D01*
X90355000Y-72560000D02*
X87075000Y-72560000D01*
X90355000Y-68960000D02*
X90355000Y-69960000D01*
X90355000Y-72560000D02*
X90355000Y-72200000D01*
X90155000Y-72200000D02*
X90355000Y-72200000D01*
X90125000Y-69960000D02*
X90125000Y-72200000D01*
X90355000Y-69960000D02*
X90155000Y-69960000D01*
X80055000Y-67410000D02*
X79855000Y-67410000D01*
X80075000Y-69660000D02*
X80075000Y-67410000D01*
X79855000Y-69660000D02*
X80055000Y-69660000D01*
X79855000Y-70660000D02*
X79855000Y-69660000D01*
D17*
X81855000Y-68860000D02*
X88555000Y-68860000D01*
D16*
X80555000Y-67660000D02*
X80555000Y-70160000D01*
D15*
X80155000Y-70360000D02*
X81555000Y-70360000D01*
D18*
X88625000Y-68560000D02*
X88625000Y-70800000D01*
D19*
X89755000Y-72060000D02*
X89755000Y-70260000D01*
D20*
X90254999Y-69860000D02*
X90255000Y-68960001D01*
D13*
X196043733Y-54358000D02*
X196386267Y-54358000D01*
X196043733Y-53338000D02*
X196386267Y-53338000D01*
X159302267Y-56132000D02*
X158959733Y-56132000D01*
X159302267Y-57152000D02*
X158959733Y-57152000D01*
X159302267Y-43432000D02*
X158959733Y-43432000D01*
X159302267Y-44452000D02*
X158959733Y-44452000D01*
X201377733Y-47246000D02*
X201720267Y-47246000D01*
X201377733Y-46226000D02*
X201720267Y-46226000D01*
X201377733Y-53850000D02*
X201720267Y-53850000D01*
X201377733Y-52830000D02*
X201720267Y-52830000D01*
X159302267Y-57656000D02*
X158959733Y-57656000D01*
X159302267Y-58676000D02*
X158959733Y-58676000D01*
X167684267Y-50544000D02*
X167341733Y-50544000D01*
X167684267Y-51564000D02*
X167341733Y-51564000D01*
X167684267Y-49020000D02*
X167341733Y-49020000D01*
X167684267Y-50040000D02*
X167341733Y-50040000D01*
D11*
X198715000Y-39878000D02*
X198715000Y-37878000D01*
X193715000Y-37878000D02*
X193715000Y-39878000D01*
X198715000Y-37878000D02*
X193715000Y-37878000D01*
X199215000Y-39878000D02*
X199215000Y-51978000D01*
X193215000Y-51978000D02*
X199215000Y-51978000D01*
X193215000Y-39878000D02*
X193215000Y-51978000D01*
X199215000Y-39878000D02*
X193215000Y-39878000D01*
D13*
X97230000Y-121285000D02*
G75*
G03X97230000Y-121285000I-3250000J0D01*
G01*
X135330000Y-102235000D02*
G75*
G03X135330000Y-102235000I-3250000J0D01*
G01*
X192480000Y-83185000D02*
G75*
G03X192480000Y-83185000I-3250000J0D01*
G01*
X97230000Y-83185000D02*
G75*
G03X97230000Y-83185000I-3250000J0D01*
G01*
X199689000Y-45664000D02*
X202549000Y-45664000D01*
X199689000Y-43744000D02*
X199689000Y-45664000D01*
X202549000Y-43744000D02*
X199689000Y-43744000D01*
X199689000Y-52268000D02*
X202549000Y-52268000D01*
X199689000Y-50348000D02*
X199689000Y-52268000D01*
X202549000Y-50348000D02*
X199689000Y-50348000D01*
X171321000Y-56075732D02*
X171321000Y-56418266D01*
X172341000Y-56075732D02*
X172341000Y-56418266D01*
X184881238Y-42535011D02*
X185123447Y-42292802D01*
X184159989Y-41813762D02*
X184402198Y-41571553D01*
X186589271Y-47991520D02*
X186831480Y-48233729D01*
X187310520Y-47270271D02*
X187552729Y-47512480D01*
X174385480Y-48540271D02*
X174143271Y-48782480D01*
X175106729Y-49261520D02*
X174864520Y-49503729D01*
X171829000Y-60534733D02*
X171829000Y-60877267D01*
X172849000Y-60534733D02*
X172849000Y-60877267D01*
X175050267Y-63244000D02*
X174707733Y-63244000D01*
X175050267Y-64264000D02*
X174707733Y-64264000D01*
D10*
X194355000Y-126910000D02*
X194355000Y-127610000D01*
X194355000Y-124410000D02*
X195755000Y-124410000D01*
D15*
X204455000Y-129510000D02*
X201755000Y-129510000D01*
D16*
X201771318Y-129288529D02*
G75*
G03X199555000Y-127410000I-2151318J-291471D01*
G01*
D11*
X194155000Y-124560000D02*
X194155000Y-124210000D01*
X204655001Y-126110000D02*
G75*
G03X202555000Y-124209999I-2000001J-100000D01*
G01*
X201371318Y-129688529D02*
G75*
G03X199155000Y-127810000I-2151318J-291471D01*
G01*
X194155000Y-124210000D02*
X202555000Y-124209999D01*
X199155000Y-127810000D02*
X194155000Y-127810000D01*
X204655000Y-129710000D02*
X201375000Y-129710000D01*
X204655000Y-126110000D02*
X204655000Y-127110000D01*
X204655000Y-129710000D02*
X204655000Y-129350000D01*
X204455000Y-129350000D02*
X204655000Y-129350000D01*
X204425000Y-127110000D02*
X204425000Y-129350000D01*
X204655000Y-127110000D02*
X204455000Y-127110000D01*
X194355000Y-124560000D02*
X194155000Y-124560000D01*
X194375000Y-126810000D02*
X194375000Y-124560000D01*
X194155000Y-126810000D02*
X194355000Y-126810000D01*
X194155000Y-127810000D02*
X194155000Y-126810000D01*
D17*
X196155000Y-126010000D02*
X202855000Y-126010000D01*
D16*
X194855000Y-124810000D02*
X194855000Y-127310000D01*
D15*
X194455000Y-127510000D02*
X195855000Y-127510000D01*
D18*
X202925000Y-125710000D02*
X202925000Y-127950000D01*
D19*
X204055000Y-129210000D02*
X204055000Y-127410000D01*
D20*
X204554999Y-127010000D02*
X204555000Y-126110001D01*
D10*
X175305000Y-126910000D02*
X175305000Y-127610000D01*
X175305000Y-124410000D02*
X176705000Y-124410000D01*
D15*
X185405000Y-129510000D02*
X182705000Y-129510000D01*
D16*
X182721318Y-129288529D02*
G75*
G03X180505000Y-127410000I-2151318J-291471D01*
G01*
D11*
X175105000Y-124560000D02*
X175105000Y-124210000D01*
X185605001Y-126110000D02*
G75*
G03X183505000Y-124209999I-2000001J-100000D01*
G01*
X182321318Y-129688529D02*
G75*
G03X180105000Y-127810000I-2151318J-291471D01*
G01*
X175105000Y-124210000D02*
X183505000Y-124209999D01*
X180105000Y-127810000D02*
X175105000Y-127810000D01*
X185605000Y-129710000D02*
X182325000Y-129710000D01*
X185605000Y-126110000D02*
X185605000Y-127110000D01*
X185605000Y-129710000D02*
X185605000Y-129350000D01*
X185405000Y-129350000D02*
X185605000Y-129350000D01*
X185375000Y-127110000D02*
X185375000Y-129350000D01*
X185605000Y-127110000D02*
X185405000Y-127110000D01*
X175305000Y-124560000D02*
X175105000Y-124560000D01*
X175325000Y-126810000D02*
X175325000Y-124560000D01*
X175105000Y-126810000D02*
X175305000Y-126810000D01*
X175105000Y-127810000D02*
X175105000Y-126810000D01*
D17*
X177105000Y-126010000D02*
X183805000Y-126010000D01*
D16*
X175805000Y-124810000D02*
X175805000Y-127310000D01*
D15*
X175405000Y-127510000D02*
X176805000Y-127510000D01*
D18*
X183875000Y-125710000D02*
X183875000Y-127950000D01*
D19*
X185005000Y-129210000D02*
X185005000Y-127410000D01*
D20*
X185504999Y-127010000D02*
X185505000Y-126110001D01*
D10*
X156255000Y-126910000D02*
X156255000Y-127610000D01*
X156255000Y-124410000D02*
X157655000Y-124410000D01*
D15*
X166355000Y-129510000D02*
X163655000Y-129510000D01*
D16*
X163671318Y-129288529D02*
G75*
G03X161455000Y-127410000I-2151318J-291471D01*
G01*
D11*
X156055000Y-124560000D02*
X156055000Y-124210000D01*
X166555001Y-126110000D02*
G75*
G03X164455000Y-124209999I-2000001J-100000D01*
G01*
X163271318Y-129688529D02*
G75*
G03X161055000Y-127810000I-2151318J-291471D01*
G01*
X156055000Y-124210000D02*
X164455000Y-124209999D01*
X161055000Y-127810000D02*
X156055000Y-127810000D01*
X166555000Y-129710000D02*
X163275000Y-129710000D01*
X166555000Y-126110000D02*
X166555000Y-127110000D01*
X166555000Y-129710000D02*
X166555000Y-129350000D01*
X166355000Y-129350000D02*
X166555000Y-129350000D01*
X166325000Y-127110000D02*
X166325000Y-129350000D01*
X166555000Y-127110000D02*
X166355000Y-127110000D01*
X156255000Y-124560000D02*
X156055000Y-124560000D01*
X156275000Y-126810000D02*
X156275000Y-124560000D01*
X156055000Y-126810000D02*
X156255000Y-126810000D01*
X156055000Y-127810000D02*
X156055000Y-126810000D01*
D17*
X158055000Y-126010000D02*
X164755000Y-126010000D01*
D16*
X156755000Y-124810000D02*
X156755000Y-127310000D01*
D15*
X156355000Y-127510000D02*
X157755000Y-127510000D01*
D18*
X164825000Y-125710000D02*
X164825000Y-127950000D01*
D19*
X165955000Y-129210000D02*
X165955000Y-127410000D01*
D20*
X166454999Y-127010000D02*
X166455000Y-126110001D01*
D10*
X137205000Y-126910000D02*
X137205000Y-127610000D01*
X137205000Y-124410000D02*
X138605000Y-124410000D01*
D15*
X147305000Y-129510000D02*
X144605000Y-129510000D01*
D16*
X144621318Y-129288529D02*
G75*
G03X142405000Y-127410000I-2151318J-291471D01*
G01*
D11*
X137005000Y-124560000D02*
X137005000Y-124210000D01*
X147505001Y-126110000D02*
G75*
G03X145405000Y-124209999I-2000001J-100000D01*
G01*
X144221318Y-129688529D02*
G75*
G03X142005000Y-127810000I-2151318J-291471D01*
G01*
X137005000Y-124210000D02*
X145405000Y-124209999D01*
X142005000Y-127810000D02*
X137005000Y-127810000D01*
X147505000Y-129710000D02*
X144225000Y-129710000D01*
X147505000Y-126110000D02*
X147505000Y-127110000D01*
X147505000Y-129710000D02*
X147505000Y-129350000D01*
X147305000Y-129350000D02*
X147505000Y-129350000D01*
X147275000Y-127110000D02*
X147275000Y-129350000D01*
X147505000Y-127110000D02*
X147305000Y-127110000D01*
X137205000Y-124560000D02*
X137005000Y-124560000D01*
X137225000Y-126810000D02*
X137225000Y-124560000D01*
X137005000Y-126810000D02*
X137205000Y-126810000D01*
X137005000Y-127810000D02*
X137005000Y-126810000D01*
D17*
X139005000Y-126010000D02*
X145705000Y-126010000D01*
D16*
X137705000Y-124810000D02*
X137705000Y-127310000D01*
D15*
X137305000Y-127510000D02*
X138705000Y-127510000D01*
D18*
X145775000Y-125710000D02*
X145775000Y-127950000D01*
D19*
X146905000Y-129210000D02*
X146905000Y-127410000D01*
D20*
X147404999Y-127010000D02*
X147405000Y-126110001D01*
D10*
X118155000Y-126910000D02*
X118155000Y-127610000D01*
X118155000Y-124410000D02*
X119555000Y-124410000D01*
D15*
X128255000Y-129510000D02*
X125555000Y-129510000D01*
D16*
X125571318Y-129288529D02*
G75*
G03X123355000Y-127410000I-2151318J-291471D01*
G01*
D11*
X117955000Y-124560000D02*
X117955000Y-124210000D01*
X128455001Y-126110000D02*
G75*
G03X126355000Y-124209999I-2000001J-100000D01*
G01*
X125171318Y-129688529D02*
G75*
G03X122955000Y-127810000I-2151318J-291471D01*
G01*
X117955000Y-124210000D02*
X126355000Y-124209999D01*
X122955000Y-127810000D02*
X117955000Y-127810000D01*
X128455000Y-129710000D02*
X125175000Y-129710000D01*
X128455000Y-126110000D02*
X128455000Y-127110000D01*
X128455000Y-129710000D02*
X128455000Y-129350000D01*
X128255000Y-129350000D02*
X128455000Y-129350000D01*
X128225000Y-127110000D02*
X128225000Y-129350000D01*
X128455000Y-127110000D02*
X128255000Y-127110000D01*
X118155000Y-124560000D02*
X117955000Y-124560000D01*
X118175000Y-126810000D02*
X118175000Y-124560000D01*
X117955000Y-126810000D02*
X118155000Y-126810000D01*
X117955000Y-127810000D02*
X117955000Y-126810000D01*
D17*
X119955000Y-126010000D02*
X126655000Y-126010000D01*
D16*
X118655000Y-124810000D02*
X118655000Y-127310000D01*
D15*
X118255000Y-127510000D02*
X119655000Y-127510000D01*
D18*
X126725000Y-125710000D02*
X126725000Y-127950000D01*
D19*
X127855000Y-129210000D02*
X127855000Y-127410000D01*
D20*
X128354999Y-127010000D02*
X128355000Y-126110001D01*
D10*
X99105000Y-126910000D02*
X99105000Y-127610000D01*
X99105000Y-124410000D02*
X100505000Y-124410000D01*
D15*
X109205000Y-129510000D02*
X106505000Y-129510000D01*
D16*
X106521318Y-129288529D02*
G75*
G03X104305000Y-127410000I-2151318J-291471D01*
G01*
D11*
X98905000Y-124560000D02*
X98905000Y-124210000D01*
X109405001Y-126110000D02*
G75*
G03X107305000Y-124209999I-2000001J-100000D01*
G01*
X106121318Y-129688529D02*
G75*
G03X103905000Y-127810000I-2151318J-291471D01*
G01*
X98905000Y-124210000D02*
X107305000Y-124209999D01*
X103905000Y-127810000D02*
X98905000Y-127810000D01*
X109405000Y-129710000D02*
X106125000Y-129710000D01*
X109405000Y-126110000D02*
X109405000Y-127110000D01*
X109405000Y-129710000D02*
X109405000Y-129350000D01*
X109205000Y-129350000D02*
X109405000Y-129350000D01*
X109175000Y-127110000D02*
X109175000Y-129350000D01*
X109405000Y-127110000D02*
X109205000Y-127110000D01*
X99105000Y-124560000D02*
X98905000Y-124560000D01*
X99125000Y-126810000D02*
X99125000Y-124560000D01*
X98905000Y-126810000D02*
X99105000Y-126810000D01*
X98905000Y-127810000D02*
X98905000Y-126810000D01*
D17*
X100905000Y-126010000D02*
X107605000Y-126010000D01*
D16*
X99605000Y-124810000D02*
X99605000Y-127310000D01*
D15*
X99205000Y-127510000D02*
X100605000Y-127510000D01*
D18*
X107675000Y-125710000D02*
X107675000Y-127950000D01*
D19*
X108805000Y-129210000D02*
X108805000Y-127410000D01*
D20*
X109304999Y-127010000D02*
X109305000Y-126110001D01*
D10*
X80055000Y-126910000D02*
X80055000Y-127610000D01*
X80055000Y-124410000D02*
X81455000Y-124410000D01*
D15*
X90155000Y-129510000D02*
X87455000Y-129510000D01*
D16*
X87471318Y-129288529D02*
G75*
G03X85255000Y-127410000I-2151318J-291471D01*
G01*
D11*
X79855000Y-124560000D02*
X79855000Y-124210000D01*
X90355001Y-126110000D02*
G75*
G03X88255000Y-124209999I-2000001J-100000D01*
G01*
X87071318Y-129688529D02*
G75*
G03X84855000Y-127810000I-2151318J-291471D01*
G01*
X79855000Y-124210000D02*
X88255000Y-124209999D01*
X84855000Y-127810000D02*
X79855000Y-127810000D01*
X90355000Y-129710000D02*
X87075000Y-129710000D01*
X90355000Y-126110000D02*
X90355000Y-127110000D01*
X90355000Y-129710000D02*
X90355000Y-129350000D01*
X90155000Y-129350000D02*
X90355000Y-129350000D01*
X90125000Y-127110000D02*
X90125000Y-129350000D01*
X90355000Y-127110000D02*
X90155000Y-127110000D01*
X80055000Y-124560000D02*
X79855000Y-124560000D01*
X80075000Y-126810000D02*
X80075000Y-124560000D01*
X79855000Y-126810000D02*
X80055000Y-126810000D01*
X79855000Y-127810000D02*
X79855000Y-126810000D01*
D17*
X81855000Y-126010000D02*
X88555000Y-126010000D01*
D16*
X80555000Y-124810000D02*
X80555000Y-127310000D01*
D15*
X80155000Y-127510000D02*
X81555000Y-127510000D01*
D18*
X88625000Y-125710000D02*
X88625000Y-127950000D01*
D19*
X89755000Y-129210000D02*
X89755000Y-127410000D01*
D20*
X90254999Y-127010000D02*
X90255000Y-126110001D01*
D10*
X194355000Y-107860000D02*
X194355000Y-108560000D01*
X194355000Y-105360000D02*
X195755000Y-105360000D01*
D15*
X204455000Y-110460000D02*
X201755000Y-110460000D01*
D16*
X201771318Y-110238529D02*
G75*
G03X199555000Y-108360000I-2151318J-291471D01*
G01*
D11*
X194155000Y-105510000D02*
X194155000Y-105160000D01*
X204655001Y-107060000D02*
G75*
G03X202555000Y-105159999I-2000001J-100000D01*
G01*
X201371318Y-110638529D02*
G75*
G03X199155000Y-108760000I-2151318J-291471D01*
G01*
X194155000Y-105160000D02*
X202555000Y-105159999D01*
X199155000Y-108760000D02*
X194155000Y-108760000D01*
X204655000Y-110660000D02*
X201375000Y-110660000D01*
X204655000Y-107060000D02*
X204655000Y-108060000D01*
X204655000Y-110660000D02*
X204655000Y-110300000D01*
X204455000Y-110300000D02*
X204655000Y-110300000D01*
X204425000Y-108060000D02*
X204425000Y-110300000D01*
X204655000Y-108060000D02*
X204455000Y-108060000D01*
X194355000Y-105510000D02*
X194155000Y-105510000D01*
X194375000Y-107760000D02*
X194375000Y-105510000D01*
X194155000Y-107760000D02*
X194355000Y-107760000D01*
X194155000Y-108760000D02*
X194155000Y-107760000D01*
D17*
X196155000Y-106960000D02*
X202855000Y-106960000D01*
D16*
X194855000Y-105760000D02*
X194855000Y-108260000D01*
D15*
X194455000Y-108460000D02*
X195855000Y-108460000D01*
D18*
X202925000Y-106660000D02*
X202925000Y-108900000D01*
D19*
X204055000Y-110160000D02*
X204055000Y-108360000D01*
D20*
X204554999Y-107960000D02*
X204555000Y-107060001D01*
D10*
X175305000Y-107860000D02*
X175305000Y-108560000D01*
X175305000Y-105360000D02*
X176705000Y-105360000D01*
D15*
X185405000Y-110460000D02*
X182705000Y-110460000D01*
D16*
X182721318Y-110238529D02*
G75*
G03X180505000Y-108360000I-2151318J-291471D01*
G01*
D11*
X175105000Y-105510000D02*
X175105000Y-105160000D01*
X185605001Y-107060000D02*
G75*
G03X183505000Y-105159999I-2000001J-100000D01*
G01*
X182321318Y-110638529D02*
G75*
G03X180105000Y-108760000I-2151318J-291471D01*
G01*
X175105000Y-105160000D02*
X183505000Y-105159999D01*
X180105000Y-108760000D02*
X175105000Y-108760000D01*
X185605000Y-110660000D02*
X182325000Y-110660000D01*
X185605000Y-107060000D02*
X185605000Y-108060000D01*
X185605000Y-110660000D02*
X185605000Y-110300000D01*
X185405000Y-110300000D02*
X185605000Y-110300000D01*
X185375000Y-108060000D02*
X185375000Y-110300000D01*
X185605000Y-108060000D02*
X185405000Y-108060000D01*
X175305000Y-105510000D02*
X175105000Y-105510000D01*
X175325000Y-107760000D02*
X175325000Y-105510000D01*
X175105000Y-107760000D02*
X175305000Y-107760000D01*
X175105000Y-108760000D02*
X175105000Y-107760000D01*
D17*
X177105000Y-106960000D02*
X183805000Y-106960000D01*
D16*
X175805000Y-105760000D02*
X175805000Y-108260000D01*
D15*
X175405000Y-108460000D02*
X176805000Y-108460000D01*
D18*
X183875000Y-106660000D02*
X183875000Y-108900000D01*
D19*
X185005000Y-110160000D02*
X185005000Y-108360000D01*
D20*
X185504999Y-107960000D02*
X185505000Y-107060001D01*
D10*
X156255000Y-107860000D02*
X156255000Y-108560000D01*
X156255000Y-105360000D02*
X157655000Y-105360000D01*
D15*
X166355000Y-110460000D02*
X163655000Y-110460000D01*
D16*
X163671318Y-110238529D02*
G75*
G03X161455000Y-108360000I-2151318J-291471D01*
G01*
D11*
X156055000Y-105510000D02*
X156055000Y-105160000D01*
X166555001Y-107060000D02*
G75*
G03X164455000Y-105159999I-2000001J-100000D01*
G01*
X163271318Y-110638529D02*
G75*
G03X161055000Y-108760000I-2151318J-291471D01*
G01*
X156055000Y-105160000D02*
X164455000Y-105159999D01*
X161055000Y-108760000D02*
X156055000Y-108760000D01*
X166555000Y-110660000D02*
X163275000Y-110660000D01*
X166555000Y-107060000D02*
X166555000Y-108060000D01*
X166555000Y-110660000D02*
X166555000Y-110300000D01*
X166355000Y-110300000D02*
X166555000Y-110300000D01*
X166325000Y-108060000D02*
X166325000Y-110300000D01*
X166555000Y-108060000D02*
X166355000Y-108060000D01*
X156255000Y-105510000D02*
X156055000Y-105510000D01*
X156275000Y-107760000D02*
X156275000Y-105510000D01*
X156055000Y-107760000D02*
X156255000Y-107760000D01*
X156055000Y-108760000D02*
X156055000Y-107760000D01*
D17*
X158055000Y-106960000D02*
X164755000Y-106960000D01*
D16*
X156755000Y-105760000D02*
X156755000Y-108260000D01*
D15*
X156355000Y-108460000D02*
X157755000Y-108460000D01*
D18*
X164825000Y-106660000D02*
X164825000Y-108900000D01*
D19*
X165955000Y-110160000D02*
X165955000Y-108360000D01*
D20*
X166454999Y-107960000D02*
X166455000Y-107060001D01*
D10*
X137205000Y-107860000D02*
X137205000Y-108560000D01*
X137205000Y-105360000D02*
X138605000Y-105360000D01*
D15*
X147305000Y-110460000D02*
X144605000Y-110460000D01*
D16*
X144621318Y-110238529D02*
G75*
G03X142405000Y-108360000I-2151318J-291471D01*
G01*
D11*
X137005000Y-105510000D02*
X137005000Y-105160000D01*
X147505001Y-107060000D02*
G75*
G03X145405000Y-105159999I-2000001J-100000D01*
G01*
X144221318Y-110638529D02*
G75*
G03X142005000Y-108760000I-2151318J-291471D01*
G01*
X137005000Y-105160000D02*
X145405000Y-105159999D01*
X142005000Y-108760000D02*
X137005000Y-108760000D01*
X147505000Y-110660000D02*
X144225000Y-110660000D01*
X147505000Y-107060000D02*
X147505000Y-108060000D01*
X147505000Y-110660000D02*
X147505000Y-110300000D01*
X147305000Y-110300000D02*
X147505000Y-110300000D01*
X147275000Y-108060000D02*
X147275000Y-110300000D01*
X147505000Y-108060000D02*
X147305000Y-108060000D01*
X137205000Y-105510000D02*
X137005000Y-105510000D01*
X137225000Y-107760000D02*
X137225000Y-105510000D01*
X137005000Y-107760000D02*
X137205000Y-107760000D01*
X137005000Y-108760000D02*
X137005000Y-107760000D01*
D17*
X139005000Y-106960000D02*
X145705000Y-106960000D01*
D16*
X137705000Y-105760000D02*
X137705000Y-108260000D01*
D15*
X137305000Y-108460000D02*
X138705000Y-108460000D01*
D18*
X145775000Y-106660000D02*
X145775000Y-108900000D01*
D19*
X146905000Y-110160000D02*
X146905000Y-108360000D01*
D20*
X147404999Y-107960000D02*
X147405000Y-107060001D01*
D10*
X118155000Y-107860000D02*
X118155000Y-108560000D01*
X118155000Y-105360000D02*
X119555000Y-105360000D01*
D15*
X128255000Y-110460000D02*
X125555000Y-110460000D01*
D16*
X125571318Y-110238529D02*
G75*
G03X123355000Y-108360000I-2151318J-291471D01*
G01*
D11*
X117955000Y-105510000D02*
X117955000Y-105160000D01*
X128455001Y-107060000D02*
G75*
G03X126355000Y-105159999I-2000001J-100000D01*
G01*
X125171318Y-110638529D02*
G75*
G03X122955000Y-108760000I-2151318J-291471D01*
G01*
X117955000Y-105160000D02*
X126355000Y-105159999D01*
X122955000Y-108760000D02*
X117955000Y-108760000D01*
X128455000Y-110660000D02*
X125175000Y-110660000D01*
X128455000Y-107060000D02*
X128455000Y-108060000D01*
X128455000Y-110660000D02*
X128455000Y-110300000D01*
X128255000Y-110300000D02*
X128455000Y-110300000D01*
X128225000Y-108060000D02*
X128225000Y-110300000D01*
X128455000Y-108060000D02*
X128255000Y-108060000D01*
X118155000Y-105510000D02*
X117955000Y-105510000D01*
X118175000Y-107760000D02*
X118175000Y-105510000D01*
X117955000Y-107760000D02*
X118155000Y-107760000D01*
X117955000Y-108760000D02*
X117955000Y-107760000D01*
D17*
X119955000Y-106960000D02*
X126655000Y-106960000D01*
D16*
X118655000Y-105760000D02*
X118655000Y-108260000D01*
D15*
X118255000Y-108460000D02*
X119655000Y-108460000D01*
D18*
X126725000Y-106660000D02*
X126725000Y-108900000D01*
D19*
X127855000Y-110160000D02*
X127855000Y-108360000D01*
D20*
X128354999Y-107960000D02*
X128355000Y-107060001D01*
D10*
X99105000Y-107860000D02*
X99105000Y-108560000D01*
X99105000Y-105360000D02*
X100505000Y-105360000D01*
D15*
X109205000Y-110460000D02*
X106505000Y-110460000D01*
D16*
X106521318Y-110238529D02*
G75*
G03X104305000Y-108360000I-2151318J-291471D01*
G01*
D11*
X98905000Y-105510000D02*
X98905000Y-105160000D01*
X109405001Y-107060000D02*
G75*
G03X107305000Y-105159999I-2000001J-100000D01*
G01*
X106121318Y-110638529D02*
G75*
G03X103905000Y-108760000I-2151318J-291471D01*
G01*
X98905000Y-105160000D02*
X107305000Y-105159999D01*
X103905000Y-108760000D02*
X98905000Y-108760000D01*
X109405000Y-110660000D02*
X106125000Y-110660000D01*
X109405000Y-107060000D02*
X109405000Y-108060000D01*
X109405000Y-110660000D02*
X109405000Y-110300000D01*
X109205000Y-110300000D02*
X109405000Y-110300000D01*
X109175000Y-108060000D02*
X109175000Y-110300000D01*
X109405000Y-108060000D02*
X109205000Y-108060000D01*
X99105000Y-105510000D02*
X98905000Y-105510000D01*
X99125000Y-107760000D02*
X99125000Y-105510000D01*
X98905000Y-107760000D02*
X99105000Y-107760000D01*
X98905000Y-108760000D02*
X98905000Y-107760000D01*
D17*
X100905000Y-106960000D02*
X107605000Y-106960000D01*
D16*
X99605000Y-105760000D02*
X99605000Y-108260000D01*
D15*
X99205000Y-108460000D02*
X100605000Y-108460000D01*
D18*
X107675000Y-106660000D02*
X107675000Y-108900000D01*
D19*
X108805000Y-110160000D02*
X108805000Y-108360000D01*
D20*
X109304999Y-107960000D02*
X109305000Y-107060001D01*
D10*
X80055000Y-107860000D02*
X80055000Y-108560000D01*
X80055000Y-105360000D02*
X81455000Y-105360000D01*
D15*
X90155000Y-110460000D02*
X87455000Y-110460000D01*
D16*
X87471318Y-110238529D02*
G75*
G03X85255000Y-108360000I-2151318J-291471D01*
G01*
D11*
X79855000Y-105510000D02*
X79855000Y-105160000D01*
X90355001Y-107060000D02*
G75*
G03X88255000Y-105159999I-2000001J-100000D01*
G01*
X87071318Y-110638529D02*
G75*
G03X84855000Y-108760000I-2151318J-291471D01*
G01*
X79855000Y-105160000D02*
X88255000Y-105159999D01*
X84855000Y-108760000D02*
X79855000Y-108760000D01*
X90355000Y-110660000D02*
X87075000Y-110660000D01*
X90355000Y-107060000D02*
X90355000Y-108060000D01*
X90355000Y-110660000D02*
X90355000Y-110300000D01*
X90155000Y-110300000D02*
X90355000Y-110300000D01*
X90125000Y-108060000D02*
X90125000Y-110300000D01*
X90355000Y-108060000D02*
X90155000Y-108060000D01*
X80055000Y-105510000D02*
X79855000Y-105510000D01*
X80075000Y-107760000D02*
X80075000Y-105510000D01*
X79855000Y-107760000D02*
X80055000Y-107760000D01*
X79855000Y-108760000D02*
X79855000Y-107760000D01*
D17*
X81855000Y-106960000D02*
X88555000Y-106960000D01*
D16*
X80555000Y-105760000D02*
X80555000Y-108260000D01*
D15*
X80155000Y-108460000D02*
X81555000Y-108460000D01*
D18*
X88625000Y-106660000D02*
X88625000Y-108900000D01*
D19*
X89755000Y-110160000D02*
X89755000Y-108360000D01*
D20*
X90254999Y-107960000D02*
X90255000Y-107060001D01*
D10*
X194355000Y-88810000D02*
X194355000Y-89510000D01*
X194355000Y-86310000D02*
X195755000Y-86310000D01*
D15*
X204455000Y-91410000D02*
X201755000Y-91410000D01*
D16*
X201771318Y-91188529D02*
G75*
G03X199555000Y-89310000I-2151318J-291471D01*
G01*
D11*
X194155000Y-86460000D02*
X194155000Y-86110000D01*
X204655001Y-88010000D02*
G75*
G03X202555000Y-86109999I-2000001J-100000D01*
G01*
X201371318Y-91588529D02*
G75*
G03X199155000Y-89710000I-2151318J-291471D01*
G01*
X194155000Y-86110000D02*
X202555000Y-86109999D01*
X199155000Y-89710000D02*
X194155000Y-89710000D01*
X204655000Y-91610000D02*
X201375000Y-91610000D01*
X204655000Y-88010000D02*
X204655000Y-89010000D01*
X204655000Y-91610000D02*
X204655000Y-91250000D01*
X204455000Y-91250000D02*
X204655000Y-91250000D01*
X204425000Y-89010000D02*
X204425000Y-91250000D01*
X204655000Y-89010000D02*
X204455000Y-89010000D01*
X194355000Y-86460000D02*
X194155000Y-86460000D01*
X194375000Y-88710000D02*
X194375000Y-86460000D01*
X194155000Y-88710000D02*
X194355000Y-88710000D01*
X194155000Y-89710000D02*
X194155000Y-88710000D01*
D17*
X196155000Y-87910000D02*
X202855000Y-87910000D01*
D16*
X194855000Y-86710000D02*
X194855000Y-89210000D01*
D15*
X194455000Y-89410000D02*
X195855000Y-89410000D01*
D18*
X202925000Y-87610000D02*
X202925000Y-89850000D01*
D19*
X204055000Y-91110000D02*
X204055000Y-89310000D01*
D20*
X204554999Y-88910000D02*
X204555000Y-88010001D01*
D10*
X175305000Y-88810000D02*
X175305000Y-89510000D01*
X175305000Y-86310000D02*
X176705000Y-86310000D01*
D15*
X185405000Y-91410000D02*
X182705000Y-91410000D01*
D16*
X182721318Y-91188529D02*
G75*
G03X180505000Y-89310000I-2151318J-291471D01*
G01*
D11*
X175105000Y-86460000D02*
X175105000Y-86110000D01*
X185605001Y-88010000D02*
G75*
G03X183505000Y-86109999I-2000001J-100000D01*
G01*
X182321318Y-91588529D02*
G75*
G03X180105000Y-89710000I-2151318J-291471D01*
G01*
X175105000Y-86110000D02*
X183505000Y-86109999D01*
X180105000Y-89710000D02*
X175105000Y-89710000D01*
X185605000Y-91610000D02*
X182325000Y-91610000D01*
X185605000Y-88010000D02*
X185605000Y-89010000D01*
X185605000Y-91610000D02*
X185605000Y-91250000D01*
X185405000Y-91250000D02*
X185605000Y-91250000D01*
X185375000Y-89010000D02*
X185375000Y-91250000D01*
X185605000Y-89010000D02*
X185405000Y-89010000D01*
X175305000Y-86460000D02*
X175105000Y-86460000D01*
X175325000Y-88710000D02*
X175325000Y-86460000D01*
X175105000Y-88710000D02*
X175305000Y-88710000D01*
X175105000Y-89710000D02*
X175105000Y-88710000D01*
D17*
X177105000Y-87910000D02*
X183805000Y-87910000D01*
D16*
X175805000Y-86710000D02*
X175805000Y-89210000D01*
D15*
X175405000Y-89410000D02*
X176805000Y-89410000D01*
D18*
X183875000Y-87610000D02*
X183875000Y-89850000D01*
D19*
X185005000Y-91110000D02*
X185005000Y-89310000D01*
D20*
X185504999Y-88910000D02*
X185505000Y-88010001D01*
D10*
X156255000Y-88810000D02*
X156255000Y-89510000D01*
X156255000Y-86310000D02*
X157655000Y-86310000D01*
D15*
X166355000Y-91410000D02*
X163655000Y-91410000D01*
D16*
X163671318Y-91188529D02*
G75*
G03X161455000Y-89310000I-2151318J-291471D01*
G01*
D11*
X156055000Y-86460000D02*
X156055000Y-86110000D01*
X166555001Y-88010000D02*
G75*
G03X164455000Y-86109999I-2000001J-100000D01*
G01*
X163271318Y-91588529D02*
G75*
G03X161055000Y-89710000I-2151318J-291471D01*
G01*
X156055000Y-86110000D02*
X164455000Y-86109999D01*
X161055000Y-89710000D02*
X156055000Y-89710000D01*
X166555000Y-91610000D02*
X163275000Y-91610000D01*
X166555000Y-88010000D02*
X166555000Y-89010000D01*
X166555000Y-91610000D02*
X166555000Y-91250000D01*
X166355000Y-91250000D02*
X166555000Y-91250000D01*
X166325000Y-89010000D02*
X166325000Y-91250000D01*
X166555000Y-89010000D02*
X166355000Y-89010000D01*
X156255000Y-86460000D02*
X156055000Y-86460000D01*
X156275000Y-88710000D02*
X156275000Y-86460000D01*
X156055000Y-88710000D02*
X156255000Y-88710000D01*
X156055000Y-89710000D02*
X156055000Y-88710000D01*
D17*
X158055000Y-87910000D02*
X164755000Y-87910000D01*
D16*
X156755000Y-86710000D02*
X156755000Y-89210000D01*
D15*
X156355000Y-89410000D02*
X157755000Y-89410000D01*
D18*
X164825000Y-87610000D02*
X164825000Y-89850000D01*
D19*
X165955000Y-91110000D02*
X165955000Y-89310000D01*
D20*
X166454999Y-88910000D02*
X166455000Y-88010001D01*
D10*
X137205000Y-88810000D02*
X137205000Y-89510000D01*
X137205000Y-86310000D02*
X138605000Y-86310000D01*
D15*
X147305000Y-91410000D02*
X144605000Y-91410000D01*
D16*
X144621318Y-91188529D02*
G75*
G03X142405000Y-89310000I-2151318J-291471D01*
G01*
D11*
X137005000Y-86460000D02*
X137005000Y-86110000D01*
X147505001Y-88010000D02*
G75*
G03X145405000Y-86109999I-2000001J-100000D01*
G01*
X144221318Y-91588529D02*
G75*
G03X142005000Y-89710000I-2151318J-291471D01*
G01*
X137005000Y-86110000D02*
X145405000Y-86109999D01*
X142005000Y-89710000D02*
X137005000Y-89710000D01*
X147505000Y-91610000D02*
X144225000Y-91610000D01*
X147505000Y-88010000D02*
X147505000Y-89010000D01*
X147505000Y-91610000D02*
X147505000Y-91250000D01*
X147305000Y-91250000D02*
X147505000Y-91250000D01*
X147275000Y-89010000D02*
X147275000Y-91250000D01*
X147505000Y-89010000D02*
X147305000Y-89010000D01*
X137205000Y-86460000D02*
X137005000Y-86460000D01*
X137225000Y-88710000D02*
X137225000Y-86460000D01*
X137005000Y-88710000D02*
X137205000Y-88710000D01*
X137005000Y-89710000D02*
X137005000Y-88710000D01*
D17*
X139005000Y-87910000D02*
X145705000Y-87910000D01*
D16*
X137705000Y-86710000D02*
X137705000Y-89210000D01*
D15*
X137305000Y-89410000D02*
X138705000Y-89410000D01*
D18*
X145775000Y-87610000D02*
X145775000Y-89850000D01*
D19*
X146905000Y-91110000D02*
X146905000Y-89310000D01*
D20*
X147404999Y-88910000D02*
X147405000Y-88010001D01*
D10*
X118155000Y-88810000D02*
X118155000Y-89510000D01*
X118155000Y-86310000D02*
X119555000Y-86310000D01*
D15*
X128255000Y-91410000D02*
X125555000Y-91410000D01*
D16*
X125571318Y-91188529D02*
G75*
G03X123355000Y-89310000I-2151318J-291471D01*
G01*
D11*
X117955000Y-86460000D02*
X117955000Y-86110000D01*
X128455001Y-88010000D02*
G75*
G03X126355000Y-86109999I-2000001J-100000D01*
G01*
X125171318Y-91588529D02*
G75*
G03X122955000Y-89710000I-2151318J-291471D01*
G01*
X117955000Y-86110000D02*
X126355000Y-86109999D01*
X122955000Y-89710000D02*
X117955000Y-89710000D01*
X128455000Y-91610000D02*
X125175000Y-91610000D01*
X128455000Y-88010000D02*
X128455000Y-89010000D01*
X128455000Y-91610000D02*
X128455000Y-91250000D01*
X128255000Y-91250000D02*
X128455000Y-91250000D01*
X128225000Y-89010000D02*
X128225000Y-91250000D01*
X128455000Y-89010000D02*
X128255000Y-89010000D01*
X118155000Y-86460000D02*
X117955000Y-86460000D01*
X118175000Y-88710000D02*
X118175000Y-86460000D01*
X117955000Y-88710000D02*
X118155000Y-88710000D01*
X117955000Y-89710000D02*
X117955000Y-88710000D01*
D17*
X119955000Y-87910000D02*
X126655000Y-87910000D01*
D16*
X118655000Y-86710000D02*
X118655000Y-89210000D01*
D15*
X118255000Y-89410000D02*
X119655000Y-89410000D01*
D18*
X126725000Y-87610000D02*
X126725000Y-89850000D01*
D19*
X127855000Y-91110000D02*
X127855000Y-89310000D01*
D20*
X128354999Y-88910000D02*
X128355000Y-88010001D01*
D10*
X99105000Y-88810000D02*
X99105000Y-89510000D01*
X99105000Y-86310000D02*
X100505000Y-86310000D01*
D15*
X109205000Y-91410000D02*
X106505000Y-91410000D01*
D16*
X106521318Y-91188529D02*
G75*
G03X104305000Y-89310000I-2151318J-291471D01*
G01*
D11*
X98905000Y-86460000D02*
X98905000Y-86110000D01*
X109405001Y-88010000D02*
G75*
G03X107305000Y-86109999I-2000001J-100000D01*
G01*
X106121318Y-91588529D02*
G75*
G03X103905000Y-89710000I-2151318J-291471D01*
G01*
X98905000Y-86110000D02*
X107305000Y-86109999D01*
X103905000Y-89710000D02*
X98905000Y-89710000D01*
X109405000Y-91610000D02*
X106125000Y-91610000D01*
X109405000Y-88010000D02*
X109405000Y-89010000D01*
X109405000Y-91610000D02*
X109405000Y-91250000D01*
X109205000Y-91250000D02*
X109405000Y-91250000D01*
X109175000Y-89010000D02*
X109175000Y-91250000D01*
X109405000Y-89010000D02*
X109205000Y-89010000D01*
X99105000Y-86460000D02*
X98905000Y-86460000D01*
X99125000Y-88710000D02*
X99125000Y-86460000D01*
X98905000Y-88710000D02*
X99105000Y-88710000D01*
X98905000Y-89710000D02*
X98905000Y-88710000D01*
D17*
X100905000Y-87910000D02*
X107605000Y-87910000D01*
D16*
X99605000Y-86710000D02*
X99605000Y-89210000D01*
D15*
X99205000Y-89410000D02*
X100605000Y-89410000D01*
D18*
X107675000Y-87610000D02*
X107675000Y-89850000D01*
D19*
X108805000Y-91110000D02*
X108805000Y-89310000D01*
D20*
X109304999Y-88910000D02*
X109305000Y-88010001D01*
D10*
X80055000Y-88810000D02*
X80055000Y-89510000D01*
X80055000Y-86310000D02*
X81455000Y-86310000D01*
D15*
X90155000Y-91410000D02*
X87455000Y-91410000D01*
D16*
X87471318Y-91188529D02*
G75*
G03X85255000Y-89310000I-2151318J-291471D01*
G01*
D11*
X79855000Y-86460000D02*
X79855000Y-86110000D01*
X90355001Y-88010000D02*
G75*
G03X88255000Y-86109999I-2000001J-100000D01*
G01*
X87071318Y-91588529D02*
G75*
G03X84855000Y-89710000I-2151318J-291471D01*
G01*
X79855000Y-86110000D02*
X88255000Y-86109999D01*
X84855000Y-89710000D02*
X79855000Y-89710000D01*
X90355000Y-91610000D02*
X87075000Y-91610000D01*
X90355000Y-88010000D02*
X90355000Y-89010000D01*
X90355000Y-91610000D02*
X90355000Y-91250000D01*
X90155000Y-91250000D02*
X90355000Y-91250000D01*
X90125000Y-89010000D02*
X90125000Y-91250000D01*
X90355000Y-89010000D02*
X90155000Y-89010000D01*
X80055000Y-86460000D02*
X79855000Y-86460000D01*
X80075000Y-88710000D02*
X80075000Y-86460000D01*
X79855000Y-88710000D02*
X80055000Y-88710000D01*
X79855000Y-89710000D02*
X79855000Y-88710000D01*
D17*
X81855000Y-87910000D02*
X88555000Y-87910000D01*
D16*
X80555000Y-86710000D02*
X80555000Y-89210000D01*
D15*
X80155000Y-89410000D02*
X81555000Y-89410000D01*
D18*
X88625000Y-87610000D02*
X88625000Y-89850000D01*
D19*
X89755000Y-91110000D02*
X89755000Y-89310000D01*
D20*
X90254999Y-88910000D02*
X90255000Y-88010001D01*
D10*
X194355000Y-69760000D02*
X194355000Y-70460000D01*
X194355000Y-67260000D02*
X195755000Y-67260000D01*
D15*
X204455000Y-72360000D02*
X201755000Y-72360000D01*
D16*
X201771318Y-72138529D02*
G75*
G03X199555000Y-70260000I-2151318J-291471D01*
G01*
D11*
X194155000Y-67410000D02*
X194155000Y-67060000D01*
X204655001Y-68960000D02*
G75*
G03X202555000Y-67059999I-2000001J-100000D01*
G01*
X201371318Y-72538529D02*
G75*
G03X199155000Y-70660000I-2151318J-291471D01*
G01*
X194155000Y-67060000D02*
X202555000Y-67059999D01*
X199155000Y-70660000D02*
X194155000Y-70660000D01*
X204655000Y-72560000D02*
X201375000Y-72560000D01*
X204655000Y-68960000D02*
X204655000Y-69960000D01*
X204655000Y-72560000D02*
X204655000Y-72200000D01*
X204455000Y-72200000D02*
X204655000Y-72200000D01*
X204425000Y-69960000D02*
X204425000Y-72200000D01*
X204655000Y-69960000D02*
X204455000Y-69960000D01*
X194355000Y-67410000D02*
X194155000Y-67410000D01*
X194375000Y-69660000D02*
X194375000Y-67410000D01*
X194155000Y-69660000D02*
X194355000Y-69660000D01*
X194155000Y-70660000D02*
X194155000Y-69660000D01*
D17*
X196155000Y-68860000D02*
X202855000Y-68860000D01*
D16*
X194855000Y-67660000D02*
X194855000Y-70160000D01*
D15*
X194455000Y-70360000D02*
X195855000Y-70360000D01*
D18*
X202925000Y-68560000D02*
X202925000Y-70800000D01*
D19*
X204055000Y-72060000D02*
X204055000Y-70260000D01*
D20*
X204554999Y-69860000D02*
X204555000Y-68960001D01*
D10*
X175305000Y-69760000D02*
X175305000Y-70460000D01*
X175305000Y-67260000D02*
X176705000Y-67260000D01*
D15*
X185405000Y-72360000D02*
X182705000Y-72360000D01*
D16*
X182721318Y-72138529D02*
G75*
G03X180505000Y-70260000I-2151318J-291471D01*
G01*
D11*
X175105000Y-67410000D02*
X175105000Y-67060000D01*
X185605001Y-68960000D02*
G75*
G03X183505000Y-67059999I-2000001J-100000D01*
G01*
X182321318Y-72538529D02*
G75*
G03X180105000Y-70660000I-2151318J-291471D01*
G01*
X175105000Y-67060000D02*
X183505000Y-67059999D01*
X180105000Y-70660000D02*
X175105000Y-70660000D01*
X185605000Y-72560000D02*
X182325000Y-72560000D01*
X185605000Y-68960000D02*
X185605000Y-69960000D01*
X185605000Y-72560000D02*
X185605000Y-72200000D01*
X185405000Y-72200000D02*
X185605000Y-72200000D01*
X185375000Y-69960000D02*
X185375000Y-72200000D01*
X185605000Y-69960000D02*
X185405000Y-69960000D01*
X175305000Y-67410000D02*
X175105000Y-67410000D01*
X175325000Y-69660000D02*
X175325000Y-67410000D01*
X175105000Y-69660000D02*
X175305000Y-69660000D01*
X175105000Y-70660000D02*
X175105000Y-69660000D01*
D17*
X177105000Y-68860000D02*
X183805000Y-68860000D01*
D16*
X175805000Y-67660000D02*
X175805000Y-70160000D01*
D15*
X175405000Y-70360000D02*
X176805000Y-70360000D01*
D18*
X183875000Y-68560000D02*
X183875000Y-70800000D01*
D19*
X185005000Y-72060000D02*
X185005000Y-70260000D01*
D20*
X185504999Y-69860000D02*
X185505000Y-68960001D01*
D10*
X156255000Y-69760000D02*
X156255000Y-70460000D01*
X156255000Y-67260000D02*
X157655000Y-67260000D01*
D15*
X166355000Y-72360000D02*
X163655000Y-72360000D01*
D16*
X163671318Y-72138529D02*
G75*
G03X161455000Y-70260000I-2151318J-291471D01*
G01*
D11*
X156055000Y-67410000D02*
X156055000Y-67060000D01*
X166555001Y-68960000D02*
G75*
G03X164455000Y-67059999I-2000001J-100000D01*
G01*
X163271318Y-72538529D02*
G75*
G03X161055000Y-70660000I-2151318J-291471D01*
G01*
X156055000Y-67060000D02*
X164455000Y-67059999D01*
X161055000Y-70660000D02*
X156055000Y-70660000D01*
X166555000Y-72560000D02*
X163275000Y-72560000D01*
X166555000Y-68960000D02*
X166555000Y-69960000D01*
X166555000Y-72560000D02*
X166555000Y-72200000D01*
X166355000Y-72200000D02*
X166555000Y-72200000D01*
X166325000Y-69960000D02*
X166325000Y-72200000D01*
X166555000Y-69960000D02*
X166355000Y-69960000D01*
X156255000Y-67410000D02*
X156055000Y-67410000D01*
X156275000Y-69660000D02*
X156275000Y-67410000D01*
X156055000Y-69660000D02*
X156255000Y-69660000D01*
X156055000Y-70660000D02*
X156055000Y-69660000D01*
D17*
X158055000Y-68860000D02*
X164755000Y-68860000D01*
D16*
X156755000Y-67660000D02*
X156755000Y-70160000D01*
D15*
X156355000Y-70360000D02*
X157755000Y-70360000D01*
D18*
X164825000Y-68560000D02*
X164825000Y-70800000D01*
D19*
X165955000Y-72060000D02*
X165955000Y-70260000D01*
D20*
X166454999Y-69860000D02*
X166455000Y-68960001D01*
D10*
X137205000Y-69760000D02*
X137205000Y-70460000D01*
X137205000Y-67260000D02*
X138605000Y-67260000D01*
D15*
X147305000Y-72360000D02*
X144605000Y-72360000D01*
D16*
X144621318Y-72138529D02*
G75*
G03X142405000Y-70260000I-2151318J-291471D01*
G01*
D11*
X137005000Y-67410000D02*
X137005000Y-67060000D01*
X147505001Y-68960000D02*
G75*
G03X145405000Y-67059999I-2000001J-100000D01*
G01*
X144221318Y-72538529D02*
G75*
G03X142005000Y-70660000I-2151318J-291471D01*
G01*
X137005000Y-67060000D02*
X145405000Y-67059999D01*
X142005000Y-70660000D02*
X137005000Y-70660000D01*
X147505000Y-72560000D02*
X144225000Y-72560000D01*
X147505000Y-68960000D02*
X147505000Y-69960000D01*
X147505000Y-72560000D02*
X147505000Y-72200000D01*
X147305000Y-72200000D02*
X147505000Y-72200000D01*
X147275000Y-69960000D02*
X147275000Y-72200000D01*
X147505000Y-69960000D02*
X147305000Y-69960000D01*
X137205000Y-67410000D02*
X137005000Y-67410000D01*
X137225000Y-69660000D02*
X137225000Y-67410000D01*
X137005000Y-69660000D02*
X137205000Y-69660000D01*
X137005000Y-70660000D02*
X137005000Y-69660000D01*
D17*
X139005000Y-68860000D02*
X145705000Y-68860000D01*
D16*
X137705000Y-67660000D02*
X137705000Y-70160000D01*
D15*
X137305000Y-70360000D02*
X138705000Y-70360000D01*
D18*
X145775000Y-68560000D02*
X145775000Y-70800000D01*
D19*
X146905000Y-72060000D02*
X146905000Y-70260000D01*
D20*
X147404999Y-69860000D02*
X147405000Y-68960001D01*
D10*
X118155000Y-69760000D02*
X118155000Y-70460000D01*
X118155000Y-67260000D02*
X119555000Y-67260000D01*
D15*
X128255000Y-72360000D02*
X125555000Y-72360000D01*
D16*
X125571318Y-72138529D02*
G75*
G03X123355000Y-70260000I-2151318J-291471D01*
G01*
D11*
X117955000Y-67410000D02*
X117955000Y-67060000D01*
X128455001Y-68960000D02*
G75*
G03X126355000Y-67059999I-2000001J-100000D01*
G01*
X125171318Y-72538529D02*
G75*
G03X122955000Y-70660000I-2151318J-291471D01*
G01*
X117955000Y-67060000D02*
X126355000Y-67059999D01*
X122955000Y-70660000D02*
X117955000Y-70660000D01*
X128455000Y-72560000D02*
X125175000Y-72560000D01*
X128455000Y-68960000D02*
X128455000Y-69960000D01*
X128455000Y-72560000D02*
X128455000Y-72200000D01*
X128255000Y-72200000D02*
X128455000Y-72200000D01*
X128225000Y-69960000D02*
X128225000Y-72200000D01*
X128455000Y-69960000D02*
X128255000Y-69960000D01*
X118155000Y-67410000D02*
X117955000Y-67410000D01*
X118175000Y-69660000D02*
X118175000Y-67410000D01*
X117955000Y-69660000D02*
X118155000Y-69660000D01*
X117955000Y-70660000D02*
X117955000Y-69660000D01*
D17*
X119955000Y-68860000D02*
X126655000Y-68860000D01*
D16*
X118655000Y-67660000D02*
X118655000Y-70160000D01*
D15*
X118255000Y-70360000D02*
X119655000Y-70360000D01*
D18*
X126725000Y-68560000D02*
X126725000Y-70800000D01*
D19*
X127855000Y-72060000D02*
X127855000Y-70260000D01*
D20*
X128354999Y-69860000D02*
X128355000Y-68960001D01*
D10*
X99105000Y-69760000D02*
X99105000Y-70460000D01*
X99105000Y-67260000D02*
X100505000Y-67260000D01*
D15*
X109205000Y-72360000D02*
X106505000Y-72360000D01*
D16*
X106521318Y-72138529D02*
G75*
G03X104305000Y-70260000I-2151318J-291471D01*
G01*
D11*
X98905000Y-67410000D02*
X98905000Y-67060000D01*
X109405001Y-68960000D02*
G75*
G03X107305000Y-67059999I-2000001J-100000D01*
G01*
X106121318Y-72538529D02*
G75*
G03X103905000Y-70660000I-2151318J-291471D01*
G01*
X98905000Y-67060000D02*
X107305000Y-67059999D01*
X103905000Y-70660000D02*
X98905000Y-70660000D01*
X109405000Y-72560000D02*
X106125000Y-72560000D01*
X109405000Y-68960000D02*
X109405000Y-69960000D01*
X109405000Y-72560000D02*
X109405000Y-72200000D01*
X109205000Y-72200000D02*
X109405000Y-72200000D01*
X109175000Y-69960000D02*
X109175000Y-72200000D01*
X109405000Y-69960000D02*
X109205000Y-69960000D01*
X99105000Y-67410000D02*
X98905000Y-67410000D01*
X99125000Y-69660000D02*
X99125000Y-67410000D01*
X98905000Y-69660000D02*
X99105000Y-69660000D01*
X98905000Y-70660000D02*
X98905000Y-69660000D01*
D17*
X100905000Y-68860000D02*
X107605000Y-68860000D01*
D16*
X99605000Y-67660000D02*
X99605000Y-70160000D01*
D15*
X99205000Y-70360000D02*
X100605000Y-70360000D01*
D18*
X107675000Y-68560000D02*
X107675000Y-70800000D01*
D19*
X108805000Y-72060000D02*
X108805000Y-70260000D01*
D20*
X109304999Y-69860000D02*
X109305000Y-68960001D01*
D11*
X181838414Y-47190031D02*
X180936852Y-46288470D01*
X189563555Y-54102000D02*
X189086258Y-53624703D01*
X182245000Y-61420555D02*
X181767703Y-60943258D01*
X174926445Y-54102000D02*
X175403742Y-54579297D01*
X182245000Y-46783445D02*
X182722297Y-47260742D01*
X174926445Y-54102000D02*
X175403742Y-53624703D01*
X182245000Y-61420555D02*
X182722297Y-60943258D01*
X189563555Y-54102000D02*
X189086258Y-54579297D01*
X182245000Y-46783445D02*
X181838414Y-47190031D01*
D13*
X154211000Y-45624000D02*
X154211000Y-54814000D01*
X163621000Y-45744000D02*
X163621000Y-54694000D01*
X156941000Y-54814000D02*
X154211000Y-54814000D01*
X156941000Y-45624000D02*
X154211000Y-45624000D01*
X160541000Y-54814000D02*
X159641000Y-54814000D01*
X160541000Y-45624000D02*
X159641000Y-45624000D01*
D11*
X182189380Y-42044857D02*
X181713190Y-42378190D01*
X182189380Y-42616285D02*
X181189380Y-42616285D01*
X181189380Y-42235333D01*
X181237000Y-42140095D01*
X181284619Y-42092476D01*
X181379857Y-42044857D01*
X181522714Y-42044857D01*
X181617952Y-42092476D01*
X181665571Y-42140095D01*
X181713190Y-42235333D01*
X181713190Y-42616285D01*
X182189380Y-41092476D02*
X182189380Y-41663904D01*
X182189380Y-41378190D02*
X181189380Y-41378190D01*
X181332238Y-41473428D01*
X181427476Y-41568666D01*
X181475095Y-41663904D01*
X182189380Y-40140095D02*
X182189380Y-40711523D01*
X182189380Y-40425809D02*
X181189380Y-40425809D01*
X181332238Y-40521047D01*
X181427476Y-40616285D01*
X181475095Y-40711523D01*
X175950714Y-42870380D02*
X175950714Y-41870380D01*
X176188809Y-41870380D01*
X176331666Y-41918000D01*
X176426904Y-42013238D01*
X176474523Y-42108476D01*
X176522142Y-42298952D01*
X176522142Y-42441809D01*
X176474523Y-42632285D01*
X176426904Y-42727523D01*
X176331666Y-42822761D01*
X176188809Y-42870380D01*
X175950714Y-42870380D01*
X176855476Y-41870380D02*
X177474523Y-41870380D01*
X177141190Y-42251333D01*
X177284047Y-42251333D01*
X177379285Y-42298952D01*
X177426904Y-42346571D01*
X177474523Y-42441809D01*
X177474523Y-42679904D01*
X177426904Y-42775142D01*
X177379285Y-42822761D01*
X177284047Y-42870380D01*
X176998333Y-42870380D01*
X176903095Y-42822761D01*
X176855476Y-42775142D01*
X177807857Y-41870380D02*
X178426904Y-41870380D01*
X178093571Y-42251333D01*
X178236428Y-42251333D01*
X178331666Y-42298952D01*
X178379285Y-42346571D01*
X178426904Y-42441809D01*
X178426904Y-42679904D01*
X178379285Y-42775142D01*
X178331666Y-42822761D01*
X178236428Y-42870380D01*
X177950714Y-42870380D01*
X177855476Y-42822761D01*
X177807857Y-42775142D01*
X172061190Y-64357190D02*
X172537380Y-64357190D01*
X171537380Y-64690523D02*
X172061190Y-64357190D01*
X171537380Y-64023857D01*
X172537380Y-63166714D02*
X172537380Y-63738142D01*
X172537380Y-63452428D02*
X171537380Y-63452428D01*
X171680238Y-63547666D01*
X171775476Y-63642904D01*
X171823095Y-63738142D01*
X199485476Y-58316761D02*
X199628333Y-58364380D01*
X199866428Y-58364380D01*
X199961666Y-58316761D01*
X200009285Y-58269142D01*
X200056904Y-58173904D01*
X200056904Y-58078666D01*
X200009285Y-57983428D01*
X199961666Y-57935809D01*
X199866428Y-57888190D01*
X199675952Y-57840571D01*
X199580714Y-57792952D01*
X199533095Y-57745333D01*
X199485476Y-57650095D01*
X199485476Y-57554857D01*
X199533095Y-57459619D01*
X199580714Y-57412000D01*
X199675952Y-57364380D01*
X199914047Y-57364380D01*
X200056904Y-57412000D01*
X200390238Y-57364380D02*
X200628333Y-58364380D01*
X200818809Y-57650095D01*
X201009285Y-58364380D01*
X201247380Y-57364380D01*
X201580714Y-57459619D02*
X201628333Y-57412000D01*
X201723571Y-57364380D01*
X201961666Y-57364380D01*
X202056904Y-57412000D01*
X202104523Y-57459619D01*
X202152142Y-57554857D01*
X202152142Y-57650095D01*
X202104523Y-57792952D01*
X201533095Y-58364380D01*
X202152142Y-58364380D01*
X202628333Y-58364380D02*
X202818809Y-58364380D01*
X202914047Y-58316761D01*
X202961666Y-58269142D01*
X203056904Y-58126285D01*
X203104523Y-57935809D01*
X203104523Y-57554857D01*
X203056904Y-57459619D01*
X203009285Y-57412000D01*
X202914047Y-57364380D01*
X202723571Y-57364380D01*
X202628333Y-57412000D01*
X202580714Y-57459619D01*
X202533095Y-57554857D01*
X202533095Y-57792952D01*
X202580714Y-57888190D01*
X202628333Y-57935809D01*
X202723571Y-57983428D01*
X202914047Y-57983428D01*
X203009285Y-57935809D01*
X203056904Y-57888190D01*
X203104523Y-57792952D01*
X193254333Y-54300380D02*
X192921000Y-53824190D01*
X192682904Y-54300380D02*
X192682904Y-53300380D01*
X193063857Y-53300380D01*
X193159095Y-53348000D01*
X193206714Y-53395619D01*
X193254333Y-53490857D01*
X193254333Y-53633714D01*
X193206714Y-53728952D01*
X193159095Y-53776571D01*
X193063857Y-53824190D01*
X192682904Y-53824190D01*
X193730523Y-54300380D02*
X193921000Y-54300380D01*
X194016238Y-54252761D01*
X194063857Y-54205142D01*
X194159095Y-54062285D01*
X194206714Y-53871809D01*
X194206714Y-53490857D01*
X194159095Y-53395619D01*
X194111476Y-53348000D01*
X194016238Y-53300380D01*
X193825761Y-53300380D01*
X193730523Y-53348000D01*
X193682904Y-53395619D01*
X193635285Y-53490857D01*
X193635285Y-53728952D01*
X193682904Y-53824190D01*
X193730523Y-53871809D01*
X193825761Y-53919428D01*
X194016238Y-53919428D01*
X194111476Y-53871809D01*
X194159095Y-53824190D01*
X194206714Y-53728952D01*
X161758333Y-57094380D02*
X161425000Y-56618190D01*
X161186904Y-57094380D02*
X161186904Y-56094380D01*
X161567857Y-56094380D01*
X161663095Y-56142000D01*
X161710714Y-56189619D01*
X161758333Y-56284857D01*
X161758333Y-56427714D01*
X161710714Y-56522952D01*
X161663095Y-56570571D01*
X161567857Y-56618190D01*
X161186904Y-56618190D01*
X162329761Y-56522952D02*
X162234523Y-56475333D01*
X162186904Y-56427714D01*
X162139285Y-56332476D01*
X162139285Y-56284857D01*
X162186904Y-56189619D01*
X162234523Y-56142000D01*
X162329761Y-56094380D01*
X162520238Y-56094380D01*
X162615476Y-56142000D01*
X162663095Y-56189619D01*
X162710714Y-56284857D01*
X162710714Y-56332476D01*
X162663095Y-56427714D01*
X162615476Y-56475333D01*
X162520238Y-56522952D01*
X162329761Y-56522952D01*
X162234523Y-56570571D01*
X162186904Y-56618190D01*
X162139285Y-56713428D01*
X162139285Y-56903904D01*
X162186904Y-56999142D01*
X162234523Y-57046761D01*
X162329761Y-57094380D01*
X162520238Y-57094380D01*
X162615476Y-57046761D01*
X162663095Y-56999142D01*
X162710714Y-56903904D01*
X162710714Y-56713428D01*
X162663095Y-56618190D01*
X162615476Y-56570571D01*
X162520238Y-56522952D01*
X162012333Y-44394380D02*
X161679000Y-43918190D01*
X161440904Y-44394380D02*
X161440904Y-43394380D01*
X161821857Y-43394380D01*
X161917095Y-43442000D01*
X161964714Y-43489619D01*
X162012333Y-43584857D01*
X162012333Y-43727714D01*
X161964714Y-43822952D01*
X161917095Y-43870571D01*
X161821857Y-43918190D01*
X161440904Y-43918190D01*
X162345666Y-43394380D02*
X163012333Y-43394380D01*
X162583761Y-44394380D01*
X202144333Y-48712380D02*
X201811000Y-48236190D01*
X201572904Y-48712380D02*
X201572904Y-47712380D01*
X201953857Y-47712380D01*
X202049095Y-47760000D01*
X202096714Y-47807619D01*
X202144333Y-47902857D01*
X202144333Y-48045714D01*
X202096714Y-48140952D01*
X202049095Y-48188571D01*
X201953857Y-48236190D01*
X201572904Y-48236190D01*
X203001476Y-47712380D02*
X202811000Y-47712380D01*
X202715761Y-47760000D01*
X202668142Y-47807619D01*
X202572904Y-47950476D01*
X202525285Y-48140952D01*
X202525285Y-48521904D01*
X202572904Y-48617142D01*
X202620523Y-48664761D01*
X202715761Y-48712380D01*
X202906238Y-48712380D01*
X203001476Y-48664761D01*
X203049095Y-48617142D01*
X203096714Y-48521904D01*
X203096714Y-48283809D01*
X203049095Y-48188571D01*
X203001476Y-48140952D01*
X202906238Y-48093333D01*
X202715761Y-48093333D01*
X202620523Y-48140952D01*
X202572904Y-48188571D01*
X202525285Y-48283809D01*
X202144333Y-55316380D02*
X201811000Y-54840190D01*
X201572904Y-55316380D02*
X201572904Y-54316380D01*
X201953857Y-54316380D01*
X202049095Y-54364000D01*
X202096714Y-54411619D01*
X202144333Y-54506857D01*
X202144333Y-54649714D01*
X202096714Y-54744952D01*
X202049095Y-54792571D01*
X201953857Y-54840190D01*
X201572904Y-54840190D01*
X203049095Y-54316380D02*
X202572904Y-54316380D01*
X202525285Y-54792571D01*
X202572904Y-54744952D01*
X202668142Y-54697333D01*
X202906238Y-54697333D01*
X203001476Y-54744952D01*
X203049095Y-54792571D01*
X203096714Y-54887809D01*
X203096714Y-55125904D01*
X203049095Y-55221142D01*
X203001476Y-55268761D01*
X202906238Y-55316380D01*
X202668142Y-55316380D01*
X202572904Y-55268761D01*
X202525285Y-55221142D01*
X161758333Y-58618380D02*
X161425000Y-58142190D01*
X161186904Y-58618380D02*
X161186904Y-57618380D01*
X161567857Y-57618380D01*
X161663095Y-57666000D01*
X161710714Y-57713619D01*
X161758333Y-57808857D01*
X161758333Y-57951714D01*
X161710714Y-58046952D01*
X161663095Y-58094571D01*
X161567857Y-58142190D01*
X161186904Y-58142190D01*
X162091666Y-57618380D02*
X162710714Y-57618380D01*
X162377380Y-57999333D01*
X162520238Y-57999333D01*
X162615476Y-58046952D01*
X162663095Y-58094571D01*
X162710714Y-58189809D01*
X162710714Y-58427904D01*
X162663095Y-58523142D01*
X162615476Y-58570761D01*
X162520238Y-58618380D01*
X162234523Y-58618380D01*
X162139285Y-58570761D01*
X162091666Y-58523142D01*
X167346333Y-52936380D02*
X167013000Y-52460190D01*
X166774904Y-52936380D02*
X166774904Y-51936380D01*
X167155857Y-51936380D01*
X167251095Y-51984000D01*
X167298714Y-52031619D01*
X167346333Y-52126857D01*
X167346333Y-52269714D01*
X167298714Y-52364952D01*
X167251095Y-52412571D01*
X167155857Y-52460190D01*
X166774904Y-52460190D01*
X167727285Y-52031619D02*
X167774904Y-51984000D01*
X167870142Y-51936380D01*
X168108238Y-51936380D01*
X168203476Y-51984000D01*
X168251095Y-52031619D01*
X168298714Y-52126857D01*
X168298714Y-52222095D01*
X168251095Y-52364952D01*
X167679666Y-52936380D01*
X168298714Y-52936380D01*
X167346333Y-48458380D02*
X167013000Y-47982190D01*
X166774904Y-48458380D02*
X166774904Y-47458380D01*
X167155857Y-47458380D01*
X167251095Y-47506000D01*
X167298714Y-47553619D01*
X167346333Y-47648857D01*
X167346333Y-47791714D01*
X167298714Y-47886952D01*
X167251095Y-47934571D01*
X167155857Y-47982190D01*
X166774904Y-47982190D01*
X168298714Y-48458380D02*
X167727285Y-48458380D01*
X168013000Y-48458380D02*
X168013000Y-47458380D01*
X167917761Y-47601238D01*
X167822523Y-47696476D01*
X167727285Y-47744095D01*
X191563666Y-40092380D02*
X191563666Y-40806666D01*
X191516047Y-40949523D01*
X191420809Y-41044761D01*
X191277952Y-41092380D01*
X191182714Y-41092380D01*
X191992238Y-40187619D02*
X192039857Y-40140000D01*
X192135095Y-40092380D01*
X192373190Y-40092380D01*
X192468428Y-40140000D01*
X192516047Y-40187619D01*
X192563666Y-40282857D01*
X192563666Y-40378095D01*
X192516047Y-40520952D01*
X191944619Y-41092380D01*
X192563666Y-41092380D01*
X200334714Y-43506380D02*
X200334714Y-42506380D01*
X200572809Y-42506380D01*
X200715666Y-42554000D01*
X200810904Y-42649238D01*
X200858523Y-42744476D01*
X200906142Y-42934952D01*
X200906142Y-43077809D01*
X200858523Y-43268285D01*
X200810904Y-43363523D01*
X200715666Y-43458761D01*
X200572809Y-43506380D01*
X200334714Y-43506380D01*
X201239476Y-42506380D02*
X201858523Y-42506380D01*
X201525190Y-42887333D01*
X201668047Y-42887333D01*
X201763285Y-42934952D01*
X201810904Y-42982571D01*
X201858523Y-43077809D01*
X201858523Y-43315904D01*
X201810904Y-43411142D01*
X201763285Y-43458761D01*
X201668047Y-43506380D01*
X201382333Y-43506380D01*
X201287095Y-43458761D01*
X201239476Y-43411142D01*
X202239476Y-42601619D02*
X202287095Y-42554000D01*
X202382333Y-42506380D01*
X202620428Y-42506380D01*
X202715666Y-42554000D01*
X202763285Y-42601619D01*
X202810904Y-42696857D01*
X202810904Y-42792095D01*
X202763285Y-42934952D01*
X202191857Y-43506380D01*
X202810904Y-43506380D01*
X200334714Y-50110380D02*
X200334714Y-49110380D01*
X200572809Y-49110380D01*
X200715666Y-49158000D01*
X200810904Y-49253238D01*
X200858523Y-49348476D01*
X200906142Y-49538952D01*
X200906142Y-49681809D01*
X200858523Y-49872285D01*
X200810904Y-49967523D01*
X200715666Y-50062761D01*
X200572809Y-50110380D01*
X200334714Y-50110380D01*
X201239476Y-49110380D02*
X201858523Y-49110380D01*
X201525190Y-49491333D01*
X201668047Y-49491333D01*
X201763285Y-49538952D01*
X201810904Y-49586571D01*
X201858523Y-49681809D01*
X201858523Y-49919904D01*
X201810904Y-50015142D01*
X201763285Y-50062761D01*
X201668047Y-50110380D01*
X201382333Y-50110380D01*
X201287095Y-50062761D01*
X201239476Y-50015142D01*
X202810904Y-50110380D02*
X202239476Y-50110380D01*
X202525190Y-50110380D02*
X202525190Y-49110380D01*
X202429952Y-49253238D01*
X202334714Y-49348476D01*
X202239476Y-49396095D01*
X173804588Y-55359060D02*
X173852207Y-55406679D01*
X173899826Y-55549536D01*
X173899826Y-55644774D01*
X173852207Y-55787632D01*
X173756969Y-55882870D01*
X173661731Y-55930489D01*
X173471255Y-55978108D01*
X173328398Y-55978108D01*
X173137922Y-55930489D01*
X173042684Y-55882870D01*
X172947446Y-55787632D01*
X172899826Y-55644774D01*
X172899826Y-55549536D01*
X172947446Y-55406679D01*
X172995065Y-55359060D01*
X172899826Y-55025727D02*
X172899826Y-54359060D01*
X173899826Y-54787632D01*
X185935687Y-43550389D02*
X185935687Y-43617732D01*
X185868343Y-43752419D01*
X185801000Y-43819763D01*
X185666312Y-43887106D01*
X185531625Y-43887106D01*
X185430610Y-43853435D01*
X185262251Y-43752419D01*
X185161236Y-43651404D01*
X185060221Y-43483045D01*
X185026549Y-43382030D01*
X185026549Y-43247343D01*
X185093893Y-43112656D01*
X185161236Y-43045312D01*
X185295923Y-42977969D01*
X185363267Y-42977969D01*
X185935687Y-42270862D02*
X185598969Y-42607580D01*
X185902015Y-42977969D01*
X185902015Y-42910625D01*
X185935687Y-42809610D01*
X186104045Y-42641251D01*
X186205061Y-42607580D01*
X186272404Y-42607580D01*
X186373419Y-42641251D01*
X186541778Y-42809610D01*
X186575450Y-42910625D01*
X186575450Y-42977969D01*
X186541778Y-43078984D01*
X186373419Y-43247343D01*
X186272404Y-43281015D01*
X186205061Y-43281015D01*
X187711773Y-46875524D02*
X187644430Y-46875524D01*
X187509743Y-46808180D01*
X187442399Y-46740837D01*
X187375056Y-46606149D01*
X187375056Y-46471462D01*
X187408727Y-46370447D01*
X187509743Y-46202088D01*
X187610758Y-46101073D01*
X187779117Y-46000058D01*
X187880132Y-45966386D01*
X188014819Y-45966386D01*
X188149506Y-46033730D01*
X188216850Y-46101073D01*
X188284193Y-46235760D01*
X188284193Y-46303104D01*
X188721926Y-47077554D02*
X188250521Y-47548959D01*
X188822941Y-46639821D02*
X188149506Y-46976539D01*
X188587239Y-47414272D01*
X175770850Y-50403552D02*
X175770850Y-50470895D01*
X175703506Y-50605582D01*
X175636163Y-50672926D01*
X175501475Y-50740269D01*
X175366788Y-50740269D01*
X175265773Y-50706598D01*
X175097414Y-50605582D01*
X174996399Y-50504567D01*
X174895384Y-50336208D01*
X174861712Y-50235193D01*
X174861712Y-50100506D01*
X174929056Y-49965819D01*
X174996399Y-49898475D01*
X175131086Y-49831132D01*
X175198430Y-49831132D01*
X175366788Y-49528086D02*
X175804521Y-49090353D01*
X175838193Y-49595430D01*
X175939208Y-49494414D01*
X176040224Y-49460743D01*
X176107567Y-49460743D01*
X176208582Y-49494414D01*
X176376941Y-49662773D01*
X176410613Y-49763788D01*
X176410613Y-49831132D01*
X176376941Y-49932147D01*
X176174911Y-50134178D01*
X176073895Y-50167850D01*
X176006552Y-50167850D01*
X171061424Y-60872666D02*
X171109043Y-60920285D01*
X171156662Y-61063142D01*
X171156662Y-61158380D01*
X171109043Y-61301238D01*
X171013805Y-61396476D01*
X170918567Y-61444095D01*
X170728091Y-61491714D01*
X170585234Y-61491714D01*
X170394758Y-61444095D01*
X170299520Y-61396476D01*
X170204282Y-61301238D01*
X170156662Y-61158380D01*
X170156662Y-61063142D01*
X170204282Y-60920285D01*
X170251901Y-60872666D01*
X170251901Y-60491714D02*
X170204282Y-60444095D01*
X170156662Y-60348857D01*
X170156662Y-60110761D01*
X170204282Y-60015523D01*
X170251901Y-59967904D01*
X170347139Y-59920285D01*
X170442377Y-59920285D01*
X170585234Y-59967904D01*
X171156662Y-60539333D01*
X171156662Y-59920285D01*
X173950333Y-65635142D02*
X173902714Y-65682761D01*
X173759857Y-65730380D01*
X173664619Y-65730380D01*
X173521761Y-65682761D01*
X173426523Y-65587523D01*
X173378904Y-65492285D01*
X173331285Y-65301809D01*
X173331285Y-65158952D01*
X173378904Y-64968476D01*
X173426523Y-64873238D01*
X173521761Y-64778000D01*
X173664619Y-64730380D01*
X173759857Y-64730380D01*
X173902714Y-64778000D01*
X173950333Y-64825619D01*
X174902714Y-65730380D02*
X174331285Y-65730380D01*
X174617000Y-65730380D02*
X174617000Y-64730380D01*
X174521761Y-64873238D01*
X174426523Y-64968476D01*
X174331285Y-65016095D01*
X184379477Y-44794026D02*
X183807057Y-45366446D01*
X183773385Y-45467461D01*
X183773385Y-45534805D01*
X183807057Y-45635820D01*
X183941744Y-45770507D01*
X184042759Y-45804179D01*
X184110103Y-45804179D01*
X184211118Y-45770507D01*
X184783538Y-45198087D01*
X184783538Y-46612301D02*
X184379477Y-46208240D01*
X184581507Y-46410270D02*
X185288614Y-45703164D01*
X185120255Y-45736835D01*
X184985568Y-45736835D01*
X184884553Y-45703164D01*
X164193380Y-50552333D02*
X164907666Y-50552333D01*
X165050523Y-50599952D01*
X165145761Y-50695190D01*
X165193380Y-50838047D01*
X165193380Y-50933285D01*
X165193380Y-49552333D02*
X165193380Y-50123761D01*
X165193380Y-49838047D02*
X164193380Y-49838047D01*
X164336238Y-49933285D01*
X164431476Y-50028523D01*
X164479095Y-50123761D01*
M02*
