G04 #@! TF.GenerationSoftware,KiCad,Pcbnew,5.1.5*
G04 #@! TF.CreationDate,2020-01-30T11:23:40+09:00*
G04 #@! TF.ProjectId,ergo42,6572676f-3432-42e6-9b69-6361645f7063,1.0.0-alpha*
G04 #@! TF.SameCoordinates,Original*
G04 #@! TF.FileFunction,Copper,L2,Bot*
G04 #@! TF.FilePolarity,Positive*
%FSLAX46Y46*%
G04 Gerber Fmt 4.6, Leading zero omitted, Abs format (unit mm)*
G04 Created by KiCad (PCBNEW 5.1.5) date 2020-01-30 11:23:40*
%MOMM*%
%LPD*%
G04 APERTURE LIST*
%ADD10C,0.100000*%
%ADD11R,1.000000X1.500000*%
%ADD12R,1.000000X1.000000*%
%ADD13C,4.400000*%
%ADD14C,6.000000*%
%ADD15R,1.700000X1.000000*%
%ADD16O,1.000000X2.000000*%
%ADD17C,1.500000*%
%ADD18R,2.300000X2.000000*%
%ADD19R,1.200000X1.900000*%
%ADD20O,1.200000X1.900000*%
%ADD21R,1.500000X1.900000*%
%ADD22C,1.450000*%
%ADD23R,0.400000X1.350000*%
%ADD24R,1.000000X1.400000*%
%ADD25R,1.200000X1.400000*%
%ADD26R,1.200000X0.900000*%
%ADD27C,0.700000*%
%ADD28O,2.400000X0.900000*%
%ADD29O,1.700000X0.900000*%
%ADD30R,1.100000X1.100000*%
%ADD31C,0.600000*%
%ADD32C,0.800000*%
%ADD33C,0.500000*%
%ADD34C,0.250000*%
%ADD35C,0.400000*%
%ADD36C,0.200000*%
%ADD37C,0.254000*%
G04 APERTURE END LIST*
D10*
G36*
X186305000Y-49230000D02*
G01*
X185805000Y-49230000D01*
X185805000Y-49830000D01*
X186305000Y-49830000D01*
X186305000Y-49230000D01*
G37*
G04 #@! TA.AperFunction,ComponentPad*
G36*
X179705000Y-63445107D02*
G01*
X178997893Y-62738000D01*
X179705000Y-62030893D01*
X180412107Y-62738000D01*
X179705000Y-63445107D01*
G37*
G04 #@! TD.AperFunction*
G04 #@! TA.AperFunction,ComponentPad*
G36*
X178181000Y-64969107D02*
G01*
X177473893Y-64262000D01*
X178181000Y-63554893D01*
X178888107Y-64262000D01*
X178181000Y-64969107D01*
G37*
G04 #@! TD.AperFunction*
D11*
X185405000Y-49530000D03*
X186705000Y-49530000D03*
D12*
X195453000Y-61976000D03*
G04 #@! TA.AperFunction,ComponentPad*
D10*
G36*
X186309000Y-61921107D02*
G01*
X185601893Y-61214000D01*
X186309000Y-60506893D01*
X187016107Y-61214000D01*
X186309000Y-61921107D01*
G37*
G04 #@! TD.AperFunction*
D12*
X192913000Y-61976000D03*
G04 #@! TA.AperFunction,ComponentPad*
D10*
G36*
X178181000Y-61921107D02*
G01*
X177473893Y-61214000D01*
X178181000Y-60506893D01*
X178888107Y-61214000D01*
X178181000Y-61921107D01*
G37*
G04 #@! TD.AperFunction*
D13*
X198755000Y-121285000D03*
X84455000Y-121285000D03*
X198755000Y-83185000D03*
X84455000Y-83185000D03*
D14*
X189230000Y-121285000D03*
D15*
X193065000Y-59685000D03*
X199365000Y-59685000D03*
X193065000Y-55885000D03*
X199365000Y-55885000D03*
D16*
X196483000Y-51678000D03*
X192283000Y-43178000D03*
X192283000Y-46178000D03*
X192283000Y-50178000D03*
D17*
X194183000Y-41378000D03*
X194183000Y-48378000D03*
D18*
X90155000Y-68540000D03*
X77455000Y-71080000D03*
G04 #@! TA.AperFunction,SMDPad,CuDef*
D10*
G36*
X164979779Y-42007144D02*
G01*
X165002834Y-42010563D01*
X165025443Y-42016227D01*
X165047387Y-42024079D01*
X165068457Y-42034044D01*
X165088448Y-42046026D01*
X165107168Y-42059910D01*
X165124438Y-42075562D01*
X165140090Y-42092832D01*
X165153974Y-42111552D01*
X165165956Y-42131543D01*
X165175921Y-42152613D01*
X165183773Y-42174557D01*
X165189437Y-42197166D01*
X165192856Y-42220221D01*
X165194000Y-42243500D01*
X165194000Y-42818500D01*
X165192856Y-42841779D01*
X165189437Y-42864834D01*
X165183773Y-42887443D01*
X165175921Y-42909387D01*
X165165956Y-42930457D01*
X165153974Y-42950448D01*
X165140090Y-42969168D01*
X165124438Y-42986438D01*
X165107168Y-43002090D01*
X165088448Y-43015974D01*
X165068457Y-43027956D01*
X165047387Y-43037921D01*
X165025443Y-43045773D01*
X165002834Y-43051437D01*
X164979779Y-43054856D01*
X164956500Y-43056000D01*
X164481500Y-43056000D01*
X164458221Y-43054856D01*
X164435166Y-43051437D01*
X164412557Y-43045773D01*
X164390613Y-43037921D01*
X164369543Y-43027956D01*
X164349552Y-43015974D01*
X164330832Y-43002090D01*
X164313562Y-42986438D01*
X164297910Y-42969168D01*
X164284026Y-42950448D01*
X164272044Y-42930457D01*
X164262079Y-42909387D01*
X164254227Y-42887443D01*
X164248563Y-42864834D01*
X164245144Y-42841779D01*
X164244000Y-42818500D01*
X164244000Y-42243500D01*
X164245144Y-42220221D01*
X164248563Y-42197166D01*
X164254227Y-42174557D01*
X164262079Y-42152613D01*
X164272044Y-42131543D01*
X164284026Y-42111552D01*
X164297910Y-42092832D01*
X164313562Y-42075562D01*
X164330832Y-42059910D01*
X164349552Y-42046026D01*
X164369543Y-42034044D01*
X164390613Y-42024079D01*
X164412557Y-42016227D01*
X164435166Y-42010563D01*
X164458221Y-42007144D01*
X164481500Y-42006000D01*
X164956500Y-42006000D01*
X164979779Y-42007144D01*
G37*
G04 #@! TD.AperFunction*
G04 #@! TA.AperFunction,SMDPad,CuDef*
G36*
X164979779Y-40257144D02*
G01*
X165002834Y-40260563D01*
X165025443Y-40266227D01*
X165047387Y-40274079D01*
X165068457Y-40284044D01*
X165088448Y-40296026D01*
X165107168Y-40309910D01*
X165124438Y-40325562D01*
X165140090Y-40342832D01*
X165153974Y-40361552D01*
X165165956Y-40381543D01*
X165175921Y-40402613D01*
X165183773Y-40424557D01*
X165189437Y-40447166D01*
X165192856Y-40470221D01*
X165194000Y-40493500D01*
X165194000Y-41068500D01*
X165192856Y-41091779D01*
X165189437Y-41114834D01*
X165183773Y-41137443D01*
X165175921Y-41159387D01*
X165165956Y-41180457D01*
X165153974Y-41200448D01*
X165140090Y-41219168D01*
X165124438Y-41236438D01*
X165107168Y-41252090D01*
X165088448Y-41265974D01*
X165068457Y-41277956D01*
X165047387Y-41287921D01*
X165025443Y-41295773D01*
X165002834Y-41301437D01*
X164979779Y-41304856D01*
X164956500Y-41306000D01*
X164481500Y-41306000D01*
X164458221Y-41304856D01*
X164435166Y-41301437D01*
X164412557Y-41295773D01*
X164390613Y-41287921D01*
X164369543Y-41277956D01*
X164349552Y-41265974D01*
X164330832Y-41252090D01*
X164313562Y-41236438D01*
X164297910Y-41219168D01*
X164284026Y-41200448D01*
X164272044Y-41180457D01*
X164262079Y-41159387D01*
X164254227Y-41137443D01*
X164248563Y-41114834D01*
X164245144Y-41091779D01*
X164244000Y-41068500D01*
X164244000Y-40493500D01*
X164245144Y-40470221D01*
X164248563Y-40447166D01*
X164254227Y-40424557D01*
X164262079Y-40402613D01*
X164272044Y-40381543D01*
X164284026Y-40361552D01*
X164297910Y-40342832D01*
X164313562Y-40325562D01*
X164330832Y-40309910D01*
X164349552Y-40296026D01*
X164369543Y-40284044D01*
X164390613Y-40274079D01*
X164412557Y-40266227D01*
X164435166Y-40260563D01*
X164458221Y-40257144D01*
X164481500Y-40256000D01*
X164956500Y-40256000D01*
X164979779Y-40257144D01*
G37*
G04 #@! TD.AperFunction*
G04 #@! TA.AperFunction,SMDPad,CuDef*
G36*
X190633779Y-56852144D02*
G01*
X190656834Y-56855563D01*
X190679443Y-56861227D01*
X190701387Y-56869079D01*
X190722457Y-56879044D01*
X190742448Y-56891026D01*
X190761168Y-56904910D01*
X190778438Y-56920562D01*
X190794090Y-56937832D01*
X190807974Y-56956552D01*
X190819956Y-56976543D01*
X190829921Y-56997613D01*
X190837773Y-57019557D01*
X190843437Y-57042166D01*
X190846856Y-57065221D01*
X190848000Y-57088500D01*
X190848000Y-57663500D01*
X190846856Y-57686779D01*
X190843437Y-57709834D01*
X190837773Y-57732443D01*
X190829921Y-57754387D01*
X190819956Y-57775457D01*
X190807974Y-57795448D01*
X190794090Y-57814168D01*
X190778438Y-57831438D01*
X190761168Y-57847090D01*
X190742448Y-57860974D01*
X190722457Y-57872956D01*
X190701387Y-57882921D01*
X190679443Y-57890773D01*
X190656834Y-57896437D01*
X190633779Y-57899856D01*
X190610500Y-57901000D01*
X190135500Y-57901000D01*
X190112221Y-57899856D01*
X190089166Y-57896437D01*
X190066557Y-57890773D01*
X190044613Y-57882921D01*
X190023543Y-57872956D01*
X190003552Y-57860974D01*
X189984832Y-57847090D01*
X189967562Y-57831438D01*
X189951910Y-57814168D01*
X189938026Y-57795448D01*
X189926044Y-57775457D01*
X189916079Y-57754387D01*
X189908227Y-57732443D01*
X189902563Y-57709834D01*
X189899144Y-57686779D01*
X189898000Y-57663500D01*
X189898000Y-57088500D01*
X189899144Y-57065221D01*
X189902563Y-57042166D01*
X189908227Y-57019557D01*
X189916079Y-56997613D01*
X189926044Y-56976543D01*
X189938026Y-56956552D01*
X189951910Y-56937832D01*
X189967562Y-56920562D01*
X189984832Y-56904910D01*
X190003552Y-56891026D01*
X190023543Y-56879044D01*
X190044613Y-56869079D01*
X190066557Y-56861227D01*
X190089166Y-56855563D01*
X190112221Y-56852144D01*
X190135500Y-56851000D01*
X190610500Y-56851000D01*
X190633779Y-56852144D01*
G37*
G04 #@! TD.AperFunction*
G04 #@! TA.AperFunction,SMDPad,CuDef*
G36*
X190633779Y-55102144D02*
G01*
X190656834Y-55105563D01*
X190679443Y-55111227D01*
X190701387Y-55119079D01*
X190722457Y-55129044D01*
X190742448Y-55141026D01*
X190761168Y-55154910D01*
X190778438Y-55170562D01*
X190794090Y-55187832D01*
X190807974Y-55206552D01*
X190819956Y-55226543D01*
X190829921Y-55247613D01*
X190837773Y-55269557D01*
X190843437Y-55292166D01*
X190846856Y-55315221D01*
X190848000Y-55338500D01*
X190848000Y-55913500D01*
X190846856Y-55936779D01*
X190843437Y-55959834D01*
X190837773Y-55982443D01*
X190829921Y-56004387D01*
X190819956Y-56025457D01*
X190807974Y-56045448D01*
X190794090Y-56064168D01*
X190778438Y-56081438D01*
X190761168Y-56097090D01*
X190742448Y-56110974D01*
X190722457Y-56122956D01*
X190701387Y-56132921D01*
X190679443Y-56140773D01*
X190656834Y-56146437D01*
X190633779Y-56149856D01*
X190610500Y-56151000D01*
X190135500Y-56151000D01*
X190112221Y-56149856D01*
X190089166Y-56146437D01*
X190066557Y-56140773D01*
X190044613Y-56132921D01*
X190023543Y-56122956D01*
X190003552Y-56110974D01*
X189984832Y-56097090D01*
X189967562Y-56081438D01*
X189951910Y-56064168D01*
X189938026Y-56045448D01*
X189926044Y-56025457D01*
X189916079Y-56004387D01*
X189908227Y-55982443D01*
X189902563Y-55959834D01*
X189899144Y-55936779D01*
X189898000Y-55913500D01*
X189898000Y-55338500D01*
X189899144Y-55315221D01*
X189902563Y-55292166D01*
X189908227Y-55269557D01*
X189916079Y-55247613D01*
X189926044Y-55226543D01*
X189938026Y-55206552D01*
X189951910Y-55187832D01*
X189967562Y-55170562D01*
X189984832Y-55154910D01*
X190003552Y-55141026D01*
X190023543Y-55129044D01*
X190044613Y-55119079D01*
X190066557Y-55111227D01*
X190089166Y-55105563D01*
X190112221Y-55102144D01*
X190135500Y-55101000D01*
X190610500Y-55101000D01*
X190633779Y-55102144D01*
G37*
G04 #@! TD.AperFunction*
D19*
X167280000Y-40322500D03*
X173080000Y-40322500D03*
D20*
X173680000Y-40322500D03*
X166680000Y-40322500D03*
D21*
X169180000Y-40322500D03*
D22*
X172680000Y-43022500D03*
D23*
X170180000Y-43022500D03*
X170830000Y-43022500D03*
X171480000Y-43022500D03*
X168880000Y-43022500D03*
X169530000Y-43022500D03*
D22*
X167680000Y-43022500D03*
D21*
X171180000Y-40322500D03*
D16*
X193915000Y-51678000D03*
X198115000Y-43178000D03*
X198115000Y-46178000D03*
X198115000Y-50178000D03*
D17*
X196215000Y-41378000D03*
X196215000Y-48378000D03*
D14*
X93980000Y-121285000D03*
X132080000Y-102235000D03*
X189230000Y-83185000D03*
X93980000Y-83185000D03*
D24*
X170749000Y-49192000D03*
X168849000Y-49192000D03*
X168849000Y-51392000D03*
D25*
X170569000Y-51392000D03*
D26*
X207137000Y-131192000D03*
X207137000Y-134492000D03*
X188087000Y-131192000D03*
X188087000Y-134492000D03*
X169037000Y-131192000D03*
X169037000Y-134492000D03*
X149987000Y-131192000D03*
X149987000Y-134492000D03*
X130937000Y-131192000D03*
X130937000Y-134492000D03*
X111887000Y-131192000D03*
X111887000Y-134492000D03*
X92837000Y-131192000D03*
X92837000Y-134492000D03*
X207137000Y-112142000D03*
X207137000Y-115442000D03*
X188087000Y-112142000D03*
X188087000Y-115442000D03*
X169037000Y-112142000D03*
X169037000Y-115442000D03*
X149987000Y-112142000D03*
X149987000Y-115442000D03*
X130937000Y-112142000D03*
X130937000Y-115442000D03*
X111887000Y-112142000D03*
X111887000Y-115442000D03*
X92837000Y-112142000D03*
X92837000Y-115442000D03*
X207137000Y-93092000D03*
X207137000Y-96392000D03*
X188087000Y-93092000D03*
X188087000Y-96392000D03*
X169037000Y-93092000D03*
X169037000Y-96392000D03*
X149987000Y-93092000D03*
X149987000Y-96392000D03*
X130937000Y-93092000D03*
X130937000Y-96392000D03*
X111887000Y-93092000D03*
X111887000Y-96392000D03*
X92837000Y-93092000D03*
X92837000Y-96392000D03*
X207137000Y-74042000D03*
X207137000Y-77342000D03*
X188087000Y-74042000D03*
X188087000Y-77342000D03*
X169037000Y-74042000D03*
X169037000Y-77342000D03*
X149987000Y-74042000D03*
X149987000Y-77342000D03*
X130937000Y-74042000D03*
X130937000Y-77342000D03*
X111887000Y-74042000D03*
X111887000Y-77342000D03*
X92837000Y-74042000D03*
X92837000Y-77342000D03*
G04 #@! TA.AperFunction,SMDPad,CuDef*
D10*
G36*
X177374360Y-45079849D02*
G01*
X177397415Y-45083268D01*
X177420024Y-45088932D01*
X177441968Y-45096784D01*
X177463038Y-45106749D01*
X177483029Y-45118731D01*
X177501749Y-45132615D01*
X177519019Y-45148267D01*
X177925605Y-45554853D01*
X177941257Y-45572123D01*
X177955141Y-45590843D01*
X177967123Y-45610834D01*
X177977088Y-45631904D01*
X177984940Y-45653848D01*
X177990604Y-45676457D01*
X177994023Y-45699512D01*
X177995167Y-45722791D01*
X177994023Y-45746070D01*
X177990604Y-45769125D01*
X177984940Y-45791734D01*
X177977088Y-45813678D01*
X177967123Y-45834748D01*
X177955141Y-45854739D01*
X177941257Y-45873459D01*
X177925605Y-45890729D01*
X177589729Y-46226605D01*
X177572459Y-46242257D01*
X177553739Y-46256141D01*
X177533748Y-46268123D01*
X177512678Y-46278088D01*
X177490734Y-46285940D01*
X177468125Y-46291604D01*
X177445070Y-46295023D01*
X177421791Y-46296167D01*
X177398512Y-46295023D01*
X177375457Y-46291604D01*
X177352848Y-46285940D01*
X177330904Y-46278088D01*
X177309834Y-46268123D01*
X177289843Y-46256141D01*
X177271123Y-46242257D01*
X177253853Y-46226605D01*
X176847267Y-45820019D01*
X176831615Y-45802749D01*
X176817731Y-45784029D01*
X176805749Y-45764038D01*
X176795784Y-45742968D01*
X176787932Y-45721024D01*
X176782268Y-45698415D01*
X176778849Y-45675360D01*
X176777705Y-45652081D01*
X176778849Y-45628802D01*
X176782268Y-45605747D01*
X176787932Y-45583138D01*
X176795784Y-45561194D01*
X176805749Y-45540124D01*
X176817731Y-45520133D01*
X176831615Y-45501413D01*
X176847267Y-45484143D01*
X177183143Y-45148267D01*
X177200413Y-45132615D01*
X177219133Y-45118731D01*
X177239124Y-45106749D01*
X177260194Y-45096784D01*
X177282138Y-45088932D01*
X177304747Y-45083268D01*
X177327802Y-45079849D01*
X177351081Y-45078705D01*
X177374360Y-45079849D01*
G37*
G04 #@! TD.AperFunction*
G04 #@! TA.AperFunction,SMDPad,CuDef*
G36*
X176136924Y-43842413D02*
G01*
X176159979Y-43845832D01*
X176182588Y-43851496D01*
X176204532Y-43859348D01*
X176225602Y-43869313D01*
X176245593Y-43881295D01*
X176264313Y-43895179D01*
X176281583Y-43910831D01*
X176688169Y-44317417D01*
X176703821Y-44334687D01*
X176717705Y-44353407D01*
X176729687Y-44373398D01*
X176739652Y-44394468D01*
X176747504Y-44416412D01*
X176753168Y-44439021D01*
X176756587Y-44462076D01*
X176757731Y-44485355D01*
X176756587Y-44508634D01*
X176753168Y-44531689D01*
X176747504Y-44554298D01*
X176739652Y-44576242D01*
X176729687Y-44597312D01*
X176717705Y-44617303D01*
X176703821Y-44636023D01*
X176688169Y-44653293D01*
X176352293Y-44989169D01*
X176335023Y-45004821D01*
X176316303Y-45018705D01*
X176296312Y-45030687D01*
X176275242Y-45040652D01*
X176253298Y-45048504D01*
X176230689Y-45054168D01*
X176207634Y-45057587D01*
X176184355Y-45058731D01*
X176161076Y-45057587D01*
X176138021Y-45054168D01*
X176115412Y-45048504D01*
X176093468Y-45040652D01*
X176072398Y-45030687D01*
X176052407Y-45018705D01*
X176033687Y-45004821D01*
X176016417Y-44989169D01*
X175609831Y-44582583D01*
X175594179Y-44565313D01*
X175580295Y-44546593D01*
X175568313Y-44526602D01*
X175558348Y-44505532D01*
X175550496Y-44483588D01*
X175544832Y-44460979D01*
X175541413Y-44437924D01*
X175540269Y-44414645D01*
X175541413Y-44391366D01*
X175544832Y-44368311D01*
X175550496Y-44345702D01*
X175558348Y-44323758D01*
X175568313Y-44302688D01*
X175580295Y-44282697D01*
X175594179Y-44263977D01*
X175609831Y-44246707D01*
X175945707Y-43910831D01*
X175962977Y-43895179D01*
X175981697Y-43881295D01*
X176001688Y-43869313D01*
X176022758Y-43859348D01*
X176044702Y-43851496D01*
X176067311Y-43845832D01*
X176090366Y-43842413D01*
X176113645Y-43841269D01*
X176136924Y-43842413D01*
G37*
G04 #@! TD.AperFunction*
G04 #@! TA.AperFunction,SMDPad,CuDef*
G36*
X166503779Y-60916144D02*
G01*
X166526834Y-60919563D01*
X166549443Y-60925227D01*
X166571387Y-60933079D01*
X166592457Y-60943044D01*
X166612448Y-60955026D01*
X166631168Y-60968910D01*
X166648438Y-60984562D01*
X166664090Y-61001832D01*
X166677974Y-61020552D01*
X166689956Y-61040543D01*
X166699921Y-61061613D01*
X166707773Y-61083557D01*
X166713437Y-61106166D01*
X166716856Y-61129221D01*
X166718000Y-61152500D01*
X166718000Y-61727500D01*
X166716856Y-61750779D01*
X166713437Y-61773834D01*
X166707773Y-61796443D01*
X166699921Y-61818387D01*
X166689956Y-61839457D01*
X166677974Y-61859448D01*
X166664090Y-61878168D01*
X166648438Y-61895438D01*
X166631168Y-61911090D01*
X166612448Y-61924974D01*
X166592457Y-61936956D01*
X166571387Y-61946921D01*
X166549443Y-61954773D01*
X166526834Y-61960437D01*
X166503779Y-61963856D01*
X166480500Y-61965000D01*
X166005500Y-61965000D01*
X165982221Y-61963856D01*
X165959166Y-61960437D01*
X165936557Y-61954773D01*
X165914613Y-61946921D01*
X165893543Y-61936956D01*
X165873552Y-61924974D01*
X165854832Y-61911090D01*
X165837562Y-61895438D01*
X165821910Y-61878168D01*
X165808026Y-61859448D01*
X165796044Y-61839457D01*
X165786079Y-61818387D01*
X165778227Y-61796443D01*
X165772563Y-61773834D01*
X165769144Y-61750779D01*
X165768000Y-61727500D01*
X165768000Y-61152500D01*
X165769144Y-61129221D01*
X165772563Y-61106166D01*
X165778227Y-61083557D01*
X165786079Y-61061613D01*
X165796044Y-61040543D01*
X165808026Y-61020552D01*
X165821910Y-61001832D01*
X165837562Y-60984562D01*
X165854832Y-60968910D01*
X165873552Y-60955026D01*
X165893543Y-60943044D01*
X165914613Y-60933079D01*
X165936557Y-60925227D01*
X165959166Y-60919563D01*
X165982221Y-60916144D01*
X166005500Y-60915000D01*
X166480500Y-60915000D01*
X166503779Y-60916144D01*
G37*
G04 #@! TD.AperFunction*
G04 #@! TA.AperFunction,SMDPad,CuDef*
G36*
X166503779Y-59166144D02*
G01*
X166526834Y-59169563D01*
X166549443Y-59175227D01*
X166571387Y-59183079D01*
X166592457Y-59193044D01*
X166612448Y-59205026D01*
X166631168Y-59218910D01*
X166648438Y-59234562D01*
X166664090Y-59251832D01*
X166677974Y-59270552D01*
X166689956Y-59290543D01*
X166699921Y-59311613D01*
X166707773Y-59333557D01*
X166713437Y-59356166D01*
X166716856Y-59379221D01*
X166718000Y-59402500D01*
X166718000Y-59977500D01*
X166716856Y-60000779D01*
X166713437Y-60023834D01*
X166707773Y-60046443D01*
X166699921Y-60068387D01*
X166689956Y-60089457D01*
X166677974Y-60109448D01*
X166664090Y-60128168D01*
X166648438Y-60145438D01*
X166631168Y-60161090D01*
X166612448Y-60174974D01*
X166592457Y-60186956D01*
X166571387Y-60196921D01*
X166549443Y-60204773D01*
X166526834Y-60210437D01*
X166503779Y-60213856D01*
X166480500Y-60215000D01*
X166005500Y-60215000D01*
X165982221Y-60213856D01*
X165959166Y-60210437D01*
X165936557Y-60204773D01*
X165914613Y-60196921D01*
X165893543Y-60186956D01*
X165873552Y-60174974D01*
X165854832Y-60161090D01*
X165837562Y-60145438D01*
X165821910Y-60128168D01*
X165808026Y-60109448D01*
X165796044Y-60089457D01*
X165786079Y-60068387D01*
X165778227Y-60046443D01*
X165772563Y-60023834D01*
X165769144Y-60000779D01*
X165768000Y-59977500D01*
X165768000Y-59402500D01*
X165769144Y-59379221D01*
X165772563Y-59356166D01*
X165778227Y-59333557D01*
X165786079Y-59311613D01*
X165796044Y-59290543D01*
X165808026Y-59270552D01*
X165821910Y-59251832D01*
X165837562Y-59234562D01*
X165854832Y-59218910D01*
X165873552Y-59205026D01*
X165893543Y-59193044D01*
X165914613Y-59183079D01*
X165936557Y-59175227D01*
X165959166Y-59169563D01*
X165982221Y-59166144D01*
X166005500Y-59165000D01*
X166480500Y-59165000D01*
X166503779Y-59166144D01*
G37*
G04 #@! TD.AperFunction*
D18*
X204455000Y-125690000D03*
X191755000Y-128230000D03*
X185405000Y-125690000D03*
X172705000Y-128230000D03*
X166355000Y-125690000D03*
X153655000Y-128230000D03*
X147305000Y-125690000D03*
X134605000Y-128230000D03*
X128255000Y-125690000D03*
X115555000Y-128230000D03*
X109205000Y-125690000D03*
X96505000Y-128230000D03*
X90155000Y-125690000D03*
X77455000Y-128230000D03*
X204455000Y-106640000D03*
X191755000Y-109180000D03*
X185405000Y-106640000D03*
X172705000Y-109180000D03*
X166355000Y-106640000D03*
X153655000Y-109180000D03*
X147305000Y-106640000D03*
X134605000Y-109180000D03*
X128255000Y-106640000D03*
X115555000Y-109180000D03*
X109205000Y-106640000D03*
X96505000Y-109180000D03*
X90155000Y-106640000D03*
X77455000Y-109180000D03*
X204455000Y-87590000D03*
X191755000Y-90130000D03*
X185405000Y-87590000D03*
X172705000Y-90130000D03*
X166355000Y-87590000D03*
X153655000Y-90130000D03*
X147305000Y-87590000D03*
X134605000Y-90130000D03*
X128255000Y-87590000D03*
X115555000Y-90130000D03*
X109205000Y-87590000D03*
X96505000Y-90130000D03*
X90155000Y-87590000D03*
X77455000Y-90130000D03*
X204455000Y-68540000D03*
X191755000Y-71080000D03*
X185405000Y-68540000D03*
X172705000Y-71080000D03*
X166355000Y-68540000D03*
X153655000Y-71080000D03*
X147305000Y-68540000D03*
X134605000Y-71080000D03*
X128255000Y-68540000D03*
X115555000Y-71080000D03*
X109205000Y-68540000D03*
X96505000Y-71080000D03*
D27*
X162941000Y-47244000D03*
X162941000Y-48094000D03*
X162941000Y-48944000D03*
X162941000Y-49794000D03*
X162941000Y-50644000D03*
X162941000Y-51494000D03*
X162941000Y-52344000D03*
X162941000Y-53194000D03*
X161591000Y-48094000D03*
X161591000Y-49794000D03*
X161591000Y-48944000D03*
X161591000Y-47244000D03*
X161591000Y-51494000D03*
X161591000Y-52344000D03*
X161591000Y-53194000D03*
X161591000Y-50644000D03*
D28*
X161961000Y-45894000D03*
X161961000Y-54544000D03*
D29*
X158581000Y-45894000D03*
X158581000Y-54544000D03*
G04 #@! TA.AperFunction,SMDPad,CuDef*
D10*
G36*
X164606504Y-55967204D02*
G01*
X164630773Y-55970804D01*
X164654571Y-55976765D01*
X164677671Y-55985030D01*
X164699849Y-55995520D01*
X164720893Y-56008133D01*
X164740598Y-56022747D01*
X164758777Y-56039223D01*
X164775253Y-56057402D01*
X164789867Y-56077107D01*
X164802480Y-56098151D01*
X164812970Y-56120329D01*
X164821235Y-56143429D01*
X164827196Y-56167227D01*
X164830796Y-56191496D01*
X164832000Y-56216000D01*
X164832000Y-57141000D01*
X164830796Y-57165504D01*
X164827196Y-57189773D01*
X164821235Y-57213571D01*
X164812970Y-57236671D01*
X164802480Y-57258849D01*
X164789867Y-57279893D01*
X164775253Y-57299598D01*
X164758777Y-57317777D01*
X164740598Y-57334253D01*
X164720893Y-57348867D01*
X164699849Y-57361480D01*
X164677671Y-57371970D01*
X164654571Y-57380235D01*
X164630773Y-57386196D01*
X164606504Y-57389796D01*
X164582000Y-57391000D01*
X163332000Y-57391000D01*
X163307496Y-57389796D01*
X163283227Y-57386196D01*
X163259429Y-57380235D01*
X163236329Y-57371970D01*
X163214151Y-57361480D01*
X163193107Y-57348867D01*
X163173402Y-57334253D01*
X163155223Y-57317777D01*
X163138747Y-57299598D01*
X163124133Y-57279893D01*
X163111520Y-57258849D01*
X163101030Y-57236671D01*
X163092765Y-57213571D01*
X163086804Y-57189773D01*
X163083204Y-57165504D01*
X163082000Y-57141000D01*
X163082000Y-56216000D01*
X163083204Y-56191496D01*
X163086804Y-56167227D01*
X163092765Y-56143429D01*
X163101030Y-56120329D01*
X163111520Y-56098151D01*
X163124133Y-56077107D01*
X163138747Y-56057402D01*
X163155223Y-56039223D01*
X163173402Y-56022747D01*
X163193107Y-56008133D01*
X163214151Y-55995520D01*
X163236329Y-55985030D01*
X163259429Y-55976765D01*
X163283227Y-55970804D01*
X163307496Y-55967204D01*
X163332000Y-55966000D01*
X164582000Y-55966000D01*
X164606504Y-55967204D01*
G37*
G04 #@! TD.AperFunction*
G04 #@! TA.AperFunction,SMDPad,CuDef*
G36*
X164606504Y-58942204D02*
G01*
X164630773Y-58945804D01*
X164654571Y-58951765D01*
X164677671Y-58960030D01*
X164699849Y-58970520D01*
X164720893Y-58983133D01*
X164740598Y-58997747D01*
X164758777Y-59014223D01*
X164775253Y-59032402D01*
X164789867Y-59052107D01*
X164802480Y-59073151D01*
X164812970Y-59095329D01*
X164821235Y-59118429D01*
X164827196Y-59142227D01*
X164830796Y-59166496D01*
X164832000Y-59191000D01*
X164832000Y-60116000D01*
X164830796Y-60140504D01*
X164827196Y-60164773D01*
X164821235Y-60188571D01*
X164812970Y-60211671D01*
X164802480Y-60233849D01*
X164789867Y-60254893D01*
X164775253Y-60274598D01*
X164758777Y-60292777D01*
X164740598Y-60309253D01*
X164720893Y-60323867D01*
X164699849Y-60336480D01*
X164677671Y-60346970D01*
X164654571Y-60355235D01*
X164630773Y-60361196D01*
X164606504Y-60364796D01*
X164582000Y-60366000D01*
X163332000Y-60366000D01*
X163307496Y-60364796D01*
X163283227Y-60361196D01*
X163259429Y-60355235D01*
X163236329Y-60346970D01*
X163214151Y-60336480D01*
X163193107Y-60323867D01*
X163173402Y-60309253D01*
X163155223Y-60292777D01*
X163138747Y-60274598D01*
X163124133Y-60254893D01*
X163111520Y-60233849D01*
X163101030Y-60211671D01*
X163092765Y-60188571D01*
X163086804Y-60164773D01*
X163083204Y-60140504D01*
X163082000Y-60116000D01*
X163082000Y-59191000D01*
X163083204Y-59166496D01*
X163086804Y-59142227D01*
X163092765Y-59118429D01*
X163101030Y-59095329D01*
X163111520Y-59073151D01*
X163124133Y-59052107D01*
X163138747Y-59032402D01*
X163155223Y-59014223D01*
X163173402Y-58997747D01*
X163193107Y-58983133D01*
X163214151Y-58970520D01*
X163236329Y-58960030D01*
X163259429Y-58951765D01*
X163283227Y-58945804D01*
X163307496Y-58942204D01*
X163332000Y-58941000D01*
X164582000Y-58941000D01*
X164606504Y-58942204D01*
G37*
G04 #@! TD.AperFunction*
D30*
X168275000Y-57788000D03*
X168275000Y-54988000D03*
D31*
X89027000Y-66548000D03*
X107569000Y-66548000D03*
X126619000Y-66548000D03*
X145415000Y-66548000D03*
X164465000Y-66548000D03*
X183515000Y-66548000D03*
X202819000Y-66547994D03*
X88011000Y-85598000D03*
X107315000Y-85598000D03*
X126365000Y-85598000D03*
X145415000Y-85598000D03*
X164465000Y-85598000D03*
X183515006Y-85598000D03*
X202819000Y-85598000D03*
X88265000Y-104648000D03*
X107315000Y-104648000D03*
X126365000Y-104648000D03*
X145415000Y-104648000D03*
X164465000Y-104648000D03*
X183515000Y-104648000D03*
X202565000Y-104648000D03*
X88265000Y-123698000D03*
X107315000Y-123698000D03*
X126365000Y-123698000D03*
X145415000Y-123698000D03*
X164465000Y-123698000D03*
X183515000Y-123698000D03*
X202565000Y-123697992D03*
D32*
X171323000Y-44704000D03*
X175704500Y-59626500D03*
X203327000Y-55118000D03*
X203327000Y-60452000D03*
X157861000Y-60452000D03*
X161163000Y-64008000D03*
X158877000Y-47498000D03*
X158877000Y-51562000D03*
X160401000Y-39878000D03*
X158115000Y-42418000D03*
X187325000Y-45974000D03*
X168275000Y-60452000D03*
X203327000Y-49022000D03*
X181737000Y-39878000D03*
X201295000Y-39878000D03*
X187579000Y-39878000D03*
X195199000Y-39878000D03*
X171323000Y-64516000D03*
X190881000Y-64516000D03*
X194437000Y-65278000D03*
X202057000Y-64516000D03*
X204343000Y-62484000D03*
X191389000Y-54102000D03*
X179959000Y-55626000D03*
X181483000Y-41910000D03*
X169675000Y-54988000D03*
X185801000Y-55626000D03*
X185801000Y-62738000D03*
X176149000Y-49784000D03*
D31*
X109093000Y-65786000D03*
X170307000Y-67310000D03*
X153035000Y-66802000D03*
X146939000Y-65024000D03*
X183007000Y-55372038D03*
X127127000Y-65786000D03*
X183769000Y-55880000D03*
X172157363Y-66414233D03*
X167513000Y-64516000D03*
X133731000Y-69088000D03*
D33*
X164211000Y-49784000D03*
X164211000Y-50800000D03*
X164761000Y-49017863D03*
D31*
X159639000Y-53340000D03*
X180213000Y-53594000D03*
X198755000Y-58166000D03*
X199517000Y-52578000D03*
X187071000Y-55118000D03*
X199263000Y-48514000D03*
X188341000Y-54102000D03*
X98171012Y-84836000D03*
X95377000Y-87630000D03*
X109093000Y-84836000D03*
X133223000Y-74930000D03*
X135280000Y-75184000D03*
X152273000Y-74930000D03*
X154559000Y-75184000D03*
X171323000Y-74930000D03*
X180721000Y-64770000D03*
X118999004Y-76454000D03*
X114681000Y-79248000D03*
X89789000Y-65786000D03*
X182245000Y-55880000D03*
X193421000Y-75946000D03*
X190373000Y-75946000D03*
X174371000Y-75946000D03*
X171323000Y-75946000D03*
X155321000Y-75946000D03*
X152273000Y-75946000D03*
X136271000Y-75946000D03*
X133223000Y-75946000D03*
X95123000Y-75946000D03*
X97917000Y-75946000D03*
X114173000Y-75946000D03*
X117221000Y-75946000D03*
X188849000Y-71374000D03*
X203327000Y-65786000D03*
X191389000Y-74422000D03*
X193421000Y-114046000D03*
X190373000Y-114046000D03*
X174371000Y-114046000D03*
X171323000Y-114046000D03*
X155321000Y-114046000D03*
X152273000Y-114046000D03*
X136271000Y-114046000D03*
X133223000Y-114046000D03*
X117221000Y-114046000D03*
X114173000Y-114046000D03*
X98171000Y-114046000D03*
X95123000Y-114046000D03*
X193167000Y-84836000D03*
X184277000Y-57912000D03*
X179451000Y-56896000D03*
X164973000Y-65786000D03*
X168529000Y-64261990D03*
X184023000Y-65786000D03*
X171323000Y-67818000D03*
X146177000Y-65786000D03*
X98171000Y-94996000D03*
X95123000Y-94996000D03*
X117221000Y-94996000D03*
X114173000Y-94996000D03*
X136271000Y-94996000D03*
X133223000Y-94996000D03*
X155321000Y-94996000D03*
X152273000Y-94996000D03*
X174371000Y-94996000D03*
X171323000Y-94996000D03*
X193421000Y-94996000D03*
X190373000Y-94996000D03*
X180467000Y-45719996D03*
D34*
X92837000Y-73342000D02*
X92837000Y-74042000D01*
X91555000Y-68540000D02*
X92837000Y-69822000D01*
X92837000Y-69822000D02*
X92837000Y-73342000D01*
X90155000Y-68540000D02*
X91555000Y-68540000D01*
X90155000Y-67676000D02*
X89027000Y-66548000D01*
X90155000Y-68540000D02*
X90155000Y-67676000D01*
X109205000Y-68184000D02*
X109205000Y-68540000D01*
X107569000Y-66548000D02*
X109205000Y-68184000D01*
X111887000Y-73342000D02*
X111887000Y-74042000D01*
X111887000Y-69822000D02*
X111887000Y-73342000D01*
X110605000Y-68540000D02*
X111887000Y-69822000D01*
X109205000Y-68540000D02*
X110605000Y-68540000D01*
X128255000Y-68184000D02*
X128255000Y-68540000D01*
X126619000Y-66548000D02*
X128255000Y-68184000D01*
X130937000Y-73342000D02*
X130937000Y-74042000D01*
X130937000Y-69822000D02*
X130937000Y-73342000D01*
X129655000Y-68540000D02*
X130937000Y-69822000D01*
X128255000Y-68540000D02*
X129655000Y-68540000D01*
X147305000Y-68438000D02*
X147305000Y-68540000D01*
X145415000Y-66548000D02*
X147305000Y-68438000D01*
X149987000Y-73342000D02*
X149987000Y-74042000D01*
X149987000Y-69822000D02*
X149987000Y-73342000D01*
X148705000Y-68540000D02*
X149987000Y-69822000D01*
X147305000Y-68540000D02*
X148705000Y-68540000D01*
X166355000Y-68438000D02*
X166355000Y-68540000D01*
X164465000Y-66548000D02*
X166355000Y-68438000D01*
X169037000Y-73342000D02*
X169037000Y-74042000D01*
X169037000Y-69822000D02*
X169037000Y-73342000D01*
X167755000Y-68540000D02*
X169037000Y-69822000D01*
X166355000Y-68540000D02*
X167755000Y-68540000D01*
X185405000Y-68438000D02*
X185405000Y-68540000D01*
X183515000Y-66548000D02*
X185405000Y-68438000D01*
X188087000Y-73342000D02*
X188087000Y-74042000D01*
X187325000Y-72580000D02*
X188087000Y-73342000D01*
X187325000Y-69060000D02*
X187325000Y-72580000D01*
X185405000Y-68540000D02*
X186805000Y-68540000D01*
X186805000Y-68540000D02*
X187325000Y-69060000D01*
X204455000Y-68183994D02*
X202819000Y-66547994D01*
X204455000Y-68540000D02*
X204455000Y-68183994D01*
X207137000Y-73342000D02*
X207137000Y-74042000D01*
X207137000Y-69822000D02*
X207137000Y-73342000D01*
X205855000Y-68540000D02*
X207137000Y-69822000D01*
X204455000Y-68540000D02*
X205855000Y-68540000D01*
X90003000Y-87590000D02*
X88011000Y-85598000D01*
X90155000Y-87590000D02*
X90003000Y-87590000D01*
X92837000Y-92392000D02*
X92837000Y-93092000D01*
X92837000Y-88872000D02*
X92837000Y-92392000D01*
X91555000Y-87590000D02*
X92837000Y-88872000D01*
X90155000Y-87590000D02*
X91555000Y-87590000D01*
X111887000Y-88872000D02*
X111887000Y-92392000D01*
X111887000Y-92392000D02*
X111887000Y-93092000D01*
X110605000Y-87590000D02*
X111887000Y-88872000D01*
X109205000Y-87590000D02*
X110605000Y-87590000D01*
X109205000Y-87488000D02*
X107315000Y-85598000D01*
X109205000Y-87590000D02*
X109205000Y-87488000D01*
X130937000Y-92392000D02*
X130937000Y-93092000D01*
X130937000Y-88872000D02*
X130937000Y-92392000D01*
X129655000Y-87590000D02*
X130937000Y-88872000D01*
X128255000Y-87590000D02*
X129655000Y-87590000D01*
X128255000Y-87488000D02*
X126365000Y-85598000D01*
X128255000Y-87590000D02*
X128255000Y-87488000D01*
X149987000Y-92392000D02*
X149987000Y-93092000D01*
X149987000Y-88872000D02*
X149987000Y-92392000D01*
X148705000Y-87590000D02*
X149987000Y-88872000D01*
X147305000Y-87590000D02*
X148705000Y-87590000D01*
X147305000Y-87488000D02*
X147305000Y-87590000D01*
X145415000Y-85598000D02*
X147305000Y-87488000D01*
X169037000Y-92392000D02*
X169037000Y-93092000D01*
X169037000Y-88872000D02*
X169037000Y-92392000D01*
X167755000Y-87590000D02*
X169037000Y-88872000D01*
X166355000Y-87590000D02*
X167755000Y-87590000D01*
X166355000Y-87488000D02*
X164465000Y-85598000D01*
X166355000Y-87590000D02*
X166355000Y-87488000D01*
X188087000Y-92392000D02*
X188087000Y-93092000D01*
X188087000Y-88872000D02*
X188087000Y-92392000D01*
X186805000Y-87590000D02*
X188087000Y-88872000D01*
X185405000Y-87590000D02*
X186805000Y-87590000D01*
X185405000Y-87487994D02*
X183515006Y-85598000D01*
X185405000Y-87590000D02*
X185405000Y-87487994D01*
X204455000Y-87234000D02*
X204455000Y-87590000D01*
X202819000Y-85598000D02*
X204455000Y-87234000D01*
X207137000Y-92392000D02*
X207137000Y-93092000D01*
X207137000Y-88872000D02*
X207137000Y-92392000D01*
X205855000Y-87590000D02*
X207137000Y-88872000D01*
X204455000Y-87590000D02*
X205855000Y-87590000D01*
X92837000Y-111442000D02*
X92837000Y-112142000D01*
X92837000Y-107922000D02*
X92837000Y-111442000D01*
X91555000Y-106640000D02*
X92837000Y-107922000D01*
X90155000Y-106640000D02*
X91555000Y-106640000D01*
X90155000Y-106538000D02*
X90155000Y-106640000D01*
X88265000Y-104648000D02*
X90155000Y-106538000D01*
X111887000Y-107922000D02*
X111887000Y-111442000D01*
X111887000Y-111442000D02*
X111887000Y-112142000D01*
X110605000Y-106640000D02*
X111887000Y-107922000D01*
X109205000Y-106640000D02*
X110605000Y-106640000D01*
X109205000Y-106538000D02*
X109205000Y-106640000D01*
X107315000Y-104648000D02*
X109205000Y-106538000D01*
X130937000Y-107922000D02*
X130937000Y-111442000D01*
X130937000Y-111442000D02*
X130937000Y-112142000D01*
X129655000Y-106640000D02*
X130937000Y-107922000D01*
X128255000Y-106640000D02*
X129655000Y-106640000D01*
X128255000Y-106538000D02*
X126365000Y-104648000D01*
X128255000Y-106640000D02*
X128255000Y-106538000D01*
X149987000Y-111442000D02*
X149987000Y-112142000D01*
X149987000Y-107922000D02*
X149987000Y-111442000D01*
X148705000Y-106640000D02*
X149987000Y-107922000D01*
X147305000Y-106640000D02*
X148705000Y-106640000D01*
X147305000Y-106538000D02*
X145415000Y-104648000D01*
X147305000Y-106640000D02*
X147305000Y-106538000D01*
X169037000Y-111442000D02*
X169037000Y-112142000D01*
X169037000Y-107922000D02*
X169037000Y-111442000D01*
X167755000Y-106640000D02*
X169037000Y-107922000D01*
X166355000Y-106640000D02*
X167755000Y-106640000D01*
X166355000Y-106538000D02*
X166355000Y-106640000D01*
X164465000Y-104648000D02*
X166355000Y-106538000D01*
X188087000Y-111442000D02*
X188087000Y-112142000D01*
X188087000Y-107922000D02*
X188087000Y-111442000D01*
X186805000Y-106640000D02*
X188087000Y-107922000D01*
X185405000Y-106640000D02*
X186805000Y-106640000D01*
X185405000Y-106538000D02*
X185405000Y-106640000D01*
X183515000Y-104648000D02*
X185405000Y-106538000D01*
X207137000Y-111442000D02*
X207137000Y-112142000D01*
X205855000Y-106640000D02*
X207137000Y-107922000D01*
X207137000Y-107922000D02*
X207137000Y-111442000D01*
X204455000Y-106640000D02*
X205855000Y-106640000D01*
X204455000Y-106538000D02*
X204455000Y-106640000D01*
X202565000Y-104648000D02*
X204455000Y-106538000D01*
X90155000Y-125588000D02*
X90155000Y-125690000D01*
X88519000Y-123952000D02*
X90155000Y-125588000D01*
X88265000Y-123698000D02*
X88519000Y-123952000D01*
X91555000Y-125690000D02*
X92837000Y-126972000D01*
X90155000Y-125690000D02*
X91555000Y-125690000D01*
X92837000Y-126972000D02*
X92837000Y-131192000D01*
X111887000Y-130492000D02*
X111887000Y-131192000D01*
X111887000Y-126972000D02*
X111887000Y-130492000D01*
X110605000Y-125690000D02*
X111887000Y-126972000D01*
X109205000Y-125690000D02*
X110605000Y-125690000D01*
X109205000Y-125588000D02*
X109205000Y-125690000D01*
X107315000Y-123698000D02*
X109205000Y-125588000D01*
X130937000Y-126972000D02*
X130937000Y-130492000D01*
X130937000Y-130492000D02*
X130937000Y-131192000D01*
X129655000Y-125690000D02*
X130937000Y-126972000D01*
X128255000Y-125690000D02*
X129655000Y-125690000D01*
X128255000Y-125588000D02*
X126365000Y-123698000D01*
X128255000Y-125690000D02*
X128255000Y-125588000D01*
X149987000Y-130492000D02*
X149987000Y-131192000D01*
X149987000Y-126972000D02*
X149987000Y-130492000D01*
X148705000Y-125690000D02*
X149987000Y-126972000D01*
X147305000Y-125690000D02*
X148705000Y-125690000D01*
X147305000Y-125588000D02*
X147305000Y-125690000D01*
X145415000Y-123698000D02*
X147305000Y-125588000D01*
X169037000Y-130492000D02*
X169037000Y-131192000D01*
X169037000Y-126972000D02*
X169037000Y-130492000D01*
X167755000Y-125690000D02*
X169037000Y-126972000D01*
X166355000Y-125690000D02*
X167755000Y-125690000D01*
X166355000Y-125588000D02*
X164465000Y-123698000D01*
X166355000Y-125690000D02*
X166355000Y-125588000D01*
X188087000Y-130492000D02*
X188087000Y-131192000D01*
X188087000Y-126972000D02*
X188087000Y-130492000D01*
X186805000Y-125690000D02*
X188087000Y-126972000D01*
X185405000Y-125690000D02*
X186805000Y-125690000D01*
X185405000Y-125588000D02*
X185405000Y-125690000D01*
X183515000Y-123698000D02*
X185405000Y-125588000D01*
X204455000Y-125587992D02*
X202565000Y-123697992D01*
X204455000Y-125690000D02*
X204455000Y-125587992D01*
X207137000Y-130492000D02*
X207137000Y-131192000D01*
X207137000Y-126972000D02*
X207137000Y-130492000D01*
X205855000Y-125690000D02*
X207137000Y-126972000D01*
X204455000Y-125690000D02*
X205855000Y-125690000D01*
D35*
X162941000Y-47244000D02*
X161591000Y-47244000D01*
X162941000Y-53194000D02*
X161591000Y-53194000D01*
X161591000Y-47244000D02*
X160909000Y-47244000D01*
X160147000Y-46482000D02*
X160147000Y-45212000D01*
X160909000Y-47244000D02*
X160147000Y-46482000D01*
X171480000Y-44547000D02*
X171323000Y-44704000D01*
X171480000Y-43022500D02*
X171480000Y-44547000D01*
X170749000Y-49210000D02*
X170749000Y-49192000D01*
X171831000Y-50292000D02*
X170749000Y-49210000D01*
X171831000Y-52832000D02*
X171831000Y-50292000D01*
X168275000Y-54988000D02*
X169675000Y-54988000D01*
X169675000Y-54988000D02*
X171831000Y-52832000D01*
X170749000Y-48092000D02*
X172867000Y-45974000D01*
X170749000Y-49192000D02*
X170749000Y-48092000D01*
X172867000Y-45974000D02*
X174625000Y-45974000D01*
X174625000Y-45974000D02*
X177673000Y-42926000D01*
X180467000Y-42926000D02*
X181483000Y-41910000D01*
X177673000Y-42926000D02*
X180467000Y-42926000D01*
X189611000Y-55626000D02*
X190373000Y-55626000D01*
X189103000Y-56134000D02*
X189611000Y-55626000D01*
X185801000Y-55626000D02*
X186309000Y-56134000D01*
X186309000Y-56134000D02*
X189103000Y-56134000D01*
X185801000Y-54610000D02*
X185801000Y-55626000D01*
X187071000Y-53340000D02*
X185801000Y-54610000D01*
X188595000Y-53340000D02*
X187071000Y-53340000D01*
X192283000Y-50178000D02*
X191757000Y-50178000D01*
X191757000Y-50178000D02*
X188595000Y-53340000D01*
X187071000Y-62738000D02*
X185801000Y-62738000D01*
X192913000Y-61976000D02*
X187833000Y-61976000D01*
X187833000Y-61976000D02*
X187071000Y-62738000D01*
X163993500Y-59690000D02*
X163957000Y-59653500D01*
X166243000Y-59690000D02*
X163993500Y-59690000D01*
X167259000Y-59690000D02*
X166243000Y-59690000D01*
X168275000Y-57788000D02*
X168275000Y-58674000D01*
X168275000Y-58674000D02*
X167259000Y-59690000D01*
X174625000Y-51308000D02*
X176149000Y-49784000D01*
X174625000Y-53118000D02*
X174625000Y-51308000D01*
X170593000Y-57150000D02*
X174625000Y-53118000D01*
X168275000Y-57788000D02*
X168913000Y-57150000D01*
X168913000Y-57150000D02*
X170593000Y-57150000D01*
D34*
X96505000Y-90130000D02*
X96505000Y-109180000D01*
X96505000Y-126980000D02*
X96505000Y-128230000D01*
X97355001Y-126129999D02*
X96505000Y-126980000D01*
X96505000Y-118814998D02*
X97355001Y-119664999D01*
X97355001Y-119664999D02*
X97355001Y-126129999D01*
X96505000Y-109180000D02*
X96505000Y-118814998D01*
X100549000Y-65786000D02*
X109093000Y-65786000D01*
X96505000Y-71080000D02*
X96505000Y-69830000D01*
X96505000Y-69830000D02*
X100549000Y-65786000D01*
X98933000Y-85344000D02*
X96505000Y-87772000D01*
X98933000Y-82804000D02*
X98933000Y-85344000D01*
X96505000Y-87772000D02*
X96505000Y-90130000D01*
X96505000Y-71080000D02*
X96505000Y-80376000D01*
X96505000Y-80376000D02*
X98933000Y-82804000D01*
X148717000Y-66802000D02*
X146939000Y-65024000D01*
X153035000Y-66802000D02*
X148717000Y-66802000D01*
X182753000Y-57150000D02*
X183007000Y-56896000D01*
X182753000Y-59182000D02*
X182753000Y-57150000D01*
X181991000Y-59944000D02*
X182753000Y-59182000D01*
X183007000Y-56896000D02*
X183007000Y-55372038D01*
X180975000Y-65532000D02*
X181991000Y-64516000D01*
X172085000Y-65532000D02*
X180975000Y-65532000D01*
X170307000Y-67310000D02*
X172085000Y-65532000D01*
X181991000Y-64516000D02*
X181991000Y-59944000D01*
X115555000Y-126980000D02*
X115555000Y-109180000D01*
X115555000Y-128230000D02*
X115555000Y-126980000D01*
X115555000Y-91380000D02*
X115555000Y-109180000D01*
X115555000Y-90130000D02*
X115555000Y-91380000D01*
X115555000Y-72330000D02*
X115555000Y-90130000D01*
X115555000Y-71080000D02*
X115555000Y-72330000D01*
X119599000Y-65786000D02*
X127127000Y-65786000D01*
X115555000Y-71080000D02*
X115555000Y-69830000D01*
X115555000Y-69830000D02*
X119599000Y-65786000D01*
X134493000Y-69088000D02*
X133731000Y-69088000D01*
X138303000Y-65278000D02*
X134493000Y-69088000D01*
X145542000Y-65278000D02*
X138303000Y-65278000D01*
X146471001Y-64348999D02*
X145542000Y-65278000D01*
X164492440Y-64516000D02*
X162968440Y-66040000D01*
X167513000Y-64516000D02*
X164492440Y-64516000D01*
X148954002Y-66040000D02*
X147263001Y-64348999D01*
X162968440Y-66040000D02*
X148954002Y-66040000D01*
X147263001Y-64348999D02*
X146471001Y-64348999D01*
X174117000Y-66040000D02*
X173742767Y-66414233D01*
X181498122Y-66040000D02*
X174117000Y-66040000D01*
X173742767Y-66414233D02*
X172157363Y-66414233D01*
X182499000Y-65039122D02*
X181498122Y-66040000D01*
X183769000Y-57150000D02*
X183261000Y-57658000D01*
X183769000Y-55880000D02*
X183769000Y-57150000D01*
X183261000Y-57658000D02*
X183261000Y-59381120D01*
X183261000Y-59381120D02*
X182499000Y-60143120D01*
X182499000Y-60143120D02*
X182499000Y-65039122D01*
D36*
X164519000Y-50092000D02*
X164211000Y-49784000D01*
X166898999Y-50092000D02*
X164519000Y-50092000D01*
X168849000Y-49192000D02*
X167798999Y-49192000D01*
X167798999Y-49192000D02*
X166898999Y-50092000D01*
X164211000Y-48768000D02*
X164211000Y-49784000D01*
X164655000Y-47533156D02*
X164655000Y-48324000D01*
X166668156Y-45520000D02*
X164655000Y-47533156D01*
X169208156Y-45520000D02*
X166668156Y-45520000D01*
X164655000Y-48324000D02*
X164211000Y-48768000D01*
X169530000Y-44035001D02*
X169655000Y-44160001D01*
X169530000Y-43022500D02*
X169530000Y-44035001D01*
X169655000Y-44160001D02*
X169655000Y-45073156D01*
X169655000Y-45073156D02*
X169208156Y-45520000D01*
X163961001Y-50550001D02*
X164211000Y-50800000D01*
X162941000Y-49794000D02*
X163205000Y-49794000D01*
X163205000Y-49794000D02*
X163961001Y-50550001D01*
X167798999Y-51392000D02*
X166898999Y-50492000D01*
X168849000Y-51392000D02*
X167798999Y-51392000D01*
X166898999Y-50492000D02*
X164519000Y-50492000D01*
X164519000Y-50492000D02*
X164211000Y-50800000D01*
X165055000Y-48723863D02*
X164761000Y-49017863D01*
X170180000Y-43022500D02*
X170180000Y-44035001D01*
X170180000Y-44035001D02*
X170055000Y-44160001D01*
X170055000Y-44160001D02*
X170055000Y-45238844D01*
X170055000Y-45238844D02*
X169373844Y-45920000D01*
X165055000Y-47698844D02*
X165055000Y-48723863D01*
X166833844Y-45920000D02*
X165055000Y-47698844D01*
X169373844Y-45920000D02*
X166833844Y-45920000D01*
X162677000Y-49794000D02*
X162941000Y-49794000D01*
X161591000Y-50644000D02*
X161827000Y-50644000D01*
X161827000Y-50644000D02*
X162677000Y-49794000D01*
D34*
X159639000Y-52578000D02*
X159639000Y-53340000D01*
X161591000Y-51494000D02*
X160723000Y-51494000D01*
X160723000Y-51494000D02*
X159639000Y-52578000D01*
X158581000Y-54544000D02*
X161961000Y-54544000D01*
X190848000Y-57376000D02*
X192146000Y-58674000D01*
X190373000Y-57376000D02*
X190848000Y-57376000D01*
X192146000Y-58674000D02*
X192913000Y-58674000D01*
X193065000Y-58826000D02*
X193065000Y-59685000D01*
X192913000Y-58674000D02*
X193065000Y-58826000D01*
X199054999Y-58465999D02*
X198755000Y-58166000D01*
X199365000Y-59685000D02*
X199365000Y-58776000D01*
X199365000Y-58776000D02*
X199054999Y-58465999D01*
X189583000Y-57376000D02*
X190373000Y-57376000D01*
X180975000Y-54356000D02*
X183261000Y-54356000D01*
X180213000Y-53594000D02*
X180975000Y-54356000D01*
X183261000Y-54356000D02*
X185801000Y-56896000D01*
X185801000Y-56896000D02*
X189103000Y-56896000D01*
X189103000Y-56896000D02*
X189583000Y-57376000D01*
X193065000Y-59685000D02*
X199365000Y-59685000D01*
X197238990Y-53840010D02*
X198501000Y-52578000D01*
X193159010Y-53840010D02*
X197238990Y-53840010D01*
X187325000Y-54864000D02*
X188849000Y-54864000D01*
X187071000Y-55118000D02*
X187325000Y-54864000D01*
X188849000Y-54864000D02*
X190881000Y-52832000D01*
X198501000Y-52578000D02*
X199517000Y-52578000D01*
X190881000Y-52832000D02*
X192151000Y-52832000D01*
X192151000Y-52832000D02*
X193159010Y-53840010D01*
X199263000Y-51081439D02*
X199263000Y-48514000D01*
X197004439Y-53340000D02*
X199263000Y-51081439D01*
X188849000Y-54102000D02*
X190627000Y-52324000D01*
X188341000Y-54102000D02*
X188849000Y-54102000D01*
X190627000Y-52324000D02*
X192405000Y-52324000D01*
X192405000Y-52324000D02*
X193421000Y-53340000D01*
X193421000Y-53340000D02*
X197004439Y-53340000D01*
X77455000Y-128230000D02*
X77455000Y-109180000D01*
X77455000Y-109180000D02*
X77455000Y-90130000D01*
X77455000Y-90130000D02*
X77455000Y-71080000D01*
X98171000Y-84836000D02*
X98171012Y-84836000D01*
X95377000Y-87630000D02*
X98171000Y-84836000D01*
X136508002Y-75184000D02*
X138032002Y-76708000D01*
X135280000Y-75184000D02*
X136508002Y-75184000D01*
X138032002Y-76708000D02*
X138049000Y-76708000D01*
X138049000Y-76708000D02*
X147701000Y-76708000D01*
X147701000Y-76708000D02*
X148463000Y-75946000D01*
X148463000Y-75946000D02*
X150495000Y-75946000D01*
X150495000Y-75946000D02*
X151257000Y-75946000D01*
X151257000Y-75946000D02*
X152273000Y-74930000D01*
X154559000Y-75184000D02*
X155575000Y-75184000D01*
X155575000Y-75184000D02*
X157099000Y-76708000D01*
X157099000Y-76708000D02*
X167005000Y-76708000D01*
X167005000Y-76708000D02*
X167513000Y-76200000D01*
X167513000Y-76200000D02*
X170053000Y-76200000D01*
X170053000Y-76200000D02*
X171323000Y-74930000D01*
X133223000Y-74930000D02*
X131699000Y-76454000D01*
X131699000Y-76454000D02*
X118999004Y-76454000D01*
X109093000Y-84836000D02*
X114681000Y-79248000D01*
X81499000Y-65786000D02*
X89789000Y-65786000D01*
X77455000Y-71080000D02*
X77455000Y-69830000D01*
X77455000Y-69830000D02*
X81499000Y-65786000D01*
X182245000Y-58928000D02*
X182245000Y-55880000D01*
X181483000Y-59690000D02*
X182245000Y-58928000D01*
X180721000Y-64770000D02*
X181483000Y-64008000D01*
X181483000Y-64008000D02*
X181483000Y-59690000D01*
X194817000Y-77342000D02*
X207137000Y-77342000D01*
X188087000Y-77342000D02*
X188977000Y-77342000D01*
X188977000Y-77342000D02*
X190373000Y-75946000D01*
X193421000Y-75946000D02*
X194817000Y-77342000D01*
X175767000Y-77342000D02*
X188087000Y-77342000D01*
X169037000Y-77342000D02*
X169927000Y-77342000D01*
X169927000Y-77342000D02*
X171323000Y-75946000D01*
X174371000Y-75946000D02*
X175767000Y-77342000D01*
X156717000Y-77342000D02*
X169037000Y-77342000D01*
X149987000Y-77342000D02*
X150877000Y-77342000D01*
X150877000Y-77342000D02*
X152273000Y-75946000D01*
X155321000Y-75946000D02*
X156717000Y-77342000D01*
X137667000Y-77342000D02*
X149987000Y-77342000D01*
X130937000Y-77342000D02*
X131827000Y-77342000D01*
X131827000Y-77342000D02*
X133223000Y-75946000D01*
X136271000Y-75946000D02*
X137667000Y-77342000D01*
X95083000Y-75946000D02*
X95123000Y-75946000D01*
X92837000Y-77342000D02*
X93687000Y-77342000D01*
X93687000Y-77342000D02*
X95083000Y-75946000D01*
X99313000Y-77342000D02*
X111887000Y-77342000D01*
X97917000Y-75946000D02*
X99313000Y-77342000D01*
X111887000Y-77342000D02*
X112777000Y-77342000D01*
X112777000Y-77342000D02*
X114173000Y-75946000D01*
X118617000Y-77342000D02*
X130937000Y-77342000D01*
X117221000Y-75946000D02*
X118617000Y-77342000D01*
X190373000Y-72898000D02*
X188849000Y-71374000D01*
X190373000Y-75946000D02*
X190373000Y-72898000D01*
X195799000Y-65786000D02*
X203327000Y-65786000D01*
X191755000Y-71080000D02*
X191755000Y-69830000D01*
X191755000Y-69830000D02*
X195799000Y-65786000D01*
X191755000Y-88534000D02*
X191755000Y-90130000D01*
X194437000Y-85852000D02*
X191755000Y-88534000D01*
X191755000Y-73772000D02*
X192151000Y-74168000D01*
X191755000Y-71080000D02*
X191755000Y-73772000D01*
X192151000Y-74168000D02*
X192151000Y-76962000D01*
X192151000Y-76962000D02*
X194437000Y-79248000D01*
X194437000Y-79248000D02*
X194437000Y-85852000D01*
X191755000Y-106568000D02*
X191755000Y-109180000D01*
X192405000Y-94234000D02*
X192405000Y-105918000D01*
X191755000Y-90130000D02*
X191755000Y-93584000D01*
X192405000Y-105918000D02*
X191755000Y-106568000D01*
X191755000Y-93584000D02*
X192405000Y-94234000D01*
X193675000Y-122936000D02*
X191755000Y-124856000D01*
X193675000Y-119380000D02*
X193675000Y-122936000D01*
X191755000Y-124856000D02*
X191755000Y-128230000D01*
X191755000Y-109180000D02*
X191755000Y-117460000D01*
X191755000Y-117460000D02*
X193675000Y-119380000D01*
X93687000Y-134492000D02*
X207137000Y-134492000D01*
X92837000Y-134492000D02*
X93687000Y-134492000D01*
X191389000Y-74846264D02*
X191389000Y-74422000D01*
X191389000Y-77004499D02*
X191389000Y-74846264D01*
X189865000Y-88900000D02*
X191643000Y-87122000D01*
X191135000Y-117602000D02*
X191135000Y-111760000D01*
X193167000Y-122682000D02*
X193167000Y-119634000D01*
X189357000Y-126492000D02*
X193167000Y-122682000D01*
X189357000Y-132080000D02*
X189357000Y-126492000D01*
X189865000Y-107696000D02*
X191897000Y-105664000D01*
X189865000Y-92456000D02*
X189865000Y-88900000D01*
X188087000Y-134492000D02*
X188087000Y-133350000D01*
X188087000Y-133350000D02*
X189357000Y-132080000D01*
X192405000Y-87122000D02*
X193929000Y-85598000D01*
X191897000Y-105664000D02*
X191897000Y-94488000D01*
X191897000Y-94488000D02*
X189865000Y-92456000D01*
X193167000Y-119634000D02*
X191135000Y-117602000D01*
X193929000Y-79544499D02*
X191389000Y-77004499D01*
X193929000Y-85598000D02*
X193929000Y-79544499D01*
X189865000Y-110490000D02*
X189865000Y-107696000D01*
X191643000Y-87122000D02*
X192405000Y-87122000D01*
X191135000Y-111760000D02*
X189865000Y-110490000D01*
X194817000Y-115442000D02*
X207137000Y-115442000D01*
X188087000Y-115442000D02*
X188977000Y-115442000D01*
X188977000Y-115442000D02*
X190373000Y-114046000D01*
X193421000Y-114046000D02*
X194817000Y-115442000D01*
X175767000Y-115442000D02*
X188087000Y-115442000D01*
X169037000Y-115442000D02*
X169927000Y-115442000D01*
X169927000Y-115442000D02*
X171323000Y-114046000D01*
X174371000Y-114046000D02*
X175767000Y-115442000D01*
X156717000Y-115442000D02*
X169037000Y-115442000D01*
X149987000Y-115442000D02*
X150877000Y-115442000D01*
X150877000Y-115442000D02*
X152273000Y-114046000D01*
X155321000Y-114046000D02*
X156717000Y-115442000D01*
X137667000Y-115442000D02*
X149987000Y-115442000D01*
X130937000Y-115442000D02*
X131827000Y-115442000D01*
X131827000Y-115442000D02*
X133223000Y-114046000D01*
X136271000Y-114046000D02*
X137667000Y-115442000D01*
X118617000Y-115442000D02*
X130937000Y-115442000D01*
X111887000Y-115442000D02*
X112777000Y-115442000D01*
X112777000Y-115442000D02*
X114173000Y-114046000D01*
X117221000Y-114046000D02*
X118617000Y-115442000D01*
X99567000Y-115442000D02*
X111887000Y-115442000D01*
X92837000Y-115442000D02*
X93727000Y-115442000D01*
X93727000Y-115442000D02*
X95123000Y-114046000D01*
X98171000Y-114046000D02*
X99567000Y-115442000D01*
X192867001Y-85135999D02*
X193167000Y-84836000D01*
X191389000Y-94742000D02*
X189357000Y-92710000D01*
X190373000Y-111760000D02*
X189357000Y-110744000D01*
X189357000Y-88646000D02*
X192867001Y-85135999D01*
X190373000Y-114046000D02*
X190373000Y-111760000D01*
X189357000Y-110744000D02*
X189357000Y-107442000D01*
X189357000Y-107442000D02*
X191389000Y-105410000D01*
X189357000Y-92710000D02*
X189357000Y-88646000D01*
X191389000Y-105410000D02*
X191389000Y-94742000D01*
X185405000Y-49530000D02*
X181483000Y-49530000D01*
X181483000Y-49530000D02*
X178435000Y-52578000D01*
X178435000Y-52578000D02*
X178435000Y-55880000D01*
X178435000Y-55880000D02*
X179451000Y-56896000D01*
X153655000Y-126980000D02*
X153655000Y-109180000D01*
X153655000Y-128230000D02*
X153655000Y-126980000D01*
X153655000Y-109180000D02*
X153655000Y-90130000D01*
X153655000Y-88880000D02*
X153655000Y-71080000D01*
X153655000Y-90130000D02*
X153655000Y-88880000D01*
X164211000Y-65786000D02*
X164973000Y-65786000D01*
X163449000Y-66548000D02*
X164211000Y-65786000D01*
X156937000Y-66548000D02*
X163449000Y-66548000D01*
X153655000Y-71080000D02*
X153655000Y-69830000D01*
X153655000Y-69830000D02*
X156937000Y-66548000D01*
X168529000Y-65024000D02*
X168529000Y-64261990D01*
X164973000Y-65786000D02*
X167767000Y-65786000D01*
X167767000Y-65786000D02*
X168529000Y-65024000D01*
X172705000Y-109180000D02*
X172705000Y-90130000D01*
X172705000Y-90130000D02*
X172705000Y-71080000D01*
X172705000Y-128230000D02*
X172705000Y-109180000D01*
X171305000Y-71080000D02*
X172705000Y-71080000D01*
X170815000Y-70590000D02*
X171305000Y-71080000D01*
X171323000Y-67818000D02*
X170815000Y-68326000D01*
X170815000Y-68326000D02*
X170815000Y-70590000D01*
X183598736Y-65786000D02*
X184023000Y-65786000D01*
X172705000Y-69830000D02*
X175987000Y-66548000D01*
X172705000Y-71080000D02*
X172705000Y-69830000D01*
X175987000Y-66548000D02*
X182245000Y-66548000D01*
X183007000Y-65786000D02*
X183598736Y-65786000D01*
X182245000Y-66548000D02*
X183007000Y-65786000D01*
X134605000Y-72330000D02*
X134605000Y-90130000D01*
X134605000Y-71080000D02*
X134605000Y-72330000D01*
X135455001Y-93601003D02*
X135455001Y-107079999D01*
X134605000Y-107930000D02*
X134605000Y-109180000D01*
X134605000Y-92751002D02*
X135455001Y-93601003D01*
X135455001Y-107079999D02*
X134605000Y-107930000D01*
X134605000Y-90130000D02*
X134605000Y-92751002D01*
X134605000Y-110430000D02*
X134605000Y-128230000D01*
X134605000Y-109180000D02*
X134605000Y-110430000D01*
X138707000Y-65786000D02*
X146177000Y-65786000D01*
X134605000Y-71080000D02*
X134605000Y-69888000D01*
X134605000Y-69888000D02*
X138707000Y-65786000D01*
X99567000Y-96392000D02*
X111887000Y-96392000D01*
X92837000Y-96392000D02*
X93727000Y-96392000D01*
X93727000Y-96392000D02*
X95123000Y-94996000D01*
X98171000Y-94996000D02*
X99567000Y-96392000D01*
X118617000Y-96392000D02*
X130937000Y-96392000D01*
X111887000Y-96392000D02*
X112777000Y-96392000D01*
X112777000Y-96392000D02*
X114173000Y-94996000D01*
X117221000Y-94996000D02*
X118617000Y-96392000D01*
X137667000Y-96392000D02*
X149987000Y-96392000D01*
X130937000Y-96392000D02*
X131827000Y-96392000D01*
X131827000Y-96392000D02*
X133223000Y-94996000D01*
X136271000Y-94996000D02*
X137667000Y-96392000D01*
X156717000Y-96392000D02*
X169037000Y-96392000D01*
X149987000Y-96392000D02*
X150877000Y-96392000D01*
X150877000Y-96392000D02*
X152273000Y-94996000D01*
X155321000Y-94996000D02*
X156717000Y-96392000D01*
X175767000Y-96392000D02*
X188087000Y-96392000D01*
X169037000Y-96392000D02*
X169927000Y-96392000D01*
X169927000Y-96392000D02*
X171323000Y-94996000D01*
X174371000Y-94996000D02*
X175767000Y-96392000D01*
X194817000Y-96392000D02*
X207137000Y-96392000D01*
X188087000Y-96392000D02*
X188977000Y-96392000D01*
X188977000Y-96392000D02*
X190373000Y-94996000D01*
X193421000Y-94996000D02*
X194817000Y-96392000D01*
X170815000Y-88900000D02*
X170815000Y-91948000D01*
X171998001Y-87716999D02*
X170815000Y-88900000D01*
X171998001Y-74589001D02*
X171998001Y-87716999D01*
X169545000Y-72136000D02*
X171998001Y-74589001D01*
X176657000Y-51816000D02*
X176657000Y-53594000D01*
X176657000Y-53594000D02*
X170561000Y-59690000D01*
X170561000Y-59690000D02*
X170561000Y-61976000D01*
X170815000Y-91948000D02*
X171323000Y-92456000D01*
X179705000Y-48768000D02*
X176657000Y-51816000D01*
X179705000Y-46057732D02*
X179705000Y-48768000D01*
X180467000Y-45719996D02*
X180042736Y-45719996D01*
X180042736Y-45719996D02*
X179705000Y-46057732D01*
X170561000Y-61976000D02*
X169291000Y-63246000D01*
X171323000Y-92456000D02*
X171323000Y-94996000D01*
X169291000Y-63246000D02*
X169291000Y-69342000D01*
X169291000Y-69342000D02*
X169545000Y-69596000D01*
X169545000Y-69596000D02*
X169545000Y-72136000D01*
D35*
X163957000Y-47572974D02*
X163435974Y-48094000D01*
X168880000Y-44226000D02*
X168402000Y-44704000D01*
X168880000Y-43022500D02*
X168880000Y-44226000D01*
X163435974Y-48094000D02*
X162941000Y-48094000D01*
X168402000Y-44704000D02*
X166497000Y-44704000D01*
X163957000Y-47244000D02*
X163957000Y-47572974D01*
X166497000Y-44704000D02*
X163957000Y-47244000D01*
X162941000Y-48094000D02*
X161591000Y-48094000D01*
X163957000Y-52865026D02*
X163957000Y-56678500D01*
X162941000Y-52344000D02*
X163435974Y-52344000D01*
X163435974Y-52344000D02*
X163957000Y-52865026D01*
D34*
X195733000Y-51678000D02*
X193915000Y-51678000D01*
X196483000Y-51678000D02*
X195733000Y-51678000D01*
X173680000Y-42022500D02*
X173680000Y-40322500D01*
X172680000Y-43022500D02*
X173680000Y-42022500D01*
X166680000Y-42022500D02*
X166680000Y-40322500D01*
X167680000Y-43022500D02*
X166680000Y-42022500D01*
X173080000Y-40322500D02*
X167280000Y-40322500D01*
X165177500Y-40322500D02*
X164719000Y-40781000D01*
X167280000Y-40322500D02*
X165177500Y-40322500D01*
X198115000Y-43178000D02*
X192283000Y-43178000D01*
X189611000Y-48260000D02*
X189611000Y-44450000D01*
X190883000Y-43178000D02*
X192283000Y-43178000D01*
X189611000Y-44450000D02*
X190883000Y-43178000D01*
X186705000Y-49530000D02*
X188341000Y-49530000D01*
X188341000Y-49530000D02*
X189611000Y-48260000D01*
D37*
G36*
X203760000Y-41569092D02*
G01*
X203760001Y-60925115D01*
X203756565Y-60960000D01*
X203770274Y-61099184D01*
X203810872Y-61233019D01*
X203810873Y-61233020D01*
X203876801Y-61356363D01*
X203965526Y-61464475D01*
X203992617Y-61486708D01*
X204989402Y-62483493D01*
X202446894Y-65026000D01*
X195836325Y-65026000D01*
X195799000Y-65022324D01*
X195761675Y-65026000D01*
X195761667Y-65026000D01*
X195650014Y-65036997D01*
X195506753Y-65080454D01*
X195374724Y-65151026D01*
X195258999Y-65245999D01*
X195235201Y-65274997D01*
X194120948Y-66389250D01*
X184742040Y-66389250D01*
X184749262Y-66382028D01*
X184851586Y-66228889D01*
X184922068Y-66058729D01*
X184958000Y-65878089D01*
X184958000Y-65693911D01*
X184922068Y-65513271D01*
X184851586Y-65343111D01*
X184749262Y-65189972D01*
X184619028Y-65059738D01*
X184465889Y-64957414D01*
X184295729Y-64886932D01*
X184115089Y-64851000D01*
X183930911Y-64851000D01*
X183750271Y-64886932D01*
X183580111Y-64957414D01*
X183477465Y-65026000D01*
X183261383Y-65026000D01*
X183259000Y-65001800D01*
X183259000Y-62636061D01*
X184766000Y-62636061D01*
X184766000Y-62839939D01*
X184805774Y-63039898D01*
X184883795Y-63228256D01*
X184997063Y-63397774D01*
X185141226Y-63541937D01*
X185310744Y-63655205D01*
X185499102Y-63733226D01*
X185699061Y-63773000D01*
X185902939Y-63773000D01*
X186102898Y-63733226D01*
X186291256Y-63655205D01*
X186414285Y-63573000D01*
X187029982Y-63573000D01*
X187071000Y-63577040D01*
X187112018Y-63573000D01*
X187112019Y-63573000D01*
X187234689Y-63560918D01*
X187392087Y-63513172D01*
X187537146Y-63435636D01*
X187664291Y-63331291D01*
X187690445Y-63299422D01*
X188178868Y-62811000D01*
X191872043Y-62811000D01*
X191882463Y-62830494D01*
X191961815Y-62927185D01*
X192058506Y-63006537D01*
X192168820Y-63065502D01*
X192288518Y-63101812D01*
X192413000Y-63114072D01*
X193413000Y-63114072D01*
X193537482Y-63101812D01*
X193657180Y-63065502D01*
X193767494Y-63006537D01*
X193864185Y-62927185D01*
X193943537Y-62830494D01*
X194002502Y-62720180D01*
X194038812Y-62600482D01*
X194051072Y-62476000D01*
X194314928Y-62476000D01*
X194327188Y-62600482D01*
X194363498Y-62720180D01*
X194422463Y-62830494D01*
X194501815Y-62927185D01*
X194598506Y-63006537D01*
X194708820Y-63065502D01*
X194828518Y-63101812D01*
X194953000Y-63114072D01*
X195167250Y-63111000D01*
X195326000Y-62952250D01*
X195326000Y-62103000D01*
X195580000Y-62103000D01*
X195580000Y-62952250D01*
X195738750Y-63111000D01*
X195953000Y-63114072D01*
X196077482Y-63101812D01*
X196197180Y-63065502D01*
X196307494Y-63006537D01*
X196404185Y-62927185D01*
X196483537Y-62830494D01*
X196542502Y-62720180D01*
X196578812Y-62600482D01*
X196591072Y-62476000D01*
X196588000Y-62261750D01*
X196429250Y-62103000D01*
X195580000Y-62103000D01*
X195326000Y-62103000D01*
X194476750Y-62103000D01*
X194318000Y-62261750D01*
X194314928Y-62476000D01*
X194051072Y-62476000D01*
X194051072Y-61476000D01*
X194314928Y-61476000D01*
X194318000Y-61690250D01*
X194476750Y-61849000D01*
X195326000Y-61849000D01*
X195326000Y-60999750D01*
X195580000Y-60999750D01*
X195580000Y-61849000D01*
X196429250Y-61849000D01*
X196588000Y-61690250D01*
X196591072Y-61476000D01*
X196578812Y-61351518D01*
X196542502Y-61231820D01*
X196483537Y-61121506D01*
X196404185Y-61024815D01*
X196307494Y-60945463D01*
X196197180Y-60886498D01*
X196077482Y-60850188D01*
X195953000Y-60837928D01*
X195738750Y-60841000D01*
X195580000Y-60999750D01*
X195326000Y-60999750D01*
X195167250Y-60841000D01*
X194953000Y-60837928D01*
X194828518Y-60850188D01*
X194708820Y-60886498D01*
X194598506Y-60945463D01*
X194501815Y-61024815D01*
X194422463Y-61121506D01*
X194363498Y-61231820D01*
X194327188Y-61351518D01*
X194314928Y-61476000D01*
X194051072Y-61476000D01*
X194038812Y-61351518D01*
X194002502Y-61231820D01*
X193943537Y-61121506D01*
X193864185Y-61024815D01*
X193767494Y-60945463D01*
X193657180Y-60886498D01*
X193537482Y-60850188D01*
X193413000Y-60837928D01*
X192413000Y-60837928D01*
X192288518Y-60850188D01*
X192168820Y-60886498D01*
X192058506Y-60945463D01*
X191961815Y-61024815D01*
X191882463Y-61121506D01*
X191872043Y-61141000D01*
X187874018Y-61141000D01*
X187833000Y-61136960D01*
X187791982Y-61141000D01*
X187791981Y-61141000D01*
X187669311Y-61153082D01*
X187648792Y-61159306D01*
X187641919Y-61089518D01*
X187605609Y-60969820D01*
X187546644Y-60859506D01*
X187467292Y-60762815D01*
X186760185Y-60055708D01*
X186663494Y-59976356D01*
X186553180Y-59917391D01*
X186433482Y-59881081D01*
X186309000Y-59868821D01*
X186184518Y-59881081D01*
X186064820Y-59917391D01*
X185954506Y-59976356D01*
X185857815Y-60055708D01*
X185150708Y-60762815D01*
X185071356Y-60859506D01*
X185012391Y-60969820D01*
X184976081Y-61089518D01*
X184963821Y-61214000D01*
X184976081Y-61338482D01*
X185012391Y-61458180D01*
X185071356Y-61568494D01*
X185150708Y-61665185D01*
X185308091Y-61822568D01*
X185141226Y-61934063D01*
X184997063Y-62078226D01*
X184883795Y-62247744D01*
X184805774Y-62436102D01*
X184766000Y-62636061D01*
X183259000Y-62636061D01*
X183259000Y-60457921D01*
X183772002Y-59944919D01*
X183801001Y-59921121D01*
X183895974Y-59805396D01*
X183966546Y-59673367D01*
X184010003Y-59530106D01*
X184021000Y-59418453D01*
X184021000Y-59418445D01*
X184024676Y-59381120D01*
X184021000Y-59343795D01*
X184021000Y-58814396D01*
X184184911Y-58847000D01*
X184369089Y-58847000D01*
X184549729Y-58811068D01*
X184719889Y-58740586D01*
X184873028Y-58638262D01*
X185003262Y-58508028D01*
X185105586Y-58354889D01*
X185176068Y-58184729D01*
X185212000Y-58004089D01*
X185212000Y-57819911D01*
X185176068Y-57639271D01*
X185105586Y-57469111D01*
X185003262Y-57315972D01*
X184873028Y-57185738D01*
X184719889Y-57083414D01*
X184549729Y-57012932D01*
X184529000Y-57008809D01*
X184529000Y-56698802D01*
X185237205Y-57407008D01*
X185260999Y-57436001D01*
X185289992Y-57459795D01*
X185289996Y-57459799D01*
X185329268Y-57492028D01*
X185376724Y-57530974D01*
X185508753Y-57601546D01*
X185652014Y-57645003D01*
X185763667Y-57656000D01*
X185763676Y-57656000D01*
X185800999Y-57659676D01*
X185838322Y-57656000D01*
X188788199Y-57656000D01*
X189019196Y-57886997D01*
X189042999Y-57916001D01*
X189143606Y-57998567D01*
X189158724Y-58010974D01*
X189290753Y-58081546D01*
X189386445Y-58110573D01*
X189407488Y-58149942D01*
X189516377Y-58282623D01*
X189649058Y-58391512D01*
X189800433Y-58472423D01*
X189964684Y-58522248D01*
X190135500Y-58539072D01*
X190610500Y-58539072D01*
X190781316Y-58522248D01*
X190887297Y-58490099D01*
X191577401Y-59180202D01*
X191576928Y-59185000D01*
X191576928Y-60185000D01*
X191589188Y-60309482D01*
X191625498Y-60429180D01*
X191684463Y-60539494D01*
X191763815Y-60636185D01*
X191860506Y-60715537D01*
X191970820Y-60774502D01*
X192090518Y-60810812D01*
X192215000Y-60823072D01*
X193915000Y-60823072D01*
X194039482Y-60810812D01*
X194159180Y-60774502D01*
X194269494Y-60715537D01*
X194366185Y-60636185D01*
X194445537Y-60539494D01*
X194496046Y-60445000D01*
X197933954Y-60445000D01*
X197984463Y-60539494D01*
X198063815Y-60636185D01*
X198160506Y-60715537D01*
X198270820Y-60774502D01*
X198390518Y-60810812D01*
X198515000Y-60823072D01*
X200215000Y-60823072D01*
X200339482Y-60810812D01*
X200459180Y-60774502D01*
X200569494Y-60715537D01*
X200666185Y-60636185D01*
X200745537Y-60539494D01*
X200804502Y-60429180D01*
X200840812Y-60309482D01*
X200853072Y-60185000D01*
X200853072Y-59185000D01*
X200840812Y-59060518D01*
X200804502Y-58940820D01*
X200745537Y-58830506D01*
X200666185Y-58733815D01*
X200569494Y-58654463D01*
X200459180Y-58595498D01*
X200339482Y-58559188D01*
X200215000Y-58546928D01*
X200089710Y-58546928D01*
X200070546Y-58483753D01*
X200043416Y-58432997D01*
X199999974Y-58351724D01*
X199905001Y-58235999D01*
X199875997Y-58212196D01*
X199678153Y-58014352D01*
X199654068Y-57893271D01*
X199583586Y-57723111D01*
X199481262Y-57569972D01*
X199351028Y-57439738D01*
X199197889Y-57337414D01*
X199027729Y-57266932D01*
X198847089Y-57231000D01*
X198662911Y-57231000D01*
X198482271Y-57266932D01*
X198312111Y-57337414D01*
X198158972Y-57439738D01*
X198028738Y-57569972D01*
X197926414Y-57723111D01*
X197855932Y-57893271D01*
X197820000Y-58073911D01*
X197820000Y-58258089D01*
X197855932Y-58438729D01*
X197926414Y-58608889D01*
X198028738Y-58762028D01*
X198035287Y-58768577D01*
X197984463Y-58830506D01*
X197933954Y-58925000D01*
X194496046Y-58925000D01*
X194445537Y-58830506D01*
X194366185Y-58733815D01*
X194269494Y-58654463D01*
X194159180Y-58595498D01*
X194039482Y-58559188D01*
X193915000Y-58546928D01*
X193774543Y-58546928D01*
X193770546Y-58533753D01*
X193699974Y-58401724D01*
X193605001Y-58285999D01*
X193576003Y-58262201D01*
X193476803Y-58163001D01*
X193453001Y-58133999D01*
X193337276Y-58039026D01*
X193205247Y-57968454D01*
X193061986Y-57924997D01*
X192950333Y-57914000D01*
X192950322Y-57914000D01*
X192913000Y-57910324D01*
X192875678Y-57914000D01*
X192460802Y-57914000D01*
X191469768Y-56922967D01*
X191469248Y-56917684D01*
X191419423Y-56753433D01*
X191338512Y-56602058D01*
X191255575Y-56501000D01*
X191338512Y-56399942D01*
X191346498Y-56385000D01*
X191576928Y-56385000D01*
X191589188Y-56509482D01*
X191625498Y-56629180D01*
X191684463Y-56739494D01*
X191763815Y-56836185D01*
X191860506Y-56915537D01*
X191970820Y-56974502D01*
X192090518Y-57010812D01*
X192215000Y-57023072D01*
X192779250Y-57020000D01*
X192938000Y-56861250D01*
X192938000Y-56012000D01*
X193192000Y-56012000D01*
X193192000Y-56861250D01*
X193350750Y-57020000D01*
X193915000Y-57023072D01*
X194039482Y-57010812D01*
X194159180Y-56974502D01*
X194269494Y-56915537D01*
X194366185Y-56836185D01*
X194445537Y-56739494D01*
X194504502Y-56629180D01*
X194540812Y-56509482D01*
X194553072Y-56385000D01*
X197876928Y-56385000D01*
X197889188Y-56509482D01*
X197925498Y-56629180D01*
X197984463Y-56739494D01*
X198063815Y-56836185D01*
X198160506Y-56915537D01*
X198270820Y-56974502D01*
X198390518Y-57010812D01*
X198515000Y-57023072D01*
X199079250Y-57020000D01*
X199238000Y-56861250D01*
X199238000Y-56012000D01*
X199492000Y-56012000D01*
X199492000Y-56861250D01*
X199650750Y-57020000D01*
X200215000Y-57023072D01*
X200339482Y-57010812D01*
X200459180Y-56974502D01*
X200569494Y-56915537D01*
X200666185Y-56836185D01*
X200745537Y-56739494D01*
X200804502Y-56629180D01*
X200840812Y-56509482D01*
X200853072Y-56385000D01*
X200850000Y-56170750D01*
X200691250Y-56012000D01*
X199492000Y-56012000D01*
X199238000Y-56012000D01*
X198038750Y-56012000D01*
X197880000Y-56170750D01*
X197876928Y-56385000D01*
X194553072Y-56385000D01*
X194550000Y-56170750D01*
X194391250Y-56012000D01*
X193192000Y-56012000D01*
X192938000Y-56012000D01*
X191738750Y-56012000D01*
X191580000Y-56170750D01*
X191576928Y-56385000D01*
X191346498Y-56385000D01*
X191419423Y-56248567D01*
X191469248Y-56084316D01*
X191486072Y-55913500D01*
X191486072Y-55385000D01*
X191576928Y-55385000D01*
X191580000Y-55599250D01*
X191738750Y-55758000D01*
X192938000Y-55758000D01*
X192938000Y-54908750D01*
X193192000Y-54908750D01*
X193192000Y-55758000D01*
X194391250Y-55758000D01*
X194550000Y-55599250D01*
X194553072Y-55385000D01*
X197876928Y-55385000D01*
X197880000Y-55599250D01*
X198038750Y-55758000D01*
X199238000Y-55758000D01*
X199238000Y-54908750D01*
X199492000Y-54908750D01*
X199492000Y-55758000D01*
X200691250Y-55758000D01*
X200850000Y-55599250D01*
X200853072Y-55385000D01*
X200840812Y-55260518D01*
X200804502Y-55140820D01*
X200745537Y-55030506D01*
X200666185Y-54933815D01*
X200569494Y-54854463D01*
X200459180Y-54795498D01*
X200339482Y-54759188D01*
X200215000Y-54746928D01*
X199650750Y-54750000D01*
X199492000Y-54908750D01*
X199238000Y-54908750D01*
X199079250Y-54750000D01*
X198515000Y-54746928D01*
X198390518Y-54759188D01*
X198270820Y-54795498D01*
X198160506Y-54854463D01*
X198063815Y-54933815D01*
X197984463Y-55030506D01*
X197925498Y-55140820D01*
X197889188Y-55260518D01*
X197876928Y-55385000D01*
X194553072Y-55385000D01*
X194540812Y-55260518D01*
X194504502Y-55140820D01*
X194445537Y-55030506D01*
X194366185Y-54933815D01*
X194269494Y-54854463D01*
X194159180Y-54795498D01*
X194039482Y-54759188D01*
X193915000Y-54746928D01*
X193350750Y-54750000D01*
X193192000Y-54908750D01*
X192938000Y-54908750D01*
X192779250Y-54750000D01*
X192215000Y-54746928D01*
X192090518Y-54759188D01*
X191970820Y-54795498D01*
X191860506Y-54854463D01*
X191763815Y-54933815D01*
X191684463Y-55030506D01*
X191625498Y-55140820D01*
X191589188Y-55260518D01*
X191576928Y-55385000D01*
X191486072Y-55385000D01*
X191486072Y-55338500D01*
X191469248Y-55167684D01*
X191419423Y-55003433D01*
X191338512Y-54852058D01*
X191229623Y-54719377D01*
X191096942Y-54610488D01*
X190945567Y-54529577D01*
X190781316Y-54479752D01*
X190610500Y-54462928D01*
X190324873Y-54462928D01*
X191195802Y-53592000D01*
X191836199Y-53592000D01*
X192595215Y-54351018D01*
X192619009Y-54380011D01*
X192648002Y-54403805D01*
X192648006Y-54403809D01*
X192699796Y-54446311D01*
X192734734Y-54474984D01*
X192866763Y-54545556D01*
X193010024Y-54589013D01*
X193121677Y-54600010D01*
X193121686Y-54600010D01*
X193159009Y-54603686D01*
X193196332Y-54600010D01*
X197201668Y-54600010D01*
X197238990Y-54603686D01*
X197276312Y-54600010D01*
X197276323Y-54600010D01*
X197387976Y-54589013D01*
X197531237Y-54545556D01*
X197663266Y-54474984D01*
X197778991Y-54380011D01*
X197802794Y-54351007D01*
X198815802Y-53338000D01*
X198971465Y-53338000D01*
X199074111Y-53406586D01*
X199244271Y-53477068D01*
X199424911Y-53513000D01*
X199609089Y-53513000D01*
X199789729Y-53477068D01*
X199959889Y-53406586D01*
X200113028Y-53304262D01*
X200243262Y-53174028D01*
X200345586Y-53020889D01*
X200416068Y-52850729D01*
X200452000Y-52670089D01*
X200452000Y-52485911D01*
X200416068Y-52305271D01*
X200345586Y-52135111D01*
X200243262Y-51981972D01*
X200113028Y-51851738D01*
X199959889Y-51749414D01*
X199789729Y-51678932D01*
X199748508Y-51670733D01*
X199774004Y-51645237D01*
X199803001Y-51621440D01*
X199897974Y-51505715D01*
X199968546Y-51373686D01*
X200012003Y-51230425D01*
X200023000Y-51118772D01*
X200023000Y-51118771D01*
X200026677Y-51081439D01*
X200023000Y-51044106D01*
X200023000Y-49059535D01*
X200091586Y-48956889D01*
X200162068Y-48786729D01*
X200198000Y-48606089D01*
X200198000Y-48421911D01*
X200162068Y-48241271D01*
X200091586Y-48071111D01*
X199989262Y-47917972D01*
X199859028Y-47787738D01*
X199705889Y-47685414D01*
X199535729Y-47614932D01*
X199355089Y-47579000D01*
X199170911Y-47579000D01*
X198990271Y-47614932D01*
X198820111Y-47685414D01*
X198666972Y-47787738D01*
X198536738Y-47917972D01*
X198434414Y-48071111D01*
X198363932Y-48241271D01*
X198328000Y-48421911D01*
X198328000Y-48558488D01*
X198115000Y-48537509D01*
X197892501Y-48559423D01*
X197678553Y-48624324D01*
X197566190Y-48684383D01*
X197600000Y-48514411D01*
X197600000Y-48241589D01*
X197546775Y-47974011D01*
X197442371Y-47721957D01*
X197290799Y-47495114D01*
X197097886Y-47302201D01*
X196871043Y-47150629D01*
X196618989Y-47046225D01*
X196351411Y-46993000D01*
X196078589Y-46993000D01*
X195811011Y-47046225D01*
X195558957Y-47150629D01*
X195332114Y-47302201D01*
X195199000Y-47435315D01*
X195065886Y-47302201D01*
X194839043Y-47150629D01*
X194586989Y-47046225D01*
X194319411Y-46993000D01*
X194046589Y-46993000D01*
X193779011Y-47046225D01*
X193526957Y-47150629D01*
X193300114Y-47302201D01*
X193107201Y-47495114D01*
X192955629Y-47721957D01*
X192851225Y-47974011D01*
X192798000Y-48241589D01*
X192798000Y-48514411D01*
X192831810Y-48684383D01*
X192719447Y-48624324D01*
X192505499Y-48559423D01*
X192283000Y-48537509D01*
X192060502Y-48559423D01*
X191846554Y-48624324D01*
X191649378Y-48729716D01*
X191476552Y-48871551D01*
X191334717Y-49044377D01*
X191229324Y-49241553D01*
X191164423Y-49455501D01*
X191150059Y-49601341D01*
X191137559Y-49616573D01*
X188249133Y-52505000D01*
X187112015Y-52505000D01*
X187070999Y-52500960D01*
X187029983Y-52505000D01*
X187029981Y-52505000D01*
X186907311Y-52517082D01*
X186749913Y-52564828D01*
X186604854Y-52642364D01*
X186477709Y-52746709D01*
X186451561Y-52778571D01*
X185239579Y-53990554D01*
X185207709Y-54016709D01*
X185123168Y-54119724D01*
X185103364Y-54143855D01*
X185025828Y-54288914D01*
X184978082Y-54446312D01*
X184961960Y-54610000D01*
X184966000Y-54651019D01*
X184966000Y-54986198D01*
X183824804Y-53845003D01*
X183801001Y-53815999D01*
X183685276Y-53721026D01*
X183553247Y-53650454D01*
X183409986Y-53606997D01*
X183298333Y-53596000D01*
X183298322Y-53596000D01*
X183261000Y-53592324D01*
X183223678Y-53596000D01*
X181289802Y-53596000D01*
X181136153Y-53442351D01*
X181112068Y-53321271D01*
X181041586Y-53151111D01*
X180939262Y-52997972D01*
X180809028Y-52867738D01*
X180655889Y-52765414D01*
X180485729Y-52694932D01*
X180305089Y-52659000D01*
X180120911Y-52659000D01*
X179940271Y-52694932D01*
X179770111Y-52765414D01*
X179616972Y-52867738D01*
X179486738Y-52997972D01*
X179384414Y-53151111D01*
X179313932Y-53321271D01*
X179278000Y-53501911D01*
X179278000Y-53686089D01*
X179313932Y-53866729D01*
X179384414Y-54036889D01*
X179486738Y-54190028D01*
X179616972Y-54320262D01*
X179770111Y-54422586D01*
X179940271Y-54493068D01*
X180061351Y-54517153D01*
X180411201Y-54867002D01*
X180434999Y-54896001D01*
X180550724Y-54990974D01*
X180682753Y-55061546D01*
X180826014Y-55105003D01*
X180937667Y-55116000D01*
X180937675Y-55116000D01*
X180975000Y-55119676D01*
X181012325Y-55116000D01*
X181705451Y-55116000D01*
X181648972Y-55153738D01*
X181518738Y-55283972D01*
X181416414Y-55437111D01*
X181345932Y-55607271D01*
X181310000Y-55787911D01*
X181310000Y-55972089D01*
X181345932Y-56152729D01*
X181416414Y-56322889D01*
X181485001Y-56425537D01*
X181485000Y-58613198D01*
X180971998Y-59126201D01*
X180943000Y-59149999D01*
X180919202Y-59178997D01*
X180919201Y-59178998D01*
X180848026Y-59265724D01*
X180777454Y-59397754D01*
X180754251Y-59474247D01*
X180733998Y-59541014D01*
X180729205Y-59589676D01*
X180719324Y-59690000D01*
X180723001Y-59727332D01*
X180723000Y-62146523D01*
X180156185Y-61579708D01*
X180059494Y-61500356D01*
X179949180Y-61441391D01*
X179829482Y-61405081D01*
X179705000Y-61392821D01*
X179580518Y-61405081D01*
X179484920Y-61434080D01*
X179513919Y-61338482D01*
X179526179Y-61214000D01*
X179513919Y-61089518D01*
X179477609Y-60969820D01*
X179418644Y-60859506D01*
X179339292Y-60762815D01*
X178632185Y-60055708D01*
X178535494Y-59976356D01*
X178425180Y-59917391D01*
X178305482Y-59881081D01*
X178181000Y-59868821D01*
X178056518Y-59881081D01*
X177936820Y-59917391D01*
X177826506Y-59976356D01*
X177729815Y-60055708D01*
X177022708Y-60762815D01*
X176943356Y-60859506D01*
X176884391Y-60969820D01*
X176848081Y-61089518D01*
X176835821Y-61214000D01*
X176848081Y-61338482D01*
X176884391Y-61458180D01*
X176943356Y-61568494D01*
X177022708Y-61665185D01*
X177729815Y-62372292D01*
X177826506Y-62451644D01*
X177936820Y-62510609D01*
X178056518Y-62546919D01*
X178181000Y-62559179D01*
X178305482Y-62546919D01*
X178401080Y-62517920D01*
X178372081Y-62613518D01*
X178359821Y-62738000D01*
X178372081Y-62862482D01*
X178401080Y-62958080D01*
X178305482Y-62929081D01*
X178181000Y-62916821D01*
X178056518Y-62929081D01*
X177936820Y-62965391D01*
X177826506Y-63024356D01*
X177729815Y-63103708D01*
X177022708Y-63810815D01*
X176943356Y-63907506D01*
X176884391Y-64017820D01*
X176848081Y-64137518D01*
X176835821Y-64262000D01*
X176848081Y-64386482D01*
X176884391Y-64506180D01*
X176943356Y-64616494D01*
X177022708Y-64713185D01*
X177081523Y-64772000D01*
X172122325Y-64772000D01*
X172085000Y-64768324D01*
X172047675Y-64772000D01*
X172047667Y-64772000D01*
X171936014Y-64782997D01*
X171792753Y-64826454D01*
X171660724Y-64897026D01*
X171544999Y-64991999D01*
X171521201Y-65020997D01*
X170155351Y-66386847D01*
X170143270Y-66389250D01*
X170051000Y-66389250D01*
X170051000Y-63560801D01*
X171072003Y-62539799D01*
X171101001Y-62516001D01*
X171195974Y-62400276D01*
X171266546Y-62268247D01*
X171310003Y-62124986D01*
X171321000Y-62013333D01*
X171321000Y-62013324D01*
X171324676Y-61976001D01*
X171321000Y-61938678D01*
X171321000Y-60004801D01*
X177168003Y-54157799D01*
X177197001Y-54134001D01*
X177252593Y-54066262D01*
X177291974Y-54018277D01*
X177362546Y-53886247D01*
X177364441Y-53880001D01*
X177406003Y-53742986D01*
X177417000Y-53631333D01*
X177417000Y-53631323D01*
X177420676Y-53594000D01*
X177417000Y-53556677D01*
X177417000Y-52578000D01*
X177671324Y-52578000D01*
X177675000Y-52615323D01*
X177675001Y-55842667D01*
X177671324Y-55880000D01*
X177675001Y-55917333D01*
X177685998Y-56028986D01*
X177697655Y-56067414D01*
X177729454Y-56172246D01*
X177800026Y-56304276D01*
X177846159Y-56360488D01*
X177895000Y-56420001D01*
X177923998Y-56443799D01*
X178527847Y-57047649D01*
X178551932Y-57168729D01*
X178622414Y-57338889D01*
X178724738Y-57492028D01*
X178854972Y-57622262D01*
X179008111Y-57724586D01*
X179178271Y-57795068D01*
X179358911Y-57831000D01*
X179543089Y-57831000D01*
X179723729Y-57795068D01*
X179893889Y-57724586D01*
X180047028Y-57622262D01*
X180177262Y-57492028D01*
X180279586Y-57338889D01*
X180350068Y-57168729D01*
X180386000Y-56988089D01*
X180386000Y-56803911D01*
X180350068Y-56623271D01*
X180279586Y-56453111D01*
X180177262Y-56299972D01*
X180047028Y-56169738D01*
X179893889Y-56067414D01*
X179723729Y-55996932D01*
X179602649Y-55972847D01*
X179195000Y-55565199D01*
X179195000Y-52892801D01*
X181797802Y-50290000D01*
X184267913Y-50290000D01*
X184279188Y-50404482D01*
X184315498Y-50524180D01*
X184374463Y-50634494D01*
X184453815Y-50731185D01*
X184550506Y-50810537D01*
X184660820Y-50869502D01*
X184780518Y-50905812D01*
X184905000Y-50918072D01*
X185905000Y-50918072D01*
X186029482Y-50905812D01*
X186055000Y-50898071D01*
X186080518Y-50905812D01*
X186205000Y-50918072D01*
X187205000Y-50918072D01*
X187329482Y-50905812D01*
X187449180Y-50869502D01*
X187559494Y-50810537D01*
X187656185Y-50731185D01*
X187735537Y-50634494D01*
X187794502Y-50524180D01*
X187830812Y-50404482D01*
X187842087Y-50290000D01*
X188303678Y-50290000D01*
X188341000Y-50293676D01*
X188378322Y-50290000D01*
X188378333Y-50290000D01*
X188489986Y-50279003D01*
X188633247Y-50235546D01*
X188765276Y-50164974D01*
X188881001Y-50070001D01*
X188904804Y-50040997D01*
X190122004Y-48823798D01*
X190151001Y-48800001D01*
X190245974Y-48684276D01*
X190316546Y-48552247D01*
X190360003Y-48408986D01*
X190371000Y-48297333D01*
X190371000Y-48297324D01*
X190374676Y-48260001D01*
X190371000Y-48222678D01*
X190371000Y-46305000D01*
X191148000Y-46305000D01*
X191148000Y-46805000D01*
X191194585Y-47023987D01*
X191282997Y-47229678D01*
X191409839Y-47414169D01*
X191570236Y-47570369D01*
X191758024Y-47692276D01*
X191981126Y-47772119D01*
X192156000Y-47645954D01*
X192156000Y-46305000D01*
X192410000Y-46305000D01*
X192410000Y-47645954D01*
X192584874Y-47772119D01*
X192807976Y-47692276D01*
X192995764Y-47570369D01*
X193156161Y-47414169D01*
X193283003Y-47229678D01*
X193371415Y-47023987D01*
X193418000Y-46805000D01*
X193418000Y-46305000D01*
X196980000Y-46305000D01*
X196980000Y-46805000D01*
X197026585Y-47023987D01*
X197114997Y-47229678D01*
X197241839Y-47414169D01*
X197402236Y-47570369D01*
X197590024Y-47692276D01*
X197813126Y-47772119D01*
X197988000Y-47645954D01*
X197988000Y-46305000D01*
X198242000Y-46305000D01*
X198242000Y-47645954D01*
X198416874Y-47772119D01*
X198639976Y-47692276D01*
X198827764Y-47570369D01*
X198988161Y-47414169D01*
X199115003Y-47229678D01*
X199203415Y-47023987D01*
X199250000Y-46805000D01*
X199250000Y-46305000D01*
X198242000Y-46305000D01*
X197988000Y-46305000D01*
X196980000Y-46305000D01*
X193418000Y-46305000D01*
X192410000Y-46305000D01*
X192156000Y-46305000D01*
X191148000Y-46305000D01*
X190371000Y-46305000D01*
X190371000Y-44764801D01*
X191180920Y-43954882D01*
X191229324Y-44114446D01*
X191334716Y-44311623D01*
X191476551Y-44484449D01*
X191649377Y-44626284D01*
X191740593Y-44675040D01*
X191570236Y-44785631D01*
X191409839Y-44941831D01*
X191282997Y-45126322D01*
X191194585Y-45332013D01*
X191148000Y-45551000D01*
X191148000Y-46051000D01*
X192156000Y-46051000D01*
X192156000Y-46031000D01*
X192410000Y-46031000D01*
X192410000Y-46051000D01*
X193418000Y-46051000D01*
X193418000Y-45551000D01*
X193371415Y-45332013D01*
X193283003Y-45126322D01*
X193156161Y-44941831D01*
X192995764Y-44785631D01*
X192825407Y-44675040D01*
X192916623Y-44626284D01*
X193089449Y-44484449D01*
X193231284Y-44311623D01*
X193336676Y-44114447D01*
X193390201Y-43938000D01*
X197007799Y-43938000D01*
X197061324Y-44114447D01*
X197166717Y-44311623D01*
X197308552Y-44484449D01*
X197481378Y-44626284D01*
X197572594Y-44675039D01*
X197402236Y-44785631D01*
X197241839Y-44941831D01*
X197114997Y-45126322D01*
X197026585Y-45332013D01*
X196980000Y-45551000D01*
X196980000Y-46051000D01*
X197988000Y-46051000D01*
X197988000Y-46031000D01*
X198242000Y-46031000D01*
X198242000Y-46051000D01*
X199250000Y-46051000D01*
X199250000Y-45551000D01*
X199203415Y-45332013D01*
X199115003Y-45126322D01*
X198988161Y-44941831D01*
X198827764Y-44785631D01*
X198657407Y-44675040D01*
X198748623Y-44626284D01*
X198921449Y-44484449D01*
X199063284Y-44311623D01*
X199168676Y-44114447D01*
X199233577Y-43900499D01*
X199250000Y-43733752D01*
X199250000Y-42622248D01*
X199233577Y-42455501D01*
X199168676Y-42241553D01*
X199063284Y-42044377D01*
X198921449Y-41871551D01*
X198748623Y-41729716D01*
X198551446Y-41624324D01*
X198337498Y-41559423D01*
X198115000Y-41537509D01*
X197892501Y-41559423D01*
X197678553Y-41624324D01*
X197566190Y-41684383D01*
X197600000Y-41514411D01*
X197600000Y-41241589D01*
X197546775Y-40974011D01*
X197442371Y-40721957D01*
X197290799Y-40495114D01*
X197097886Y-40302201D01*
X196871043Y-40150629D01*
X196618989Y-40046225D01*
X196351411Y-39993000D01*
X196078589Y-39993000D01*
X195811011Y-40046225D01*
X195558957Y-40150629D01*
X195332114Y-40302201D01*
X195199000Y-40435315D01*
X195065886Y-40302201D01*
X194839043Y-40150629D01*
X194586989Y-40046225D01*
X194319411Y-39993000D01*
X194046589Y-39993000D01*
X193779011Y-40046225D01*
X193526957Y-40150629D01*
X193300114Y-40302201D01*
X193107201Y-40495114D01*
X192955629Y-40721957D01*
X192851225Y-40974011D01*
X192798000Y-41241589D01*
X192798000Y-41514411D01*
X192831810Y-41684383D01*
X192719447Y-41624324D01*
X192505499Y-41559423D01*
X192283000Y-41537509D01*
X192060502Y-41559423D01*
X191846554Y-41624324D01*
X191649378Y-41729716D01*
X191476552Y-41871551D01*
X191334717Y-42044377D01*
X191229324Y-42241553D01*
X191175799Y-42418000D01*
X190920325Y-42418000D01*
X190883000Y-42414324D01*
X190845675Y-42418000D01*
X190845667Y-42418000D01*
X190734014Y-42428997D01*
X190590753Y-42472454D01*
X190458724Y-42543026D01*
X190342999Y-42637999D01*
X190319201Y-42666997D01*
X189099998Y-43886201D01*
X189071000Y-43909999D01*
X189047202Y-43938997D01*
X189047201Y-43938998D01*
X188976026Y-44025724D01*
X188905454Y-44157754D01*
X188875180Y-44257558D01*
X188861998Y-44301014D01*
X188853264Y-44389689D01*
X188847324Y-44450000D01*
X188851001Y-44487332D01*
X188851000Y-47945198D01*
X188026199Y-48770000D01*
X187842087Y-48770000D01*
X187830812Y-48655518D01*
X187794502Y-48535820D01*
X187735537Y-48425506D01*
X187656185Y-48328815D01*
X187559494Y-48249463D01*
X187449180Y-48190498D01*
X187329482Y-48154188D01*
X187205000Y-48141928D01*
X186205000Y-48141928D01*
X186080518Y-48154188D01*
X186055000Y-48161929D01*
X186029482Y-48154188D01*
X185905000Y-48141928D01*
X184905000Y-48141928D01*
X184780518Y-48154188D01*
X184660820Y-48190498D01*
X184550506Y-48249463D01*
X184453815Y-48328815D01*
X184374463Y-48425506D01*
X184315498Y-48535820D01*
X184279188Y-48655518D01*
X184267913Y-48770000D01*
X181520323Y-48770000D01*
X181483000Y-48766324D01*
X181445677Y-48770000D01*
X181445667Y-48770000D01*
X181334014Y-48780997D01*
X181190753Y-48824454D01*
X181058723Y-48895026D01*
X181006254Y-48938087D01*
X180942999Y-48989999D01*
X180919201Y-49018997D01*
X177924003Y-52014196D01*
X177894999Y-52037999D01*
X177858070Y-52082998D01*
X177800026Y-52153724D01*
X177729455Y-52285753D01*
X177729454Y-52285754D01*
X177685997Y-52429015D01*
X177675000Y-52540668D01*
X177675000Y-52540678D01*
X177671324Y-52578000D01*
X177417000Y-52578000D01*
X177417000Y-52130801D01*
X180216003Y-49331799D01*
X180245001Y-49308001D01*
X180291766Y-49251018D01*
X180339974Y-49192277D01*
X180410546Y-49060247D01*
X180414150Y-49048365D01*
X180454003Y-48916986D01*
X180465000Y-48805333D01*
X180465000Y-48805323D01*
X180468676Y-48768000D01*
X180465000Y-48730677D01*
X180465000Y-46654996D01*
X180559089Y-46654996D01*
X180739729Y-46619064D01*
X180909889Y-46548582D01*
X181063028Y-46446258D01*
X181193262Y-46316024D01*
X181295586Y-46162885D01*
X181366068Y-45992725D01*
X181402000Y-45812085D01*
X181402000Y-45627907D01*
X181366068Y-45447267D01*
X181295586Y-45277107D01*
X181193262Y-45123968D01*
X181063028Y-44993734D01*
X180909889Y-44891410D01*
X180739729Y-44820928D01*
X180559089Y-44784996D01*
X180374911Y-44784996D01*
X180194271Y-44820928D01*
X180024111Y-44891410D01*
X179906952Y-44969693D01*
X179893750Y-44970993D01*
X179750489Y-45014450D01*
X179618460Y-45085022D01*
X179502735Y-45179995D01*
X179478932Y-45208999D01*
X179194003Y-45493928D01*
X179164999Y-45517731D01*
X179109871Y-45584906D01*
X179070026Y-45633456D01*
X179045159Y-45679979D01*
X178999454Y-45765486D01*
X178955997Y-45908747D01*
X178945000Y-46020400D01*
X178945000Y-46020410D01*
X178941324Y-46057732D01*
X178945000Y-46095055D01*
X178945001Y-48453197D01*
X176146003Y-51252196D01*
X176116999Y-51275999D01*
X176079053Y-51322237D01*
X176022026Y-51391724D01*
X175979596Y-51471104D01*
X175951454Y-51523754D01*
X175907997Y-51667015D01*
X175897000Y-51778668D01*
X175897000Y-51778678D01*
X175893324Y-51816000D01*
X175897000Y-51853323D01*
X175897001Y-53279197D01*
X170050003Y-59126196D01*
X170020999Y-59149999D01*
X169979738Y-59200276D01*
X169926026Y-59265724D01*
X169864345Y-59381120D01*
X169855454Y-59397754D01*
X169811997Y-59541015D01*
X169801000Y-59652668D01*
X169801000Y-59652678D01*
X169797324Y-59690000D01*
X169801000Y-59727323D01*
X169801001Y-61661197D01*
X168780003Y-62682196D01*
X168750999Y-62705999D01*
X168713927Y-62751172D01*
X168656026Y-62821724D01*
X168613284Y-62901688D01*
X168585454Y-62953754D01*
X168541997Y-63097015D01*
X168531000Y-63208668D01*
X168531000Y-63208678D01*
X168527324Y-63246000D01*
X168531000Y-63283323D01*
X168531000Y-63326990D01*
X168436911Y-63326990D01*
X168256271Y-63362922D01*
X168086111Y-63433404D01*
X167932972Y-63535728D01*
X167832426Y-63636274D01*
X167785729Y-63616932D01*
X167605089Y-63581000D01*
X167420911Y-63581000D01*
X167240271Y-63616932D01*
X167070111Y-63687414D01*
X166967465Y-63756000D01*
X164529762Y-63756000D01*
X164492439Y-63752324D01*
X164455116Y-63756000D01*
X164455107Y-63756000D01*
X164343454Y-63766997D01*
X164200193Y-63810454D01*
X164068164Y-63881026D01*
X164068162Y-63881027D01*
X164068163Y-63881027D01*
X163981436Y-63952201D01*
X163981432Y-63952205D01*
X163952439Y-63975999D01*
X163928645Y-64004992D01*
X162653639Y-65280000D01*
X161979606Y-65280000D01*
X158664606Y-61965000D01*
X165129928Y-61965000D01*
X165142188Y-62089482D01*
X165178498Y-62209180D01*
X165237463Y-62319494D01*
X165316815Y-62416185D01*
X165413506Y-62495537D01*
X165523820Y-62554502D01*
X165643518Y-62590812D01*
X165768000Y-62603072D01*
X165957250Y-62600000D01*
X166116000Y-62441250D01*
X166116000Y-61567000D01*
X166370000Y-61567000D01*
X166370000Y-62441250D01*
X166528750Y-62600000D01*
X166718000Y-62603072D01*
X166842482Y-62590812D01*
X166962180Y-62554502D01*
X167072494Y-62495537D01*
X167169185Y-62416185D01*
X167248537Y-62319494D01*
X167307502Y-62209180D01*
X167343812Y-62089482D01*
X167356072Y-61965000D01*
X167353000Y-61725750D01*
X167194250Y-61567000D01*
X166370000Y-61567000D01*
X166116000Y-61567000D01*
X165291750Y-61567000D01*
X165133000Y-61725750D01*
X165129928Y-61965000D01*
X158664606Y-61965000D01*
X157119349Y-60419743D01*
X157322379Y-60216712D01*
X157349475Y-60194475D01*
X157438200Y-60086363D01*
X157504128Y-59963020D01*
X157544727Y-59829184D01*
X157555000Y-59724877D01*
X157555000Y-59724875D01*
X157558435Y-59690000D01*
X157555000Y-59655125D01*
X157555000Y-59191000D01*
X162443928Y-59191000D01*
X162443928Y-60116000D01*
X162460992Y-60289254D01*
X162511528Y-60455850D01*
X162593595Y-60609386D01*
X162704038Y-60743962D01*
X162838614Y-60854405D01*
X162992150Y-60936472D01*
X163158746Y-60987008D01*
X163332000Y-61004072D01*
X164582000Y-61004072D01*
X164755254Y-60987008D01*
X164921850Y-60936472D01*
X165075386Y-60854405D01*
X165141217Y-60800379D01*
X165129928Y-60915000D01*
X165133000Y-61154250D01*
X165291750Y-61313000D01*
X166116000Y-61313000D01*
X166116000Y-61293000D01*
X166370000Y-61293000D01*
X166370000Y-61313000D01*
X167194250Y-61313000D01*
X167353000Y-61154250D01*
X167356072Y-60915000D01*
X167343812Y-60790518D01*
X167307502Y-60670820D01*
X167248537Y-60560506D01*
X167219523Y-60525152D01*
X167259000Y-60529040D01*
X167300018Y-60525000D01*
X167300019Y-60525000D01*
X167422689Y-60512918D01*
X167580087Y-60465172D01*
X167725146Y-60387636D01*
X167852291Y-60283291D01*
X167878446Y-60251421D01*
X168836426Y-59293442D01*
X168868291Y-59267291D01*
X168972636Y-59140146D01*
X169050172Y-58995087D01*
X169070963Y-58926549D01*
X169179494Y-58868537D01*
X169276185Y-58789185D01*
X169355537Y-58692494D01*
X169414502Y-58582180D01*
X169450812Y-58462482D01*
X169463072Y-58338000D01*
X169463072Y-57985000D01*
X170551982Y-57985000D01*
X170593000Y-57989040D01*
X170634018Y-57985000D01*
X170634019Y-57985000D01*
X170756689Y-57972918D01*
X170914087Y-57925172D01*
X171059146Y-57847636D01*
X171186291Y-57743291D01*
X171212446Y-57711421D01*
X175186428Y-53737440D01*
X175218291Y-53711291D01*
X175322636Y-53584146D01*
X175400172Y-53439087D01*
X175447918Y-53281689D01*
X175460000Y-53159019D01*
X175460000Y-53159018D01*
X175464040Y-53118001D01*
X175460000Y-53076982D01*
X175460000Y-51653867D01*
X176305775Y-50808092D01*
X176450898Y-50779226D01*
X176639256Y-50701205D01*
X176808774Y-50587937D01*
X176952937Y-50443774D01*
X177066205Y-50274256D01*
X177144226Y-50085898D01*
X177184000Y-49885939D01*
X177184000Y-49682061D01*
X177144226Y-49482102D01*
X177066205Y-49293744D01*
X176952937Y-49124226D01*
X176808774Y-48980063D01*
X176639256Y-48866795D01*
X176450898Y-48788774D01*
X176250939Y-48749000D01*
X176047061Y-48749000D01*
X175847102Y-48788774D01*
X175658744Y-48866795D01*
X175489226Y-48980063D01*
X175345063Y-49124226D01*
X175231795Y-49293744D01*
X175153774Y-49482102D01*
X175124908Y-49627225D01*
X174063574Y-50688559D01*
X174031710Y-50714709D01*
X173971492Y-50788085D01*
X173927364Y-50841855D01*
X173849828Y-50986914D01*
X173802082Y-51144312D01*
X173785960Y-51308000D01*
X173790001Y-51349028D01*
X173790000Y-52772132D01*
X170247133Y-56315000D01*
X168954007Y-56315000D01*
X168912999Y-56310961D01*
X168871991Y-56315000D01*
X168871981Y-56315000D01*
X168749311Y-56327082D01*
X168591913Y-56374828D01*
X168446854Y-56452364D01*
X168319709Y-56556709D01*
X168293561Y-56588571D01*
X168282204Y-56599928D01*
X167725000Y-56599928D01*
X167600518Y-56612188D01*
X167480820Y-56648498D01*
X167370506Y-56707463D01*
X167273815Y-56786815D01*
X167194463Y-56883506D01*
X167135498Y-56993820D01*
X167099188Y-57113518D01*
X167086928Y-57238000D01*
X167086928Y-58338000D01*
X167099188Y-58462482D01*
X167135498Y-58582180D01*
X167153073Y-58615060D01*
X167036533Y-58731600D01*
X166966942Y-58674488D01*
X166815567Y-58593577D01*
X166651316Y-58543752D01*
X166480500Y-58526928D01*
X166005500Y-58526928D01*
X165834684Y-58543752D01*
X165670433Y-58593577D01*
X165519058Y-58674488D01*
X165386377Y-58783377D01*
X165374186Y-58798231D01*
X165320405Y-58697614D01*
X165209962Y-58563038D01*
X165075386Y-58452595D01*
X164921850Y-58370528D01*
X164755254Y-58319992D01*
X164582000Y-58302928D01*
X163332000Y-58302928D01*
X163158746Y-58319992D01*
X162992150Y-58370528D01*
X162838614Y-58452595D01*
X162704038Y-58563038D01*
X162593595Y-58697614D01*
X162511528Y-58851150D01*
X162460992Y-59017746D01*
X162443928Y-59191000D01*
X157555000Y-59191000D01*
X157555000Y-55433857D01*
X157575290Y-55450509D01*
X157763780Y-55551259D01*
X157968303Y-55613300D01*
X158127706Y-55629000D01*
X159034294Y-55629000D01*
X159193697Y-55613300D01*
X159398220Y-55551259D01*
X159586710Y-55450509D01*
X159751922Y-55314922D01*
X159760886Y-55304000D01*
X160431114Y-55304000D01*
X160440078Y-55314922D01*
X160605290Y-55450509D01*
X160793780Y-55551259D01*
X160998303Y-55613300D01*
X161157706Y-55629000D01*
X162670422Y-55629000D01*
X162593595Y-55722614D01*
X162511528Y-55876150D01*
X162460992Y-56042746D01*
X162443928Y-56216000D01*
X162443928Y-57141000D01*
X162460992Y-57314254D01*
X162511528Y-57480850D01*
X162593595Y-57634386D01*
X162704038Y-57768962D01*
X162838614Y-57879405D01*
X162992150Y-57961472D01*
X163158746Y-58012008D01*
X163332000Y-58029072D01*
X164582000Y-58029072D01*
X164755254Y-58012008D01*
X164921850Y-57961472D01*
X165075386Y-57879405D01*
X165209962Y-57768962D01*
X165320405Y-57634386D01*
X165402472Y-57480850D01*
X165453008Y-57314254D01*
X165470072Y-57141000D01*
X165470072Y-56216000D01*
X165453008Y-56042746D01*
X165402472Y-55876150D01*
X165320405Y-55722614D01*
X165209962Y-55588038D01*
X165075386Y-55477595D01*
X164921850Y-55395528D01*
X164792000Y-55356139D01*
X164792000Y-52906044D01*
X164796040Y-52865025D01*
X164779918Y-52701337D01*
X164732172Y-52543939D01*
X164654636Y-52398880D01*
X164642052Y-52383546D01*
X164550291Y-52271735D01*
X164518422Y-52245581D01*
X164055420Y-51782579D01*
X164029265Y-51750709D01*
X163913184Y-51655444D01*
X163917022Y-51636148D01*
X163952855Y-51650990D01*
X164123835Y-51685000D01*
X164298165Y-51685000D01*
X164469145Y-51650990D01*
X164630205Y-51584277D01*
X164775155Y-51487424D01*
X164898424Y-51364155D01*
X164990069Y-51227000D01*
X166594553Y-51227000D01*
X167253745Y-51886193D01*
X167276761Y-51914238D01*
X167388679Y-52006087D01*
X167516366Y-52074337D01*
X167654914Y-52116365D01*
X167713900Y-52122175D01*
X167723188Y-52216482D01*
X167759498Y-52336180D01*
X167818463Y-52446494D01*
X167897815Y-52543185D01*
X167994506Y-52622537D01*
X168104820Y-52681502D01*
X168224518Y-52717812D01*
X168349000Y-52730072D01*
X169349000Y-52730072D01*
X169473482Y-52717812D01*
X169593180Y-52681502D01*
X169659000Y-52646320D01*
X169724820Y-52681502D01*
X169844518Y-52717812D01*
X169969000Y-52730072D01*
X170283250Y-52727000D01*
X170442000Y-52568250D01*
X170442000Y-51519000D01*
X170422000Y-51519000D01*
X170422000Y-51265000D01*
X170442000Y-51265000D01*
X170442000Y-51245000D01*
X170696000Y-51245000D01*
X170696000Y-51265000D01*
X170716000Y-51265000D01*
X170716000Y-51519000D01*
X170696000Y-51519000D01*
X170696000Y-52568250D01*
X170804941Y-52677191D01*
X169518225Y-53963907D01*
X169373102Y-53992774D01*
X169304422Y-54021222D01*
X169276185Y-53986815D01*
X169179494Y-53907463D01*
X169069180Y-53848498D01*
X168949482Y-53812188D01*
X168825000Y-53799928D01*
X167725000Y-53799928D01*
X167600518Y-53812188D01*
X167480820Y-53848498D01*
X167370506Y-53907463D01*
X167273815Y-53986815D01*
X167194463Y-54083506D01*
X167135498Y-54193820D01*
X167099188Y-54313518D01*
X167086928Y-54438000D01*
X167086928Y-55538000D01*
X167099188Y-55662482D01*
X167135498Y-55782180D01*
X167194463Y-55892494D01*
X167273815Y-55989185D01*
X167370506Y-56068537D01*
X167480820Y-56127502D01*
X167600518Y-56163812D01*
X167725000Y-56176072D01*
X168825000Y-56176072D01*
X168949482Y-56163812D01*
X169069180Y-56127502D01*
X169179494Y-56068537D01*
X169276185Y-55989185D01*
X169304422Y-55954778D01*
X169373102Y-55983226D01*
X169573061Y-56023000D01*
X169776939Y-56023000D01*
X169976898Y-55983226D01*
X170165256Y-55905205D01*
X170334774Y-55791937D01*
X170478937Y-55647774D01*
X170592205Y-55478256D01*
X170670226Y-55289898D01*
X170699093Y-55144775D01*
X172392428Y-53451440D01*
X172424291Y-53425291D01*
X172528636Y-53298146D01*
X172606172Y-53153087D01*
X172653918Y-52995689D01*
X172666000Y-52873019D01*
X172666000Y-52873009D01*
X172670039Y-52832001D01*
X172666000Y-52790993D01*
X172666000Y-50333018D01*
X172670040Y-50291999D01*
X172653918Y-50128311D01*
X172606172Y-49970913D01*
X172528636Y-49825854D01*
X172494287Y-49784000D01*
X172424291Y-49698709D01*
X172392426Y-49672558D01*
X171887072Y-49167204D01*
X171887072Y-48492000D01*
X171874812Y-48367518D01*
X171838502Y-48247820D01*
X171816050Y-48205817D01*
X173212868Y-46809000D01*
X174583982Y-46809000D01*
X174625000Y-46813040D01*
X174666018Y-46809000D01*
X174666019Y-46809000D01*
X174788689Y-46796918D01*
X174946087Y-46749172D01*
X175091146Y-46671636D01*
X175218291Y-46567291D01*
X175244446Y-46535421D01*
X175329993Y-46449874D01*
X176803603Y-46449874D01*
X176803603Y-46674380D01*
X176970606Y-46845728D01*
X177067297Y-46925081D01*
X177177612Y-46984045D01*
X177297310Y-47020354D01*
X177421791Y-47032615D01*
X177546273Y-47020354D01*
X177665971Y-46984045D01*
X177776285Y-46925081D01*
X177872976Y-46845728D01*
X178004624Y-46709736D01*
X178004624Y-46485229D01*
X177386436Y-45867041D01*
X176803603Y-46449874D01*
X175329993Y-46449874D01*
X176049016Y-45730852D01*
X176053518Y-45776562D01*
X176089827Y-45896260D01*
X176148791Y-46006575D01*
X176228144Y-46103266D01*
X176399492Y-46270269D01*
X176623998Y-46270269D01*
X177206831Y-45687436D01*
X177566041Y-45687436D01*
X178184229Y-46305624D01*
X178408736Y-46305624D01*
X178544728Y-46173976D01*
X178624081Y-46077285D01*
X178683045Y-45966971D01*
X178719354Y-45847273D01*
X178731615Y-45722791D01*
X178719354Y-45598310D01*
X178683045Y-45478612D01*
X178624081Y-45368297D01*
X178544728Y-45271606D01*
X178373380Y-45104603D01*
X178148874Y-45104603D01*
X177566041Y-45687436D01*
X177206831Y-45687436D01*
X177192689Y-45673294D01*
X177372294Y-45493689D01*
X177386436Y-45507831D01*
X177969269Y-44924998D01*
X177969269Y-44700492D01*
X177802266Y-44529144D01*
X177705575Y-44449791D01*
X177595260Y-44390827D01*
X177475562Y-44354518D01*
X177429853Y-44350016D01*
X178018869Y-43761000D01*
X180425982Y-43761000D01*
X180467000Y-43765040D01*
X180508018Y-43761000D01*
X180508019Y-43761000D01*
X180630689Y-43748918D01*
X180788087Y-43701172D01*
X180933146Y-43623636D01*
X181060291Y-43519291D01*
X181086446Y-43487421D01*
X181639775Y-42934093D01*
X181784898Y-42905226D01*
X181973256Y-42827205D01*
X182142774Y-42713937D01*
X182286937Y-42569774D01*
X182400205Y-42400256D01*
X182478226Y-42211898D01*
X182518000Y-42011939D01*
X182518000Y-41808061D01*
X182478226Y-41608102D01*
X182400205Y-41419744D01*
X182286937Y-41250226D01*
X182142774Y-41106063D01*
X181973256Y-40992795D01*
X181784898Y-40914774D01*
X181584939Y-40875000D01*
X181381061Y-40875000D01*
X181181102Y-40914774D01*
X180992744Y-40992795D01*
X180823226Y-41106063D01*
X180679063Y-41250226D01*
X180565795Y-41419744D01*
X180487774Y-41608102D01*
X180458907Y-41753225D01*
X180121133Y-42091000D01*
X177714018Y-42091000D01*
X177673000Y-42086960D01*
X177509311Y-42103082D01*
X177351913Y-42150828D01*
X177206854Y-42228364D01*
X177111812Y-42306363D01*
X177079709Y-42332709D01*
X177053563Y-42364568D01*
X176205853Y-43212279D01*
X176113645Y-43203197D01*
X175942829Y-43220021D01*
X175778578Y-43269846D01*
X175627203Y-43350757D01*
X175494522Y-43459646D01*
X175158646Y-43795522D01*
X175049757Y-43928203D01*
X174968846Y-44079578D01*
X174919021Y-44243829D01*
X174902197Y-44414645D01*
X174911279Y-44506854D01*
X174279133Y-45139000D01*
X172908007Y-45139000D01*
X172866999Y-45134961D01*
X172825991Y-45139000D01*
X172825981Y-45139000D01*
X172703311Y-45151082D01*
X172545913Y-45198828D01*
X172400854Y-45276364D01*
X172273709Y-45380709D01*
X172247561Y-45412571D01*
X170187574Y-47472559D01*
X170155710Y-47498709D01*
X170109711Y-47554759D01*
X170051364Y-47625855D01*
X169973828Y-47770914D01*
X169926082Y-47928312D01*
X169924390Y-47945489D01*
X169894506Y-47961463D01*
X169799000Y-48039842D01*
X169703494Y-47961463D01*
X169593180Y-47902498D01*
X169473482Y-47866188D01*
X169349000Y-47853928D01*
X168349000Y-47853928D01*
X168224518Y-47866188D01*
X168104820Y-47902498D01*
X167994506Y-47961463D01*
X167897815Y-48040815D01*
X167818463Y-48137506D01*
X167759498Y-48247820D01*
X167723188Y-48367518D01*
X167713900Y-48461825D01*
X167654914Y-48467635D01*
X167516366Y-48509663D01*
X167388679Y-48577913D01*
X167276761Y-48669762D01*
X167253745Y-48697807D01*
X166594553Y-49357000D01*
X165578442Y-49357000D01*
X165611990Y-49276008D01*
X165630960Y-49180641D01*
X165669087Y-49134183D01*
X165737337Y-49006496D01*
X165779365Y-48867948D01*
X165790000Y-48759968D01*
X165793556Y-48723863D01*
X165790000Y-48687758D01*
X165790000Y-48003290D01*
X167138291Y-46655000D01*
X169337739Y-46655000D01*
X169373844Y-46658556D01*
X169409949Y-46655000D01*
X169517929Y-46644365D01*
X169656477Y-46602337D01*
X169784164Y-46534087D01*
X169896082Y-46442238D01*
X169919102Y-46414188D01*
X170549193Y-45784098D01*
X170577238Y-45761082D01*
X170669087Y-45649164D01*
X170737337Y-45521477D01*
X170774865Y-45397763D01*
X170779365Y-45382930D01*
X170793556Y-45238845D01*
X170790000Y-45202740D01*
X170790000Y-44450301D01*
X170794087Y-44445321D01*
X170852749Y-44335572D01*
X171030000Y-44335572D01*
X171154482Y-44323312D01*
X171157120Y-44322512D01*
X171248250Y-44332500D01*
X171316218Y-44264532D01*
X171384494Y-44228037D01*
X171481185Y-44148685D01*
X171553000Y-44061178D01*
X171553000Y-44173750D01*
X171711750Y-44332500D01*
X171814474Y-44321241D01*
X171933576Y-44283021D01*
X172034610Y-44226921D01*
X172035799Y-44227716D01*
X172283303Y-44330236D01*
X172546052Y-44382500D01*
X172813948Y-44382500D01*
X173076697Y-44330236D01*
X173324201Y-44227716D01*
X173546949Y-44078881D01*
X173736381Y-43889449D01*
X173885216Y-43666701D01*
X173987736Y-43419197D01*
X174040000Y-43156448D01*
X174040000Y-42888552D01*
X174014906Y-42762396D01*
X174191004Y-42586298D01*
X174220001Y-42562501D01*
X174314974Y-42446776D01*
X174385546Y-42314747D01*
X174429003Y-42171486D01*
X174440000Y-42059833D01*
X174440000Y-42059832D01*
X174443677Y-42022500D01*
X174440000Y-41985167D01*
X174440000Y-41646433D01*
X174557502Y-41550002D01*
X174711833Y-41361949D01*
X174826511Y-41147401D01*
X174897130Y-40914601D01*
X174915000Y-40733164D01*
X174915000Y-39911835D01*
X174897130Y-39730398D01*
X174826511Y-39497599D01*
X174798396Y-39445000D01*
X201635909Y-39445000D01*
X203760000Y-41569092D01*
G37*
X203760000Y-41569092D02*
X203760001Y-60925115D01*
X203756565Y-60960000D01*
X203770274Y-61099184D01*
X203810872Y-61233019D01*
X203810873Y-61233020D01*
X203876801Y-61356363D01*
X203965526Y-61464475D01*
X203992617Y-61486708D01*
X204989402Y-62483493D01*
X202446894Y-65026000D01*
X195836325Y-65026000D01*
X195799000Y-65022324D01*
X195761675Y-65026000D01*
X195761667Y-65026000D01*
X195650014Y-65036997D01*
X195506753Y-65080454D01*
X195374724Y-65151026D01*
X195258999Y-65245999D01*
X195235201Y-65274997D01*
X194120948Y-66389250D01*
X184742040Y-66389250D01*
X184749262Y-66382028D01*
X184851586Y-66228889D01*
X184922068Y-66058729D01*
X184958000Y-65878089D01*
X184958000Y-65693911D01*
X184922068Y-65513271D01*
X184851586Y-65343111D01*
X184749262Y-65189972D01*
X184619028Y-65059738D01*
X184465889Y-64957414D01*
X184295729Y-64886932D01*
X184115089Y-64851000D01*
X183930911Y-64851000D01*
X183750271Y-64886932D01*
X183580111Y-64957414D01*
X183477465Y-65026000D01*
X183261383Y-65026000D01*
X183259000Y-65001800D01*
X183259000Y-62636061D01*
X184766000Y-62636061D01*
X184766000Y-62839939D01*
X184805774Y-63039898D01*
X184883795Y-63228256D01*
X184997063Y-63397774D01*
X185141226Y-63541937D01*
X185310744Y-63655205D01*
X185499102Y-63733226D01*
X185699061Y-63773000D01*
X185902939Y-63773000D01*
X186102898Y-63733226D01*
X186291256Y-63655205D01*
X186414285Y-63573000D01*
X187029982Y-63573000D01*
X187071000Y-63577040D01*
X187112018Y-63573000D01*
X187112019Y-63573000D01*
X187234689Y-63560918D01*
X187392087Y-63513172D01*
X187537146Y-63435636D01*
X187664291Y-63331291D01*
X187690445Y-63299422D01*
X188178868Y-62811000D01*
X191872043Y-62811000D01*
X191882463Y-62830494D01*
X191961815Y-62927185D01*
X192058506Y-63006537D01*
X192168820Y-63065502D01*
X192288518Y-63101812D01*
X192413000Y-63114072D01*
X193413000Y-63114072D01*
X193537482Y-63101812D01*
X193657180Y-63065502D01*
X193767494Y-63006537D01*
X193864185Y-62927185D01*
X193943537Y-62830494D01*
X194002502Y-62720180D01*
X194038812Y-62600482D01*
X194051072Y-62476000D01*
X194314928Y-62476000D01*
X194327188Y-62600482D01*
X194363498Y-62720180D01*
X194422463Y-62830494D01*
X194501815Y-62927185D01*
X194598506Y-63006537D01*
X194708820Y-63065502D01*
X194828518Y-63101812D01*
X194953000Y-63114072D01*
X195167250Y-63111000D01*
X195326000Y-62952250D01*
X195326000Y-62103000D01*
X195580000Y-62103000D01*
X195580000Y-62952250D01*
X195738750Y-63111000D01*
X195953000Y-63114072D01*
X196077482Y-63101812D01*
X196197180Y-63065502D01*
X196307494Y-63006537D01*
X196404185Y-62927185D01*
X196483537Y-62830494D01*
X196542502Y-62720180D01*
X196578812Y-62600482D01*
X196591072Y-62476000D01*
X196588000Y-62261750D01*
X196429250Y-62103000D01*
X195580000Y-62103000D01*
X195326000Y-62103000D01*
X194476750Y-62103000D01*
X194318000Y-62261750D01*
X194314928Y-62476000D01*
X194051072Y-62476000D01*
X194051072Y-61476000D01*
X194314928Y-61476000D01*
X194318000Y-61690250D01*
X194476750Y-61849000D01*
X195326000Y-61849000D01*
X195326000Y-60999750D01*
X195580000Y-60999750D01*
X195580000Y-61849000D01*
X196429250Y-61849000D01*
X196588000Y-61690250D01*
X196591072Y-61476000D01*
X196578812Y-61351518D01*
X196542502Y-61231820D01*
X196483537Y-61121506D01*
X196404185Y-61024815D01*
X196307494Y-60945463D01*
X196197180Y-60886498D01*
X196077482Y-60850188D01*
X195953000Y-60837928D01*
X195738750Y-60841000D01*
X195580000Y-60999750D01*
X195326000Y-60999750D01*
X195167250Y-60841000D01*
X194953000Y-60837928D01*
X194828518Y-60850188D01*
X194708820Y-60886498D01*
X194598506Y-60945463D01*
X194501815Y-61024815D01*
X194422463Y-61121506D01*
X194363498Y-61231820D01*
X194327188Y-61351518D01*
X194314928Y-61476000D01*
X194051072Y-61476000D01*
X194038812Y-61351518D01*
X194002502Y-61231820D01*
X193943537Y-61121506D01*
X193864185Y-61024815D01*
X193767494Y-60945463D01*
X193657180Y-60886498D01*
X193537482Y-60850188D01*
X193413000Y-60837928D01*
X192413000Y-60837928D01*
X192288518Y-60850188D01*
X192168820Y-60886498D01*
X192058506Y-60945463D01*
X191961815Y-61024815D01*
X191882463Y-61121506D01*
X191872043Y-61141000D01*
X187874018Y-61141000D01*
X187833000Y-61136960D01*
X187791982Y-61141000D01*
X187791981Y-61141000D01*
X187669311Y-61153082D01*
X187648792Y-61159306D01*
X187641919Y-61089518D01*
X187605609Y-60969820D01*
X187546644Y-60859506D01*
X187467292Y-60762815D01*
X186760185Y-60055708D01*
X186663494Y-59976356D01*
X186553180Y-59917391D01*
X186433482Y-59881081D01*
X186309000Y-59868821D01*
X186184518Y-59881081D01*
X186064820Y-59917391D01*
X185954506Y-59976356D01*
X185857815Y-60055708D01*
X185150708Y-60762815D01*
X185071356Y-60859506D01*
X185012391Y-60969820D01*
X184976081Y-61089518D01*
X184963821Y-61214000D01*
X184976081Y-61338482D01*
X185012391Y-61458180D01*
X185071356Y-61568494D01*
X185150708Y-61665185D01*
X185308091Y-61822568D01*
X185141226Y-61934063D01*
X184997063Y-62078226D01*
X184883795Y-62247744D01*
X184805774Y-62436102D01*
X184766000Y-62636061D01*
X183259000Y-62636061D01*
X183259000Y-60457921D01*
X183772002Y-59944919D01*
X183801001Y-59921121D01*
X183895974Y-59805396D01*
X183966546Y-59673367D01*
X184010003Y-59530106D01*
X184021000Y-59418453D01*
X184021000Y-59418445D01*
X184024676Y-59381120D01*
X184021000Y-59343795D01*
X184021000Y-58814396D01*
X184184911Y-58847000D01*
X184369089Y-58847000D01*
X184549729Y-58811068D01*
X184719889Y-58740586D01*
X184873028Y-58638262D01*
X185003262Y-58508028D01*
X185105586Y-58354889D01*
X185176068Y-58184729D01*
X185212000Y-58004089D01*
X185212000Y-57819911D01*
X185176068Y-57639271D01*
X185105586Y-57469111D01*
X185003262Y-57315972D01*
X184873028Y-57185738D01*
X184719889Y-57083414D01*
X184549729Y-57012932D01*
X184529000Y-57008809D01*
X184529000Y-56698802D01*
X185237205Y-57407008D01*
X185260999Y-57436001D01*
X185289992Y-57459795D01*
X185289996Y-57459799D01*
X185329268Y-57492028D01*
X185376724Y-57530974D01*
X185508753Y-57601546D01*
X185652014Y-57645003D01*
X185763667Y-57656000D01*
X185763676Y-57656000D01*
X185800999Y-57659676D01*
X185838322Y-57656000D01*
X188788199Y-57656000D01*
X189019196Y-57886997D01*
X189042999Y-57916001D01*
X189143606Y-57998567D01*
X189158724Y-58010974D01*
X189290753Y-58081546D01*
X189386445Y-58110573D01*
X189407488Y-58149942D01*
X189516377Y-58282623D01*
X189649058Y-58391512D01*
X189800433Y-58472423D01*
X189964684Y-58522248D01*
X190135500Y-58539072D01*
X190610500Y-58539072D01*
X190781316Y-58522248D01*
X190887297Y-58490099D01*
X191577401Y-59180202D01*
X191576928Y-59185000D01*
X191576928Y-60185000D01*
X191589188Y-60309482D01*
X191625498Y-60429180D01*
X191684463Y-60539494D01*
X191763815Y-60636185D01*
X191860506Y-60715537D01*
X191970820Y-60774502D01*
X192090518Y-60810812D01*
X192215000Y-60823072D01*
X193915000Y-60823072D01*
X194039482Y-60810812D01*
X194159180Y-60774502D01*
X194269494Y-60715537D01*
X194366185Y-60636185D01*
X194445537Y-60539494D01*
X194496046Y-60445000D01*
X197933954Y-60445000D01*
X197984463Y-60539494D01*
X198063815Y-60636185D01*
X198160506Y-60715537D01*
X198270820Y-60774502D01*
X198390518Y-60810812D01*
X198515000Y-60823072D01*
X200215000Y-60823072D01*
X200339482Y-60810812D01*
X200459180Y-60774502D01*
X200569494Y-60715537D01*
X200666185Y-60636185D01*
X200745537Y-60539494D01*
X200804502Y-60429180D01*
X200840812Y-60309482D01*
X200853072Y-60185000D01*
X200853072Y-59185000D01*
X200840812Y-59060518D01*
X200804502Y-58940820D01*
X200745537Y-58830506D01*
X200666185Y-58733815D01*
X200569494Y-58654463D01*
X200459180Y-58595498D01*
X200339482Y-58559188D01*
X200215000Y-58546928D01*
X200089710Y-58546928D01*
X200070546Y-58483753D01*
X200043416Y-58432997D01*
X199999974Y-58351724D01*
X199905001Y-58235999D01*
X199875997Y-58212196D01*
X199678153Y-58014352D01*
X199654068Y-57893271D01*
X199583586Y-57723111D01*
X199481262Y-57569972D01*
X199351028Y-57439738D01*
X199197889Y-57337414D01*
X199027729Y-57266932D01*
X198847089Y-57231000D01*
X198662911Y-57231000D01*
X198482271Y-57266932D01*
X198312111Y-57337414D01*
X198158972Y-57439738D01*
X198028738Y-57569972D01*
X197926414Y-57723111D01*
X197855932Y-57893271D01*
X197820000Y-58073911D01*
X197820000Y-58258089D01*
X197855932Y-58438729D01*
X197926414Y-58608889D01*
X198028738Y-58762028D01*
X198035287Y-58768577D01*
X197984463Y-58830506D01*
X197933954Y-58925000D01*
X194496046Y-58925000D01*
X194445537Y-58830506D01*
X194366185Y-58733815D01*
X194269494Y-58654463D01*
X194159180Y-58595498D01*
X194039482Y-58559188D01*
X193915000Y-58546928D01*
X193774543Y-58546928D01*
X193770546Y-58533753D01*
X193699974Y-58401724D01*
X193605001Y-58285999D01*
X193576003Y-58262201D01*
X193476803Y-58163001D01*
X193453001Y-58133999D01*
X193337276Y-58039026D01*
X193205247Y-57968454D01*
X193061986Y-57924997D01*
X192950333Y-57914000D01*
X192950322Y-57914000D01*
X192913000Y-57910324D01*
X192875678Y-57914000D01*
X192460802Y-57914000D01*
X191469768Y-56922967D01*
X191469248Y-56917684D01*
X191419423Y-56753433D01*
X191338512Y-56602058D01*
X191255575Y-56501000D01*
X191338512Y-56399942D01*
X191346498Y-56385000D01*
X191576928Y-56385000D01*
X191589188Y-56509482D01*
X191625498Y-56629180D01*
X191684463Y-56739494D01*
X191763815Y-56836185D01*
X191860506Y-56915537D01*
X191970820Y-56974502D01*
X192090518Y-57010812D01*
X192215000Y-57023072D01*
X192779250Y-57020000D01*
X192938000Y-56861250D01*
X192938000Y-56012000D01*
X193192000Y-56012000D01*
X193192000Y-56861250D01*
X193350750Y-57020000D01*
X193915000Y-57023072D01*
X194039482Y-57010812D01*
X194159180Y-56974502D01*
X194269494Y-56915537D01*
X194366185Y-56836185D01*
X194445537Y-56739494D01*
X194504502Y-56629180D01*
X194540812Y-56509482D01*
X194553072Y-56385000D01*
X197876928Y-56385000D01*
X197889188Y-56509482D01*
X197925498Y-56629180D01*
X197984463Y-56739494D01*
X198063815Y-56836185D01*
X198160506Y-56915537D01*
X198270820Y-56974502D01*
X198390518Y-57010812D01*
X198515000Y-57023072D01*
X199079250Y-57020000D01*
X199238000Y-56861250D01*
X199238000Y-56012000D01*
X199492000Y-56012000D01*
X199492000Y-56861250D01*
X199650750Y-57020000D01*
X200215000Y-57023072D01*
X200339482Y-57010812D01*
X200459180Y-56974502D01*
X200569494Y-56915537D01*
X200666185Y-56836185D01*
X200745537Y-56739494D01*
X200804502Y-56629180D01*
X200840812Y-56509482D01*
X200853072Y-56385000D01*
X200850000Y-56170750D01*
X200691250Y-56012000D01*
X199492000Y-56012000D01*
X199238000Y-56012000D01*
X198038750Y-56012000D01*
X197880000Y-56170750D01*
X197876928Y-56385000D01*
X194553072Y-56385000D01*
X194550000Y-56170750D01*
X194391250Y-56012000D01*
X193192000Y-56012000D01*
X192938000Y-56012000D01*
X191738750Y-56012000D01*
X191580000Y-56170750D01*
X191576928Y-56385000D01*
X191346498Y-56385000D01*
X191419423Y-56248567D01*
X191469248Y-56084316D01*
X191486072Y-55913500D01*
X191486072Y-55385000D01*
X191576928Y-55385000D01*
X191580000Y-55599250D01*
X191738750Y-55758000D01*
X192938000Y-55758000D01*
X192938000Y-54908750D01*
X193192000Y-54908750D01*
X193192000Y-55758000D01*
X194391250Y-55758000D01*
X194550000Y-55599250D01*
X194553072Y-55385000D01*
X197876928Y-55385000D01*
X197880000Y-55599250D01*
X198038750Y-55758000D01*
X199238000Y-55758000D01*
X199238000Y-54908750D01*
X199492000Y-54908750D01*
X199492000Y-55758000D01*
X200691250Y-55758000D01*
X200850000Y-55599250D01*
X200853072Y-55385000D01*
X200840812Y-55260518D01*
X200804502Y-55140820D01*
X200745537Y-55030506D01*
X200666185Y-54933815D01*
X200569494Y-54854463D01*
X200459180Y-54795498D01*
X200339482Y-54759188D01*
X200215000Y-54746928D01*
X199650750Y-54750000D01*
X199492000Y-54908750D01*
X199238000Y-54908750D01*
X199079250Y-54750000D01*
X198515000Y-54746928D01*
X198390518Y-54759188D01*
X198270820Y-54795498D01*
X198160506Y-54854463D01*
X198063815Y-54933815D01*
X197984463Y-55030506D01*
X197925498Y-55140820D01*
X197889188Y-55260518D01*
X197876928Y-55385000D01*
X194553072Y-55385000D01*
X194540812Y-55260518D01*
X194504502Y-55140820D01*
X194445537Y-55030506D01*
X194366185Y-54933815D01*
X194269494Y-54854463D01*
X194159180Y-54795498D01*
X194039482Y-54759188D01*
X193915000Y-54746928D01*
X193350750Y-54750000D01*
X193192000Y-54908750D01*
X192938000Y-54908750D01*
X192779250Y-54750000D01*
X192215000Y-54746928D01*
X192090518Y-54759188D01*
X191970820Y-54795498D01*
X191860506Y-54854463D01*
X191763815Y-54933815D01*
X191684463Y-55030506D01*
X191625498Y-55140820D01*
X191589188Y-55260518D01*
X191576928Y-55385000D01*
X191486072Y-55385000D01*
X191486072Y-55338500D01*
X191469248Y-55167684D01*
X191419423Y-55003433D01*
X191338512Y-54852058D01*
X191229623Y-54719377D01*
X191096942Y-54610488D01*
X190945567Y-54529577D01*
X190781316Y-54479752D01*
X190610500Y-54462928D01*
X190324873Y-54462928D01*
X191195802Y-53592000D01*
X191836199Y-53592000D01*
X192595215Y-54351018D01*
X192619009Y-54380011D01*
X192648002Y-54403805D01*
X192648006Y-54403809D01*
X192699796Y-54446311D01*
X192734734Y-54474984D01*
X192866763Y-54545556D01*
X193010024Y-54589013D01*
X193121677Y-54600010D01*
X193121686Y-54600010D01*
X193159009Y-54603686D01*
X193196332Y-54600010D01*
X197201668Y-54600010D01*
X197238990Y-54603686D01*
X197276312Y-54600010D01*
X197276323Y-54600010D01*
X197387976Y-54589013D01*
X197531237Y-54545556D01*
X197663266Y-54474984D01*
X197778991Y-54380011D01*
X197802794Y-54351007D01*
X198815802Y-53338000D01*
X198971465Y-53338000D01*
X199074111Y-53406586D01*
X199244271Y-53477068D01*
X199424911Y-53513000D01*
X199609089Y-53513000D01*
X199789729Y-53477068D01*
X199959889Y-53406586D01*
X200113028Y-53304262D01*
X200243262Y-53174028D01*
X200345586Y-53020889D01*
X200416068Y-52850729D01*
X200452000Y-52670089D01*
X200452000Y-52485911D01*
X200416068Y-52305271D01*
X200345586Y-52135111D01*
X200243262Y-51981972D01*
X200113028Y-51851738D01*
X199959889Y-51749414D01*
X199789729Y-51678932D01*
X199748508Y-51670733D01*
X199774004Y-51645237D01*
X199803001Y-51621440D01*
X199897974Y-51505715D01*
X199968546Y-51373686D01*
X200012003Y-51230425D01*
X200023000Y-51118772D01*
X200023000Y-51118771D01*
X200026677Y-51081439D01*
X200023000Y-51044106D01*
X200023000Y-49059535D01*
X200091586Y-48956889D01*
X200162068Y-48786729D01*
X200198000Y-48606089D01*
X200198000Y-48421911D01*
X200162068Y-48241271D01*
X200091586Y-48071111D01*
X199989262Y-47917972D01*
X199859028Y-47787738D01*
X199705889Y-47685414D01*
X199535729Y-47614932D01*
X199355089Y-47579000D01*
X199170911Y-47579000D01*
X198990271Y-47614932D01*
X198820111Y-47685414D01*
X198666972Y-47787738D01*
X198536738Y-47917972D01*
X198434414Y-48071111D01*
X198363932Y-48241271D01*
X198328000Y-48421911D01*
X198328000Y-48558488D01*
X198115000Y-48537509D01*
X197892501Y-48559423D01*
X197678553Y-48624324D01*
X197566190Y-48684383D01*
X197600000Y-48514411D01*
X197600000Y-48241589D01*
X197546775Y-47974011D01*
X197442371Y-47721957D01*
X197290799Y-47495114D01*
X197097886Y-47302201D01*
X196871043Y-47150629D01*
X196618989Y-47046225D01*
X196351411Y-46993000D01*
X196078589Y-46993000D01*
X195811011Y-47046225D01*
X195558957Y-47150629D01*
X195332114Y-47302201D01*
X195199000Y-47435315D01*
X195065886Y-47302201D01*
X194839043Y-47150629D01*
X194586989Y-47046225D01*
X194319411Y-46993000D01*
X194046589Y-46993000D01*
X193779011Y-47046225D01*
X193526957Y-47150629D01*
X193300114Y-47302201D01*
X193107201Y-47495114D01*
X192955629Y-47721957D01*
X192851225Y-47974011D01*
X192798000Y-48241589D01*
X192798000Y-48514411D01*
X192831810Y-48684383D01*
X192719447Y-48624324D01*
X192505499Y-48559423D01*
X192283000Y-48537509D01*
X192060502Y-48559423D01*
X191846554Y-48624324D01*
X191649378Y-48729716D01*
X191476552Y-48871551D01*
X191334717Y-49044377D01*
X191229324Y-49241553D01*
X191164423Y-49455501D01*
X191150059Y-49601341D01*
X191137559Y-49616573D01*
X188249133Y-52505000D01*
X187112015Y-52505000D01*
X187070999Y-52500960D01*
X187029983Y-52505000D01*
X187029981Y-52505000D01*
X186907311Y-52517082D01*
X186749913Y-52564828D01*
X186604854Y-52642364D01*
X186477709Y-52746709D01*
X186451561Y-52778571D01*
X185239579Y-53990554D01*
X185207709Y-54016709D01*
X185123168Y-54119724D01*
X185103364Y-54143855D01*
X185025828Y-54288914D01*
X184978082Y-54446312D01*
X184961960Y-54610000D01*
X184966000Y-54651019D01*
X184966000Y-54986198D01*
X183824804Y-53845003D01*
X183801001Y-53815999D01*
X183685276Y-53721026D01*
X183553247Y-53650454D01*
X183409986Y-53606997D01*
X183298333Y-53596000D01*
X183298322Y-53596000D01*
X183261000Y-53592324D01*
X183223678Y-53596000D01*
X181289802Y-53596000D01*
X181136153Y-53442351D01*
X181112068Y-53321271D01*
X181041586Y-53151111D01*
X180939262Y-52997972D01*
X180809028Y-52867738D01*
X180655889Y-52765414D01*
X180485729Y-52694932D01*
X180305089Y-52659000D01*
X180120911Y-52659000D01*
X179940271Y-52694932D01*
X179770111Y-52765414D01*
X179616972Y-52867738D01*
X179486738Y-52997972D01*
X179384414Y-53151111D01*
X179313932Y-53321271D01*
X179278000Y-53501911D01*
X179278000Y-53686089D01*
X179313932Y-53866729D01*
X179384414Y-54036889D01*
X179486738Y-54190028D01*
X179616972Y-54320262D01*
X179770111Y-54422586D01*
X179940271Y-54493068D01*
X180061351Y-54517153D01*
X180411201Y-54867002D01*
X180434999Y-54896001D01*
X180550724Y-54990974D01*
X180682753Y-55061546D01*
X180826014Y-55105003D01*
X180937667Y-55116000D01*
X180937675Y-55116000D01*
X180975000Y-55119676D01*
X181012325Y-55116000D01*
X181705451Y-55116000D01*
X181648972Y-55153738D01*
X181518738Y-55283972D01*
X181416414Y-55437111D01*
X181345932Y-55607271D01*
X181310000Y-55787911D01*
X181310000Y-55972089D01*
X181345932Y-56152729D01*
X181416414Y-56322889D01*
X181485001Y-56425537D01*
X181485000Y-58613198D01*
X180971998Y-59126201D01*
X180943000Y-59149999D01*
X180919202Y-59178997D01*
X180919201Y-59178998D01*
X180848026Y-59265724D01*
X180777454Y-59397754D01*
X180754251Y-59474247D01*
X180733998Y-59541014D01*
X180729205Y-59589676D01*
X180719324Y-59690000D01*
X180723001Y-59727332D01*
X180723000Y-62146523D01*
X180156185Y-61579708D01*
X180059494Y-61500356D01*
X179949180Y-61441391D01*
X179829482Y-61405081D01*
X179705000Y-61392821D01*
X179580518Y-61405081D01*
X179484920Y-61434080D01*
X179513919Y-61338482D01*
X179526179Y-61214000D01*
X179513919Y-61089518D01*
X179477609Y-60969820D01*
X179418644Y-60859506D01*
X179339292Y-60762815D01*
X178632185Y-60055708D01*
X178535494Y-59976356D01*
X178425180Y-59917391D01*
X178305482Y-59881081D01*
X178181000Y-59868821D01*
X178056518Y-59881081D01*
X177936820Y-59917391D01*
X177826506Y-59976356D01*
X177729815Y-60055708D01*
X177022708Y-60762815D01*
X176943356Y-60859506D01*
X176884391Y-60969820D01*
X176848081Y-61089518D01*
X176835821Y-61214000D01*
X176848081Y-61338482D01*
X176884391Y-61458180D01*
X176943356Y-61568494D01*
X177022708Y-61665185D01*
X177729815Y-62372292D01*
X177826506Y-62451644D01*
X177936820Y-62510609D01*
X178056518Y-62546919D01*
X178181000Y-62559179D01*
X178305482Y-62546919D01*
X178401080Y-62517920D01*
X178372081Y-62613518D01*
X178359821Y-62738000D01*
X178372081Y-62862482D01*
X178401080Y-62958080D01*
X178305482Y-62929081D01*
X178181000Y-62916821D01*
X178056518Y-62929081D01*
X177936820Y-62965391D01*
X177826506Y-63024356D01*
X177729815Y-63103708D01*
X177022708Y-63810815D01*
X176943356Y-63907506D01*
X176884391Y-64017820D01*
X176848081Y-64137518D01*
X176835821Y-64262000D01*
X176848081Y-64386482D01*
X176884391Y-64506180D01*
X176943356Y-64616494D01*
X177022708Y-64713185D01*
X177081523Y-64772000D01*
X172122325Y-64772000D01*
X172085000Y-64768324D01*
X172047675Y-64772000D01*
X172047667Y-64772000D01*
X171936014Y-64782997D01*
X171792753Y-64826454D01*
X171660724Y-64897026D01*
X171544999Y-64991999D01*
X171521201Y-65020997D01*
X170155351Y-66386847D01*
X170143270Y-66389250D01*
X170051000Y-66389250D01*
X170051000Y-63560801D01*
X171072003Y-62539799D01*
X171101001Y-62516001D01*
X171195974Y-62400276D01*
X171266546Y-62268247D01*
X171310003Y-62124986D01*
X171321000Y-62013333D01*
X171321000Y-62013324D01*
X171324676Y-61976001D01*
X171321000Y-61938678D01*
X171321000Y-60004801D01*
X177168003Y-54157799D01*
X177197001Y-54134001D01*
X177252593Y-54066262D01*
X177291974Y-54018277D01*
X177362546Y-53886247D01*
X177364441Y-53880001D01*
X177406003Y-53742986D01*
X177417000Y-53631333D01*
X177417000Y-53631323D01*
X177420676Y-53594000D01*
X177417000Y-53556677D01*
X177417000Y-52578000D01*
X177671324Y-52578000D01*
X177675000Y-52615323D01*
X177675001Y-55842667D01*
X177671324Y-55880000D01*
X177675001Y-55917333D01*
X177685998Y-56028986D01*
X177697655Y-56067414D01*
X177729454Y-56172246D01*
X177800026Y-56304276D01*
X177846159Y-56360488D01*
X177895000Y-56420001D01*
X177923998Y-56443799D01*
X178527847Y-57047649D01*
X178551932Y-57168729D01*
X178622414Y-57338889D01*
X178724738Y-57492028D01*
X178854972Y-57622262D01*
X179008111Y-57724586D01*
X179178271Y-57795068D01*
X179358911Y-57831000D01*
X179543089Y-57831000D01*
X179723729Y-57795068D01*
X179893889Y-57724586D01*
X180047028Y-57622262D01*
X180177262Y-57492028D01*
X180279586Y-57338889D01*
X180350068Y-57168729D01*
X180386000Y-56988089D01*
X180386000Y-56803911D01*
X180350068Y-56623271D01*
X180279586Y-56453111D01*
X180177262Y-56299972D01*
X180047028Y-56169738D01*
X179893889Y-56067414D01*
X179723729Y-55996932D01*
X179602649Y-55972847D01*
X179195000Y-55565199D01*
X179195000Y-52892801D01*
X181797802Y-50290000D01*
X184267913Y-50290000D01*
X184279188Y-50404482D01*
X184315498Y-50524180D01*
X184374463Y-50634494D01*
X184453815Y-50731185D01*
X184550506Y-50810537D01*
X184660820Y-50869502D01*
X184780518Y-50905812D01*
X184905000Y-50918072D01*
X185905000Y-50918072D01*
X186029482Y-50905812D01*
X186055000Y-50898071D01*
X186080518Y-50905812D01*
X186205000Y-50918072D01*
X187205000Y-50918072D01*
X187329482Y-50905812D01*
X187449180Y-50869502D01*
X187559494Y-50810537D01*
X187656185Y-50731185D01*
X187735537Y-50634494D01*
X187794502Y-50524180D01*
X187830812Y-50404482D01*
X187842087Y-50290000D01*
X188303678Y-50290000D01*
X188341000Y-50293676D01*
X188378322Y-50290000D01*
X188378333Y-50290000D01*
X188489986Y-50279003D01*
X188633247Y-50235546D01*
X188765276Y-50164974D01*
X188881001Y-50070001D01*
X188904804Y-50040997D01*
X190122004Y-48823798D01*
X190151001Y-48800001D01*
X190245974Y-48684276D01*
X190316546Y-48552247D01*
X190360003Y-48408986D01*
X190371000Y-48297333D01*
X190371000Y-48297324D01*
X190374676Y-48260001D01*
X190371000Y-48222678D01*
X190371000Y-46305000D01*
X191148000Y-46305000D01*
X191148000Y-46805000D01*
X191194585Y-47023987D01*
X191282997Y-47229678D01*
X191409839Y-47414169D01*
X191570236Y-47570369D01*
X191758024Y-47692276D01*
X191981126Y-47772119D01*
X192156000Y-47645954D01*
X192156000Y-46305000D01*
X192410000Y-46305000D01*
X192410000Y-47645954D01*
X192584874Y-47772119D01*
X192807976Y-47692276D01*
X192995764Y-47570369D01*
X193156161Y-47414169D01*
X193283003Y-47229678D01*
X193371415Y-47023987D01*
X193418000Y-46805000D01*
X193418000Y-46305000D01*
X196980000Y-46305000D01*
X196980000Y-46805000D01*
X197026585Y-47023987D01*
X197114997Y-47229678D01*
X197241839Y-47414169D01*
X197402236Y-47570369D01*
X197590024Y-47692276D01*
X197813126Y-47772119D01*
X197988000Y-47645954D01*
X197988000Y-46305000D01*
X198242000Y-46305000D01*
X198242000Y-47645954D01*
X198416874Y-47772119D01*
X198639976Y-47692276D01*
X198827764Y-47570369D01*
X198988161Y-47414169D01*
X199115003Y-47229678D01*
X199203415Y-47023987D01*
X199250000Y-46805000D01*
X199250000Y-46305000D01*
X198242000Y-46305000D01*
X197988000Y-46305000D01*
X196980000Y-46305000D01*
X193418000Y-46305000D01*
X192410000Y-46305000D01*
X192156000Y-46305000D01*
X191148000Y-46305000D01*
X190371000Y-46305000D01*
X190371000Y-44764801D01*
X191180920Y-43954882D01*
X191229324Y-44114446D01*
X191334716Y-44311623D01*
X191476551Y-44484449D01*
X191649377Y-44626284D01*
X191740593Y-44675040D01*
X191570236Y-44785631D01*
X191409839Y-44941831D01*
X191282997Y-45126322D01*
X191194585Y-45332013D01*
X191148000Y-45551000D01*
X191148000Y-46051000D01*
X192156000Y-46051000D01*
X192156000Y-46031000D01*
X192410000Y-46031000D01*
X192410000Y-46051000D01*
X193418000Y-46051000D01*
X193418000Y-45551000D01*
X193371415Y-45332013D01*
X193283003Y-45126322D01*
X193156161Y-44941831D01*
X192995764Y-44785631D01*
X192825407Y-44675040D01*
X192916623Y-44626284D01*
X193089449Y-44484449D01*
X193231284Y-44311623D01*
X193336676Y-44114447D01*
X193390201Y-43938000D01*
X197007799Y-43938000D01*
X197061324Y-44114447D01*
X197166717Y-44311623D01*
X197308552Y-44484449D01*
X197481378Y-44626284D01*
X197572594Y-44675039D01*
X197402236Y-44785631D01*
X197241839Y-44941831D01*
X197114997Y-45126322D01*
X197026585Y-45332013D01*
X196980000Y-45551000D01*
X196980000Y-46051000D01*
X197988000Y-46051000D01*
X197988000Y-46031000D01*
X198242000Y-46031000D01*
X198242000Y-46051000D01*
X199250000Y-46051000D01*
X199250000Y-45551000D01*
X199203415Y-45332013D01*
X199115003Y-45126322D01*
X198988161Y-44941831D01*
X198827764Y-44785631D01*
X198657407Y-44675040D01*
X198748623Y-44626284D01*
X198921449Y-44484449D01*
X199063284Y-44311623D01*
X199168676Y-44114447D01*
X199233577Y-43900499D01*
X199250000Y-43733752D01*
X199250000Y-42622248D01*
X199233577Y-42455501D01*
X199168676Y-42241553D01*
X199063284Y-42044377D01*
X198921449Y-41871551D01*
X198748623Y-41729716D01*
X198551446Y-41624324D01*
X198337498Y-41559423D01*
X198115000Y-41537509D01*
X197892501Y-41559423D01*
X197678553Y-41624324D01*
X197566190Y-41684383D01*
X197600000Y-41514411D01*
X197600000Y-41241589D01*
X197546775Y-40974011D01*
X197442371Y-40721957D01*
X197290799Y-40495114D01*
X197097886Y-40302201D01*
X196871043Y-40150629D01*
X196618989Y-40046225D01*
X196351411Y-39993000D01*
X196078589Y-39993000D01*
X195811011Y-40046225D01*
X195558957Y-40150629D01*
X195332114Y-40302201D01*
X195199000Y-40435315D01*
X195065886Y-40302201D01*
X194839043Y-40150629D01*
X194586989Y-40046225D01*
X194319411Y-39993000D01*
X194046589Y-39993000D01*
X193779011Y-40046225D01*
X193526957Y-40150629D01*
X193300114Y-40302201D01*
X193107201Y-40495114D01*
X192955629Y-40721957D01*
X192851225Y-40974011D01*
X192798000Y-41241589D01*
X192798000Y-41514411D01*
X192831810Y-41684383D01*
X192719447Y-41624324D01*
X192505499Y-41559423D01*
X192283000Y-41537509D01*
X192060502Y-41559423D01*
X191846554Y-41624324D01*
X191649378Y-41729716D01*
X191476552Y-41871551D01*
X191334717Y-42044377D01*
X191229324Y-42241553D01*
X191175799Y-42418000D01*
X190920325Y-42418000D01*
X190883000Y-42414324D01*
X190845675Y-42418000D01*
X190845667Y-42418000D01*
X190734014Y-42428997D01*
X190590753Y-42472454D01*
X190458724Y-42543026D01*
X190342999Y-42637999D01*
X190319201Y-42666997D01*
X189099998Y-43886201D01*
X189071000Y-43909999D01*
X189047202Y-43938997D01*
X189047201Y-43938998D01*
X188976026Y-44025724D01*
X188905454Y-44157754D01*
X188875180Y-44257558D01*
X188861998Y-44301014D01*
X188853264Y-44389689D01*
X188847324Y-44450000D01*
X188851001Y-44487332D01*
X188851000Y-47945198D01*
X188026199Y-48770000D01*
X187842087Y-48770000D01*
X187830812Y-48655518D01*
X187794502Y-48535820D01*
X187735537Y-48425506D01*
X187656185Y-48328815D01*
X187559494Y-48249463D01*
X187449180Y-48190498D01*
X187329482Y-48154188D01*
X187205000Y-48141928D01*
X186205000Y-48141928D01*
X186080518Y-48154188D01*
X186055000Y-48161929D01*
X186029482Y-48154188D01*
X185905000Y-48141928D01*
X184905000Y-48141928D01*
X184780518Y-48154188D01*
X184660820Y-48190498D01*
X184550506Y-48249463D01*
X184453815Y-48328815D01*
X184374463Y-48425506D01*
X184315498Y-48535820D01*
X184279188Y-48655518D01*
X184267913Y-48770000D01*
X181520323Y-48770000D01*
X181483000Y-48766324D01*
X181445677Y-48770000D01*
X181445667Y-48770000D01*
X181334014Y-48780997D01*
X181190753Y-48824454D01*
X181058723Y-48895026D01*
X181006254Y-48938087D01*
X180942999Y-48989999D01*
X180919201Y-49018997D01*
X177924003Y-52014196D01*
X177894999Y-52037999D01*
X177858070Y-52082998D01*
X177800026Y-52153724D01*
X177729455Y-52285753D01*
X177729454Y-52285754D01*
X177685997Y-52429015D01*
X177675000Y-52540668D01*
X177675000Y-52540678D01*
X177671324Y-52578000D01*
X177417000Y-52578000D01*
X177417000Y-52130801D01*
X180216003Y-49331799D01*
X180245001Y-49308001D01*
X180291766Y-49251018D01*
X180339974Y-49192277D01*
X180410546Y-49060247D01*
X180414150Y-49048365D01*
X180454003Y-48916986D01*
X180465000Y-48805333D01*
X180465000Y-48805323D01*
X180468676Y-48768000D01*
X180465000Y-48730677D01*
X180465000Y-46654996D01*
X180559089Y-46654996D01*
X180739729Y-46619064D01*
X180909889Y-46548582D01*
X181063028Y-46446258D01*
X181193262Y-46316024D01*
X181295586Y-46162885D01*
X181366068Y-45992725D01*
X181402000Y-45812085D01*
X181402000Y-45627907D01*
X181366068Y-45447267D01*
X181295586Y-45277107D01*
X181193262Y-45123968D01*
X181063028Y-44993734D01*
X180909889Y-44891410D01*
X180739729Y-44820928D01*
X180559089Y-44784996D01*
X180374911Y-44784996D01*
X180194271Y-44820928D01*
X180024111Y-44891410D01*
X179906952Y-44969693D01*
X179893750Y-44970993D01*
X179750489Y-45014450D01*
X179618460Y-45085022D01*
X179502735Y-45179995D01*
X179478932Y-45208999D01*
X179194003Y-45493928D01*
X179164999Y-45517731D01*
X179109871Y-45584906D01*
X179070026Y-45633456D01*
X179045159Y-45679979D01*
X178999454Y-45765486D01*
X178955997Y-45908747D01*
X178945000Y-46020400D01*
X178945000Y-46020410D01*
X178941324Y-46057732D01*
X178945000Y-46095055D01*
X178945001Y-48453197D01*
X176146003Y-51252196D01*
X176116999Y-51275999D01*
X176079053Y-51322237D01*
X176022026Y-51391724D01*
X175979596Y-51471104D01*
X175951454Y-51523754D01*
X175907997Y-51667015D01*
X175897000Y-51778668D01*
X175897000Y-51778678D01*
X175893324Y-51816000D01*
X175897000Y-51853323D01*
X175897001Y-53279197D01*
X170050003Y-59126196D01*
X170020999Y-59149999D01*
X169979738Y-59200276D01*
X169926026Y-59265724D01*
X169864345Y-59381120D01*
X169855454Y-59397754D01*
X169811997Y-59541015D01*
X169801000Y-59652668D01*
X169801000Y-59652678D01*
X169797324Y-59690000D01*
X169801000Y-59727323D01*
X169801001Y-61661197D01*
X168780003Y-62682196D01*
X168750999Y-62705999D01*
X168713927Y-62751172D01*
X168656026Y-62821724D01*
X168613284Y-62901688D01*
X168585454Y-62953754D01*
X168541997Y-63097015D01*
X168531000Y-63208668D01*
X168531000Y-63208678D01*
X168527324Y-63246000D01*
X168531000Y-63283323D01*
X168531000Y-63326990D01*
X168436911Y-63326990D01*
X168256271Y-63362922D01*
X168086111Y-63433404D01*
X167932972Y-63535728D01*
X167832426Y-63636274D01*
X167785729Y-63616932D01*
X167605089Y-63581000D01*
X167420911Y-63581000D01*
X167240271Y-63616932D01*
X167070111Y-63687414D01*
X166967465Y-63756000D01*
X164529762Y-63756000D01*
X164492439Y-63752324D01*
X164455116Y-63756000D01*
X164455107Y-63756000D01*
X164343454Y-63766997D01*
X164200193Y-63810454D01*
X164068164Y-63881026D01*
X164068162Y-63881027D01*
X164068163Y-63881027D01*
X163981436Y-63952201D01*
X163981432Y-63952205D01*
X163952439Y-63975999D01*
X163928645Y-64004992D01*
X162653639Y-65280000D01*
X161979606Y-65280000D01*
X158664606Y-61965000D01*
X165129928Y-61965000D01*
X165142188Y-62089482D01*
X165178498Y-62209180D01*
X165237463Y-62319494D01*
X165316815Y-62416185D01*
X165413506Y-62495537D01*
X165523820Y-62554502D01*
X165643518Y-62590812D01*
X165768000Y-62603072D01*
X165957250Y-62600000D01*
X166116000Y-62441250D01*
X166116000Y-61567000D01*
X166370000Y-61567000D01*
X166370000Y-62441250D01*
X166528750Y-62600000D01*
X166718000Y-62603072D01*
X166842482Y-62590812D01*
X166962180Y-62554502D01*
X167072494Y-62495537D01*
X167169185Y-62416185D01*
X167248537Y-62319494D01*
X167307502Y-62209180D01*
X167343812Y-62089482D01*
X167356072Y-61965000D01*
X167353000Y-61725750D01*
X167194250Y-61567000D01*
X166370000Y-61567000D01*
X166116000Y-61567000D01*
X165291750Y-61567000D01*
X165133000Y-61725750D01*
X165129928Y-61965000D01*
X158664606Y-61965000D01*
X157119349Y-60419743D01*
X157322379Y-60216712D01*
X157349475Y-60194475D01*
X157438200Y-60086363D01*
X157504128Y-59963020D01*
X157544727Y-59829184D01*
X157555000Y-59724877D01*
X157555000Y-59724875D01*
X157558435Y-59690000D01*
X157555000Y-59655125D01*
X157555000Y-59191000D01*
X162443928Y-59191000D01*
X162443928Y-60116000D01*
X162460992Y-60289254D01*
X162511528Y-60455850D01*
X162593595Y-60609386D01*
X162704038Y-60743962D01*
X162838614Y-60854405D01*
X162992150Y-60936472D01*
X163158746Y-60987008D01*
X163332000Y-61004072D01*
X164582000Y-61004072D01*
X164755254Y-60987008D01*
X164921850Y-60936472D01*
X165075386Y-60854405D01*
X165141217Y-60800379D01*
X165129928Y-60915000D01*
X165133000Y-61154250D01*
X165291750Y-61313000D01*
X166116000Y-61313000D01*
X166116000Y-61293000D01*
X166370000Y-61293000D01*
X166370000Y-61313000D01*
X167194250Y-61313000D01*
X167353000Y-61154250D01*
X167356072Y-60915000D01*
X167343812Y-60790518D01*
X167307502Y-60670820D01*
X167248537Y-60560506D01*
X167219523Y-60525152D01*
X167259000Y-60529040D01*
X167300018Y-60525000D01*
X167300019Y-60525000D01*
X167422689Y-60512918D01*
X167580087Y-60465172D01*
X167725146Y-60387636D01*
X167852291Y-60283291D01*
X167878446Y-60251421D01*
X168836426Y-59293442D01*
X168868291Y-59267291D01*
X168972636Y-59140146D01*
X169050172Y-58995087D01*
X169070963Y-58926549D01*
X169179494Y-58868537D01*
X169276185Y-58789185D01*
X169355537Y-58692494D01*
X169414502Y-58582180D01*
X169450812Y-58462482D01*
X169463072Y-58338000D01*
X169463072Y-57985000D01*
X170551982Y-57985000D01*
X170593000Y-57989040D01*
X170634018Y-57985000D01*
X170634019Y-57985000D01*
X170756689Y-57972918D01*
X170914087Y-57925172D01*
X171059146Y-57847636D01*
X171186291Y-57743291D01*
X171212446Y-57711421D01*
X175186428Y-53737440D01*
X175218291Y-53711291D01*
X175322636Y-53584146D01*
X175400172Y-53439087D01*
X175447918Y-53281689D01*
X175460000Y-53159019D01*
X175460000Y-53159018D01*
X175464040Y-53118001D01*
X175460000Y-53076982D01*
X175460000Y-51653867D01*
X176305775Y-50808092D01*
X176450898Y-50779226D01*
X176639256Y-50701205D01*
X176808774Y-50587937D01*
X176952937Y-50443774D01*
X177066205Y-50274256D01*
X177144226Y-50085898D01*
X177184000Y-49885939D01*
X177184000Y-49682061D01*
X177144226Y-49482102D01*
X177066205Y-49293744D01*
X176952937Y-49124226D01*
X176808774Y-48980063D01*
X176639256Y-48866795D01*
X176450898Y-48788774D01*
X176250939Y-48749000D01*
X176047061Y-48749000D01*
X175847102Y-48788774D01*
X175658744Y-48866795D01*
X175489226Y-48980063D01*
X175345063Y-49124226D01*
X175231795Y-49293744D01*
X175153774Y-49482102D01*
X175124908Y-49627225D01*
X174063574Y-50688559D01*
X174031710Y-50714709D01*
X173971492Y-50788085D01*
X173927364Y-50841855D01*
X173849828Y-50986914D01*
X173802082Y-51144312D01*
X173785960Y-51308000D01*
X173790001Y-51349028D01*
X173790000Y-52772132D01*
X170247133Y-56315000D01*
X168954007Y-56315000D01*
X168912999Y-56310961D01*
X168871991Y-56315000D01*
X168871981Y-56315000D01*
X168749311Y-56327082D01*
X168591913Y-56374828D01*
X168446854Y-56452364D01*
X168319709Y-56556709D01*
X168293561Y-56588571D01*
X168282204Y-56599928D01*
X167725000Y-56599928D01*
X167600518Y-56612188D01*
X167480820Y-56648498D01*
X167370506Y-56707463D01*
X167273815Y-56786815D01*
X167194463Y-56883506D01*
X167135498Y-56993820D01*
X167099188Y-57113518D01*
X167086928Y-57238000D01*
X167086928Y-58338000D01*
X167099188Y-58462482D01*
X167135498Y-58582180D01*
X167153073Y-58615060D01*
X167036533Y-58731600D01*
X166966942Y-58674488D01*
X166815567Y-58593577D01*
X166651316Y-58543752D01*
X166480500Y-58526928D01*
X166005500Y-58526928D01*
X165834684Y-58543752D01*
X165670433Y-58593577D01*
X165519058Y-58674488D01*
X165386377Y-58783377D01*
X165374186Y-58798231D01*
X165320405Y-58697614D01*
X165209962Y-58563038D01*
X165075386Y-58452595D01*
X164921850Y-58370528D01*
X164755254Y-58319992D01*
X164582000Y-58302928D01*
X163332000Y-58302928D01*
X163158746Y-58319992D01*
X162992150Y-58370528D01*
X162838614Y-58452595D01*
X162704038Y-58563038D01*
X162593595Y-58697614D01*
X162511528Y-58851150D01*
X162460992Y-59017746D01*
X162443928Y-59191000D01*
X157555000Y-59191000D01*
X157555000Y-55433857D01*
X157575290Y-55450509D01*
X157763780Y-55551259D01*
X157968303Y-55613300D01*
X158127706Y-55629000D01*
X159034294Y-55629000D01*
X159193697Y-55613300D01*
X159398220Y-55551259D01*
X159586710Y-55450509D01*
X159751922Y-55314922D01*
X159760886Y-55304000D01*
X160431114Y-55304000D01*
X160440078Y-55314922D01*
X160605290Y-55450509D01*
X160793780Y-55551259D01*
X160998303Y-55613300D01*
X161157706Y-55629000D01*
X162670422Y-55629000D01*
X162593595Y-55722614D01*
X162511528Y-55876150D01*
X162460992Y-56042746D01*
X162443928Y-56216000D01*
X162443928Y-57141000D01*
X162460992Y-57314254D01*
X162511528Y-57480850D01*
X162593595Y-57634386D01*
X162704038Y-57768962D01*
X162838614Y-57879405D01*
X162992150Y-57961472D01*
X163158746Y-58012008D01*
X163332000Y-58029072D01*
X164582000Y-58029072D01*
X164755254Y-58012008D01*
X164921850Y-57961472D01*
X165075386Y-57879405D01*
X165209962Y-57768962D01*
X165320405Y-57634386D01*
X165402472Y-57480850D01*
X165453008Y-57314254D01*
X165470072Y-57141000D01*
X165470072Y-56216000D01*
X165453008Y-56042746D01*
X165402472Y-55876150D01*
X165320405Y-55722614D01*
X165209962Y-55588038D01*
X165075386Y-55477595D01*
X164921850Y-55395528D01*
X164792000Y-55356139D01*
X164792000Y-52906044D01*
X164796040Y-52865025D01*
X164779918Y-52701337D01*
X164732172Y-52543939D01*
X164654636Y-52398880D01*
X164642052Y-52383546D01*
X164550291Y-52271735D01*
X164518422Y-52245581D01*
X164055420Y-51782579D01*
X164029265Y-51750709D01*
X163913184Y-51655444D01*
X163917022Y-51636148D01*
X163952855Y-51650990D01*
X164123835Y-51685000D01*
X164298165Y-51685000D01*
X164469145Y-51650990D01*
X164630205Y-51584277D01*
X164775155Y-51487424D01*
X164898424Y-51364155D01*
X164990069Y-51227000D01*
X166594553Y-51227000D01*
X167253745Y-51886193D01*
X167276761Y-51914238D01*
X167388679Y-52006087D01*
X167516366Y-52074337D01*
X167654914Y-52116365D01*
X167713900Y-52122175D01*
X167723188Y-52216482D01*
X167759498Y-52336180D01*
X167818463Y-52446494D01*
X167897815Y-52543185D01*
X167994506Y-52622537D01*
X168104820Y-52681502D01*
X168224518Y-52717812D01*
X168349000Y-52730072D01*
X169349000Y-52730072D01*
X169473482Y-52717812D01*
X169593180Y-52681502D01*
X169659000Y-52646320D01*
X169724820Y-52681502D01*
X169844518Y-52717812D01*
X169969000Y-52730072D01*
X170283250Y-52727000D01*
X170442000Y-52568250D01*
X170442000Y-51519000D01*
X170422000Y-51519000D01*
X170422000Y-51265000D01*
X170442000Y-51265000D01*
X170442000Y-51245000D01*
X170696000Y-51245000D01*
X170696000Y-51265000D01*
X170716000Y-51265000D01*
X170716000Y-51519000D01*
X170696000Y-51519000D01*
X170696000Y-52568250D01*
X170804941Y-52677191D01*
X169518225Y-53963907D01*
X169373102Y-53992774D01*
X169304422Y-54021222D01*
X169276185Y-53986815D01*
X169179494Y-53907463D01*
X169069180Y-53848498D01*
X168949482Y-53812188D01*
X168825000Y-53799928D01*
X167725000Y-53799928D01*
X167600518Y-53812188D01*
X167480820Y-53848498D01*
X167370506Y-53907463D01*
X167273815Y-53986815D01*
X167194463Y-54083506D01*
X167135498Y-54193820D01*
X167099188Y-54313518D01*
X167086928Y-54438000D01*
X167086928Y-55538000D01*
X167099188Y-55662482D01*
X167135498Y-55782180D01*
X167194463Y-55892494D01*
X167273815Y-55989185D01*
X167370506Y-56068537D01*
X167480820Y-56127502D01*
X167600518Y-56163812D01*
X167725000Y-56176072D01*
X168825000Y-56176072D01*
X168949482Y-56163812D01*
X169069180Y-56127502D01*
X169179494Y-56068537D01*
X169276185Y-55989185D01*
X169304422Y-55954778D01*
X169373102Y-55983226D01*
X169573061Y-56023000D01*
X169776939Y-56023000D01*
X169976898Y-55983226D01*
X170165256Y-55905205D01*
X170334774Y-55791937D01*
X170478937Y-55647774D01*
X170592205Y-55478256D01*
X170670226Y-55289898D01*
X170699093Y-55144775D01*
X172392428Y-53451440D01*
X172424291Y-53425291D01*
X172528636Y-53298146D01*
X172606172Y-53153087D01*
X172653918Y-52995689D01*
X172666000Y-52873019D01*
X172666000Y-52873009D01*
X172670039Y-52832001D01*
X172666000Y-52790993D01*
X172666000Y-50333018D01*
X172670040Y-50291999D01*
X172653918Y-50128311D01*
X172606172Y-49970913D01*
X172528636Y-49825854D01*
X172494287Y-49784000D01*
X172424291Y-49698709D01*
X172392426Y-49672558D01*
X171887072Y-49167204D01*
X171887072Y-48492000D01*
X171874812Y-48367518D01*
X171838502Y-48247820D01*
X171816050Y-48205817D01*
X173212868Y-46809000D01*
X174583982Y-46809000D01*
X174625000Y-46813040D01*
X174666018Y-46809000D01*
X174666019Y-46809000D01*
X174788689Y-46796918D01*
X174946087Y-46749172D01*
X175091146Y-46671636D01*
X175218291Y-46567291D01*
X175244446Y-46535421D01*
X175329993Y-46449874D01*
X176803603Y-46449874D01*
X176803603Y-46674380D01*
X176970606Y-46845728D01*
X177067297Y-46925081D01*
X177177612Y-46984045D01*
X177297310Y-47020354D01*
X177421791Y-47032615D01*
X177546273Y-47020354D01*
X177665971Y-46984045D01*
X177776285Y-46925081D01*
X177872976Y-46845728D01*
X178004624Y-46709736D01*
X178004624Y-46485229D01*
X177386436Y-45867041D01*
X176803603Y-46449874D01*
X175329993Y-46449874D01*
X176049016Y-45730852D01*
X176053518Y-45776562D01*
X176089827Y-45896260D01*
X176148791Y-46006575D01*
X176228144Y-46103266D01*
X176399492Y-46270269D01*
X176623998Y-46270269D01*
X177206831Y-45687436D01*
X177566041Y-45687436D01*
X178184229Y-46305624D01*
X178408736Y-46305624D01*
X178544728Y-46173976D01*
X178624081Y-46077285D01*
X178683045Y-45966971D01*
X178719354Y-45847273D01*
X178731615Y-45722791D01*
X178719354Y-45598310D01*
X178683045Y-45478612D01*
X178624081Y-45368297D01*
X178544728Y-45271606D01*
X178373380Y-45104603D01*
X178148874Y-45104603D01*
X177566041Y-45687436D01*
X177206831Y-45687436D01*
X177192689Y-45673294D01*
X177372294Y-45493689D01*
X177386436Y-45507831D01*
X177969269Y-44924998D01*
X177969269Y-44700492D01*
X177802266Y-44529144D01*
X177705575Y-44449791D01*
X177595260Y-44390827D01*
X177475562Y-44354518D01*
X177429853Y-44350016D01*
X178018869Y-43761000D01*
X180425982Y-43761000D01*
X180467000Y-43765040D01*
X180508018Y-43761000D01*
X180508019Y-43761000D01*
X180630689Y-43748918D01*
X180788087Y-43701172D01*
X180933146Y-43623636D01*
X181060291Y-43519291D01*
X181086446Y-43487421D01*
X181639775Y-42934093D01*
X181784898Y-42905226D01*
X181973256Y-42827205D01*
X182142774Y-42713937D01*
X182286937Y-42569774D01*
X182400205Y-42400256D01*
X182478226Y-42211898D01*
X182518000Y-42011939D01*
X182518000Y-41808061D01*
X182478226Y-41608102D01*
X182400205Y-41419744D01*
X182286937Y-41250226D01*
X182142774Y-41106063D01*
X181973256Y-40992795D01*
X181784898Y-40914774D01*
X181584939Y-40875000D01*
X181381061Y-40875000D01*
X181181102Y-40914774D01*
X180992744Y-40992795D01*
X180823226Y-41106063D01*
X180679063Y-41250226D01*
X180565795Y-41419744D01*
X180487774Y-41608102D01*
X180458907Y-41753225D01*
X180121133Y-42091000D01*
X177714018Y-42091000D01*
X177673000Y-42086960D01*
X177509311Y-42103082D01*
X177351913Y-42150828D01*
X177206854Y-42228364D01*
X177111812Y-42306363D01*
X177079709Y-42332709D01*
X177053563Y-42364568D01*
X176205853Y-43212279D01*
X176113645Y-43203197D01*
X175942829Y-43220021D01*
X175778578Y-43269846D01*
X175627203Y-43350757D01*
X175494522Y-43459646D01*
X175158646Y-43795522D01*
X175049757Y-43928203D01*
X174968846Y-44079578D01*
X174919021Y-44243829D01*
X174902197Y-44414645D01*
X174911279Y-44506854D01*
X174279133Y-45139000D01*
X172908007Y-45139000D01*
X172866999Y-45134961D01*
X172825991Y-45139000D01*
X172825981Y-45139000D01*
X172703311Y-45151082D01*
X172545913Y-45198828D01*
X172400854Y-45276364D01*
X172273709Y-45380709D01*
X172247561Y-45412571D01*
X170187574Y-47472559D01*
X170155710Y-47498709D01*
X170109711Y-47554759D01*
X170051364Y-47625855D01*
X169973828Y-47770914D01*
X169926082Y-47928312D01*
X169924390Y-47945489D01*
X169894506Y-47961463D01*
X169799000Y-48039842D01*
X169703494Y-47961463D01*
X169593180Y-47902498D01*
X169473482Y-47866188D01*
X169349000Y-47853928D01*
X168349000Y-47853928D01*
X168224518Y-47866188D01*
X168104820Y-47902498D01*
X167994506Y-47961463D01*
X167897815Y-48040815D01*
X167818463Y-48137506D01*
X167759498Y-48247820D01*
X167723188Y-48367518D01*
X167713900Y-48461825D01*
X167654914Y-48467635D01*
X167516366Y-48509663D01*
X167388679Y-48577913D01*
X167276761Y-48669762D01*
X167253745Y-48697807D01*
X166594553Y-49357000D01*
X165578442Y-49357000D01*
X165611990Y-49276008D01*
X165630960Y-49180641D01*
X165669087Y-49134183D01*
X165737337Y-49006496D01*
X165779365Y-48867948D01*
X165790000Y-48759968D01*
X165793556Y-48723863D01*
X165790000Y-48687758D01*
X165790000Y-48003290D01*
X167138291Y-46655000D01*
X169337739Y-46655000D01*
X169373844Y-46658556D01*
X169409949Y-46655000D01*
X169517929Y-46644365D01*
X169656477Y-46602337D01*
X169784164Y-46534087D01*
X169896082Y-46442238D01*
X169919102Y-46414188D01*
X170549193Y-45784098D01*
X170577238Y-45761082D01*
X170669087Y-45649164D01*
X170737337Y-45521477D01*
X170774865Y-45397763D01*
X170779365Y-45382930D01*
X170793556Y-45238845D01*
X170790000Y-45202740D01*
X170790000Y-44450301D01*
X170794087Y-44445321D01*
X170852749Y-44335572D01*
X171030000Y-44335572D01*
X171154482Y-44323312D01*
X171157120Y-44322512D01*
X171248250Y-44332500D01*
X171316218Y-44264532D01*
X171384494Y-44228037D01*
X171481185Y-44148685D01*
X171553000Y-44061178D01*
X171553000Y-44173750D01*
X171711750Y-44332500D01*
X171814474Y-44321241D01*
X171933576Y-44283021D01*
X172034610Y-44226921D01*
X172035799Y-44227716D01*
X172283303Y-44330236D01*
X172546052Y-44382500D01*
X172813948Y-44382500D01*
X173076697Y-44330236D01*
X173324201Y-44227716D01*
X173546949Y-44078881D01*
X173736381Y-43889449D01*
X173885216Y-43666701D01*
X173987736Y-43419197D01*
X174040000Y-43156448D01*
X174040000Y-42888552D01*
X174014906Y-42762396D01*
X174191004Y-42586298D01*
X174220001Y-42562501D01*
X174314974Y-42446776D01*
X174385546Y-42314747D01*
X174429003Y-42171486D01*
X174440000Y-42059833D01*
X174440000Y-42059832D01*
X174443677Y-42022500D01*
X174440000Y-41985167D01*
X174440000Y-41646433D01*
X174557502Y-41550002D01*
X174711833Y-41361949D01*
X174826511Y-41147401D01*
X174897130Y-40914601D01*
X174915000Y-40733164D01*
X174915000Y-39911835D01*
X174897130Y-39730398D01*
X174826511Y-39497599D01*
X174798396Y-39445000D01*
X201635909Y-39445000D01*
X203760000Y-41569092D01*
G36*
X165533489Y-39497599D02*
G01*
X165513801Y-39562500D01*
X165214823Y-39562500D01*
X165177500Y-39558824D01*
X165140177Y-39562500D01*
X165140167Y-39562500D01*
X165028514Y-39573497D01*
X164885253Y-39616954D01*
X164883431Y-39617928D01*
X164481500Y-39617928D01*
X164310684Y-39634752D01*
X164146433Y-39684577D01*
X163995058Y-39765488D01*
X163862377Y-39874377D01*
X163753488Y-40007058D01*
X163672577Y-40158433D01*
X163622752Y-40322684D01*
X163605928Y-40493500D01*
X163605928Y-41068500D01*
X163622752Y-41239316D01*
X163672577Y-41403567D01*
X163753488Y-41554942D01*
X163773099Y-41578839D01*
X163713463Y-41651506D01*
X163654498Y-41761820D01*
X163618188Y-41881518D01*
X163605928Y-42006000D01*
X163609000Y-42245250D01*
X163767750Y-42404000D01*
X164592000Y-42404000D01*
X164592000Y-42384000D01*
X164846000Y-42384000D01*
X164846000Y-42404000D01*
X165670250Y-42404000D01*
X165829000Y-42245250D01*
X165832072Y-42006000D01*
X165819812Y-41881518D01*
X165783502Y-41761820D01*
X165724537Y-41651506D01*
X165664901Y-41578839D01*
X165684512Y-41554942D01*
X165732647Y-41464888D01*
X165802498Y-41550002D01*
X165920000Y-41646434D01*
X165920000Y-41985177D01*
X165916324Y-42022500D01*
X165920000Y-42059822D01*
X165920000Y-42059832D01*
X165930997Y-42171485D01*
X165969415Y-42298135D01*
X165974454Y-42314746D01*
X166045026Y-42446776D01*
X166066100Y-42472454D01*
X166139999Y-42562501D01*
X166169002Y-42586304D01*
X166345094Y-42762395D01*
X166320000Y-42888552D01*
X166320000Y-43156448D01*
X166372264Y-43419197D01*
X166474784Y-43666701D01*
X166609955Y-43869000D01*
X166538007Y-43869000D01*
X166496999Y-43864961D01*
X166455991Y-43869000D01*
X166455981Y-43869000D01*
X166333311Y-43881082D01*
X166175913Y-43928828D01*
X166030854Y-44006364D01*
X165903709Y-44110709D01*
X165877561Y-44142571D01*
X163722329Y-46297804D01*
X163780300Y-46106697D01*
X163801249Y-45894000D01*
X163780300Y-45681303D01*
X163718259Y-45476780D01*
X163617509Y-45288290D01*
X163481922Y-45123078D01*
X163316710Y-44987491D01*
X163128220Y-44886741D01*
X162923697Y-44824700D01*
X162764294Y-44809000D01*
X161157706Y-44809000D01*
X160998303Y-44824700D01*
X160793780Y-44886741D01*
X160605290Y-44987491D01*
X160440078Y-45123078D01*
X160304491Y-45288290D01*
X160203741Y-45476780D01*
X160141700Y-45681303D01*
X160120751Y-45894000D01*
X160141700Y-46106697D01*
X160203741Y-46311220D01*
X160304491Y-46499710D01*
X160440078Y-46664922D01*
X160605290Y-46800509D01*
X160689973Y-46845773D01*
X160646411Y-46948384D01*
X160606890Y-47138344D01*
X160605187Y-47332364D01*
X160641368Y-47522989D01*
X160700615Y-47669651D01*
X160643853Y-47806686D01*
X160606000Y-47996986D01*
X160606000Y-48191014D01*
X160643853Y-48381314D01*
X160700884Y-48519000D01*
X160643853Y-48656686D01*
X160606000Y-48846986D01*
X160606000Y-49041014D01*
X160643853Y-49231314D01*
X160700884Y-49369000D01*
X160643853Y-49506686D01*
X160606000Y-49696986D01*
X160606000Y-49891014D01*
X160643853Y-50081314D01*
X160700884Y-50219000D01*
X160643853Y-50356686D01*
X160606000Y-50546986D01*
X160606000Y-50741014D01*
X160606162Y-50741831D01*
X160574014Y-50744997D01*
X160430753Y-50788454D01*
X160298724Y-50859026D01*
X160182999Y-50953999D01*
X160159201Y-50982997D01*
X159128002Y-52014196D01*
X159098999Y-52037999D01*
X159062070Y-52082998D01*
X159004026Y-52153724D01*
X158933455Y-52285753D01*
X158933454Y-52285754D01*
X158889997Y-52429015D01*
X158879000Y-52540668D01*
X158879000Y-52540678D01*
X158875324Y-52578000D01*
X158879000Y-52615322D01*
X158879000Y-52794465D01*
X158810414Y-52897111D01*
X158739932Y-53067271D01*
X158704000Y-53247911D01*
X158704000Y-53432089D01*
X158709353Y-53459000D01*
X158127706Y-53459000D01*
X157968303Y-53474700D01*
X157763780Y-53536741D01*
X157575290Y-53637491D01*
X157555000Y-53654143D01*
X157555000Y-46783857D01*
X157575290Y-46800509D01*
X157763780Y-46901259D01*
X157968303Y-46963300D01*
X158127706Y-46979000D01*
X159034294Y-46979000D01*
X159193697Y-46963300D01*
X159398220Y-46901259D01*
X159586710Y-46800509D01*
X159751922Y-46664922D01*
X159887509Y-46499710D01*
X159988259Y-46311220D01*
X160050300Y-46106697D01*
X160071249Y-45894000D01*
X160050300Y-45681303D01*
X159988259Y-45476780D01*
X159887509Y-45288290D01*
X159751922Y-45123078D01*
X159586710Y-44987491D01*
X159398220Y-44886741D01*
X159193697Y-44824700D01*
X159034294Y-44809000D01*
X158127706Y-44809000D01*
X157968303Y-44824700D01*
X157763780Y-44886741D01*
X157575290Y-44987491D01*
X157555000Y-45004143D01*
X157555000Y-43056000D01*
X163605928Y-43056000D01*
X163618188Y-43180482D01*
X163654498Y-43300180D01*
X163713463Y-43410494D01*
X163792815Y-43507185D01*
X163889506Y-43586537D01*
X163999820Y-43645502D01*
X164119518Y-43681812D01*
X164244000Y-43694072D01*
X164433250Y-43691000D01*
X164592000Y-43532250D01*
X164592000Y-42658000D01*
X164846000Y-42658000D01*
X164846000Y-43532250D01*
X165004750Y-43691000D01*
X165194000Y-43694072D01*
X165318482Y-43681812D01*
X165438180Y-43645502D01*
X165548494Y-43586537D01*
X165645185Y-43507185D01*
X165724537Y-43410494D01*
X165783502Y-43300180D01*
X165819812Y-43180482D01*
X165832072Y-43056000D01*
X165829000Y-42816750D01*
X165670250Y-42658000D01*
X164846000Y-42658000D01*
X164592000Y-42658000D01*
X163767750Y-42658000D01*
X163609000Y-42816750D01*
X163605928Y-43056000D01*
X157555000Y-43056000D01*
X157555000Y-42204091D01*
X160314092Y-39445000D01*
X165561604Y-39445000D01*
X165533489Y-39497599D01*
G37*
X165533489Y-39497599D02*
X165513801Y-39562500D01*
X165214823Y-39562500D01*
X165177500Y-39558824D01*
X165140177Y-39562500D01*
X165140167Y-39562500D01*
X165028514Y-39573497D01*
X164885253Y-39616954D01*
X164883431Y-39617928D01*
X164481500Y-39617928D01*
X164310684Y-39634752D01*
X164146433Y-39684577D01*
X163995058Y-39765488D01*
X163862377Y-39874377D01*
X163753488Y-40007058D01*
X163672577Y-40158433D01*
X163622752Y-40322684D01*
X163605928Y-40493500D01*
X163605928Y-41068500D01*
X163622752Y-41239316D01*
X163672577Y-41403567D01*
X163753488Y-41554942D01*
X163773099Y-41578839D01*
X163713463Y-41651506D01*
X163654498Y-41761820D01*
X163618188Y-41881518D01*
X163605928Y-42006000D01*
X163609000Y-42245250D01*
X163767750Y-42404000D01*
X164592000Y-42404000D01*
X164592000Y-42384000D01*
X164846000Y-42384000D01*
X164846000Y-42404000D01*
X165670250Y-42404000D01*
X165829000Y-42245250D01*
X165832072Y-42006000D01*
X165819812Y-41881518D01*
X165783502Y-41761820D01*
X165724537Y-41651506D01*
X165664901Y-41578839D01*
X165684512Y-41554942D01*
X165732647Y-41464888D01*
X165802498Y-41550002D01*
X165920000Y-41646434D01*
X165920000Y-41985177D01*
X165916324Y-42022500D01*
X165920000Y-42059822D01*
X165920000Y-42059832D01*
X165930997Y-42171485D01*
X165969415Y-42298135D01*
X165974454Y-42314746D01*
X166045026Y-42446776D01*
X166066100Y-42472454D01*
X166139999Y-42562501D01*
X166169002Y-42586304D01*
X166345094Y-42762395D01*
X166320000Y-42888552D01*
X166320000Y-43156448D01*
X166372264Y-43419197D01*
X166474784Y-43666701D01*
X166609955Y-43869000D01*
X166538007Y-43869000D01*
X166496999Y-43864961D01*
X166455991Y-43869000D01*
X166455981Y-43869000D01*
X166333311Y-43881082D01*
X166175913Y-43928828D01*
X166030854Y-44006364D01*
X165903709Y-44110709D01*
X165877561Y-44142571D01*
X163722329Y-46297804D01*
X163780300Y-46106697D01*
X163801249Y-45894000D01*
X163780300Y-45681303D01*
X163718259Y-45476780D01*
X163617509Y-45288290D01*
X163481922Y-45123078D01*
X163316710Y-44987491D01*
X163128220Y-44886741D01*
X162923697Y-44824700D01*
X162764294Y-44809000D01*
X161157706Y-44809000D01*
X160998303Y-44824700D01*
X160793780Y-44886741D01*
X160605290Y-44987491D01*
X160440078Y-45123078D01*
X160304491Y-45288290D01*
X160203741Y-45476780D01*
X160141700Y-45681303D01*
X160120751Y-45894000D01*
X160141700Y-46106697D01*
X160203741Y-46311220D01*
X160304491Y-46499710D01*
X160440078Y-46664922D01*
X160605290Y-46800509D01*
X160689973Y-46845773D01*
X160646411Y-46948384D01*
X160606890Y-47138344D01*
X160605187Y-47332364D01*
X160641368Y-47522989D01*
X160700615Y-47669651D01*
X160643853Y-47806686D01*
X160606000Y-47996986D01*
X160606000Y-48191014D01*
X160643853Y-48381314D01*
X160700884Y-48519000D01*
X160643853Y-48656686D01*
X160606000Y-48846986D01*
X160606000Y-49041014D01*
X160643853Y-49231314D01*
X160700884Y-49369000D01*
X160643853Y-49506686D01*
X160606000Y-49696986D01*
X160606000Y-49891014D01*
X160643853Y-50081314D01*
X160700884Y-50219000D01*
X160643853Y-50356686D01*
X160606000Y-50546986D01*
X160606000Y-50741014D01*
X160606162Y-50741831D01*
X160574014Y-50744997D01*
X160430753Y-50788454D01*
X160298724Y-50859026D01*
X160182999Y-50953999D01*
X160159201Y-50982997D01*
X159128002Y-52014196D01*
X159098999Y-52037999D01*
X159062070Y-52082998D01*
X159004026Y-52153724D01*
X158933455Y-52285753D01*
X158933454Y-52285754D01*
X158889997Y-52429015D01*
X158879000Y-52540668D01*
X158879000Y-52540678D01*
X158875324Y-52578000D01*
X158879000Y-52615322D01*
X158879000Y-52794465D01*
X158810414Y-52897111D01*
X158739932Y-53067271D01*
X158704000Y-53247911D01*
X158704000Y-53432089D01*
X158709353Y-53459000D01*
X158127706Y-53459000D01*
X157968303Y-53474700D01*
X157763780Y-53536741D01*
X157575290Y-53637491D01*
X157555000Y-53654143D01*
X157555000Y-46783857D01*
X157575290Y-46800509D01*
X157763780Y-46901259D01*
X157968303Y-46963300D01*
X158127706Y-46979000D01*
X159034294Y-46979000D01*
X159193697Y-46963300D01*
X159398220Y-46901259D01*
X159586710Y-46800509D01*
X159751922Y-46664922D01*
X159887509Y-46499710D01*
X159988259Y-46311220D01*
X160050300Y-46106697D01*
X160071249Y-45894000D01*
X160050300Y-45681303D01*
X159988259Y-45476780D01*
X159887509Y-45288290D01*
X159751922Y-45123078D01*
X159586710Y-44987491D01*
X159398220Y-44886741D01*
X159193697Y-44824700D01*
X159034294Y-44809000D01*
X158127706Y-44809000D01*
X157968303Y-44824700D01*
X157763780Y-44886741D01*
X157575290Y-44987491D01*
X157555000Y-45004143D01*
X157555000Y-43056000D01*
X163605928Y-43056000D01*
X163618188Y-43180482D01*
X163654498Y-43300180D01*
X163713463Y-43410494D01*
X163792815Y-43507185D01*
X163889506Y-43586537D01*
X163999820Y-43645502D01*
X164119518Y-43681812D01*
X164244000Y-43694072D01*
X164433250Y-43691000D01*
X164592000Y-43532250D01*
X164592000Y-42658000D01*
X164846000Y-42658000D01*
X164846000Y-43532250D01*
X165004750Y-43691000D01*
X165194000Y-43694072D01*
X165318482Y-43681812D01*
X165438180Y-43645502D01*
X165548494Y-43586537D01*
X165645185Y-43507185D01*
X165724537Y-43410494D01*
X165783502Y-43300180D01*
X165819812Y-43180482D01*
X165832072Y-43056000D01*
X165829000Y-42816750D01*
X165670250Y-42658000D01*
X164846000Y-42658000D01*
X164592000Y-42658000D01*
X163767750Y-42658000D01*
X163609000Y-42816750D01*
X163605928Y-43056000D01*
X157555000Y-43056000D01*
X157555000Y-42204091D01*
X160314092Y-39445000D01*
X165561604Y-39445000D01*
X165533489Y-39497599D01*
M02*
